<?xml version="1.0" encoding="UTF-8"?>
<svg width="68.617" height="68.617" viewBox="0 0 68.61676 69.050522" xmlns="http://www.w3.org/2000/svg">
 <defs>
  <filter id="a">
   <feGaussianBlur stdDeviation=".71749"/>
  </filter>
 </defs>
 <g transform="translate(-120.14 -411.36)">
  <path transform="matrix(2.5632 0 0 2.5632 -89.544 -656.93)" d="m100.92 420.23 0.83371 1.9422 2.0919 0.3023 0.19273 2.1048 1.896 0.93393-0.46711 2.0613 1.5147 1.4741-1.0812 1.8161 0.98499 1.87-1.5895 1.3931 0.35891 2.0829-1.9422 0.83371-0.3023 2.0919-2.1048 0.19273-0.93393 1.896-2.0613-0.46711-1.4741 1.5147-1.8161-1.0812-1.87 0.98499-1.3931-1.5895-2.0829 0.35891-0.83371-1.9422-2.0919-0.3023-0.19273-2.1048-1.8961-0.93393 0.46712-2.0613-1.5147-1.4741 1.0812-1.8161-0.98499-1.87 1.5895-1.3931-0.35891-2.0829 1.9422-0.83371 0.3023-2.0918 2.1048-0.19273 0.93393-1.8961 2.0613 0.46712 1.4741-1.5147 1.8161 1.0812 1.87-0.985 1.3931 1.5895 2.0829-0.35891z" fill="#005c88" filter="url(#a)" opacity=".87719"/>
  <path transform="matrix(2.5632 0 0 2.5632 -89.808 -657.98)" d="m100.92 420.23 0.83371 1.9422 2.0919 0.3023 0.19273 2.1048 1.896 0.93393-0.46711 2.0613 1.5147 1.4741-1.0812 1.8161 0.98499 1.87-1.5895 1.3931 0.35891 2.0829-1.9422 0.83371-0.3023 2.0919-2.1048 0.19273-0.93393 1.896-2.0613-0.46711-1.4741 1.5147-1.8161-1.0812-1.87 0.98499-1.3931-1.5895-2.0829 0.35891-0.83371-1.9422-2.0919-0.3023-0.19273-2.1048-1.8961-0.93393 0.46712-2.0613-1.5147-1.4741 1.0812-1.8161-0.98499-1.87 1.5895-1.3931-0.35891-2.0829 1.9422-0.83371 0.3023-2.0918 2.1048-0.19273 0.93393-1.8961 2.0613 0.46712 1.4741-1.5147 1.8161 1.0812 1.87-0.985 1.3931 1.5895 2.0829-0.35891z" fill="#0085c4" stroke="#fff" stroke-width=".52229"/>
  <path d="m150.51 415.76-3.793 3.8767-5.2712-1.1993-2.3985 4.8528-5.3827 0.50202-0.78092 5.3548-4.9923 2.1475 0.92036 5.327-0.13945 0.13945c25.87-10.503 26.418 13.202 53.688 8.4506l2.036-3.4583-3.8767-3.7651 1.1993-5.2991-4.8528-2.3985-0.50201-5.3827-5.3549-0.78091-2.1475-4.9644-5.327 0.92037-3.5978-4.0998-4.7692 2.538-4.6576-2.7611z" fill="#fff" opacity=".20175"/>
 </g>
</svg>
