<svg xmlns="http://www.w3.org/2000/svg" viewBox="0 0 318.91 375.17">
 <defs>
  <radialGradient id="a">
   <stop stop-color="#d4aaff" offset="0"/>
   <stop stop-color="#3f007f" stop-opacity=".996" offset="1"/>
  </radialGradient>
 </defs>
 <path d="m116.43 123.73l-25.696-2.171 19.181-96.63 11.039 1.628s-0.182 21.172-0.182 26.058-2.533 23.886-3.076 30.22c-0.543 6.333-1.086 22.8-1.448 26.6-0.361 3.799 0.182 14.295 0.182 14.295z" fill="url(#a)" stroke="#000"/>
 <path d="m31.959 154.86s-10.232 45.237-12.387 52.775c-2.154 7.54-4.847 17.232-4.309 22.079 0.539 4.848-13.462 59.239-14.001 63.548s-1.078 15.618-0.539 20.464c0.539 4.847 4.847 49.007 5.924 52.237 1.078 3.232 9.155 8.078 12.387 8.617 3.23 0.53799 11.847-1.617 14.001-2.154 2.154-0.53799 55.469-0.539 75.933-1.078 20.465-0.53799 67.856-2.152 81.319-1.614s60.853 0 68.931 0 43.621 3.229 46.854 0.53802c3.23-2.692 7-15.617 7-15.617s4.309-17.771 4.847-23.695c0.53799-5.925 1.615-34.467-3.23-54.392-4.848-19.926-19.387-66.779-19.387-68.394s0.53699-14.002-2.694-22.081c-3.23-8.077-11.309-37.157-11.309-37.157s-87.243 1.078-118.48 3.231c-31.235 2.154-130.86 2.693-130.86 2.693h1e-5z" stroke="#000"/>
 <g stroke="#000">
  <path d="m279.18 141.76c-2.553-2.917 1.824-7.293-31.358-6.928-33.181 0.36499-48.86 2.552-64.904 1.823s-37.557-1.458-47.037-1.458-50.684-0.729-61.987 0-30.629 2.918-33.911 6.198c-3.281 3.282-4.74 7.294-0.364 9.481 4.375 2.188 14.221 6.562 14.221 6.562l218.05-6.562c-9.77e-4 0 9.845-6.199 7.291-9.116zm-12.396 5.834l-214.04 4.74s-10.21-4.74-8.751-6.564c1.458-1.822 2.188-6.197 30.265-6.197 28.076 0 70.009 0.364 72.926 0.364s65.268 0.364 77.667-0.729c12.396-1.094 47.767-1.458 48.496 2.188 0.728 3.645-6.564 6.198-6.564 6.198z"/>
  <path d="m224.85 139.21c-12.398 1.094-74.75 0.729-77.667 0.729s-44.85-0.364-72.926-0.364c-28.077 0-28.806 4.375-30.265 6.197-1.458 1.824 8.751 6.564 8.751 6.564l214.04-4.74s7.292-2.553 6.563-6.199c-0.728-3.644-36.099-3.28-48.495-2.187z"/>
 </g>
 <path d="m278.73 146.96s3.646 0.001999 2.188 2.919c-1.459 2.917-3.282 2.917-3.282 2.917l-243.94 5.834s-4.011-2.553-2.188-4.376c1.824-1.823 1.459-1.823 5.834-1.823 4.376 0 62.353 9.92e-4 98.451-1.458 36.097-1.459 68.551-4.013 85.323-4.013h57.612z" fill="#bfbfbf" stroke="#000"/>
 <g fill="#bfbfbf">
  <path d="m111.27 170.93c0-7.136-5.805-12.939-12.94-12.939-7.134 0-12.939 5.804-12.939 12.939s5.805 12.939 12.939 12.939c7.135 9.77e-4 12.94-5.804 12.94-12.939z" stroke="#231f20"/>
  <path d="m98.327 179.87c-4.929 0-8.939-4.01-8.939-8.939s4.01-8.939 8.939-8.939 8.94 4.01 8.94 8.939-4.011 8.939-8.94 8.939z"/>
 </g>
 <g fill="#bfbfbf">
  <path d="m233.42 168.75c0-7.135-5.804-12.939-12.938-12.939-7.136 0-12.94 5.805-12.94 12.939s5.805 12.939 12.94 12.939 12.938-5.805 12.938-12.939z" stroke="#231f20"/>
  <path d="m220.48 177.68c-4.931 0-8.94-4.01-8.94-8.939 0-4.931 4.01-8.939 8.94-8.939 4.928 0 8.938 4.009 8.938 8.939 0 4.929-4.01 8.939-8.938 8.939z"/>
 </g>
 <path d="m118.02 125.36c-0.364-4.011-5.47-4.011-5.47-4.011s-9.116-1.823-15.314-2.552c-6.199-0.729-16.773-0.365-18.232 0.365s-2.552 10.209-2.188 16.408c0.365 6.199 13.127 13.125 20.42 14.22 7.292 1.093 17.867-5.104 20.055-12.032s1.093-8.388 0.729-12.398zm-4.459 7.805c-0.471 4.592-5.77 13.07-15.189 12.01s-15.542-7.418-16.013-10.126 0-11.774 0.824-11.892c0.825-0.118 30.261 3.65 30.261 3.65s0.588 1.766 0.117 6.358z" fill="#bfbfbf" stroke="#000"/>
 <path d="m119.1 112.9c-0.967-3.91-6.014-3.137-6.014-3.137s-9.287-0.422-15.524-0.204-16.634 2.178-17.966 3.121c-1.331 0.942-0.977 10.478 0.321 16.55 1.299 6.072 14.963 10.987 22.337 10.965s16.889-7.75 18.002-14.93c1.114-7.179-0.189-8.455-1.156-12.365zm-3.225 8.391c0.23 4.61-3.725 13.792-13.196 14.171-9.471 0.37801-16.485-4.98-17.362-7.585-0.875-2.606-1.782-11.639-0.985-11.88 0.796-0.241 30.463-0.974 30.463-0.974s0.85 1.657 1.08 6.268z" fill="#bfbfbf" stroke="#000"/>
 <path d="m234.59 111.29c-0.967-3.91-6.014-3.137-6.014-3.137s-9.287-0.422-15.524-0.204c-6.237 0.217-16.636 2.179-17.966 3.121-1.333 0.942-0.979 10.478 0.32001 16.55 1.298 6.071 14.963 10.988 22.338 10.965 7.372-0.022995 16.888-7.751 18.001-14.93 1.114-7.179-0.188-8.455-1.155-12.365zm-3.225 8.391c0.229 4.61-3.725 13.792-13.196 14.171-9.471 0.37801-16.486-4.98-17.361-7.585s-1.783-11.639-0.98601-11.88c0.798-0.241 30.465-0.974 30.465-0.974s0.84799 1.657 1.078 6.268z" fill="#bfbfbf" stroke="#000"/>
 <path d="m237.15 118.96c-0.968-3.909-6.015-3.137-6.015-3.137s-9.287-0.421-15.524-0.204c-6.237 0.218-16.635 2.179-17.966 3.121s-0.977 10.479 0.32001 16.551c1.299 6.072 14.963 10.987 22.338 10.965 7.373-0.02301 16.89-7.751 18.003-14.93 1.113-7.18-0.19-8.456-1.156-12.366zm-3.227 8.391c0.229 4.61-3.725 13.792-13.196 14.171-9.471 0.37801-16.484-4.98-17.361-7.585-0.875-2.605-1.781-11.639-0.98498-11.88 0.797-0.241 30.464-0.973 30.464-0.973s0.849 1.655 1.078 6.267z" fill="#bfbfbf" stroke="#000"/>
 <path d="m113.9 127.53l-30.4-2.714s4.343-65.687 11.581-75.64c7.238-9.952 3.619-10.133 5.248-12.124s16.106-36.734 55.192-36.553c39.085 0.181 54.648 31.305 54.648 31.305s1.99 6.152 2.171 8.505c0.183 2.353-0.181 5.791 1.811 8.143 1.99 2.353 1.81 2.534 5.067 16.105 3.256 13.571 13.57 56.096 12.484 56.82-1.084 0.724-24.789 3.438-26.418 2.896s-2.716-1.81-2.896-5.248c-0.18201-3.438-4.704-43.792-5.61-47.954-0.905-4.163-5.609-20.629-5.972-26.419-0.362-5.791-0.362-12.306-0.362-12.306s-13.57-14.476-16.104-15.562-9.592-6.152-21.172-5.067c-11.581 1.085-19.181 3.619-23.343 7.6s-11.039 8.324-12.848 14.295c-1.809 5.972-0.362 6.515-0.181 8.687s-2.896 85.231-2.896 85.231z" stroke="#000"/>
 <path d="m96.267 143.36l-0.096001 22.013c-0.005997 1.381 1.108 2.505 2.489 2.51 1.381 0.007004 2.505-1.108 2.511-2.488l0.096001-22.013c0.005005-1.381-1.108-2.505-2.49-2.511-1.38-0.005997-2.505 1.107-2.51 2.489z" fill="#bfbfbf" stroke="#000"/>
 <path d="m217.15 140.39l1.434 21.965c0.089996 1.378 1.279 2.421 2.658 2.332 1.377-0.091003 2.421-1.281 2.331-2.658l-1.434-21.965c-0.090988-1.378-1.28-2.421-2.657-2.332-1.378 0.090012-2.423 1.28-2.332 2.658z" fill="#bfbfbf" stroke="#000"/>
 <circle cx="214.87" cy="104.37" r="3.438" fill="#bfbfbf" stroke="#000"/>
 <circle cx="98.34" cy="109.8" r="3.438" fill="#7f7f7f" stroke="#000"/>
</svg>