<?xml version="1.0" encoding="UTF-8"?>
<svg viewBox="0 0 220.71429 210.35716" xmlns="http://www.w3.org/2000/svg">
 <defs>
  <linearGradient id="a" x1="253.21" x2="251.07" y1="651.49" y2="841.8" gradientUnits="userSpaceOnUse">
   <stop stop-color="#3fa1e3" offset="0"/>
   <stop stop-color="#6ea7cd" offset=".5"/>
   <stop stop-color="#3e84b3" offset="1"/>
  </linearGradient>
 </defs>
 <g transform="matrix(.9717 0 0 1.0462 -133.61 -669.79)">
  <path d="m137.5 706.39 33.571 34.906h4.6429l8.5714-8.3628v104.72l1.4286 3.636 129.64-0.36361 3.9286-2.5452-1.0714-104.35 9.6428 8.7264 3.9286-0.7272 32.857-34.178v-5.0904l-43.214-43.632-45-18.907s-16.429 17.816-48.929 0.72721l-42.857 15.271-47.143 50.177z" fill="url(#a)"/>
  <path d="m185.53 659.22a1.0001 1.0001 0 0 0 -0.8125 1.0938s1.1573 14.44 1.7812 29.594c0.31199 7.5769 0.4788 15.314 0.3125 21.5-0.0831 3.0931-0.25587 5.8049-0.53125 7.875s-0.73329 3.5506-1 3.9062a1.0032 1.0032 0 1 0 1.5938 1.2188c0.80471-1.073 1.1152-2.656 1.4062-4.8438s0.44699-4.9592 0.53125-8.0938c0.16852-6.2691 5.1e-4 -14.055-0.3125-21.656-0.62602-15.203-1.7812-29.688-1.7812-29.688a1.0001 1.0001 0 0 0 -1.1875 -0.90625z" fill="#369"/>
  <path d="m218.78 645.28a1.0001 1.0001 0 0 0 -0.84375 1.125s0.99448 7.762 5.6875 15.188 13.292 14.579 27.906 13.188c15.16-1.4438 23.162-5.9315 27.688-11.344s5.5323-11.583 7.0938-16.094a1.008 1.008 0 1 0 -1.9062 -0.65625c-1.6528 4.7748-2.615 10.524-6.75 15.469s-11.472 9.2116-26.312 10.625c-13.909 1.3246-21.605-5.2464-26.031-12.25s-5.4062-14.375-5.4062-14.375a1.0001 1.0001 0 0 0 -1.125 -0.875z" fill="#369"/>
  <path d="m226.78 644.53-1.5625 1.2188c0.0377 0.0617 0.0873 0.0949 0.125 0.15625 5.9474 9.6635 12.356 14.736 18.688 16.719 6.3718 1.9956 12.545 0.84318 17.875-1.5 10.659-4.6864 18.156-14.219 18.156-14.219l-1.2188-1.5c-17.31 8.8316-30.333 8.5292-39.031 6.0938s-13.031-6.9688-13.031-6.9688zm48.188 4.875c-2.9977 3.0839-7.4156 7.0801-13.844 9.9062-5.0276 2.2104-10.684 3.2277-16.5 1.4062-4.6955-1.4706-9.5549-4.9872-14.312-11.219 2.2674 1.3668 5.1419 2.8347 8.9688 3.9062 8.3078 2.3262 20.333 2.6806 35.688-4z" fill="#369"/>
  <path d="m187.41 832.07a1.0011 1.0011 0 1 0 0.0937 2l129.28 0.375a1.0001 1.0001 0 1 0 0 -2l-129.28-0.375a1.0001 1.0001 0 0 0 -0.0937 0z" fill="#369"/>
  <path d="m360.97 702.06a1.0001 1.0001 0 0 0 -0.59375 0.3125l-33.594 33.219a1.0055 1.0055 0 1 0 1.4375 1.4062l33.562-33.219a1.0001 1.0001 0 0 0 -0.8125 -1.7188z" fill="#369"/>
  <path d="m143.47 702.06a1.0001 1.0001 0 0 0 -0.59375 1.7188l31.781 31.781a1.0001 1.0001 0 1 0 1.4062 -1.4062l-31.781-31.781a1.0001 1.0001 0 0 0 -0.8125 -0.3125z" fill="#369"/>
  <path d="m316.66 661a1.0001 1.0001 0 0 0 -0.84375 0.8125s-2.25 12.384-3.2812 26.688c-0.51564 7.1517-0.74365 14.799-0.21875 21.656s1.768 12.929 4.3438 17.031a1.0001 1.0001 0 1 0 1.6875 -1.0625c-2.2457-3.5764-3.5182-9.4222-4.0312-16.125s-0.29239-14.286 0.21875-21.375c1.0223-14.179 3.25-26.438 3.25-26.438a1.0001 1.0001 0 0 0 -1.125 -1.1875z" fill="#369"/>
 </g>
</svg>
