<?xml version="1.0" encoding="UTF-8"?>
<svg viewBox="0 0 247.12083 205.01709" xmlns="http://www.w3.org/2000/svg" xmlns:xlink="http://www.w3.org/1999/xlink">
 <defs>
  <filter id="n">
   <feGaussianBlur stdDeviation="4.1411"/>
  </filter>
  <linearGradient id="a">
   <stop offset="0"/>
   <stop stop-opacity="0" offset="1"/>
  </linearGradient>
  <linearGradient id="b">
   <stop stop-color="#92857d" offset="0"/>
   <stop stop-color="#ebedeb" offset="1"/>
  </linearGradient>
  <linearGradient id="c">
   <stop stop-color="#fff" offset="0"/>
   <stop stop-color="#fff" stop-opacity="0" offset="1"/>
  </linearGradient>
  <linearGradient id="i" x1="224.72" x2="241.16" gradientTransform="matrix(.96593 -.25882 .25882 .96593 -157.58 92.445)" gradientUnits="userSpaceOnUse">
   <stop stop-color="#eeeeec" stop-opacity=".7324" offset="0"/>
   <stop stop-color="#eeeeec" stop-opacity="0" offset="1"/>
  </linearGradient>
  <linearGradient id="h" x1="51.974" x2="208.94" gradientUnits="userSpaceOnUse">
   <stop stop-color="#352929" offset="0"/>
   <stop stop-color="#352929" stop-opacity="0" offset="1"/>
  </linearGradient>
  <linearGradient id="g" x1="72.746" x2="326.45" y1="725.36" y2="712.91" gradientUnits="userSpaceOnUse">
   <stop stop-color="#ececec" offset="0"/>
   <stop stop-color="#ececec" stop-opacity="0" offset="1"/>
  </linearGradient>
  <linearGradient id="f" x1="397.75" x2="411" gradientUnits="userSpaceOnUse">
   <stop stop-opacity=".2941" offset="0"/>
   <stop stop-color="#fff" stop-opacity=".2941" offset="1"/>
  </linearGradient>
  <linearGradient id="m" x1="400" x2="403.38" y1="631.49" y2="626.99" gradientTransform="matrix(.96593 -.25882 .25882 .96593 -157.58 92.445)" gradientUnits="userSpaceOnUse" xlink:href="#a"/>
  <linearGradient id="l" x1="218.88" x2="234.64" gradientTransform="matrix(.96593 -.25882 .25882 .96593 -157.58 92.445)" gradientUnits="userSpaceOnUse" xlink:href="#a"/>
  <linearGradient id="k" x1="384.9" x2="366.9" y1="664.67" y2="665.17" gradientTransform="matrix(.96593 -.25882 .25882 .96593 -157.58 92.445)" gradientUnits="userSpaceOnUse" xlink:href="#c"/>
  <linearGradient id="j" x1="426" x2="399.16" gradientTransform="matrix(.96593 -.25882 .25882 .96593 -157.71 91.962)" gradientUnits="userSpaceOnUse" xlink:href="#c"/>
  <radialGradient id="e" cx="498.12" cy="542.15" r="33.969" gradientTransform="matrix(.11983 .03799 -.05388 .16996 393.24 482.74)" gradientUnits="userSpaceOnUse" xlink:href="#b" spreadMethod="reflect"/>
  <radialGradient id="d" cx="498.12" cy="542.15" r="33.969" gradientTransform="matrix(.11983 .03799 -.05388 .16996 397.18 484.36)" gradientUnits="userSpaceOnUse" xlink:href="#b" spreadMethod="reflect"/>
 </defs>
 <g transform="translate(-215.38 -550.16)">
  <path transform="matrix(.96593 -.25882 .25882 .96593 -157.58 92.445)" d="m247.16 618.44c-11.871 0-21.438 9.5661-21.438 21.438v80c0 11.871 9.5661 21.406 21.438 21.406h133.56c5.6205-0.21052 12.564-5.7284 19.625-13.438 0.0537-0.0495 0.10154-0.1076 0.15625-0.15625 15.074-13.403 33.929-32.773 33.656-47.812 0.0685-13.903-18.781-34-33.438-47.625-7.1835-7.914-14.285-13.598-20-13.812h-133.56zm165.59 51.844c4.3165-1e-5 7.8125 3.5273 7.8125 7.8438s-3.496 7.8125-7.8125 7.8125-7.8125-3.496-7.8125-7.8125 3.496-7.8438 7.8125-7.8438z" fill="#888a85" filter="url(#n)"/>
  <path d="m235.32 621.21c-11.467 3.0726-18.231 14.789-15.159 26.255l20.706 77.274c3.0726 11.467 14.78 18.201 26.247 15.128l129.01-34.569c5.3745-1.658 10.653-8.785 15.478-18.059 0.0391-0.0617 0.0702-0.13021 0.11048-0.19137 11.092-16.848 24.29-40.438 20.135-54.894-3.5322-13.447-26.941-27.98-44.624-37.348-8.9871-5.7852-17.317-9.4379-22.893-8.1655l-129.01 34.569zm173.37 7.2184c4.1694-1.1172 8.4592 1.3851 9.5764 5.5545s-1.3549 8.4511-5.5243 9.5683-8.4511-1.3549-9.5683-5.5243 1.3468-8.4813 5.5162-9.5985z" fill="#352929"/>
  <path transform="matrix(.96593,-.25882,.25882,.96593,0,0)" d="m66.591 669.12h127.73a14.617 14.617 0 0 1 14.617 14.617v76.025a14.617 14.617 0 0 1 -14.617 14.617h-127.73a14.617 14.617 0 0 1 -14.617 -14.617v-76.025a14.617 14.617 0 0 1 14.617 -14.617" fill="url(#h)"/>
  <path transform="matrix(.96593,-.25882,.25882,.96593,0,0)" d="m65.207 681.37h130.5a2.7322 2.7322 0 0 1 2.7322 2.7322v78.036a2.7322 2.7322 0 0 1 -2.7322 2.7322h-130.5a2.7322 2.7322 0 0 1 -2.7322 -2.7322v-78.036a2.7322 2.7322 0 0 1 2.7322 -2.7322" fill="url(#g)"/>
  <path d="m235.32 621.21c-11.467 3.0726-18.231 14.789-15.159 26.255l20.706 77.274c3.0726 11.467 14.78 18.201 26.247 15.128l3.8637-1.0353c-11.467 3.0726-23.175-3.6615-26.247-15.128l-20.706-77.274c-3.0726-11.467 3.6917-23.183 15.159-26.255l-3.8637 1.0353z" fill="url(#i)"/>
  <path d="m387.58 604.71 18.894 70.513c0.7965-1.2878 1.5819-2.6827 2.3482-4.1556 0.027-0.0426 0.0385-0.0726 0.0663-0.11476 7.6487-11.618 16.76-27.886 13.895-37.855-2.4357-9.2729-18.583-19.296-30.777-25.756-1.5127-0.97373-2.988-1.8612-4.4257-2.6317zm21.108 23.72c4.1694-1.1172 8.4592 1.3851 9.5764 5.5545s-1.3549 8.4511-5.5243 9.5683-8.4511-1.3549-9.5683-5.5243 1.3468-8.4813 5.5162-9.5985z" fill="#241c1c"/>
  <path d="m387.45 604.23 18.891 70.502c0.7965-1.2878 1.5844-2.6597 2.3507-4.1326 0.027-0.0426 0.0484-0.0898 0.0762-0.13196 7.6487-11.618 16.75-27.886 13.885-37.855-2.4357-9.2729-18.578-19.295-30.773-25.755-1.5127-0.97375-2.9922-1.8575-4.43-2.628z" fill="none" stroke="url(#j)" stroke-linecap="round" stroke-linejoin="bevel" stroke-width="2"/>
  <path d="m364.35 595.75s6.2097-1.1514 12.118 6.5881c1.1858 2.0373 21.886 79.332 22.071 80.92 1.9287 8.0657-6.9977 13.004-6.9977 13.004" fill="none" stroke="url(#k)"/>
  <path d="m234.8 629.94s-5.9535 2.1077-7.2005 11.764c-8e-3 2.3573 20.712 79.646 21.346 81.114 2.3626 7.9494 12.17 9.68 12.17 9.68" fill="none" stroke="url(#l)"/>
  <path transform="matrix(1.2985 -.34792 .34792 1.2985 -348.34 -95.633)" d="m411 671.49c0 3.6589-2.9661 6.625-6.625 6.625s-6.625-2.9661-6.625-6.625 2.9661-6.625 6.625-6.625 6.625 2.9661 6.625 6.625z" fill="none" stroke="url(#f)" stroke-linecap="round" stroke-linejoin="bevel" stroke-width="2"/>
  <path d="m425.17 552.77c-12.686 3.4678-24.578 15.614-29.89 32.37-1.3934 4.3952-2.2457 8.8043-2.5771 13.081l5.0138 2.8947c0.25453-4.6279 1.148-9.4704 2.6923-14.342 6.5798-20.755 22.61-34.291 38.242-29.335s22.858 25.87 16.279 46.626-24.523 33.671-40.155 28.715c-2.6375-0.83613-4.9794-2.1101-7.0218-3.7478l-2.605 1.5068-0.70769 0.73961-0.1541 0.75304-0.0523 0.0463c2.6507 2.3331 5.6818 4.1174 9.0929 5.1987 17.296 5.4832 39.333-8.2941 46.724-31.608s-2.6855-47.235-19.982-52.718c-4.8646-1.5422-9.9343-1.5384-14.898-0.18146z" fill="url(#d)"/>
  <path d="m421.22 551.18c-12.686 3.4677-24.548 15.606-29.86 32.362-1.328 4.1891-2.158 8.3644-2.5194 12.451l4.9755 2.8726c0.29903-4.4316 1.1622-9.0668 2.6347-13.712 6.5798-20.755 22.618-34.26 38.25-29.305s22.85 25.84 16.27 46.595-24.523 33.671-40.155 28.715c-1.3782-0.43692-2.6542-0.98292-3.8709-1.648l-1.7944 1.0308-0.70769 0.73961-0.1541 0.75304-0.65916 0.92073c1.7916 1.1313 3.714 2.0688 5.7765 2.7227 17.296 5.4832 39.303-8.286 46.694-31.599s-2.6634-47.274-19.96-52.757c-4.8646-1.5422-9.9564-1.5001-14.92-0.14318z" fill="url(#e)"/>
  <path d="m388.9 595.64c0.70943 0.71578 9.2503 5.5448 9.2503 5.5448l-0.0954-5.6685-8.4351-3.9515-0.7198 4.0752z" fill="url(#m)" fill-rule="evenodd" opacity=".3592"/>
 </g>
</svg>
