<?xml version="1.0" encoding="UTF-8"?>
<svg viewBox="0 0 287.35556 202.92958" xmlns="http://www.w3.org/2000/svg" xmlns:xlink="http://www.w3.org/1999/xlink">
 <defs>
  <filter id="t">
   <feGaussianBlur stdDeviation="3.06481"/>
  </filter>
  <linearGradient id="a">
   <stop stop-color="#babdb6" offset="0"/>
   <stop stop-color="#eeeeec" offset=".43196"/>
   <stop stop-color="#d3d7cf" offset=".7395"/>
   <stop stop-color="#eeeeec" offset="1"/>
  </linearGradient>
  <linearGradient id="b">
   <stop stop-color="#96511f" offset="0"/>
   <stop stop-color="#d0823f" offset="1"/>
  </linearGradient>
  <linearGradient id="s" x2="0" y1="526.36" y2="361.36" gradientUnits="userSpaceOnUse">
   <stop stop-color="#421805" offset="0"/>
   <stop stop-color="#b06528" offset="1"/>
  </linearGradient>
  <linearGradient id="r" x2="0" y1="463.88" y2="412.38" gradientUnits="userSpaceOnUse">
   <stop stop-color="#421805" offset="0"/>
   <stop stop-color="#c47530" offset="1"/>
  </linearGradient>
  <linearGradient id="o" x2="0" y1="521.86" y2="363.86" gradientUnits="userSpaceOnUse">
   <stop stop-color="#eeeeec" offset="0"/>
   <stop stop-color="#eeeeec" stop-opacity="0" offset="1"/>
  </linearGradient>
  <linearGradient id="n" x1="95.906" x2="108.57" y1="489.46" y2="458.74" gradientUnits="userSpaceOnUse">
   <stop stop-color="#555753" offset="0"/>
   <stop stop-color="#b1b2af" offset=".60466"/>
   <stop stop-color="#eeeeec" offset="1"/>
  </linearGradient>
  <linearGradient id="l" x1="95.5" x2="95.813" y1="440.86" y2="488.86" gradientUnits="userSpaceOnUse">
   <stop stop-color="#be702e" offset="0"/>
   <stop stop-color="#96511f" offset="1"/>
  </linearGradient>
  <linearGradient id="k" x1="61.159" x2="100.54" y1="331.18" y2="342.17" gradientUnits="userSpaceOnUse">
   <stop stop-color="#d38646" offset="0"/>
   <stop stop-color="#d38646" stop-opacity="0" offset="1"/>
  </linearGradient>
  <linearGradient id="j" x1="86.687" x2="129.54" y1="323.43" y2="368.31" gradientUnits="userSpaceOnUse">
   <stop stop-color="#c1722f" offset="0"/>
   <stop stop-color="#995320" offset="1"/>
  </linearGradient>
  <linearGradient id="i" x1="129.54" x2="86.687" y1="368.31" y2="323.43" gradientUnits="userSpaceOnUse">
   <stop stop-color="#461b06" offset="0"/>
   <stop stop-color="#ca8c57" offset="1"/>
  </linearGradient>
  <linearGradient id="g" x1="453.86" x2="484.86" gradientTransform="matrix(0 -1 -1 0 -.25 938.47)" gradientUnits="userSpaceOnUse">
   <stop stop-color="#555753" offset="0"/>
   <stop stop-color="#555753" stop-opacity="0" offset="1"/>
  </linearGradient>
  <linearGradient id="f" x1="128" x2="139" y1="487.86" y2="498.86" gradientUnits="userSpaceOnUse">
   <stop stop-color="#2e3436" offset="0"/>
   <stop stop-color="#2e3436" stop-opacity="0" offset="1"/>
  </linearGradient>
  <linearGradient id="e" x1="88.919" x2="89.095" y1="474.39" y2="480.31" gradientUnits="userSpaceOnUse" spreadMethod="reflect">
   <stop stop-color="#704c2e" offset="0"/>
   <stop stop-color="#704c2e" stop-opacity="0" offset="1"/>
  </linearGradient>
  <linearGradient id="d" x1="96" x2="95.714" y1="394.36" y2="379.36" gradientTransform="matrix(1.0704 0 0 1 -11.289 -770.22)" gradientUnits="userSpaceOnUse">
   <stop stop-color="#fff" offset="0"/>
   <stop stop-color="#b86e32" offset="1"/>
  </linearGradient>
  <linearGradient id="c" x1="205" x2="298" y1="521.36" y2="475.86" gradientUnits="userSpaceOnUse">
   <stop stop-color="#d3d7cf" offset="0"/>
   <stop stop-color="#d3d7cf" stop-opacity="0" offset="1"/>
  </linearGradient>
  <linearGradient id="q" x2="0" y1="516.36" y2="412.36" gradientUnits="userSpaceOnUse" xlink:href="#b"/>
  <linearGradient id="p" x2="0" y1="463.88" y2="360.88" gradientUnits="userSpaceOnUse" xlink:href="#b"/>
  <linearGradient id="m" x2="0" y1="489.46" y2="469.69" gradientUnits="userSpaceOnUse" xlink:href="#a" spreadMethod="reflect"/>
  <linearGradient id="h" x1="460.61" x2="484.86" gradientTransform="matrix(0 -1 -1 0 -.25 938.47)" gradientUnits="userSpaceOnUse" xlink:href="#a"/>
 </defs>
 <g transform="translate(7.3556 -341.43)">
  <path d="m197 540.36 37 2 46-45-123-6 40 49z" fill="url(#c)"/>
  <g transform="translate(16,18)">
   <path d="m-5.2808 364.36h211.56a9.7192 9.7192 0 0 1 9.7192 9.7192v139.56a9.7192 9.7192 0 0 1 -9.7192 9.7192h-211.56a9.7192 9.7192 0 0 1 -9.7192 -9.7192v-139.56a9.7192 9.7192 0 0 1 9.7192 -9.7192" fill="url(#q)" stroke="url(#s)" stroke-width="6"/>
   <path d="m-6.2812 371.38c-5.3845 0-9.7188 4.3343-9.7188 9.7188v35.141l40 55.141h151l40-55.141v-35.141c0-5.3845-4.3343-9.7188-9.7188-9.7188h-211.56z" fill="#2e3436" filter="url(#t)" opacity=".5"/>
   <path d="m-5.2812 362.38c-5.3845 0-9.7188 4.3343-9.7188 9.7188v35.141l40 55.141h151l40-55.141v-35.141c0-5.3845-4.3343-9.7188-9.7188-9.7188h-211.56z" fill="url(#p)" stroke="url(#r)" stroke-width="3"/>
   <path d="m-4.4085 364.36h208.92a9.5978 9.5978 0 0 1 9.5978 9.5978v137.82a9.5978 9.5978 0 0 1 -9.5978 9.5978h-208.92a9.5978 9.5978 0 0 1 -9.5978 -9.5978v-137.82a9.5978 9.5978 0 0 1 9.5978 -9.5978" fill="none" stroke="url(#o)" stroke-width=".9875"/>
   <path d="m77.961 323.87c-16.203 0-29.245 13.041-29.245 29.245v7.318h16.404v-6.9371c0-7.3299 5.8914-13.248 13.221-13.248h37.379c7.3299 0 13.221 5.9186 13.221 13.248v6.9371h16.404v-7.318c0-16.203-13.041-29.245-29.245-29.245h-38.14z" fill="url(#j)" stroke="url(#i)" stroke-width=".87054"/>
   <path d="m77.781 324.43c-15.721 0-28.374 12.653-28.374 28.374v7.1001h2.9562v-3.7216c0-15.721 12.653-28.374 28.374-28.374h37.005c7.7106 0 14.692 3.041 19.796 7.9976-5.1648-6.9151-13.418-11.376-22.752-11.376h-37.005z" fill="url(#k)"/>
   <path d="m129.47 356.56c0-4.5005-0.30145-6.3258-1.404-8.5017-0.3091-0.60997-0.47062-1.109-0.35895-1.109 0.4454 0 2.6298 2.723 3.3683 4.1989 1.1326 2.2632 1.4415 3.7288 1.4415 6.8374v2.6747h-3.0469v-4.1002z" fill="#2e3436" opacity=".62406"/>
   <path d="m84.853 434.67h21.92v60.489l-10.96 12-10.96-12v-60.489z" fill="url(#l)" stroke="#461b06"/>
   <path d="m86.621 437.89h4.2426v1.4142h-4.2426z" fill="#431905"/>
   <path d="m93.737 437.89h4.2426v1.4142h-4.2426z" fill="#431905"/>
   <path d="m100.32 437.71h4.2426v1.4142h-4.2426z" fill="#431905"/>
   <path d="m86.806 450.42c-4.5589 0-8.2252 3.6662-8.2252 8.2252v22.094c0 4.559 3.6662 8.2252 8.2252 8.2252h18.2c4.5589 0 8.2252-3.6662 8.2252-8.2252v-22.094c0-4.559-3.6662-8.2252-8.2252-8.2252h-18.2zm2.8657 6.0595h12.469c3.1261 0 5.6439 2.5177 5.6439 5.6439v15.138c0 3.1261-2.5178 5.6439-5.6439 5.6439h-12.469c-3.1261 0-5.6439-2.5178-5.6439-5.6439v-15.138c0-3.1261 2.5178-5.6439 5.6439-5.6439z" fill="url(#m)" stroke="url(#n)"/>
   <path transform="matrix(.86364 0 0 .86364 -19.295 42.527)" d="m138.5 493.36c0 2.7614-2.2386 5-5 5s-5-2.2386-5-5 2.2386-5 5-5 5 2.2386 5 5z" fill="#704c2e" stroke="url(#f)"/>
   <path d="m85.03125,468.46875v11.84375h20.84375v-11.84375h-5.59375c.002.0533.0312.10249.0312.15625 0,2.38487-1.92763,4.3125-4.3125,4.3125s-4.3125-1.92763-4.3125-4.3125c0-.0538.0293-.10297.03125-.15625h-6.6875z" fill="url(#e)" opacity=".64286"/>
   <path d="m95.625 464.38c-0.87755 0-1.6777 0.30964-2.3438 0.84375v16.406c0 1.3717 1.0971 2.4688 2.4688 2.4688s2.4688-1.0971 2.4688-2.4688v-16.188c-0.70639-0.66024-1.6073-1.0625-2.5938-1.0625z" fill="url(#h)" stroke="url(#g)" stroke-width="1.0482"/>
   <path transform="scale(1,-1)" d="m-4.7808-390.86h208.56a9.7192 9.7192 0 0 1 9.7192 9.7192v7.5615a9.7192 9.7192 0 0 1 -9.7192 9.7192h-208.56a9.7192 9.7192 0 0 1 -9.7192 -9.7192v-7.5615a9.7192 9.7192 0 0 1 9.7192 -9.7192" fill="url(#d)" opacity=".21805"/>
  </g>
 </g>
</svg>
