<?xml version="1.0" encoding="UTF-8"?>
<svg viewBox="0 0 2035.6544 699.87146" xmlns="http://www.w3.org/2000/svg">
 <defs>
  <filter id="e">
   <feGaussianBlur stdDeviation="2.2293"/>
  </filter>
  <filter id="d" x="-.08381" y="-.14747" width="1.1676" height="1.295">
   <feGaussianBlur stdDeviation="23.1997"/>
  </filter>
  <linearGradient id="c" x1="416.77" x2="425.54" y1="624.35" y2="563.65" gradientUnits="userSpaceOnUse">
   <stop stop-color="#e7e7e7" offset="0"/>
   <stop stop-color="#767676" offset="1"/>
  </linearGradient>
  <radialGradient id="b" cx="995.52" cy="476.15" r="305.59" gradientTransform="matrix(-.72841 2.4604 -2.4807 -.73441 2901.8 -1580)" gradientUnits="userSpaceOnUse">
   <stop stop-color="#fff" offset="0"/>
   <stop stop-color="#333" offset="1"/>
  </radialGradient>
  <radialGradient id="a" cx="263.01" cy="653.04" r="25.754" gradientTransform="matrix(.90088 .0963 -.1878 1.9706 148.71 -662.86)" gradientUnits="userSpaceOnUse">
   <stop stop-color="#898989" offset="0"/>
   <stop stop-color="#424242" offset="1"/>
  </radialGradient>
 </defs>
 <g transform="translate(610.94 -421.41)">
  <path d="m1358.4 578.22s-11.072 71.319-48.578 111.76-84.657 66.5-137.47 117.7-101.6 141.55-165.97 147.11c-66.895 5.7703-122.65-14.12-184.53-49.482s-96.363-69.229-107.88-85.267c-19.526-27.187-19.891-49.727-19.891-49.727z" filter="url(#d)" opacity=".3951" stroke="#000" stroke-width="1.0939"/>
  <path d="m1325.3 568.5s-10.121 65.194-44.406 102.16-77.387 60.789-125.67 107.6-92.878 129.4-151.72 134.47c-61.15 5.2748-112.12-12.908-168.68-45.233s-88.088-63.284-98.617-77.945c-17.849-24.852-18.183-45.457-18.183-45.457z" stroke="#000"/>
  <path d="m718.72 741.24c2.1823-65.921 82.562-140.5 137.89-193.95 106.39-102.79 155.56-123.24 230.31-125.26s234.26 23.076 241.93 146.98c1.3656 22.069-36.748 12.42-100.51 51.013-115.16 69.701-110.43 193.21-221.73 253.04-63.791 34.294-290.08-65.904-287.89-131.82z" fill="url(#b)" stroke="#000"/>
  <path transform="matrix(.60434 -.83029 .8887 .55756 154.35 664.74)" d="m512.26 601.33c0 20.147-45.953 36.479-102.64 36.479s-102.64-16.332-102.64-36.479 45.954-36.479 102.64-36.479 102.64 16.332 102.64 36.479z" fill="url(#c)" opacity=".5885"/>
  <path d="m824.28 839.22s22.223-72.731 43.437-98.995c97.985-98.995 87.883-115.16 135.36-180.82 17.173-24.244 17.173-20.203 17.173-20.203s27.356-2.3345 7.071 49.497c95.049 33.404 136.37 85.863 136.37 85.863" fill="none" stroke="#000"/>
  <path d="m1019.2 537.18s-29.294-12.122-64.65 22.223c-53.353-23.587-86.873-19.193-86.873-19.193" fill="none" stroke="#000"/>
  <path transform="matrix(.89769 .67875 -.71129 .85662 1146.3 -75.465)" d="m301.02 654.96c0.21622 32.633-10.914 59.497-24.859 60.003s-25.426-25.538-25.642-58.171 10.914-59.497 24.859-60.003c13.933-0.50548 25.407 25.491 25.642 58.092" fill="url(#a)" stroke="#000"/>
  <path d="m822.86 850.93c2.2142 7.0116-180.36 151.96-248.57 122.86-52.967-22.601-12.857-291.43-211.43-195.71-147.99 71.334-311.43 335.71-402.86 335.71s5.7143-252.86-280-191.43-284.29 61.429-284.29 61.429" fill="none" stroke="#000" stroke-width="15"/>
  <path d="m823.56 845.34c2.2142 7.0116-180.36 151.96-248.57 122.86-52.967-22.601-12.857-291.43-211.43-195.71-147.99 71.334-311.43 335.71-402.86 335.71s5.7143-252.86-280-191.43-284.29 61.429-284.29 61.429" fill="none" filter="url(#e)" stroke="#fff" stroke-linecap="round" stroke-width="5"/>
 </g>
</svg>
