<?xml version="1.0" encoding="UTF-8"?>
<svg viewBox="0 0 921.16547 914.42554" xmlns="http://www.w3.org/2000/svg">
 <g transform="translate(194.93 421.76)">
  <path d="m230.53 363.18c-33.813 47.957 52.38 111.47 82.921 58.5 35.579-63.399-102.54-67.918-81.621-70.017 41.516-31.92 116.07 10.798 97.016 64.155-15.921 42.615-88.779 57.266-111.31 13.098-5.984-21.922-6.0523-49.931 12.996-65.737z"/>
  <path d="m179.57 311.3c1.1447 50.05-27.331 104.28 2.2736 150.9 50.898 29.899 110.13 5.7696 164.79 7.3178 26.699-45.049 19.695-101.21 6.0718-149.32-45.999-40.268-106.88 7.9507-156.27-8.7222 8.329-22.772 59.467-5.8666 84.383-17.963 29.787-3.7246 77.582-9.745 89.49 24.869 14.406 46.502-2.4505 95.143 4.6593 142.4-40.345 39.953-104.44 21.675-155.29 31.887-55.835 0.32972-79.533-58.387-59.389-104.14 3.1028-26.072 0.60878-56.197 19.283-77.224z"/>
  <path d="m259.4 370.53c19.501-31.847 67.715 37.797 18.433 12.626-8.7538 0.10301-37.01 4.0674-18.433-12.626z"/>
  <path d="m302.6 306.43c28.99-23.47 72.855 57.404 22.263 22.043-10.637-1.987-36.246-5.4439-22.263-22.043z"/>
  <g transform="matrix(.92623 .35592 -.39154 .84197 -51.844 -74.958)">
   <path d="m230.53 363.18c-33.066 43.545 41.366 103.41 77.962 65.766 34.255-49.749-38.176-75.151-77.224-76.348 41.655-37.923 123.02 17.207 94.892 69.544-19.08 42.136-83.095 45.061-106.8 6.1004-13.959-20.682-6.6896-49.228 11.173-65.062z"/>
   <path d="m179.57 311.3c1.1447 50.05-27.331 104.28 2.2736 150.9 50.898 29.899 110.13 5.7696 164.79 7.3178 26.699-45.049 19.695-101.21 6.0718-149.32-45.999-40.268-106.88 7.9507-156.27-8.7222 8.329-22.772 59.467-5.8666 84.383-17.963 29.787-3.7246 77.582-9.745 89.49 24.869 14.406 46.502-2.4505 95.143 4.6593 142.4-40.345 39.953-104.44 21.675-155.29 31.887-55.835 0.32972-79.533-58.387-59.389-104.14 3.1028-26.072 0.60878-56.197 19.283-77.224z"/>
   <path d="m259.4 370.53c19.501-31.847 67.715 37.797 18.433 12.626-8.7538 0.10301-37.01 4.0674-18.433-12.626z"/>
   <path d="m302.6 306.43c28.99-23.47 72.855 57.404 22.263 22.043-10.637-1.987-36.246-5.4439-22.263-22.043z"/>
  </g>
  <g transform="matrix(.40596 .68586 -.65396 .43775 51.691 -150.29)">
   <path d="m230.53 363.18c-34.673 46.063 50.296 109.91 81.741 59.747 29.435-54.753-63.929-69.732-82.329-69.296 39.408-36.435 118.25 8.6198 99.104 61.618-16.763 55.291-122.03 54.73-115.1-12.618 0.18276-14.542 4.8807-30.008 16.587-39.451z"/>
   <path d="m179.57 311.3c3.7686 49.107-33.705 109.99 7.9265 150.64 44.278 30.992 98.98 7.2474 147.92 6.9856 45.168-22.723 25.875-87.087 24.368-127.87-13.845-50.791-72.246-38.992-110.36-28.78-21.227 8.6588-82.855-4.8693-31.924-9.8708 45.411-9.5881 93.778-17.623 139.03-2.901 39.761 45.883 7.3827 108.19 18.433 161.26-37.407 39.618-95.83 19.339-142.74 32.664-53.262 7.2112-99.504-52.427-71.723-100.89 4.7166-27.178-2.0972-59.506 19.062-81.246z"/>
   <path d="m259.4 370.53c15.872-33.117 65.638 35.532 18.672 12.652-8.6565 0.1534-37.38 3.865-18.672-12.652z"/>
   <path d="m302.6 306.43c29.127-24.728 66.923 55.006 19.953 21.547-10.441-0.59633-33.329-7.4892-19.953-21.547z"/>
  </g>
  <g transform="matrix(-.12312 .78743 -.78304 -.078297 225.95 -162.75)">
   <path d="m230.53 363.18c-34 43.615 41.196 101.07 78.214 66.343 34.869-49.35-35.358-66.744-67.583-81.227 24.259-20.99 67.685-1.5576 82.176 25.718 26.905 38.364-15.795 90.785-58.967 81.618-47.076-2.6735-71.651-61.62-33.84-92.452z"/>
   <path d="m179.57 311.3c2.9067 47.834-30.333 102.2 4.1723 144.62 37.767 30.53 93.464 22.233 138.38 14.817 57.986-15.448 41.243-89.493 35.721-133.67-15.77-44.885-71.219-32.989-107.28-25.926-16.968 12.638-78.116-6.1147-30.41-9.0504 44.804-6.5778 98.072-25.348 138.23 4.5195 27.269 28.094 13.55 70.827 17.979 105.96 4.5644 39.987-25.21 81.301-68.336 73.059-46.122 3.8627-101.88 20.512-139.33-16.621-31.402-46.345-5.6194-104.88 8.4427-152.84l2.429-4.8653z"/>
   <path d="m259.4 370.53c12.997-34.363 57.756 33.271 18.484 12.648-7.8516 1.8871-37.845 1.7214-18.484-12.648z"/>
   <path d="m302.6 306.43c26.261-27.353 63.712 53.29 19.95 21.54-9.9144-0.12137-33.969-8.0607-19.95-21.54z"/>
  </g>
  <g transform="matrix(-.28977 .74246 -.74782 -.24505 289.22 -253.42)">
   <path d="m230.53 363.18c-34.709 43.863 42.443 101.92 78.758 64.804 37.102-49.363-39.457-59.2-62.252-82.835 27.288-21.094 70.393 8.8362 79.313 39.516 19.506 42.274-31.288 85.448-71.645 68.783-39.586-11.048-59.083-62.832-24.174-90.268z"/>
   <path d="m179.57 311.3c2.5548 47.331-29.734 100.62 3.9646 142.79 40.455 29.855 100.93 29.597 147.42 13.123 46.921-35.392 49.482-115.79 6.2538-154.93-33.652-32.07-109 23.841-123.47-7.9402 36.797-8.0387 76.554-17.433 114.15-13.771 42.978 12.017 60.163 64.497 46.653 103.94 19.145 47.089-23.442 103.09-74.483 92.884-48.106 5.2712-121.57 19.614-141.87-40.353-11.035-45.257 4.6174-93.922 21.381-135.74z"/>
   <path d="m259.4 370.53c12.894-34.387 57.839 33.27 18.484 12.648-7.8516 1.8871-37.845 1.7214-18.484-12.648z"/>
   <path d="m302.6 306.43c27.133-28.644 64.857 54.214 16.699 20.892-9.8534-1.1927-30.62-8.314-16.699-20.892z"/>
  </g>
  <g transform="matrix(-.37314 .41727 -.36967 -.41047 239.83 -230.93)">
   <path d="m230.53 363.18c-27.786 33.439 13.672 76.191 49.3 76.076 62.501-4.5163 32.827-81.152-15.662-83.201-32.08-26.501 49.908-16.365 53.322 10.281 22.495 27.647 14.735 77.407-23.442 86.132-47.979 25.712-110.55-44.42-68.116-84.774l4.5983-4.5136z"/>
   <path d="m179.57 311.3c1.4439 45.776-27.373 97.112 2.1664 138.76 27.972 27.85 72.476 28.981 109.73 27.505 32.457-2.5946 69.021-23.026 70.273-59.185 7.525-39.024 8.0101-96.528-37.451-111.94-30.462-19.076-98.933 27.678-105.47-2.7907 45.107-8.5463 100.1-29.302 139.78 4.5066 22.586 27.49 15.998 69.543 17.761 103.6-0.10509 34.793-22.408 74.956-61.511 73.339-47.983 7.4594-107.69 21.494-146.13-17.558-25.717-46.961-10.669-104.9 7.8938-151.56l2.9545-4.6786z"/>
   <path d="m259.4 370.53c20.864-31.747 44.864 40.842 5.825 14.075-9.0863 0.96865-18.276-10.408-5.825-14.075z"/>
   <path d="m302.6 306.43c29.339-32.248 49.567 55.549 8.2516 19.398-8.7062-0.78454-19.885-13.652-8.2516-19.398z"/>
  </g>
  <path d="m39.441-347.33c43.153-16.467 86.802-45.17 134.54-39.258-28.981 26.133-83.424 14.523-117.16 44.054-6.5009 3.264-30.993 9.1234-17.377-4.796z"/>
  <path d="m48.149-306.87c19.062-33.652 80.252-52.149 107.75-39.913-30.477 15.921-89.224 18.964-98.552 32.015l-4.4238 4.1571-4.7788 3.7409z"/>
  <path d="m-72.555-249.66c30.159-30.426-25.006 39.325 0 0z"/>
  <path d="m-142.24 91.683c1.1154 15.052 19.276 73.655-9.0763 40.154-5.5878-13.496-5.8932-32.487 9.0763-40.154z"/>
  <path d="m-112.31 94.602c8.4582 20.309-22.548 52-12.589 14.552 2.5578-6.122 7.4639-10.646 12.589-14.552z"/>
  <path d="m-74.061 279.22c7.5356 12.032 29.058 44.893-2.9036 31.563-11.353-8.0192-10.313-25.886 2.9036-31.563z"/>
  <path d="m-43.63 267.37c26.529 26.188-27.911 35.747-4.3642 4.474l4.3642-4.474z"/>
  <path d="m140.16 398.68c52.805 19.067-39.916 33.615 0 0z"/>
  <path d="m154.38 367.54c13.479 10.598 25.627 9.7934 7.1535 24.208-20.331-3.6241-22.495-11.238-7.1535-24.208z"/>
  <path d="m165.41-391.68c4.1745 12.688 10.571 54.33-7.0225 41.349-4.7412-12.907-11.787-31.622 6.6116-40.938l0.41085-0.41086z"/>
  <path d="m165.62-398.31c16.319 3.6569 37.524-3.0988 48.137 12.395 4.7893 16.622 0.45458 45.721-22.718 49.638-9.3121 1.17-29.567 0.49938-31.85-6.6973 7.2255-15.316 13.706-11.164 26.119-8.2187 17.564 3.0476 35.262-11.2 11.894 12.247 5.0782-11.977 12.056-37.226-5.6418-41.273-9.2513-4.4968-45.948 3.7807-31.282-10.739l5.3416-7.352z"/>
  <path d="m260.35-390.49c-11.673-9.1656-32.691-23.803-8.4234-31.273 14.258 10.881 27.02 17.013 8.4234 31.273z"/>
  <g transform="matrix(-.92623 .35592 .39154 .84197 583.95 -67.549)">
   <path d="m230.53 363.18c-32.745 45.948 47.433 108.63 82.095 62.025 23.03-48.148-43.978-78.206-82.967-67.079 36.684-44.216 123.43 5.6562 97.887 59.73-20.853 57.391-128.75 46.26-113.57-23.171 1.5865-11.984 7.0902-23.733 16.555-31.505z"/>
   <path d="m179.57 311.3c3.5806 49.999-35.712 115.5 12.149 153.98 41.315 23.576 90.487 6.5399 134.98 5.4324 48.468-11.49 38.152-75.81 36.904-113.31-6.2406-64.511-76.665-59.887-122.07-43.155-20.507 7.347-58.7-13.308-15.946-14.933 46.682-0.47603 101.65-28.91 140.23 10.61 22.222 32.598 4.1058 74.322 12.03 111.22 9.3095 56.862-49.37 71.515-92.965 67.002-43.062 3.7771-105.16 16.674-124.8-35.14-12.648-40.727 1.0069-85.017 11.912-124.91 2.1764-5.7464 4.6828-11.371 7.5797-16.792z"/>
   <path d="m259.4 370.53c16.282-35.139 62.455 36.597 18.213 12.643-7.907 1.3112-37.766 2.1724-18.213-12.643z"/>
   <path d="m302.6 306.43c25.914-27.517 66.778 52.405 21.365 21.821-10.257-1.3916-36.957-6.7952-21.365-21.821z"/>
  </g>
  <g transform="matrix(-.40596 .68586 .65396 .43775 480.41 -142.88)">
   <path d="m230.53 363.18c-32.745 45.948 47.433 108.63 82.095 62.025 23.03-48.148-43.978-78.206-82.967-67.079 36.684-44.216 123.43 5.6562 97.887 59.73-20.853 57.391-128.75 46.26-113.57-23.171 1.5865-11.984 7.0902-23.733 16.555-31.505z"/>
   <path d="m179.57 311.3c0.99747 50.066-27.112 104.19 2.2736 150.9 51.138 29.5 110.44 6.4335 165.23 6.7826 24.886-45.445 20.437-100.55 5.9995-148.56-43.767-40.204-102.15 6.3674-150.91-9.3188 8.916-21.916 69.819-9.7692 96.725-21.299 50.853-11.393 94.921 33.73 75.162 83.716-3.3723 40.267 23.641 101.98-38.151 110.08-51.824 3.0614-106.7 17.833-156.93-2.453-40.082-35.083-19.292-93.09-12.407-137.83 2.6393-11.241 6.4714-22.391 13.009-32.007z"/>
   <path d="m259.4 370.53c17.838-34.698 59.855 37.981 15.788 12.825-9.0038 1.5066-34.349 0.32066-15.788-12.825z"/>
   <path d="m302.6 306.43c26.587-28.675 64.507 53.108 16.862 21.101-9.8815-1.3117-31.265-8.4009-16.862-21.101z"/>
  </g>
  <g transform="matrix(.12312 .78743 .78304 -.078297 306.15 -155.34)">
   <path d="m230.53 363.18c-32.358 43.981 41.404 102.63 78.801 66.361 33.215-42.578-30.366-71.082-64.578-78.127 5.812-20.028 66.569-9.3342 77.945 20.156 30.291 41.041-21.075 98.625-66.221 83.123-36.895-6.9976-60.088-55.086-32.84-84.809 1.9206-2.5554 4.6666-4.4146 6.8922-6.7042z"/>
   <path d="m179.57 311.3c2.0217 46.801-27.697 98.805 1.6774 141.68 23.538 27.646 64.358 22.261 97.083 24.484 30.942-1.2202 76.297-10.163 83.132-45.209 2.3921-40.611 14.087-94.045-25.716-120.78-41.094-34.025-92.179 28.261-129.72-7.2593 50.336-2.7734 105.42-30.269 152.68-0.6811 30.213 50.245 20.339 112.88 4.087 166.12-47.278 30.189-106.61 15.829-159.33 20.833-48.546-11.439-55.085-72.401-45.277-113.17 6.5824-22.157 9.8606-45.611 21.377-66.017z"/>
   <path d="m259.4 370.53c18.473-33.954 65.606 37.603 18.213 12.643-8.1725 0.74351-37.436 3.1384-18.213-12.643z"/>
   <path d="m302.6 306.43c26.691-29.006 63.56 54.099 16.686 21.108-9.777-1.2005-31.174-8.7845-16.686-21.108z"/>
  </g>
  <g transform="matrix(.28977 .74246 .74782 -.24505 242.88 -246.01)">
   <path d="m230.53 363.18c-32.745 45.948 47.433 108.63 82.095 62.025 28.424-53.057-58.499-74.711-79.779-70.684 39.637-38.282 120.17 12.155 94.46 64.585-18.509 42.715-94.993 51.974-111.64 3.1349-5.0814-20.274-2.2729-45.076 14.862-59.062z"/>
   <path d="m179.57 311.3c1.002 50.067-27.114 104.19 2.2736 150.9 51.138 29.5 110.44 6.4335 165.23 6.7826 25.742-45.346 19.136-100.38 5.9995-148.56-43.767-40.204-102.15 6.3674-150.91-9.3188 8.916-21.916 69.819-9.7692 96.725-21.299 50.853-11.393 94.921 33.73 75.162 83.716-3.3723 40.267 23.641 101.98-38.151 110.08-51.824 3.0614-106.7 17.833-156.93-2.453-40.082-35.083-19.292-93.09-12.407-137.83 2.6393-11.241 6.4714-22.391 13.009-32.007z"/>
   <path d="m259.4 370.53c15.449-34.779 63.656 35.357 18.395 12.677-8.0706 0.77458-37.715 2.9445-18.395-12.677z"/>
   <path d="m302.6 306.43c26.94-30.241 60.722 52.55 16.579 21.017-9.5746-0.43169-31.429-9.3727-16.579-21.017z"/>
  </g>
  <g transform="matrix(.37314 .41727 .36967 -.41047 292.27 -223.52)">
   <path d="m230.53 363.18c-36.18 52.181 64.189 117.35 84.865 51.419 9.6532-47.055-48.098-64.637-80.157-57.024 10.396-32.899 101.78-12.103 95.025 35.603 5.7557 50.982-62.63 82.999-99.634 50.085-23.912-19.33-25.147-61.5-0.0982-80.083z"/>
   <path d="m179.57 311.3c3.2442 47.886-29.855 101.07 2.3343 144.48 37.232 33.924 94.328 17.997 139.98 15.764 49.075-4.5859 41.831-63.635 39.884-99.286 14.584-49.995-37.828-79.861-80.997-66.668-24.703-1.2112-82.966 30.771-80.889-5.7267 36.494 2.7136 73.043-6.3564 109.68-9.5668 45.212-8.1174 80.443 33.723 65.715 77.153-11.245 41.6 23.92 112.46-42.388 117.76-39.794 1.516-79.55 3.9164-118.88 7.5135-59.468-3.6553-69.463-67.363-52.345-112.66 1.6588-23.538 0.72671-50.209 17.904-68.771z"/>
   <path d="m259.4 370.53c16.208-30.853 71.902 34.052 25.343 13.06-8.2952-2.2766-46.294 6.6702-25.343-13.06z"/>
   <path d="m302.6 306.43c24.66-24.222 73.207 51.783 23.732 22.228-10.726-2.0886-39.841-4.6641-23.732-22.228z"/>
  </g>
  <path d="m492.66-339.92c-41.134-13.34-84.467-49.087-128.82-34.781 39.938 11.775 102.64 37.212 130.64 37.081l-1.6108-2.037-0.20751-0.26241z"/>
  <path d="m483.95-299.46c-10.941-32.231-92.021-56.564-95.483-34.376 31.424 12.368 70.108 8.8793 95.483 34.376z"/>
  <path d="m604.66-242.26c-21.436-23.173 15.852 28.616 0 0z"/>
  <path d="m674.34 99.093c-12.522 16.053-2.8242 73.807 12.121 29.264 1.9771-10.809-1.3091-24.203-12.121-29.264z"/>
  <path d="m644.42 102.01c-11.375 36.778 36.14 26.769 0 0z"/>
  <path d="m606.16 286.63c-37.605 20.844 27.299 46.061 6.4447 4.6835l-6.4447-4.6835z"/>
  <path d="m575.73 274.78c-32.07 31.485 38.603 26.244 0 0z"/>
  <path d="m391.94 406.09c-57.913 18.682 42.546 32.988 0 0z"/>
  <path d="m377.72 374.95c-62.598 27.138 42.663 32.272 0 0z"/>
  <path d="m366.69-384.27c-27.036 33.889 34.132 36.362 4.7205 3.3779l-4.7205-3.3779z"/>
  <path d="m366.48-390.9c-73.707-35.504-29.15 110.82-6.8341 48.284-25.782 8.3445-52.012-12.857-18.469-26.779 9.1715-3.3349 39.886-4.5172 25.303-21.505z"/>
  <path d="m305.12-380.81c-32.935-22.049-110.83-45.483-115.71 14.582 20.016-54.978 98.66 2.0919 117.59-12.402l-1.6957-1.9669-0.18386-0.21325z"/>
  <path d="m259.95-333.5c5.703-33.079-74.984-26.087-20.403-11.563 7.3744 2.577 15.162 5.4319 20.403 11.563z"/>
  <path d="m264.45-340.87c5.7767-26.806 56.639-30.447 14.795-9.9862 18.715-25.862-38.276 44.473-14.795 9.9862z"/>
  <path d="m258.87-376.66c19.729 2.6422 84.497 25.783 28.474 26.769-12.913-0.81169-52.951-7.1541-28.474-26.769z"/>
  <path d="m-53.035-221.45c4.0075-11.057 16.986-8.0506 0 0z"/>
  <path d="m576.26-228.7c17.534 20.61-27.405 6.5901 0 0z"/>
 </g>
</svg>
