<?xml version="1.0" encoding="UTF-8"?>
<!DOCTYPE svg  PUBLIC '-//W3C//DTD SVG 1.1//EN'  'http://www.w3.org/Graphics/SVG/1.1/DTD/svg11.dtd'>
<svg width="253.5pt" height="203.25pt" fill-rule="evenodd" overflow="visible" stroke-linejoin="bevel" stroke-width=".501" version="1.1" viewBox="0 0 253.5 203.25" xmlns="http://www.w3.org/2000/svg">
 <defs>
  <radialGradient id="e" cx="0" cy="0" r="65.727" gradientTransform="translate(242.38 253.23) rotate(-5.1772) skewX(-3.4828) scale(1 2.1103)" gradientUnits="userSpaceOnUse">
   <stop stop-color="#deaa87" offset="0"/>
   <stop stop-color="#e6aa37" offset="1"/>
  </radialGradient>
  <linearGradient id="d" x2="-5.313" y2="-42.112" gradientTransform="translate(167.11 179.61)" gradientUnits="userSpaceOnUse">
   <stop stop-color="#fff" offset="0"/>
   <stop offset="1"/>
  </linearGradient>
 </defs>
 <g transform="scale(1 -1)" fill="none" font-family="Times New Roman" font-size="16" stroke="#000">
  <g transform="translate(0 -203.25)" stroke-miterlimit="79.84">
   <path d="m0 203.25v-203.25h253.5v203.25h-253.5z" stroke="none" stroke-width="0"/>
   <g stroke-linejoin="miter">
    <path d="m44.809 73.345c-10.824 24.326-0.58 40.945 22.866 37.095s51.255-26.713 62.085-51.039c10.82-24.326 0.58-40.945-22.87-37.096-23.445 3.848-51.257 26.714-62.081 51.04zm58.701-43.442c19.4-3.185 27.88 10.569 18.92 30.7-8.95 20.132-31.971 39.056-51.374 42.237-19.404 3.19-27.881-10.565-18.924-30.697 8.958-20.132 31.976-39.055 51.378-42.24z" fill="#007f01" stroke="#004001" stroke-width="6"/>
    <path d="m97.033 128c20.197 7.3 42.527-3.16 49.827-23.36 7.31-20.202-3.16-42.525-23.36-49.831s-42.519 3.158-49.825 23.358c-7.306 20.199 3.159 42.523 23.358 49.833z" fill="#aad4ff" stroke="none" stroke-miterlimit="5.988" stroke-width=".492"/>
    <path d="m77.991 98.525c-17.055 20.085-26.078 38.235-26.217 50.085-0.214 1.26-0.032 2.95 0.613 5.16 0.039 0.14 0.079 0.27 0.138 0.39 3e-3 0.09 0.026 0.16 0.05 0.24 5.508 17.52 25.519 24.62 45.014 15.83 14.981-6.76 25.371-20.97 27.211-35.29 9.62-7.52 19.13-16.2 27.83-25.58 14.3-0.76 29.15-9.866 37.08-24.089 10.22-18.323 5.24-38.441-10.99-45.782-0.18-0.09-0.36-0.171-0.58-0.207-0.3-0.178-0.64-0.315-0.99-0.448-2.41-0.933-4.21-1.226-5.54-0.992-0.01 0-0.01 0-0.02-1e-3 -22.38-0.984-64.31 26.203-93.599 60.684z" fill="#007fff" stroke="none" stroke-miterlimit="5.988" stroke-width=".492"/>
    <g fill="url(#e)" stroke="none" stroke-miterlimit="5.988" stroke-width=".939">
     <path d="m132.54 87.492c-8.54 9.544-18.06 18.218-27.82 25.578-0.04 1.46-0.16 2.91-0.36 4.35 4.1 3.6 8.09 7.48 11.78 11.65 7.79 8.69 14.26 18.61 19.66 28 5.45 9.37 9.94 18.08 14.77 24.09 4.81 6.05 10.08 9.31 16.54 9.03 12.64-0.54 28.38-14.19 34.38-26.25 3.01-6.16 3.42-12.08 0.46-17.59-2.89-5.56-9.19-10.72-17.83-16.74-8.62-6.02-18.46-12.59-27.22-20.34-7.6-6.63-14.36-14.144-19.98-21.809-1.45 0.089-2.91 0.1-4.38 0.031z"/>
    </g>
    <path d="m109.09 132.19c-5.09-13.59-7.7 9.12-21.296 14.21-13.594 5.1-33.051-9.35-27.959 4.24 5.092 13.6 20.259 20.5 33.852 15.4 13.593-5.09 20.493-20.25 15.403-33.85z" fill="#fff" fill-opacity=".8" stroke="none" stroke-miterlimit="5.988" stroke-opacity=".8" stroke-width=".322"/>
    <mask id="f">
     <rect x="-10%" y="-10%" width="120%" height="120%" fill="url(#d)" stroke="none"/>
    </mask>
    <g fill="#fff" mask="url(#f)" stroke="none" stroke-miterlimit="5.988" stroke-width=".489">
     <path d="m149.12 126.16c-4.44 4.97-9.4 9.48-14.48 13.31-0.02 0.77-0.08 1.52-0.19 2.27 2.14 1.87 4.21 3.89 6.13 6.06 4.06 4.52 7.42 9.68 10.24 14.57 2.83 4.88 5.16 9.41 7.68 12.53 2.5 3.15 5.25 4.85 8.61 4.71 6.58-0.28 14.77-7.39 17.89-13.66 1.56-3.21 1.78-6.29 0.24-9.16-1.51-2.89-4.79-5.58-9.28-8.71s-9.61-6.55-14.17-10.58c-3.95-3.45-7.47-7.36-10.4-11.35-0.75 0.05-1.51 0.05-2.27 0.01z"/>
    </g>
   </g>
  </g>
 </g>
</svg>
