<?xml version="1.0" encoding="UTF-8" standalone="no"?>
<svg
   xmlns:dc="http://purl.org/dc/elements/1.1/"
   xmlns:cc="http://creativecommons.org/ns#"
   xmlns:rdf="http://www.w3.org/1999/02/22-rdf-syntax-ns#"
   xmlns:svg="http://www.w3.org/2000/svg"
   xmlns="http://www.w3.org/2000/svg"
   viewBox="0 0 1280 2560"
   height="2560"
   width="1280"
   xml:space="preserve"
   id="svg2"
   version="1.1"><metadata
     id="metadata8"><rdf:RDF><cc:Work
         rdf:about=""><dc:format>image/svg+xml</dc:format><dc:type
           rdf:resource="http://purl.org/dc/dcmitype/StillImage" /></cc:Work></rdf:RDF></metadata><defs
     id="defs6"><clipPath
       id="clipPath18"
       clipPathUnits="userSpaceOnUse"><path
         id="path16"
         d="M 0,1920 H 960 V 0 H 0 Z" /></clipPath></defs><g
     transform="matrix(1.3333333,0,0,-1.3333333,0,2560)"
     id="g10"><g
       id="g12"><g
         clip-path="url(#clipPath18)"
         id="g14"><g
           transform="translate(899.9414,220.1543)"
           id="g20"><path
             id="path22"
             style="fill:#ffffff;fill-opacity:1;fill-rule:nonzero;stroke:none"
             d="m 0,0 c 0,-67.496 -55.219,-122.715 -122.715,-122.715 h -594.109 c -67.494,0 -122.713,55.219 -122.713,122.715 v 1479.691 c 0,67.495 55.219,122.715 122.713,122.715 h 594.109 C -55.219,1602.406 0,1547.186 0,1479.691 Z" /></g><g
           transform="translate(183.1172,1816.5601)"
           id="g24"><path
             id="path26"
             style="fill:#bec0c2;fill-opacity:1;fill-rule:nonzero;stroke:none"
             d="m 0,0 c -64.355,0 -116.713,-52.358 -116.713,-116.715 v -1479.691 c 0,-64.357 52.358,-116.715 116.713,-116.715 h 594.109 c 64.358,0 116.715,52.358 116.715,116.715 V -116.715 C 710.824,-52.358 658.467,0 594.109,0 Z M 594.109,-1725.121 H 0 c -70.973,0 -128.713,57.741 -128.713,128.715 V -116.715 C -128.713,-45.741 -70.973,12 0,12 h 594.109 c 70.973,0 128.715,-57.741 128.715,-128.715 v -1479.691 c 0,-70.974 -57.742,-128.715 -128.715,-128.715" /></g><path
           id="path28"
           style="fill:#292929;fill-opacity:1;fill-rule:nonzero;stroke:none"
           d="m 862.172,286 h -764 v 1348 h 764 z" /><g
           transform="translate(547.5059,193.2266)"
           id="g30"><path
             id="path32"
             style="fill:#a1a1a2;fill-opacity:1;fill-rule:nonzero;stroke:none"
             d="m 0,0 c 0,-37.188 -30.146,-67.332 -67.334,-67.332 -37.186,0 -67.332,30.144 -67.332,67.332 0,37.188 30.146,67.334 67.332,67.334 C -30.146,67.334 0,37.188 0,0" /></g><g
           transform="translate(540.8398,193.2266)"
           id="g34"><path
             id="path36"
             style="fill:#ffffff;fill-opacity:1;fill-rule:nonzero;stroke:none"
             d="m 0,0 c 0,-33.506 -27.162,-60.666 -60.668,-60.666 -33.504,0 -60.666,27.16 -60.666,60.666 0,33.506 27.162,60.668 60.666,60.668 C -27.162,60.668 0,33.506 0,0" /></g><g
           transform="translate(543.8398,1726.897)"
           id="g38"><path
             id="path40"
             style="fill:#a1a1a2;fill-opacity:1;fill-rule:nonzero;stroke:none"
             d="m 0,0 h -127.334 c -3.682,0 -6.666,-2.985 -6.666,-6.667 0,-3.682 2.984,-6.666 6.666,-6.666 H 0 c 3.682,0 6.666,2.984 6.666,6.666 C 6.666,-2.985 3.682,0 0,0" /></g><g
           transform="translate(491.5059,1776.897)"
           id="g42"><path
             id="path44"
             style="fill:#a1a1a2;fill-opacity:1;fill-rule:nonzero;stroke:none"
             d="m 0,0 c 0,-6.259 -5.074,-11.333 -11.332,-11.333 -6.26,0 -11.334,5.074 -11.334,11.333 0,6.259 5.074,11.333 11.334,11.333 C -5.074,11.333 0,6.259 0,0" /></g><g
           transform="translate(359.0293,1721.229)"
           id="g46"><path
             id="path48"
             style="fill:#a1a1a2;fill-opacity:1;fill-rule:nonzero;stroke:none"
             d="m 0,0 c 0,-8.469 -6.865,-15.333 -15.334,-15.333 -8.468,0 -15.332,6.864 -15.332,15.333 0,8.468 6.864,15.333 15.332,15.333 C -6.865,15.333 0,8.468 0,0" /></g><g
           transform="translate(352.3203,1721.229)"
           id="g50"><path
             id="path52"
             style="fill:#5d5d5f;fill-opacity:1;fill-rule:nonzero;stroke:none"
             d="m 0,0 c 0,-4.764 -3.861,-8.625 -8.625,-8.625 -4.763,0 -8.624,3.861 -8.624,8.625 0,4.763 3.861,8.625 8.624,8.625 C -3.861,8.625 0,4.763 0,0" /></g><path
           id="path54"
           style="fill:#a1a1a2;fill-opacity:1;fill-rule:nonzero;stroke:none"
           d="m 910.342,1365.897 h -3.785 v 130 h 3.785 z" /><path
           id="path56"
           style="fill:#a1a1a2;fill-opacity:1;fill-rule:nonzero;stroke:none"
           d="m 55.445,1580.564 h -3.786 v 68.666 h 3.786 z" /><path
           id="path58"
           style="fill:#a1a1a2;fill-opacity:1;fill-rule:nonzero;stroke:none"
           d="m 55.445,1366.239 h -3.786 v 129.991 h 3.786 z" /><path
           id="path60"
           style="fill:#a1a1a2;fill-opacity:1;fill-rule:nonzero;stroke:none"
           d="m 55.445,1207.239 h -3.786 v 129.99 h 3.786 z" /></g></g></g></svg>