<?xml version="1.0" encoding="utf-8"?>
<!-- Generator: Adobe Illustrator 24.0.2, SVG Export Plug-In . SVG Version: 6.00 Build 0)  -->
<svg version="1.1" id="Warstwa_2" xmlns="http://www.w3.org/2000/svg" xmlns:xlink="http://www.w3.org/1999/xlink" x="0px" y="0px"
	 viewBox="0 0 1683.2115479 1382.1992188" style="enable-background:new 0 0 1683.2115479 1382.1992188;" xml:space="preserve">
<style type="text/css">
	.st0{fill:#83B2E1;stroke:#010202;stroke-width:5;stroke-miterlimit:10;}
	.st1{fill:none;stroke:#010202;stroke-width:5;stroke-miterlimit:10;}
</style>
<g>
	<path class="st0" d="M392.3580322,142.5844727c0,0,502.8536377-95.7516174,923.236084,3.0929108
		c0,0,203.3585205-63.1424866,257.9453125-16.1372223c62.6347656,53.9355621-45.2363281,296.6455994-45.2363281,296.6455994
		s79.5107422,237.2311096,8.3098145,608.9748535c0,0,79.4453125,207.6069336,33.7268066,242.083252
		c0,0-63.9117432,59.0671387-278.2640381,11.8497314c0,0-351.3742676,88.0195313-895.6875-4.9291992
		c0,0-193.1268311,55.9471436-268.3798828,6.0344238c0,0-61.4310837-41.4659424,29.1797485-249.5637207
		c0,0-66.8062897-302.5480957,8.4467773-610.4713745c0,0-80.6277695-152.8097839-57.9753189-278.7434998
		C107.6594925,151.4202576,119.1858749,74.6212692,392.3580322,142.5844727z"/>
	<path class="st1" d="M711.4243164,488.3713989c0,0,11.305603,47.3422852,38.8630981,77.7261353"/>
	<path class="st1" d="M823.7739258,667.8482056c0,0,174.5305786,200.6748047,257.9095459,232.4718628"/>
	<path class="st1" d="M683.8668823,634.6378784l44.4150391,128.6820679
		c2.7444458,7.951416,5.4787598,15.9067383,8.0997925,23.8997192
		c4.6757202,14.2589722,29.0975952,74.5023193,120.602478,125.8192139"/>
	<path class="st1" d="M1315.5941162,145.6773834c0,0-45.0285645,10.1644745-60.3905029,22.6003113"/>
	<path class="st1" d="M1528.3031006,426.1857605c0,0-9.4711914,27.1039734-24.9626465,39.074646"/>
	<path class="st1" d="M1536.612915,1035.1606445c0,0-14.1308594-42.918457-32.4188232-70.7161865"/>
	<path class="st1" d="M1292.0756836,1289.0936279c0,0-36.7849121-9.8513184-54.5543213-25.0821533"/>
	<path class="st1" d="M396.3881836,1284.1644287c0,0,21.0983276-2.7871094,41.0557861-20.1529541"/>
	<path class="st1" d="M157.1880341,1040.6351318c0,0,11.678009-37.4950562,38.1919403-64.0089722"/>
	<path class="st1" d="M165.6348114,430.1637573c0,0,7.0512848,23.0600891,22.3764801,37.3856201"/>
	<path class="st1" d="M392.3580322,142.5844727c0,0,27.0359497,6.6551361,50.1176758,16.547287"/>
</g>
</svg>
