<?xml version="1.0" encoding="UTF-8"?>
<svg width="465.21" height="465.21" version="1.1" viewBox="0 0 465.21 465.20998" xmlns="http://www.w3.org/2000/svg">
 <defs>
  <linearGradient id="i" x1="444.77" x2="602.46" y1="302.12" y2="451.32" gradientTransform="translate(-585.85 -197.98)" gradientUnits="userSpaceOnUse">
   <stop stop-color="#ff298f" offset="0"/>
   <stop stop-color="#d51952" offset=".45002"/>
   <stop stop-color="#b5093b" offset="1"/>
  </linearGradient>
  <linearGradient id="j" x1="444.77" x2="602.46" y1="302.12" y2="451.32" gradientTransform="matrix(.0017814 1 -1 .0017814 657.45 -216.52)" gradientUnits="userSpaceOnUse">
   <stop stop-color="#139bca" offset="0"/>
   <stop stop-color="#0e5fb0" offset=".45002"/>
   <stop stop-color="#0a57a9" offset="1"/>
  </linearGradient>
  <linearGradient id="k" x1="444.77" x2="602.46" y1="302.12" y2="451.32" gradientTransform="matrix(-1 0 0 -1 505.86 887.32)" gradientUnits="userSpaceOnUse">
   <stop stop-color="#dd8509" offset="0"/>
   <stop stop-color="#f1bd0a" offset=".45002"/>
   <stop stop-color="#fff44d" offset="1"/>
  </linearGradient>
  <linearGradient id="l" x1="444.77" x2="602.46" y1="302.12" y2="451.32" gradientTransform="matrix(-1,0,0,-1,989,750.14)" gradientUnits="userSpaceOnUse">
   <stop stop-color="#489f03" offset="0"/>
   <stop stop-color="#55b505" offset=".45002"/>
   <stop stop-color="#67d308" offset="1"/>
  </linearGradient>
  <filter id="g" color-interpolation-filters="sRGB">
   <feGaussianBlur stdDeviation="1.0360341"/>
  </filter>
  <filter id="h" color-interpolation-filters="sRGB">
   <feGaussianBlur stdDeviation="0.46367808"/>
  </filter>
 </defs>
 <g transform="translate(-137.29 -3.68)">
  <path d="m563.71 160.51c-6.8396-0.23632-13.166 3.6103-19.438 6.0312-0.92275 0.52784-1.9427 0.8257-3 0.90625 1.5456 0.1935 3.1432-0.13012 4.5-0.90625 5.8798-2.2696 11.834-5.7632 18.188-6-0.0834-1e-3 -0.16634-0.0313-0.25-0.0313z" color="#000000" fill="#007bff"/>
  <path d="m375.68 185.59c-1.2471-1e-3 -2.5114 0.27985-3.5938 0.90625-1.9902 1.1517-3.3527 3.6858-3.5625 6.0312h-0.0313v73.75h1.5v-73.75h0.0313c0.2098-2.3454 1.5723-4.8796 3.5625-6.0312 0.81173-0.4698 1.7289-0.75889 2.6562-0.875-0.18669-0.0142-0.37529-0.031-0.5625-0.0313z" color="#000000" fill="#fff" fill-opacity=".59073"/>
  <path d="m559.18 185.59c-0.18721-2e-4 -0.37588 0.0174-0.5625 0.0313 0.92798 0.11777 1.8109 0.40929 2.625 0.875 6.5272 2.2553 12.475 6.0312 19.438 6.0312 0.34949 0 0.71736 0.0175 1.0625 0-6.772-0.15528-12.612-3.824-19-6.0312-1.0854-0.62095-2.3154-0.90489-3.5625-0.90625z" color="#000000" fill="#007bff"/>
  <g transform="matrix(.00033877 -1 1 .00033877 -42.827 106.71)">
   <path d="m62.476 604.65v-67.719h-0.031c-0.2098-2.3454-1.5723-4.8794-3.5625-6.0312-2.1646-1.2527-0.9853-1.2418-3.1562 0-6.2718 2.4209-12.598 6.2676-19.438 6.0312-10.834 0-19.708-8.5193-20.25-19.219-0.017-0.3451 0-0.68175 0-1.0312 0-11.184 9.0663-20.25 20.25-20.25 6.9621 0 12.91 3.776 19.438 6.0313 2.1709 1.2419 4.9916 1.2528 7.1562 0 1.9902-1.1517 3.3527-3.6859 3.5625-6.0313h0.031v-73.75h-73.75v-0.0313c-2.3454-0.20976-4.8796-1.5723-6.0313-3.5625-1.2528-2.1646-1.2419-4.9853 0-7.1562 2.2553-6.5273 6.0313-12.475 6.0313-19.438 0-11.184-9.0662-20.25-20.25-20.25-0.3495 0-0.6862-0.0175-1.0313 0-10.7 0.54236-19.219 9.4157-19.219 20.25-0.2363 6.8396 3.6103 13.166 6.0312 19.438 1.2418 2.1709 1.2527 4.9917 0 7.1562-1.1518 1.9902-3.6857 3.3527-6.0312 3.5625v0.0313h-67.75v73.75h-0.031c-0.2098 2.3454-1.5723 4.8796-3.5625 6.0313-2.1646 1.2528-4.9853 1.2419-7.1562 0-6.5272-2.2553-12.475-6.0313-19.438-6.0313-11.184 0-20.25 9.0662-20.25 20.25 0 0.3495-0.017 0.68615 0 1.0312 0.5424 10.699 9.4158 19.219 20.25 19.219 6.8396 0.23632 13.166-3.6103 19.438-6.0312 2.1709-1.2418 4.9916-1.2527 7.1562 0 1.9902 1.1518 3.3527 3.6858 3.5625 6.0312h0.031v67.719h67.75v-0.0313c2.3455-0.20976 4.8794-1.5723 6.0312-3.5625 1.2527-2.1646 1.2418-4.9853 0-7.1562-2.4209-6.2718-6.2675-12.598-6.0312-19.438 0-10.834 8.5192-19.708 19.219-20.25 0.3451-0.0175 0.6818 0 1.0313 0 11.184 0 20.25 9.0662 20.25 20.25 0 6.9621-3.776 12.91-6.0313 19.438-1.2419 2.1709-1.2528 4.9917 0 7.1562 1.1517 1.9902 3.6859 3.3527 6.0313 3.5625v0.0313z" color="#000000" fill="#873e00"/>
   <path d="m68.713 602.17v-67.719h-0.031c-0.2098-2.3454-1.5723-4.8794-3.5625-6.0312-2.1646-1.2527-4.9853-1.2418-7.1562 0-6.2718 2.4209-12.598 6.2676-19.438 6.0312-10.834 0-19.708-8.5193-20.25-19.219-0.017-0.3451 0-0.68175 0-1.0312 0-11.184 9.0663-20.25 20.25-20.25 6.9621 0 12.91 3.776 19.438 6.0313 2.1709 1.2419 4.9916 1.2528 7.1562 0 1.9902-1.1517 3.3527-3.6859 3.5625-6.0313h0.031v-73.75h-73.75v-0.0313c-2.3454-0.20976-4.8796-1.5723-6.0313-3.5625-1.2528-2.1646-1.2419-4.9853 0-7.1562 2.2553-6.5273 6.0313-12.475 6.0313-19.438 0-11.184-9.0662-20.25-20.25-20.25-0.3495 0-0.6862-0.0175-1.0313 0-10.7 0.54236-19.219 9.4157-19.219 20.25-0.2363 6.8396 3.6103 13.166 6.0312 19.438 1.2418 2.1709 1.2527 4.9917 0 7.1562-1.1518 1.9902-3.6857 3.3527-6.0312 3.5625v0.0313h-67.75v73.75h-0.031c-0.2098 2.3454-1.5723 4.8796-3.5625 6.0313-2.1646 1.2528-4.9853 1.2419-7.1562 0-6.5272-2.2553-12.475-6.0313-19.438-6.0313-11.184 0-20.25 9.0662-20.25 20.25 0 0.3495-0.017 0.68615 0 1.0312 0.5424 10.699 9.4158 19.219 20.25 19.219 6.8396 0.23632 13.166-3.6103 19.438-6.0312 2.1709-1.2418 4.9916-1.2527 7.1562 0 1.9902 1.1518 3.3527 3.6858 3.5625 6.0312h0.031v67.719h67.75v-0.0313c2.3455-0.20976 4.8794-1.5723 6.0312-3.5625 1.2527-2.1646 1.2418-4.9853 0-7.1562-2.4209-6.2718-6.2675-12.598-6.0312-19.438 0-10.834 8.5192-19.708 19.219-20.25 0.3451-0.0175 0.6818 0 1.0313 0 11.184 0 20.25 9.0662 20.25 20.25 0 6.9621-3.776 12.91-6.0313 19.438-1.2419 2.1709-1.2528 4.9917 0 7.1562 1.1517 1.9902 3.6859 3.3527 6.0313 3.5625v0.0313h73.75z" color="#000000" fill="url(#k)" stroke="#f60" stroke-width=".4"/>
   <path d="m-24.833 369.78c10.685 0.55791 19.156 9.4262 19.156 20.25 0 6.9621-3.776 12.91-6.0312 19.438-1.2419 2.1709-1.2528 4.9917 0 7.1562 1.1517 1.9902 3.6858 3.3527 6.0312 3.5625v0.0313h2.125v-0.0313c-2.3454-0.20976-4.8796-1.5723-6.0312-3.5625-1.2528-2.1646-1.2419-4.9853 0-7.1562 2.2553-6.5273 6.0312-12.475 6.0312-19.438 0-11.184-9.0662-20.25-20.25-20.25-0.3495 0-0.68615-0.0175-1.0312 0zm92.906 50.438v73.75h-0.0313c-0.2098 2.3454-1.5723 4.8795-3.5625 6.0312-0.77409 0.44802-1.6178 0.71746-2.5 0.84375 1.5858 0.22951 3.2345-0.039 4.625-0.84375 1.9902-1.1517 3.3527-3.6858 3.5625-6.0312h0.0313v-73.75h-2.125zm-211.09 73.75c-0.0736 4e-3 -0.1454 0.0267-0.21875 0.0313 6.5936 0.29282 12.307 3.8387 18.562 6 1.3946 0.79778 3.0716 1.0706 4.6562 0.84375-0.88282-0.12777-1.7549-0.39963-2.5312-0.84375-6.5272-2.2553-12.475-6.0312-19.438-6.0312-0.34949 0-0.68611-0.0175-1.0312 0zm179.88 0c-10.699 0.54236-19.219 9.4157-19.219 20.25 0 0.3495-0.017 0.68615 0 1.0312 0.5424 10.699 9.4158 19.219 20.25 19.219 0.55268 0.0191 1.11 7e-5 1.6562-0.0313-10.618-0.24465-19.247-8.6448-19.781-19.188-0.017-0.3451 0-0.68175 0-1.0312 0-10.76 8.4043-19.567 19-20.219-0.28676-0.0127-0.58483-0.0313-0.875-0.0313-0.34949 0-0.68611-0.0175-1.0312 0zm-157.94 33.531c-1.2471 1e-3 -2.5083 0.3166-3.5938 0.9375-5.765 2.2253-11.568 5.6438-17.781 6 0.15788 4e-3 0.31 0.0313 0.46875 0.0313 6.8396 0.23632 13.166-3.6103 19.438-6.0312 0.79591-0.45528 1.6875-0.75224 2.5938-0.875-0.37116-0.0563-0.74923-0.0629-1.125-0.0625zm184.12 0c-0.33266 3.6e-4 -0.67033 0.0178-1 0.0625 0.86066 0.1306 1.6813 0.43737 2.4375 0.875 1.9902 1.1518 3.3527 3.6858 3.5625 6.0312h0.0313v67.719h2.125v-67.719h-0.0313c-0.2098-2.3454-1.5723-4.8794-3.5625-6.0312-1.0823-0.62636-2.3154-0.93887-3.5625-0.9375zm-90 24.25c-10.7 0.54236-19.219 9.4157-19.219 20.25-0.2363 6.8396 3.6104 13.166 6.0312 19.438 1.2418 2.1709 1.2527 4.9917 0 7.1562-1.1518 1.9902-3.6858 3.3527-6.0312 3.5625v0.0313h2.125v-0.0313c2.3455-0.20976 4.8794-1.5723 6.0312-3.5625 1.2527-2.1646 1.2418-4.9853 0-7.1562-2.4209-6.2718-6.2676-12.598-6.0312-19.438 0-10.824 8.5028-19.692 19.188-20.25-0.34515-0.0175-0.71301 0-1.0625 0-0.3495 0-0.68615-0.0175-1.0312 0z" color="#000000" fill="#bb6a00"/>
  </g>
  <g transform="matrix(-.99999 -.0036716 .0036716 -.99999 410.95 493.42)">
   <path d="m-137.39 94.952v67.719h0.0313c0.2098 2.3454 1.5723 4.8794 3.5625 6.0312 2.1646 1.2527 4.9854 1.2418 7.1562 0 6.2718-2.4209 12.598-6.2676 19.438-6.0312 10.834 0 19.708 8.5193 20.25 19.219 0.017 0.3451 0 0.68175 0 1.0312 0 11.184-9.0663 20.25-20.25 20.25-6.9621 0-12.91-3.776-19.438-6.0312-2.1709-1.2419-4.9916-1.2528-7.1562 0-1.9902 1.1517-3.3527 3.6858-3.5625 6.0312h-0.03v73.75h67.75v-0.0313c2.3454-0.2098 4.8794-1.5723 6.0312-3.5625 1.2527-2.1646 1.2418-4.9854 0-7.1562-2.4209-6.2718-6.2676-12.598-6.0312-19.438 0-10.834 8.5192-19.708 19.219-20.25 0.3451-0.017 0.6818 0 1.0313 0 11.184 0 20.25 9.0663 20.25 20.25 0 6.9621-3.776 12.91-6.0313 19.438-1.2419 2.1709-1.2528 4.9916 0 7.1562 1.1517 1.9902 3.6859 3.3527 6.0313 3.5625v0.0313h73.75v-73.75h0.031c0.2098-2.3454 1.5723-4.8796 3.5625-6.0312 2.1646-1.2528 4.9854-1.2419 7.1563 0 6.5272 2.2553 12.475 6.0312 19.438 6.0312 11.184 0 20.25-9.0662 20.25-20.25 0-0.3495 0.017-0.68615 0-1.0312-0.5424-10.699-9.4158-19.219-20.25-19.219-6.8396-0.23632-13.166 3.6103-19.438 6.0312-2.1709 1.2418-4.9917 1.2527-7.1563 0-1.9902-1.1518-3.3527-3.6858-3.5625-6.0312h-0.031v-67.719h-67.75v0.0313c-2.3455 0.20976-4.8795 1.5723-6.0313 3.5625-1.2527 2.1646-1.2418 4.9853 0 7.1562 2.4209 6.2718 6.2676 12.598 6.0313 19.438 0 10.834-8.5193 19.708-19.219 20.25-0.3451 0.0175-0.6817 0-1.0312 0-11.184 0-20.25-9.0662-20.25-20.25 0-6.9621 3.7759-12.91 6.0312-19.438 1.2419-2.1709 1.2528-4.9917 0-7.1562-1.1517-1.9902-3.6858-3.3527-6.0312-3.5625v-0.03h-73.75z" color="#000000" fill="#800000" fill-opacity=".82239" filter="url(#g)"/>
   <path d="m-148.7 87.168v67.719h0.0313c0.2098 2.3454 1.5723 4.8794 3.5625 6.0312 2.1646 1.2527 4.9854 1.2418 7.1562 0 6.2718-2.4209 12.598-6.2676 19.438-6.0312 10.834 0 19.708 8.5193 20.25 19.219 0.017 0.3451 0 0.68175 0 1.0312 0 11.184-9.0663 20.25-20.25 20.25-6.9621 0-12.91-3.776-19.438-6.0312-2.1709-1.2419-4.9916-1.2528-7.1562 0-1.9902 1.1517-3.3527 3.6858-3.5625 6.0312h-0.03v73.75h67.75v-0.0313c2.3454-0.2098 4.8794-1.5723 6.0312-3.5625 1.2527-2.1646 1.2418-4.9854 0-7.1562-2.4209-6.2718-6.2676-12.598-6.0312-19.438 0-10.834 8.5192-19.708 19.219-20.25 0.3451-0.017 0.6818 0 1.0313 0 11.184 0 20.25 9.0663 20.25 20.25 0 6.9621-3.776 12.91-6.0313 19.438-1.2419 2.1709-1.2528 4.9916 0 7.1562 1.1517 1.9902 3.6859 3.3527 6.0313 3.5625v0.0313h73.75v-73.75h0.031c0.2098-2.3454 1.5723-4.8796 3.5625-6.0312 2.1646-1.2528 4.9854-1.2419 7.1563 0 6.5272 2.2553 12.475 6.0312 19.438 6.0312 11.184 0 20.25-9.0662 20.25-20.25 0-0.3495 0.017-0.68615 0-1.0312-0.5424-10.699-9.4158-19.219-20.25-19.219-6.8396-0.23632-13.166 3.6103-19.438 6.0312-2.1709 1.2418-4.9917 1.2527-7.1563 0-1.9902-1.1518-3.3527-3.6858-3.5625-6.0312h-0.031v-67.719h-67.75v0.0313c-2.3455 0.20976-4.8795 1.5723-6.0313 3.5625-1.2527 2.1646-1.2418 4.9853 0 7.1562 2.4209 6.2718 6.2676 12.598 6.0313 19.438 0 10.834-8.5193 19.708-19.219 20.25-0.3451 0.0175-0.6817 0-1.0312 0-11.184 0-20.25-9.0662-20.25-20.25 0-6.9621 3.7759-12.91 6.0312-19.438 1.2419-2.1709 1.2528-4.9917 0-7.1562-1.1517-1.9902-3.6858-3.3527-6.0312-3.5625v-0.03h-73.75z" color="#000000" fill="url(#i)" stroke="#000" stroke-width=".4"/>
   <path d="m-74.234 88.692v0.0313c2.3454 0.20976 4.8796 1.5723 6.0312 3.5625 1.2528 2.1646 1.2419 4.9853 0 7.1562-2.2553 6.5273-6.0312 12.475-6.0312 19.438 0 11.184 9.0662 20.25 20.25 20.25 0.3495 0 0.68615 0.0175 1.0312 0-10.964-0.2523-19.781-9.2249-19.781-20.25 0-6.9621 3.776-12.91 6.0312-19.438 1.2419-2.1709 1.2528-4.9917 0-7.1562-1.1517-1.9902-3.6858-3.3527-6.0312-3.5625v-0.03h-1.5zm108.25 0v67.719h0.0313c0.2098 2.3454 1.5723 4.8794 3.5625 6.0312 1.3064 0.75609 2.8464 1.0323 4.3438 0.875-0.99195-0.0989-1.9782-0.37405-2.8438-0.875-1.9902-1.1518-3.3527-3.6858-3.5625-6.0312h-0.03v-67.719h-1.5zm-153.09 67.719c-6.3536 0.23675-12.276 3.7616-18.156 6.0312-0.86065 0.49232-1.829 0.77165-2.8125 0.875 1.4886 0.14842 3.0097-0.12978 4.3125-0.875 5.8116-2.2433 11.667-5.7225 17.938-6.0312-0.42747-0.0148-0.85767-0.0158-1.2812 0zm183.5 0c10.733 0.11513 19.493 8.5922 20.031 19.219 0.017 0.3451 0 0.68175 0 1.0312 0 10.961-8.7178 19.868-19.594 20.219 0.28331 0.0124 0.55711 0.0313 0.84375 0.0313 11.184 0 20.25-9.0662 20.25-20.25 0-0.3495 0.017-0.68615 0-1.0312-0.5424-10.699-9.4158-19.219-20.25-19.219-0.42747-0.0148-0.85767-0.0158-1.2812 0zm-203.72 33.53c-0.2497-2.7e-4 -0.50167 0.0377-0.75 0.0625 0.98355 0.10335 1.9518 0.38265 2.8125 0.875 6.5272 2.2553 12.475 6.0312 19.438 6.0312 0.22252 0 0.43546-0.0241 0.65625-0.0313-6.598-0.28951-12.335-3.8376-18.594-6-1.0854-0.62095-2.3154-0.93614-3.5625-0.9375zm180.5 0c-1.2471-1e-3 -2.5114 0.3111-3.5938 0.9375-1.9902 1.1517-3.3527 3.6858-3.5625 6.0312h-0.0313v73.75h1.5v-73.75h0.0313c0.2098-2.3454 1.5723-4.8796 3.5625-6.0312 0.8656-0.50098 1.8518-0.77609 2.8438-0.875-0.2569-0.027-0.49172-0.0622-0.75-0.0625zm-102.22 30.281c-10.7 0.5424-19.219 9.4158-19.219 20.25-0.2364 6.8396 3.6104 13.166 6.0312 19.438 1.2418 2.1709 1.2527 4.9916 0 7.1562-1.1518 1.9902-3.6858 3.3527-6.0312 3.5625v0.0313h1.5v-0.0313c2.3454-0.2098 4.8794-1.5723 6.0312-3.5625 1.2527-2.1646 1.2418-4.9854 0-7.1562-2.4209-6.2718-6.2676-12.598-6.0312-19.438 0-10.792 8.4535-19.645 19.094-20.25-0.11592-2e-3 -0.22736 0-0.34375 0-0.3495 0-0.68615-0.017-1.0312 0z" color="#000000" fill="#800000"/>
   <path d="m-147.29 88.582v67.719h0.0313c0.2098 2.3454 1.5723 4.8794 3.5625 6.0312 2.1646 1.2527 4.9854 1.2418 7.1562 0 6.2718-2.4209 12.598-6.2676 19.438-6.0312 10.834 0 19.708 8.5193 20.25 19.219 0.017 0.3451 0 0.68175 0 1.0312 0 11.184-9.0663 20.25-20.25 20.25-6.9621 0-12.91-3.776-19.438-6.0312-2.1709-1.2419-4.9916-1.2528-7.1562 0-1.9902 1.1517-3.3527 3.6858-3.5625 6.0312h-0.03v73.75h67.75v-0.0313c2.3454-0.2098 4.8794-1.5723 6.0312-3.5625 1.2527-2.1646 1.2418-4.9854 0-7.1562-2.4209-6.2718-6.2676-12.598-6.0312-19.438 0-10.834 8.5192-19.708 19.219-20.25 0.3451-0.017 0.6818 0 1.0313 0 11.184 0 20.25 9.0663 20.25 20.25 0 6.9621-3.776 12.91-6.0313 19.438-1.2419 2.1709-1.2528 4.9916 0 7.1562 1.1517 1.9902 3.6859 3.3527 6.0313 3.5625v0.0313h73.75v-73.75h0.031c0.2098-2.3454 1.5723-4.8796 3.5625-6.0312 2.1646-1.2528 4.9854-1.2419 7.1563 0 6.5272 2.2553 12.475 6.0312 19.438 6.0312 11.184 0 20.25-9.0662 20.25-20.25 0-0.3495 0.017-0.68615 0-1.0312-0.5424-10.699-9.4158-19.219-20.25-19.219-6.8396-0.23632-13.166 3.6103-19.438 6.0312-2.1709 1.2418-4.9917 1.2527-7.1563 0-1.9902-1.1518-3.3527-3.6858-3.5625-6.0312h-0.031v-67.719h-67.75v0.0313c-2.3455 0.20976-4.8795 1.5723-6.0313 3.5625-1.2527 2.1646-1.2418 4.9853 0 7.1562 2.4209 6.2718 6.2676 12.598 6.0313 19.438 0 10.834-8.5193 19.708-19.219 20.25-0.3451 0.0175-0.6817 0-1.0312 0-11.184 0-20.25-9.0662-20.25-20.25 0-6.9621 3.7759-12.91 6.0312-19.438 1.2419-2.1709 1.2528-4.9917 0-7.1562-1.1517-1.9902-3.6858-3.3527-6.0312-3.5625v-0.03h-73.75z" color="#000000" fill="none" stroke="#800000" stroke-width=".4"/>
  </g>
  <path d="m368.53 448.02v-67.719h-0.031c-0.2098-2.3454-1.5723-4.8794-3.5625-6.0312-2.1646-1.2527-4.9853-1.2418-7.1562 0-6.2718 2.4209-12.598 6.2676-19.438 6.0312-10.834 0-19.708-8.5193-20.25-19.219-0.017-0.3451 0-0.68175 0-1.0312 0-11.184 9.0663-20.25 20.25-20.25 6.9621 0 12.91 3.776 19.438 6.0313 2.1709 1.2419 4.9916 1.2528 7.1562 0 1.9902-1.1517 3.3527-3.6859 3.5625-6.0313h0.031v-73.75h-73.75v-0.0313c-2.3454-0.20976-4.8796-1.5723-6.0313-3.5625-1.2528-2.1646-1.2419-4.9853 0-7.1562 2.2553-6.5273 6.0313-12.475 6.0313-19.438 0-11.184-9.0662-20.25-20.25-20.25-0.3495 0-0.6862-0.0175-1.0313 0-10.7 0.54236-19.219 9.4157-19.219 20.25-0.2363 6.8396 3.6103 13.166 6.0312 19.438 1.2418 2.1709 1.2527 4.9917 0 7.1562-1.1518 1.9902-3.6857 3.3527-6.0312 3.5625v0.0313h-67.75v73.75h-0.031c-0.2098 2.3454-1.5723 4.8796-3.5625 6.0313-2.1646 1.2528-4.9853 1.2419-7.1562 0-6.5272-2.2553-12.475-6.0313-19.438-6.0313-11.184 0-20.25 9.0662-20.25 20.25 0 0.3495-0.017 0.68615 0 1.0312 0.5424 10.699 9.4158 19.219 20.25 19.219 6.8396 0.23632 13.166-3.6103 19.438-6.0312 2.1709-1.2418 4.9916-1.2527 7.1562 0 1.9902 1.1518 3.3527 3.6858 3.5625 6.0312h0.031v67.719h67.75v-0.0313c2.3455-0.20976 4.8794-1.5723 6.0312-3.5625 1.2527-2.1646 1.2418-4.9853 0-7.1562-2.4209-6.2718-6.2675-12.598-6.0312-19.438 0-10.834 8.5192-19.708 19.219-20.25 0.3451-0.0175 0.6818 0 1.0313 0 11.184 0 20.25 9.0662 20.25 20.25 0 6.9621-3.776 12.91-6.0313 19.438-1.2419 2.1709-1.2528 4.9917 0 7.1562 1.1517 1.9902 3.6859 3.3527 6.0313 3.5625v0.0313h73.75z" color="#000000" fill="none"/>
  <g transform="matrix(-.011976 -.99993 .99993 -.011976 -88.678 595.72)">
   <path d="m552.91 468.87v-67.719h-0.0313c-0.2098-2.3454-1.5723-4.8794-3.5625-6.0312-2.1646-1.2527-4.9854-1.2418-7.1562 0-6.2718 2.4209-12.598 6.2676-19.438 6.0312-10.834 0-19.708-8.5193-20.25-19.219-0.017-0.3451 0-0.68175 0-1.0312 0-11.184 9.0663-20.25 20.25-20.25 6.9621 0 12.91 3.776 19.438 6.0313 2.1709 1.2419 4.9916 1.2528 7.1562 0 1.9902-1.1517 3.3527-3.6859 3.5625-6.0313h0.0313v-77.816h-67.75v0.0313c-2.3454 0.2098-4.8794 5.6382-6.0312 7.6284-1.2527 2.1646-1.2418 4.9854 0 7.1562 2.4209 6.2718 6.2676 12.598 6.0312 19.438 0 10.834-8.5192 19.708-19.219 20.25-0.3451 0.017-0.6818 0-1.0313 0-11.184 0-20.25-9.0663-20.25-20.25 0-6.9621 3.776-12.91 6.0313-19.438 1.2419-2.1709 1.2528-4.9916 0-7.1562-1.1517-1.9902-3.6859-3.3527-6.0313-3.5625v-0.0313h-73.75v73.75h-0.031c-0.2098 2.3454-1.5723 4.8796-3.5625 6.0313-2.1646 1.2528-4.9854 1.2419-7.1563 0-6.5272-2.2553-12.475-6.0313-19.438-6.0313-11.184 0-20.25 9.0662-20.25 20.25 0 0.3495-0.017 0.68615 0 1.0312 0.5424 10.699 9.4158 19.219 20.25 19.219 6.8396 0.23632 13.166-3.6103 19.438-6.0312 2.1709-1.2418 4.9917-1.2527 7.1563 0 1.9902 1.1518 3.3527 3.6858 3.5625 6.0312h0.031v67.719h67.75v-0.0313c2.3455-0.20976 4.8795-1.5723 6.0313-3.5625 1.2527-2.1646 1.2418-4.9853 0-7.1562-2.4209-6.2718-6.2676-12.598-6.0313-19.438 0-10.834 8.5193-19.708 19.219-20.25 0.3451-0.0175 0.6817 0 1.0312 0 11.184 0 20.25 9.0662 20.25 20.25 0 6.9621-3.7759 12.91-6.0312 19.438-1.2419 2.1709-1.2528 4.9917 0 7.1562 1.1517 1.9902 3.6858 3.3527 6.0312 3.5625v0.0313z" color="#000000" fill="#008000"/>
   <path d="m551.85 464.98v-67.719h-0.0313c-0.2098-2.3454-1.5723-4.8794-3.5625-6.0312-2.1646-1.2527-4.9854-1.2418-7.1562 0-6.2718 2.4209-12.598 6.2676-19.438 6.0312-10.834 0-19.708-8.5193-20.25-19.219-0.017-0.3451 0-0.68175 0-1.0312 0-11.184 9.0663-20.25 20.25-20.25 6.9621 0 12.91 3.776 19.438 6.0313 2.1709 1.2419 4.9916 1.2528 7.1562 0 1.9902-1.1517 3.3527-3.6859 3.5625-6.0313h0.0313v-73.75h-67.75v0.0313c-2.3454 0.2098-4.8794 1.5723-6.0312 3.5625-1.2527 2.1646-1.2418 4.9854 0 7.1562 2.4209 6.2718 6.2676 12.598 6.0312 19.438 0 10.834-8.5192 19.708-19.219 20.25-0.3451 0.017-0.6818 0-1.0313 0-11.184 0-20.25-9.0663-20.25-20.25 0-6.9621 3.776-12.91 6.0313-19.438 1.2419-2.1709 1.2528-4.9916 0-7.1562-1.1517-1.9902-3.6859-3.3527-6.0313-3.5625v-0.0313h-73.75v73.75h-0.031c-0.2098 2.3454-1.5723 4.8796-3.5625 6.0313-2.1646 1.2528-4.9854 1.2419-7.1563 0-6.5272-2.2553-12.475-6.0313-19.438-6.0313-11.184 0-20.25 9.0662-20.25 20.25 0 0.3495-0.017 0.68615 0 1.0312 0.5424 10.699 9.4158 19.219 20.25 19.219 6.8396 0.23632 13.166-3.6103 19.438-6.0312 2.1709-1.2418 4.9917-1.2527 7.1563 0 1.9902 1.1518 3.3527 3.6858 3.5625 6.0312h0.031v67.719h67.75v-0.0313c2.3455-0.20976 4.8795-1.5723 6.0313-3.5625 1.2527-2.1646 1.2418-4.9853 0-7.1562-2.4209-6.2718-6.2676-12.598-6.0313-19.438 0-10.834 8.5193-19.708 19.219-20.25 0.3451-0.0175 0.6817 0 1.0312 0 11.184 0 20.25 9.0662 20.25 20.25 0 6.9621-3.7759 12.91-6.0312 19.438-1.2419 2.1709-1.2528 4.9917 0 7.1562 1.1517 1.9902 3.6858 3.3527 6.0312 3.5625v0.0313h73.75z" color="#000000" fill="url(#l)"/>
   <path d="m443.65 283.25v0.0313c2.3454 0.20976 4.8796 1.5723 6.0312 3.5625 1.2528 2.1646 1.2419 4.9853 0 7.1562-2.2553 6.5273-6.0312 12.475-6.0312 19.438 0 11.184 9.0662 20.25 20.25 20.25 0.15886 0 0.31318-2e-3 0.46875 0-10.7-0.54236-19.219-9.4157-19.219-20.25 0-6.9621 3.776-12.91 6.0312-19.438 1.2419-2.1709 1.2528-4.9917 0-7.1562-1.1517-1.9902-3.6858-3.3527-6.0312-3.5625v-0.03h-1.5z" color="#000000" fill="#004000"/>
   <path d="m370.16 283v73.75h-0.0313c-0.2098 2.3454-1.5723 4.8795-3.5625 6.0312-0.7936 0.45931-1.6568 0.7538-2.5625 0.875 1.5656 0.21209 3.1915-0.0815 4.5625-0.875 1.9902-1.1517 3.3527-3.6858 3.5625-6.0312h0.03v-73.75h-2zm114.25 0v0.0313c-2.3454 0.2098-4.8794 1.5723-6.0312 3.5625-1.2527 2.1646-1.2418 4.9854 0 7.1562 2.4209 6.2718 6.2676 12.598 6.0312 19.438 0 10.834-8.5192 19.708-19.219 20.25 0.32449 0.0154 0.64044 0 0.96875 0 0.3495 0 0.68615 0.017 1.0312 0 10.7-0.5424 19.219-9.4158 19.219-20.25 0.2364-6.8396-3.6104-13.166-6.0312-19.438-1.2418-2.1709-1.2527-4.9916 0-7.1562 1.1518-1.9902 3.6858-3.3527 6.0312-3.5625v-0.03h-2zm-144.44 73.75c-11.184 0-20.25 9.0662-20.25 20.25 0 0.3495-0.017 0.68615 0 1.0312 0.5424 10.699 9.4158 19.219 20.25 19.219 0.52157 0.018 1.0467-4e-3 1.5625-0.0313-10.632-0.22885-19.278-8.6345-19.812-19.188-0.017-0.3451 0-0.68175 0-1.0312 0-10.803 8.4694-19.63 19.125-20.219-0.28652-0.0127-0.58508-0.0313-0.875-0.0313zm184 0c-0.34949 0-0.68611 0.0138-1.0312 0.0313 6.5552 0.32134 12.242 3.8486 18.469 6 1.375 0.78658 3.0292 1.0844 4.5938 0.875-0.90625-0.12277-1.7978-0.41968-2.5938-0.875-6.5272-2.2553-12.475-6.0312-19.438-6.0312zm-158.97 33.53c-0.3324 3.6e-4 -0.67058 0.0179-1 0.0625 0.90592 0.12113 1.7687 0.41558 2.5625 0.875 1.9902 1.1518 3.3527 3.6858 3.5625 6.0312h0.0313v67.719h2v-67.719h-0.0313c-0.2098-2.3454-1.5723-4.8794-3.5625-6.0312-1.0823-0.62636-2.3154-0.93887-3.5625-0.9375zm180 0c-1.2471 1e-3 -2.5083 0.3166-3.5938 0.9375-5.7935 2.2363-11.627 5.6727-17.875 6 0.14754 3e-3 0.28921 0.0313 0.4375 0.0313 6.8396 0.23632 13.166-3.6103 19.438-6.0312 0.79614-0.45541 1.6872-0.7523 2.5938-0.875-0.3292-0.044-0.6676-0.0629-1-0.0625zm-85.875 24.25c-0.0641 3e-3 -0.12358 0.0274-0.1875 0.0313 10.828 0.40361 19.469 9.292 19.469 20.219 0 6.9621-3.776 12.91-6.0312 19.438-1.2419 2.1709-1.2528 4.9917 0 7.1562 1.1517 1.9902 3.6858 3.3527 6.0312 3.5625v0.0313h2v-0.0313c-2.3454-0.20976-4.8796-1.5723-6.0312-3.5625-1.2528-2.1646-1.2419-4.9853 0-7.1562 2.2553-6.5273 6.0312-12.475 6.0312-19.438 0-11.184-9.0662-20.25-20.25-20.25-0.3495 0-0.68615-0.0175-1.0312 0z" color="#000000" fill="#fff" fill-opacity=".47876"/>
   <path d="m551.72 464.98v-67.719h-0.0313c-0.2098-2.3454-1.5723-4.8794-3.5625-6.0312-2.1646-1.2527-4.9854-1.2418-7.1562 0-6.2718 2.4209-12.598 6.2676-19.438 6.0312-10.834 0-19.708-8.5193-20.25-19.219-0.017-0.3451 0-0.68175 0-1.0312 0-11.184 9.0663-20.25 20.25-20.25 6.9621 0 12.91 3.776 19.438 6.0313 2.1709 1.2419 4.9916 1.2528 7.1562 0 1.9902-1.1517 3.3527-3.6859 3.5625-6.0313h0.0313v-73.75h-67.75v0.0313c-2.3454 0.2098-4.8794 1.5723-6.0312 3.5625-1.2527 2.1646-1.2418 4.9854 0 7.1562 2.4209 6.2718 6.2676 12.598 6.0312 19.438 0 10.834-8.5192 19.708-19.219 20.25-0.3451 0.017-0.6818 0-1.0313 0-11.184 0-20.25-9.0663-20.25-20.25 0-6.9621 3.776-12.91 6.0313-19.438 1.2419-2.1709 1.2528-4.9916 0-7.1562-1.1517-1.9902-3.6859-3.3527-6.0313-3.5625v-0.0313h-73.75v73.75h-0.031c-0.2098 2.3454-1.5723 4.8796-3.5625 6.0313-2.1646 1.2528-4.9854 1.2419-7.1563 0-6.5272-2.2553-12.475-6.0313-19.438-6.0313-11.184 0-20.25 9.0662-20.25 20.25 0 0.3495-0.017 0.68615 0 1.0312 0.5424 10.699 9.4158 19.219 20.25 19.219 6.8396 0.23632 13.166-3.6103 19.438-6.0312 2.1709-1.2418 4.9917-1.2527 7.1563 0 1.9902 1.1518 3.3527 3.6858 3.5625 6.0312h0.031v67.719h67.75v-0.0313c2.3455-0.20976 4.8795-1.5723 6.0313-3.5625 1.2527-2.1646 1.2418-4.9853 0-7.1562-2.4209-6.2718-6.2676-12.598-6.0313-19.438 0-10.834 8.5193-19.708 19.219-20.25 0.3451-0.0175 0.6817 0 1.0312 0 11.184 0 20.25 9.0662 20.25 20.25 0 6.9621-3.7759 12.91-6.0312 19.438-1.2419 2.1709-1.2528 4.9917 0 7.1562 1.1517 1.9902 3.6858 3.3527 6.0312 3.5625v0.0313h73.75z" color="#000000" fill="none" stroke="#000" stroke-width=".4"/>
   <path d="m549.5 282.78v73.75h-0.0313c-0.2098 2.3454-1.5723 4.8795-3.5625 6.0312-0.77392 0.44792-1.6493 0.71742-2.5312 0.84375 1.586 0.22966 3.2343-0.0389 4.625-0.84375 1.9902-1.1517 3.3527-3.6858 3.5625-6.0312h0.0313v-73.75zm-30.188 73.75c-11.184 0-20.25 9.0662-20.25 20.25 0 0.3495-0.017 0.68615 0 1.0312 0.5424 10.699 9.4158 19.219 20.25 19.219 0.54231 0.0187 1.0577-1e-3 1.5938-0.0313-10.603-0.26073-19.216-8.6553-19.75-19.188-0.017-0.3451 0-0.68175 0-1.0312 0-10.782 8.4362-19.599 19.062-20.219-0.30374-0.0143-0.59869-0.0313-0.90625-0.0313zm25.125 33.531c-0.35515 3.9e-4 -0.71099 0.0429-1.0625 0.0937 0.88218 0.12628 1.7572 0.39576 2.5312 0.84375 1.9902 1.1518 3.3527 3.6858 3.5625 6.0312h0.0313v67.719h2.0938v-67.719h-0.0313c-0.2098-2.3454-1.5723-4.8794-3.5625-6.0312-1.0823-0.62636-2.3154-0.93887-3.5625-0.9375z" color="#000000" fill="#008000"/>
  </g>
  <path d="m374.19 221.54-67.719 0.12064 6e-5 0.031c-2.345 0.21397-4.8766 1.581-6.0248 3.5732-1.2488 2.1668-1.2329 4.9875 0.0127 7.1562 2.4321 6.2675 6.29 12.587 6.0658 19.427 0.0193 10.834-8.4842 19.723-19.183 20.284-0.34507 0.0176-0.68175 1e-3 -1.0312 2e-3 -11.184 0.0199-20.266-9.0302-20.286-20.214-0.0124-6.9621 3.753-12.917 5.9966-19.449 1.238-2.1731 1.2439-4.9938-0.0127-7.1562-1.1552-1.9881-3.6918-3.3461-6.0375-3.5518l-5e-5 -0.031-73.75 0.13138 0.13138 73.75-0.0313 5e-5c-0.20558 2.3458-1.5636 4.8824-3.5518 6.0376-2.1624 1.2566-4.9831 1.2508-7.1562 0.0128-6.5313-2.2437-12.486-6.0091-19.449-5.9967-11.184 0.0199-20.234 9.1023-20.214 20.286 6.2e-4 0.3495-0.0163 0.68623 2e-3 1.0313 0.56142 10.699 9.4499 19.202 20.284 19.183 6.84 0.22412 13.16-3.6338 19.427-6.0658 2.1687-1.2457 4.9895-1.2616 7.1562-0.0128 1.9922 1.1483 8.4858 3.6706 8.6997 6.0157l0.0313-6e-5 0.12069 67.75 68.623-0.12224 5e-5 0.031c2.3458 0.20562 4.8824 1.5636 6.0375 3.5518 1.2567 2.1624 1.2508 4.9831 0.0128 7.1562-2.2437 6.5312-6.009 12.486-5.9966 19.449 0.0199 11.184 9.1023 20.234 20.286 20.214 0.3495-6.2e-4 0.68618 0.0158 1.0312-2e-3 10.698-0.56145 19.202-9.45 19.183-20.284 0.22414-6.84-3.6338-13.16-6.0658-19.427-1.2457-2.1687-1.2616-4.9894-0.0127-7.1562 1.1482-1.9922 3.6798-3.3593 6.0248-3.5732l-5e-5 -0.031 67.719-0.12064-0.12069-67.75-0.0313 5e-5c-0.21394-2.3451-1.581-4.8766-3.5732-6.0248-2.1668-1.2488-4.9875-1.2329-7.1562 0.0127-6.2675 2.4321-12.587 6.2899-19.427 6.0658-10.834 0.0193-19.723-8.4841-20.284-19.183-0.0181-0.34507-1e-3 -0.6818-2e-3 -1.0313-0.0199-11.184 9.0301-20.266 20.214-20.286 6.9621-0.0124 12.917 3.753 19.449 5.9967 2.1731 1.238 4.9939 1.2439 7.1562-0.0127 1.9881-1.1552 3.3461-3.6919 3.5518-6.0376l0.0313-6e-5z" color="#000000" fill="#000080" fill-opacity=".55985"/>
  <path d="m373.08 221.14-67.719 0.12064 5e-5 0.031c-2.345 0.21398-4.8766 1.581-6.0248 3.5732-1.2488 2.1668-1.2329 4.9875 0.0128 7.1562 2.4321 6.2675 6.29 12.587 6.0658 19.427 0.0193 10.834-8.4842 19.723-19.183 20.284-0.34507 0.0176-0.68175 1e-3 -1.0312 2e-3 -11.184 0.0199-20.266-9.0302-20.286-20.214-0.0124-6.9621 3.753-12.917 5.9966-19.449 1.238-2.1731 1.2439-4.9938-0.0127-7.1562-1.1552-1.9882-3.6918-3.3461-6.0375-3.5518l-6e-5 -0.031-73.75 0.13138 0.13138 73.75-0.0313 6e-5c-0.20558 2.3458-1.5636 4.8824-3.5518 6.0376-2.1624 1.2567-4.9831 1.2508-7.1562 0.0127-6.5313-2.2437-12.486-6.0091-19.449-5.9967-11.184 0.0199-20.234 9.1023-20.214 20.286 6.2e-4 0.3495-0.0163 0.68623 2e-3 1.0313 0.56142 10.699 9.4499 19.202 20.284 19.183 6.84 0.22412 13.16-3.6338 19.427-6.0658 2.1687-1.2457 4.9895-1.2616 7.1562-0.0128 1.9922 1.1482 3.3593 3.6797 3.5732 6.0248l0.0313-5e-5 0.12069 67.75 73.75-0.13138 6e-5 0.031c2.3458 0.20562 4.8824 1.5636 6.0375 3.5518 1.2567 2.1624 1.2508 4.9831 0.0128 7.1562-2.2437 6.5312-6.009 12.486-5.9966 19.449 0.0199 11.184 9.1023 20.234 20.286 20.214 0.3495-6.2e-4 0.68618 0.0158 1.0312-2e-3 10.698-0.56146 19.202-9.45 19.183-20.284 0.22414-6.84-3.6337-13.16-6.0658-19.427-1.2457-2.1687-1.2616-4.9894-0.0127-7.1562 1.1482-1.9922 3.6798-3.3593 6.0248-3.5732l-5e-5 -0.031 67.719-0.12064-0.12069-67.75-0.0313 6e-5c-0.21394-2.3451-1.581-4.8766-3.5732-6.0248-2.1668-1.2488-4.9875-1.2329-7.1562 0.0127-6.2675 2.4321-12.587 6.2899-19.427 6.0658-10.834 0.0193-19.723-8.4841-20.284-19.183-0.0181-0.34507-1e-3 -0.6818-2e-3 -1.0313-0.0199-11.184 9.0301-20.266 20.214-20.286 6.9621-0.0124 12.917 3.753 19.449 5.9967 2.1731 1.238 4.9939 1.2439 7.1562-0.0127 1.9882-1.1552 3.3461-3.6919 3.5518-6.0376l0.03-5e-5 -0.13138-73.75z" color="#000000" fill="url(#j)" stroke="#000" stroke-width=".4"/>
  <path d="m370.25 216.94-67.719 0.12064 6e-5 0.0313c-2.345 0.21397-4.8766 1.581-6.0248 3.5732-0.71285 1.2369-1.0037 2.7066-0.8989 4.1266 0.11702-0.91686 0.4384-1.823 0.90157-2.6266 1.1482-1.9922 3.6798-3.3593 6.0248-3.5732l-5e-5 -0.03 67.719-0.12063-3e-3 -1.5z" color="#000000" fill="#9ec2e2"/>
  <path d="m373.29 336.84-0.0313 6e-5c-0.21394-2.3451-1.581-4.8766-3.5732-6.0248-2.1668-1.2488-4.9875-1.2329-7.1562 0.0127-6.2675 2.4321-12.587 6.29-19.427 6.0658-10.834 0.0193-19.723-8.4841-20.284-19.183-4e-3 0.158 5.5e-4 0.30989 8.4e-4 0.46875 6.2e-4 0.3495-0.0163 0.68618 2e-3 1.0312 0.56142 10.699 9.4499 19.202 20.284 19.183 6.84 0.22411 13.16-3.6338 19.427-6.0658 2.1687-1.2457 4.9895-1.2616 7.1562-0.0127 1.9922 1.1482 3.3593 3.6798 3.5732 6.0248l0.03-5e-5 -3e-3 -1.5z" color="#000000" fill="#007bff"/>
  <path transform="matrix(.0017814 1 -1 .0017814 425.19 -390.65)" d="m633.52 123.75c-0.36339-0.0126-0.70194 0.0216-1.0625 0.0313 10.635 0.22528 19.277 8.6321 19.812 19.188 0.017 0.3451 0 0.68175 0 1.0312 0 10.803-8.4382 19.661-19.094 20.25 0.11611 2e-3 0.22708 0 0.34375 0 11.184 0 20.25-9.0662 20.25-20.25 0-0.3495 0.017-0.68615 0-1.0312-0.5424-10.699-9.4158-19.219-20.25-19.219z" color="#000000" fill="#9ec2e2" filter="url(#h)"/>
  <path d="m374.5 223.96-67.719 0.12063 6e-5 0.031c-2.345 0.21398-4.8766 1.581-6.0248 3.5732-1.2488 2.1668-1.2329 4.9875 0.0128 7.1562 2.4321 6.2675 6.29 12.587 6.0658 19.427 0.0193 10.834-8.4842 19.723-19.183 20.284-0.34506 0.0176-0.68174 1e-3 -1.0312 2e-3 -11.184 0.0199-20.266-9.0302-20.286-20.214-0.0124-6.9621 3.753-12.917 5.9966-19.449 1.238-2.1731 1.2439-4.9938-0.0128-7.1562-1.1552-1.9881-3.6918-3.3461-6.0375-3.5518l-5e-5 -0.031-73.75 0.13138 0.13138 73.75-0.0313 5e-5c-0.20558 2.3458-1.5636 4.8824-3.5518 6.0376-2.1624 1.2566-4.9831 1.2508-7.1562 0.0127-6.5313-2.2437-12.486-6.0091-19.449-5.9967-11.184 0.0199-20.234 9.1023-20.214 20.286 6.2e-4 0.34949-0.0163 0.68623 2e-3 1.0313 0.56142 10.699 9.4499 19.202 20.284 19.183 6.84 0.22411 13.16-3.6338 19.427-6.0658 2.1687-1.2457 4.9895-1.2616 7.1562-0.0127 1.9922 1.1483 3.3593 3.6797 3.5732 6.0248l0.0313-6e-5 0.12069 67.75 73.75-0.13138 5e-5 0.031c2.3458 0.20562 4.8824 1.5636 6.0375 3.5518 1.2566 2.1624 1.2508 4.9831 0.0127 7.1562-2.2437 6.5312-6.009 12.486-5.9966 19.449 0.0199 11.184 9.1023 20.234 20.286 20.214 0.3495-6.2e-4 0.68618 0.0158 1.0312-2e-3 10.698-0.56146 19.202-9.45 19.183-20.284 0.22414-6.84-3.6338-13.16-6.0658-19.427-1.2457-2.1687-1.2616-4.9894-0.0127-7.1562 1.1483-1.9922 3.6798-3.3593 6.0248-3.5732l-6e-5 -0.031 67.719-0.12063-0.12069-67.75-0.0313 5e-5c-0.21394-2.3451-1.581-4.8766-3.5732-6.0248-2.1668-1.2488-4.9875-1.2329-7.1562 0.0127-6.2675 2.4321-12.587 6.2899-19.427 6.0658-10.834 0.0193-19.723-8.4841-20.284-19.183-0.0181-0.34507-1e-3 -0.6818-2e-3 -1.0313-0.0199-11.184 9.0301-20.266 20.214-20.286 6.9621-0.0124 12.917 3.753 19.449 5.9967 2.1731 1.238 4.9939 1.2439 7.1562-0.0128 1.9882-1.1552 3.3461-3.6919 3.5518-6.0376l0.03-6e-5 -0.13138-73.75z" color="#000000" fill="none" stroke="#000080" stroke-width=".4"/>
  <path d="m373.6 402.79-67.719 0.12063 5e-5 0.0313c-2.345 0.21398-4.8766 1.581-6.0248 3.5732-0.87212 1.5132-1.1217 3.3577-0.77223 5.0639 0.14963-0.71442 0.41159-1.4289 0.77757-2.0639 1.1483-1.9922 3.6798-3.3593 6.0248-3.5732l-6e-5 -0.03 67.719-0.12064zm-67.66 33.309c0.0215-0.65685-0.0171-1.2898-0.0659-1.9374-0.51374 10.35-8.7732 18.679-19.122 19.222-0.34507 0.0176-0.68175 1e-3 -1.0312 2e-3 -10.665 0.019-19.446-8.1892-20.252-18.652-0.0343 0.47835-0.0296 0.94985-0.0287 1.4376 0.0199 11.184 9.1023 20.234 20.286 20.214 0.3495-6.2e-4 0.68618 0.0158 1.0312-2e-3 10.699-0.56146 19.202-9.45 19.183-20.284zm-33.608-25.94c-1e-3 -1.2471-0.28433-2.5109-0.91265-3.5922-1.1552-1.9881-3.6918-3.3461-6.0375-3.5518l-6e-5 -0.0313-73.75 0.13138 5e-3 3 73.75-0.13138 5e-5 0.0313c2.3458 0.20562 4.8824 1.5636 6.0375 3.5518 0.37345 0.6426 0.60248 1.3678 0.75373 2.0925 0.10202-0.49544 0.15393-0.9944 0.15358-1.5003z" color="#000000" fill="#000080" fill-opacity=".43629"/>
 </g>
</svg>
