<?xml version="1.0" encoding="UTF-8"?>
<svg viewBox="0 0 2000 2000" xmlns="http://www.w3.org/2000/svg">
 <g stroke-width="14">
  <g stroke="#000" stroke-dashoffset="3.003" stroke-linecap="round" stroke-linejoin="round">
   <g fill="#0ff">
    <path d="m826.26 362.85l80.026 185.13 102.25-219.57"/>
    <path d="m538.43 564.79c61.475 60.794 439 373.19 439 373.19l-185.98-378.79-253.02 5.601z"/>
    <path d="m979.8 935.38l76.304-403.86-279.32 29.478 203.01 374.38z"/>
    <path d="m536.93 559.69l158.86-185 142.08-31.949-57.95 213.59-242.99 3.363z"/>
    <path d="m1012.8 320.14l148.42-11.385 156.64 148.38-254.49 67.318-50.564-204.31z"/>
    <path d="m835.74 344.76l172.1-21.504 49.266 208.26-276.87 29.178 55.51-215.94z"/>
    <path d="m979.8 935.38l330.49-473.55-254.18 69.686-76.304 403.86z"/>
   </g>
   <g fill="#fff">
    <path d="m838.28 29.016l32.158 226.91"/>
    <path d="m1087.9 237.36l80.249-156.09"/>
    <path d="m1283.1 396.03l127.73-98.318"/>
   </g>
  </g>
  <path d="m1240.5 665.01l152.13 61.588" fill="#0ff"/>
  <g stroke="#000">
   <g stroke-linecap="round">
    <g stroke-dashoffset="3.003" stroke-linejoin="round">
     <path d="m540.29 174.73l83.949 136.35" fill="#fff"/>
     <g fill="#0ff">
      <path d="m834.57 344.74l71.716 203.23 102.25-219.57"/>
      <path d="m1188.8 495.59l-201.35 429.6"/>
      <path d="m908.53 545.62l73.091 379.56-14.185-9.3685"/>
      <path d="m649.64 561.02l321.09 364.85"/>
     </g>
    </g>
    <path d="m618.41 746.75l-97.638 102.6"/>
    <path d="m1284.5 676.96l82.261 71.125" stroke-dashoffset="3.003" stroke-linejoin="round"/>
   </g>
   <ellipse transform="rotate(-6.2939 1002.9 1289.8)" cx="1002.9" cy="1289.9" rx="561.55" ry="484.29" fill="#ffaad4"/>
   <ellipse transform="rotate(-8.0994 999.38 1303.4)" cx="999.38" cy="1303.4" rx="465.49" ry="418.61" fill="#fff"/>
   <g fill="#0ff" stroke-dashoffset="3.003" stroke-linecap="round" stroke-linejoin="round">
    <path d="m829.92 348.15l-157.76 208.51 29.613-176.59"/>
    <path d="m1013 337.01l177.44 159.3-35.411-179.36"/>
   </g>
  </g>
 </g>
</svg>
