<?xml version="1.0" encoding="UTF-8" standalone="no"?>
<!-- Created with Inkscape (http://www.inkscape.org/) -->

<svg
   version="1.1"
   id="svg2"
   width="222.08"
   height="379.20001"
   viewBox="0 0 222.08 379.20001"
   sodipodi:docname="samsung-1097311.ai"
   xmlns:inkscape="http://www.inkscape.org/namespaces/inkscape"
   xmlns:sodipodi="http://sodipodi.sourceforge.net/DTD/sodipodi-0.dtd"
   xmlns="http://www.w3.org/2000/svg"
   xmlns:svg="http://www.w3.org/2000/svg">
  <defs
     id="defs6">
    <clipPath
       clipPathUnits="userSpaceOnUse"
       id="clipPath16">
      <path
         d="M 0,284.4 H 166.56 V 0 H 0 Z"
         id="path14" />
    </clipPath>
    <clipPath
       clipPathUnits="userSpaceOnUse"
       id="clipPath34">
      <path
         d="M 25.423,37.722 H 141.692 V 242.277 H 25.423 Z"
         id="path32" />
    </clipPath>
    <clipPath
       clipPathUnits="userSpaceOnUse"
       id="clipPath190">
      <path
         d="M 0,284.4 H 166.56 V 0 H 0 Z"
         id="path188" />
    </clipPath>
    <linearGradient
       x1="0"
       y1="0"
       x2="1"
       y2="0"
       gradientUnits="userSpaceOnUse"
       gradientTransform="matrix(-53.411064,-0.4965921,-0.4965921,53.411064,112.34082,251.15234)"
       spreadMethod="pad"
       id="linearGradient240">
      <stop
         style="stop-opacity:1;stop-color:#e7e3e0"
         offset="0"
         id="stop224" />
      <stop
         style="stop-opacity:1;stop-color:#e7e3e0"
         offset="0"
         id="stop226" />
      <stop
         style="stop-opacity:1;stop-color:#e7e3e0"
         offset="0"
         id="stop228" />
      <stop
         style="stop-opacity:1;stop-color:#e7e3e0"
         offset="0.04439189"
         id="stop230" />
      <stop
         style="stop-opacity:1;stop-color:#979297"
         offset="0.264045"
         id="stop232" />
      <stop
         style="stop-opacity:1;stop-color:#8b8689"
         offset="0.876404"
         id="stop234" />
      <stop
         style="stop-opacity:1;stop-color:#d9d9d9"
         offset="1"
         id="stop236" />
      <stop
         style="stop-opacity:1;stop-color:#d9d9d9"
         offset="1"
         id="stop238" />
    </linearGradient>
    <linearGradient
       x1="0"
       y1="0"
       x2="1"
       y2="0"
       gradientUnits="userSpaceOnUse"
       gradientTransform="matrix(-53.411323,-0.4965945,-0.4965945,53.411323,112.33887,251.33154)"
       spreadMethod="pad"
       id="linearGradient272">
      <stop
         style="stop-opacity:1;stop-color:#e7e3e0"
         offset="0"
         id="stop256" />
      <stop
         style="stop-opacity:1;stop-color:#e7e3e0"
         offset="0"
         id="stop258" />
      <stop
         style="stop-opacity:1;stop-color:#e7e3e0"
         offset="0"
         id="stop260" />
      <stop
         style="stop-opacity:1;stop-color:#e7e3e0"
         offset="0.04439189"
         id="stop262" />
      <stop
         style="stop-opacity:1;stop-color:#979297"
         offset="0.264045"
         id="stop264" />
      <stop
         style="stop-opacity:1;stop-color:#8b8689"
         offset="0.876404"
         id="stop266" />
      <stop
         style="stop-opacity:1;stop-color:#d9d9d9"
         offset="1"
         id="stop268" />
      <stop
         style="stop-opacity:1;stop-color:#d9d9d9"
         offset="1"
         id="stop270" />
    </linearGradient>
    <linearGradient
       x1="0"
       y1="0"
       x2="1"
       y2="0"
       gradientUnits="userSpaceOnUse"
       gradientTransform="matrix(-53.411102,-0.4965924,-0.4965924,53.411102,112.33984,251.27881)"
       spreadMethod="pad"
       id="linearGradient304">
      <stop
         style="stop-opacity:1;stop-color:#e7e3e0"
         offset="0"
         id="stop288" />
      <stop
         style="stop-opacity:1;stop-color:#e7e3e0"
         offset="0"
         id="stop290" />
      <stop
         style="stop-opacity:1;stop-color:#e7e3e0"
         offset="0"
         id="stop292" />
      <stop
         style="stop-opacity:1;stop-color:#e7e3e0"
         offset="0.04439189"
         id="stop294" />
      <stop
         style="stop-opacity:1;stop-color:#979297"
         offset="0.264045"
         id="stop296" />
      <stop
         style="stop-opacity:1;stop-color:#8b8689"
         offset="0.876404"
         id="stop298" />
      <stop
         style="stop-opacity:1;stop-color:#d9d9d9"
         offset="1"
         id="stop300" />
      <stop
         style="stop-opacity:1;stop-color:#d9d9d9"
         offset="1"
         id="stop302" />
    </linearGradient>
    <linearGradient
       x1="0"
       y1="0"
       x2="1"
       y2="0"
       gradientUnits="userSpaceOnUse"
       gradientTransform="matrix(-53.410938,-0.4965909,-0.4965909,53.410938,112.33887,251.36133)"
       spreadMethod="pad"
       id="linearGradient336">
      <stop
         style="stop-opacity:1;stop-color:#e7e3e0"
         offset="0"
         id="stop320" />
      <stop
         style="stop-opacity:1;stop-color:#e7e3e0"
         offset="0"
         id="stop322" />
      <stop
         style="stop-opacity:1;stop-color:#e7e3e0"
         offset="0"
         id="stop324" />
      <stop
         style="stop-opacity:1;stop-color:#e7e3e0"
         offset="0.04439189"
         id="stop326" />
      <stop
         style="stop-opacity:1;stop-color:#979297"
         offset="0.264045"
         id="stop328" />
      <stop
         style="stop-opacity:1;stop-color:#8b8689"
         offset="0.876404"
         id="stop330" />
      <stop
         style="stop-opacity:1;stop-color:#d9d9d9"
         offset="1"
         id="stop332" />
      <stop
         style="stop-opacity:1;stop-color:#d9d9d9"
         offset="1"
         id="stop334" />
    </linearGradient>
    <linearGradient
       x1="0"
       y1="0"
       x2="1"
       y2="0"
       gradientUnits="userSpaceOnUse"
       gradientTransform="matrix(-53.411209,-0.4965934,-0.4965934,53.411209,112.33984,251.20264)"
       spreadMethod="pad"
       id="linearGradient368">
      <stop
         style="stop-opacity:1;stop-color:#e7e3e0"
         offset="0"
         id="stop352" />
      <stop
         style="stop-opacity:1;stop-color:#e7e3e0"
         offset="0"
         id="stop354" />
      <stop
         style="stop-opacity:1;stop-color:#e7e3e0"
         offset="0"
         id="stop356" />
      <stop
         style="stop-opacity:1;stop-color:#e7e3e0"
         offset="0.04439189"
         id="stop358" />
      <stop
         style="stop-opacity:1;stop-color:#979297"
         offset="0.264045"
         id="stop360" />
      <stop
         style="stop-opacity:1;stop-color:#8b8689"
         offset="0.876404"
         id="stop362" />
      <stop
         style="stop-opacity:1;stop-color:#d9d9d9"
         offset="1"
         id="stop364" />
      <stop
         style="stop-opacity:1;stop-color:#d9d9d9"
         offset="1"
         id="stop366" />
    </linearGradient>
    <linearGradient
       x1="0"
       y1="0"
       x2="1"
       y2="0"
       gradientUnits="userSpaceOnUse"
       gradientTransform="matrix(-53.411091,-0.4965923,-0.4965923,53.411091,112.34082,251.10645)"
       spreadMethod="pad"
       id="linearGradient400">
      <stop
         style="stop-opacity:1;stop-color:#e7e3e0"
         offset="0"
         id="stop384" />
      <stop
         style="stop-opacity:1;stop-color:#e7e3e0"
         offset="0"
         id="stop386" />
      <stop
         style="stop-opacity:1;stop-color:#e7e3e0"
         offset="0"
         id="stop388" />
      <stop
         style="stop-opacity:1;stop-color:#e7e3e0"
         offset="0.04439189"
         id="stop390" />
      <stop
         style="stop-opacity:1;stop-color:#979297"
         offset="0.264045"
         id="stop392" />
      <stop
         style="stop-opacity:1;stop-color:#8b8689"
         offset="0.876404"
         id="stop394" />
      <stop
         style="stop-opacity:1;stop-color:#d9d9d9"
         offset="1"
         id="stop396" />
      <stop
         style="stop-opacity:1;stop-color:#d9d9d9"
         offset="1"
         id="stop398" />
    </linearGradient>
    <linearGradient
       x1="0"
       y1="0"
       x2="1"
       y2="0"
       gradientUnits="userSpaceOnUse"
       gradientTransform="matrix(-53.411037,-0.4965918,-0.4965918,53.411037,112.34082,251.09619)"
       spreadMethod="pad"
       id="linearGradient432">
      <stop
         style="stop-opacity:1;stop-color:#e7e3e0"
         offset="0"
         id="stop416" />
      <stop
         style="stop-opacity:1;stop-color:#e7e3e0"
         offset="0"
         id="stop418" />
      <stop
         style="stop-opacity:1;stop-color:#e7e3e0"
         offset="0"
         id="stop420" />
      <stop
         style="stop-opacity:1;stop-color:#e7e3e0"
         offset="0.04439189"
         id="stop422" />
      <stop
         style="stop-opacity:1;stop-color:#979297"
         offset="0.264045"
         id="stop424" />
      <stop
         style="stop-opacity:1;stop-color:#8b8689"
         offset="0.876404"
         id="stop426" />
      <stop
         style="stop-opacity:1;stop-color:#d9d9d9"
         offset="1"
         id="stop428" />
      <stop
         style="stop-opacity:1;stop-color:#d9d9d9"
         offset="1"
         id="stop430" />
    </linearGradient>
  </defs>
  <sodipodi:namedview
     id="namedview4"
     pagecolor="#ffffff"
     bordercolor="#000000"
     borderopacity="0.25"
     inkscape:showpageshadow="2"
     inkscape:pageopacity="0.0"
     inkscape:pagecheckerboard="0"
     inkscape:deskcolor="#d1d1d1" />
  <g
     id="g8"
     inkscape:groupmode="layer"
     inkscape:label="samsung-1097311"
     transform="matrix(1.3333333,0,0,-1.3333333,0,379.2)">
    <g
       id="g10">
      <g
         id="g12"
         clip-path="url(#clipPath16)">
        <g
           id="g18"
           transform="translate(148.4014,32.4023)">
          <path
             d="M 0,0 C 0,-7.795 -6.378,-14.173 -14.173,-14.173 H -116.22 c -7.796,0 -14.174,6.378 -14.174,14.173 v 219.816 c 0,7.796 6.378,14.174 14.174,14.174 H -14.173 C -6.378,233.99 0,227.612 0,219.816 Z"
             style="fill:#1d1d1b;fill-opacity:1;fill-rule:nonzero;stroke:none"
             id="path20" />
        </g>
        <g
           id="g22"
           transform="translate(148.4014,32.4023)">
          <path
             d="M 0,0 C 0,-7.795 -6.378,-14.173 -14.173,-14.173 H -116.22 c -7.796,0 -14.174,6.378 -14.174,14.173 v 219.816 c 0,7.796 6.378,14.174 14.174,14.174 H -14.173 C -6.378,233.99 0,227.612 0,219.816 Z"
             style="fill:none;stroke:#8f8f8e;stroke-width:2;stroke-linecap:butt;stroke-linejoin:miter;stroke-miterlimit:10;stroke-dasharray:none;stroke-opacity:1"
             id="path24" />
        </g>
        <path
           d="M 141.692,37.722 H 25.422 v 204.555 h 116.27 z"
           style="fill:#28364f;fill-opacity:1;fill-rule:nonzero;stroke:none"
           id="path26" />
      </g>
    </g>
    <g
       id="g28">
      <g
         id="g30"
         clip-path="url(#clipPath34)">
        <g
           id="g36"
           transform="translate(140.4023,37.7236)">
          <path
             d="M 0,0 -1.902,204.555 1.289,0 Z"
             style="fill:#27354e;fill-opacity:1;fill-rule:nonzero;stroke:none"
             id="path38" />
        </g>
        <g
           id="g40"
           transform="translate(137.207,37.7236)">
          <path
             d="M 0,0 -1.902,204.555 H 1.293 L 3.195,0 Z"
             style="fill:#28364f;fill-opacity:1;fill-rule:nonzero;stroke:none"
             id="path42" />
        </g>
        <g
           id="g44"
           transform="translate(134.0117,37.7236)">
          <path
             d="M 0,0 -1.898,204.555 H 1.293 L 3.195,0 Z"
             style="fill:#293750;fill-opacity:1;fill-rule:nonzero;stroke:none"
             id="path46" />
        </g>
        <g
           id="g48"
           transform="translate(130.8203,37.7236)">
          <path
             d="M 0,0 -1.902,204.555 H 1.293 L 3.191,0 Z"
             style="fill:#2a3851;fill-opacity:1;fill-rule:nonzero;stroke:none"
             id="path50" />
        </g>
        <g
           id="g52"
           transform="translate(127.625,37.7236)">
          <path
             d="M 0,0 -1.902,204.555 H 1.293 L 3.195,0 Z"
             style="fill:#2a3951;fill-opacity:1;fill-rule:nonzero;stroke:none"
             id="path54" />
        </g>
        <g
           id="g56"
           transform="translate(124.4336,37.7236)">
          <path
             d="M 0,0 -1.902,204.555 H 1.289 L 3.191,0 Z"
             style="fill:#2a3952;fill-opacity:1;fill-rule:nonzero;stroke:none"
             id="path58" />
        </g>
        <g
           id="g60"
           transform="translate(121.2383,37.7236)">
          <path
             d="M 0,0 -1.902,204.555 H 1.293 L 3.195,0 Z"
             style="fill:#2b3a53;fill-opacity:1;fill-rule:nonzero;stroke:none"
             id="path62" />
        </g>
        <g
           id="g64"
           transform="translate(118.043,37.7236)">
          <path
             d="M 0,0 -1.898,204.555 H 1.293 L 3.195,0 Z"
             style="fill:#2c3b54;fill-opacity:1;fill-rule:nonzero;stroke:none"
             id="path66" />
        </g>
        <g
           id="g68"
           transform="translate(114.8516,37.7236)">
          <path
             d="M 0,0 -1.902,204.555 H 1.293 L 3.191,0 Z"
             style="fill:#2d3c55;fill-opacity:1;fill-rule:nonzero;stroke:none"
             id="path70" />
        </g>
        <g
           id="g72"
           transform="translate(111.6563,37.7236)">
          <path
             d="M 0,0 -1.902,204.555 H 1.293 L 3.195,0 Z"
             style="fill:#2e3d56;fill-opacity:1;fill-rule:nonzero;stroke:none"
             id="path74" />
        </g>
        <g
           id="g76"
           transform="translate(108.4648,37.7236)">
          <path
             d="M 0,0 -1.906,204.555 H 1.289 L 3.191,0 Z"
             style="fill:#2e3e56;fill-opacity:1;fill-rule:nonzero;stroke:none"
             id="path78" />
        </g>
        <g
           id="g80"
           transform="translate(105.2695,37.7236)">
          <path
             d="M 0,0 -1.902,204.555 H 1.289 L 3.195,0 Z"
             style="fill:#2f3f57;fill-opacity:1;fill-rule:nonzero;stroke:none"
             id="path82" />
        </g>
        <g
           id="g84"
           transform="translate(102.0742,37.7236)">
          <path
             d="M 0,0 -1.898,204.555 H 1.293 L 3.195,0 Z"
             style="fill:#304058;fill-opacity:1;fill-rule:nonzero;stroke:none"
             id="path86" />
        </g>
        <g
           id="g88"
           transform="translate(98.8789,37.7236)">
          <path
             d="M 0,0 -1.898,204.555 H 1.297 L 3.195,0 Z"
             style="fill:#314159;fill-opacity:1;fill-rule:nonzero;stroke:none"
             id="path90" />
        </g>
        <g
           id="g92"
           transform="translate(95.6875,37.7236)">
          <path
             d="M 0,0 -1.902,204.555 H 1.293 L 3.191,0 Z"
             style="fill:#314159;fill-opacity:1;fill-rule:nonzero;stroke:none"
             id="path94" />
        </g>
        <g
           id="g96"
           transform="translate(92.4961,37.7236)">
          <path
             d="M 0,0 -1.906,204.555 H 1.289 L 3.191,0 Z"
             style="fill:#32425a;fill-opacity:1;fill-rule:nonzero;stroke:none"
             id="path98" />
        </g>
        <g
           id="g100"
           transform="translate(89.3008,37.7236)">
          <path
             d="M 0,0 -1.902,204.555 H 1.289 L 3.195,0 Z"
             style="fill:#33435b;fill-opacity:1;fill-rule:nonzero;stroke:none"
             id="path102" />
        </g>
        <g
           id="g104"
           transform="translate(86.1055,37.7236)">
          <path
             d="M 0,0 -1.902,204.555 H 1.293 L 3.195,0 Z"
             style="fill:#34445c;fill-opacity:1;fill-rule:nonzero;stroke:none"
             id="path106" />
        </g>
        <g
           id="g108"
           transform="translate(82.9102,37.7236)">
          <path
             d="M 0,0 -1.898,204.555 H 1.293 L 3.195,0 Z"
             style="fill:#35455d;fill-opacity:1;fill-rule:nonzero;stroke:none"
             id="path110" />
        </g>
        <g
           id="g112"
           transform="translate(79.7188,37.7236)">
          <path
             d="M 0,0 -1.902,204.555 H 1.293 L 3.191,0 Z"
             style="fill:#35455d;fill-opacity:1;fill-rule:nonzero;stroke:none"
             id="path114" />
        </g>
        <g
           id="g116"
           transform="translate(76.5234,37.7236)">
          <path
             d="M 0,0 -1.902,204.555 H 1.293 L 3.195,0 Z"
             style="fill:#36475e;fill-opacity:1;fill-rule:nonzero;stroke:none"
             id="path118" />
        </g>
        <g
           id="g120"
           transform="translate(73.332,37.7236)">
          <path
             d="M 0,0 -1.902,204.555 H 1.289 L 3.191,0 Z"
             style="fill:#37485f;fill-opacity:1;fill-rule:nonzero;stroke:none"
             id="path122" />
        </g>
        <g
           id="g124"
           transform="translate(70.1367,37.7236)">
          <path
             d="M 0,0 -1.902,204.555 H 1.293 L 3.195,0 Z"
             style="fill:#384960;fill-opacity:1;fill-rule:nonzero;stroke:none"
             id="path126" />
        </g>
        <g
           id="g128"
           transform="translate(66.9414,37.7236)">
          <path
             d="M 0,0 -1.902,204.555 H 1.293 L 3.195,0 Z"
             style="fill:#384961;fill-opacity:1;fill-rule:nonzero;stroke:none"
             id="path130" />
        </g>
        <g
           id="g132"
           transform="translate(63.75,37.7236)">
          <path
             d="M 0,0 -1.902,204.555 H 1.289 L 3.191,0 Z"
             style="fill:#394a62;fill-opacity:1;fill-rule:nonzero;stroke:none"
             id="path134" />
        </g>
        <g
           id="g136"
           transform="translate(60.5547,37.7236)">
          <path
             d="M 0,0 -1.902,204.555 H 1.293 L 3.195,0 Z"
             style="fill:#3a4b63;fill-opacity:1;fill-rule:nonzero;stroke:none"
             id="path138" />
        </g>
        <g
           id="g140"
           transform="translate(57.3633,37.7236)">
          <path
             d="M 0,0 -1.906,204.555 H 1.289 L 3.191,0 Z"
             style="fill:#3b4c64;fill-opacity:1;fill-rule:nonzero;stroke:none"
             id="path142" />
        </g>
        <g
           id="g144"
           transform="translate(54.168,37.7236)">
          <path
             d="M 0,0 -1.902,204.555 H 1.289 L 3.195,0 Z"
             style="fill:#3c4d65;fill-opacity:1;fill-rule:nonzero;stroke:none"
             id="path146" />
        </g>
        <g
           id="g148"
           transform="translate(50.9727,37.7236)">
          <path
             d="M 0,0 -1.902,204.555 H 1.293 L 3.195,0 Z"
             style="fill:#3c4e65;fill-opacity:1;fill-rule:nonzero;stroke:none"
             id="path150" />
        </g>
        <g
           id="g152"
           transform="translate(47.7773,37.7236)">
          <path
             d="M 0,0 -1.898,204.555 H 1.293 L 3.195,0 Z"
             style="fill:#3d4f66;fill-opacity:1;fill-rule:nonzero;stroke:none"
             id="path154" />
        </g>
        <g
           id="g156"
           transform="translate(44.5859,37.7236)">
          <path
             d="M 0,0 -1.902,204.555 H 1.293 L 3.191,0 Z"
             style="fill:#3e5067;fill-opacity:1;fill-rule:nonzero;stroke:none"
             id="path158" />
        </g>
        <g
           id="g160"
           transform="translate(41.3906,37.7236)">
          <path
             d="M 0,0 -1.902,204.555 H 1.293 L 3.195,0 Z"
             style="fill:#3f5168;fill-opacity:1;fill-rule:nonzero;stroke:none"
             id="path162" />
        </g>
        <g
           id="g164"
           transform="translate(38.1992,37.7236)">
          <path
             d="M 0,0 -1.902,204.555 H 1.289 L 3.191,0 Z"
             style="fill:#405269;fill-opacity:1;fill-rule:nonzero;stroke:none"
             id="path166" />
        </g>
        <g
           id="g168"
           transform="translate(35.0039,37.7236)">
          <path
             d="M 0,0 -1.902,204.555 H 1.293 L 3.195,0 Z"
             style="fill:#40536a;fill-opacity:1;fill-rule:nonzero;stroke:none"
             id="path170" />
        </g>
        <g
           id="g172"
           transform="translate(31.8086,37.7236)">
          <path
             d="M 0,0 -1.898,204.555 H 1.293 L 3.195,0 Z"
             style="fill:#41546b;fill-opacity:1;fill-rule:nonzero;stroke:none"
             id="path174" />
        </g>
        <g
           id="g176"
           transform="translate(28.6172,37.7236)">
          <path
             d="M 0,0 -1.902,204.555 H 1.293 L 3.191,0 Z"
             style="fill:#42556c;fill-opacity:1;fill-rule:nonzero;stroke:none"
             id="path178" />
        </g>
        <g
           id="g180"
           transform="translate(26.7148,242.2783)">
          <path
             d="M 0,0 1.902,-204.555 H -1.293 V 0 Z"
             style="fill:#43566d;fill-opacity:1;fill-rule:nonzero;stroke:none"
             id="path182" />
        </g>
      </g>
    </g>
    <g
       id="g184">
      <g
         id="g186"
         clip-path="url(#clipPath190)">
        <g
           id="g192"
           transform="translate(96.4697,27.0049)">
          <path
             d="m 0,0 c 0,-1.907 -2.296,-3.469 -5.103,-3.469 h -16.326 c -2.806,0 -5.102,1.562 -5.102,3.469 0,1.908 2.296,3.47 5.102,3.47 H -5.103 C -2.296,3.47 0,1.908 0,0"
             style="fill:#1d1d1b;fill-opacity:1;fill-rule:nonzero;stroke:none"
             id="path194" />
        </g>
        <g
           id="g196"
           transform="translate(96.4697,27.0049)">
          <path
             d="m 0,0 c 0,-1.907 -2.296,-3.469 -5.103,-3.469 h -16.326 c -2.806,0 -5.102,1.562 -5.102,3.469 0,1.908 2.296,3.47 5.102,3.47 H -5.103 C -2.296,3.47 0,1.908 0,0 Z"
             style="fill:none;stroke:#b4b4b3;stroke-width:1;stroke-linecap:butt;stroke-linejoin:miter;stroke-miterlimit:10;stroke-dasharray:none;stroke-opacity:1"
             id="path198" />
        </g>
        <g
           id="g200"
           transform="translate(96.4697,260.0664)">
          <path
             d="m 0,0 c 0,-0.561 -1.245,-1.02 -2.767,-1.02 h -20.997 c -1.522,0 -2.767,0.459 -2.767,1.02 0,0.562 1.245,1.021 2.767,1.021 H -2.767 C -1.245,1.021 0,0.562 0,0"
             style="fill:#5e5e5d;fill-opacity:1;fill-rule:nonzero;stroke:none"
             id="path202" />
        </g>
        <g
           id="g204"
           transform="translate(130.0732,258.0366)">
          <path
             d="m 0,0 c 0,-0.783 -0.636,-1.417 -1.418,-1.417 -0.782,0 -1.417,0.634 -1.417,1.417 0,0.783 0.635,1.417 1.417,1.417 C -0.636,1.417 0,0.783 0,0"
             style="fill:#6f6f6e;fill-opacity:1;fill-rule:nonzero;stroke:none"
             id="path206" />
        </g>
        <g
           id="g208"
           transform="translate(34.1548,258.0366)">
          <path
             d="m 0,0 c 0,-0.783 -0.635,-1.417 -1.417,-1.417 -0.783,0 -1.417,0.634 -1.417,1.417 0,0.783 0.634,1.417 1.417,1.417 C -0.635,1.417 0,0.783 0,0"
             style="fill:#a41680;fill-opacity:1;fill-rule:nonzero;stroke:none"
             id="path210" />
        </g>
      </g>
    </g>
    <g
       id="g212">
      <g
         id="g214">
        <g
           id="g220">
          <g
             id="g222">
            <path
               d="m 95.858,253.595 0.072,-4.133 h -0.029 l -1.209,4.133 h -1.956 v -5.208 h 1.295 l -0.073,4.274 h 0.028 l 1.302,-4.274 h 1.874 v 5.208 z"
               style="fill:url(#linearGradient240);stroke:none"
               id="path242" />
          </g>
        </g>
      </g>
    </g>
    <g
       id="g244">
      <g
         id="g246">
        <g
           id="g252">
          <g
             id="g254">
            <path
               d="m 71.068,253.595 -0.976,-5.263 h 1.422 l 0.72,4.775 h 0.03 l 0.703,-4.775 h 1.416 l -0.973,5.263 z"
               style="fill:url(#linearGradient272);stroke:none"
               id="path274" />
          </g>
        </g>
      </g>
    </g>
    <g
       id="g276">
      <g
         id="g278">
        <g
           id="g284">
          <g
             id="g286">
            <path
               d="m 79.025,253.595 -0.65,-4.025 h -0.027 l -0.651,4.025 h -2.148 l -0.117,-5.263 h 1.318 l 0.034,4.732 h 0.028 l 0.881,-4.732 h 1.336 l 0.881,4.732 h 0.026 l 0.034,-4.732 h 1.317 l -0.114,5.263 z"
               style="fill:url(#linearGradient304);stroke:none"
               id="path306" />
          </g>
        </g>
      </g>
    </g>
    <g
       id="g308">
      <g
         id="g310">
        <g
           id="g316">
          <g
             id="g318">
            <path
               d="m 65.49,252.598 c -0.038,-0.238 -0.043,-0.45 0.013,-0.713 v 0 c 0.23,-1.077 2.101,-1.388 2.371,-2.068 v 0 c 0.054,-0.128 0.036,-0.292 0.012,-0.39 v 0 c -0.044,-0.176 -0.161,-0.355 -0.512,-0.355 v 0 c -0.33,0 -0.532,0.191 -0.532,0.479 v 0 0.51 h -1.41 l -0.002,-0.408 c 0,-1.178 0.923,-1.53 1.913,-1.53 v 0 c 0.953,0 1.738,0.326 1.863,1.204 v 0 c 0.063,0.455 0.017,0.751 -0.007,0.864 v 0 c -0.221,1.103 -2.219,1.431 -2.37,2.048 v 0 c -0.025,0.105 -0.017,0.219 -0.006,0.277 v 0 c 0.038,0.17 0.152,0.355 0.483,0.355 v 0 c 0.307,0 0.488,-0.191 0.488,-0.479 v 0 -0.325 h 1.314 v 0.37 c 0,1.146 -1.027,1.326 -1.775,1.326 v 0 c -0.935,0 -1.702,-0.308 -1.843,-1.165"
               style="fill:url(#linearGradient336);stroke:none"
               id="path338" />
          </g>
        </g>
      </g>
    </g>
    <g
       id="g340">
      <g
         id="g342">
        <g
           id="g348">
          <g
             id="g350">
            <path
               d="m 82.637,252.579 c -0.039,-0.235 -0.042,-0.443 0.012,-0.704 v 0 c 0.226,-1.067 2.078,-1.374 2.347,-2.051 v 0 c 0.052,-0.126 0.035,-0.283 0.012,-0.383 v 0 c -0.043,-0.177 -0.16,-0.352 -0.509,-0.352 v 0 c -0.326,0 -0.524,0.188 -0.524,0.474 v 0 l -10e-4,0.503 h -1.398 l -0.002,-0.401 c 0,-1.164 0.916,-1.513 1.896,-1.513 v 0 c 0.942,0 1.719,0.323 1.843,1.189 v 0 c 0.064,0.454 0.017,0.746 -0.006,0.858 v 0 c -0.219,1.092 -2.198,1.416 -2.346,2.027 v 0 c -0.025,0.105 -0.018,0.215 -0.004,0.272 v 0 c 0.037,0.17 0.151,0.35 0.477,0.35 v 0 c 0.305,0 0.482,-0.187 0.482,-0.472 v 0 -0.32 h 1.303 v 0.364 c 0,1.137 -1.021,1.315 -1.76,1.315 v 0 c -0.925,0 -1.686,-0.305 -1.822,-1.156"
               style="fill:url(#linearGradient368);stroke:none"
               id="path370" />
          </g>
        </g>
      </g>
    </g>
    <g
       id="g372">
      <g
         id="g374">
        <g
           id="g380">
          <g
             id="g382">
            <path
               d="m 89.935,253.598 v -3.896 c 0.003,-0.069 -0.002,-0.145 -0.011,-0.201 v 0 c -0.026,-0.129 -0.141,-0.382 -0.506,-0.382 v 0 c -0.367,0 -0.478,0.253 -0.506,0.382 v 0 c -0.012,0.055 -0.014,0.132 -0.014,0.201 v 0 3.896 h -1.33 v -3.777 c -0.003,-0.098 0.007,-0.295 0.011,-0.344 v 0 c 0.093,-0.986 0.87,-1.306 1.839,-1.306 v 0 c 0.967,0 1.744,0.32 1.838,1.306 v 0 c 0.004,0.049 0.015,0.246 0.01,0.344 v 0 3.777 z"
               style="fill:url(#linearGradient400);stroke:none"
               id="path402" />
          </g>
        </g>
      </g>
    </g>
    <g
       id="g404">
      <g
         id="g406">
        <g
           id="g412">
          <g
             id="g414">
            <path
               d="m 98.561,252.439 c -0.012,-0.088 -0.024,-0.254 -0.024,-0.348 v 0 l -0.001,-2.217 c 0.003,-0.097 0.005,-0.169 0.02,-0.344 v 0 c 0.089,-0.96 0.918,-1.3 1.853,-1.3 v 0 c 0.933,0 1.764,0.34 1.851,1.3 v 0 c 0.016,0.175 0.02,0.247 0.021,0.344 v 0 1.416 h -1.868 v -0.77 h 0.539 v -0.764 c 0.001,-0.066 -0.001,-0.139 -0.011,-0.2 v 0 c -0.023,-0.141 -0.158,-0.382 -0.54,-0.382 v 0 c -0.38,0 -0.512,0.241 -0.536,0.382 v 0 c -0.009,0.061 -0.014,0.134 -0.014,0.2 v 0 2.407 c 0,0.086 0.008,0.181 0.023,0.249 v 0 c 0.029,0.13 0.141,0.383 0.525,0.383 v 0 c 0.401,0 0.502,-0.267 0.525,-0.383 v 0 c 0.015,-0.075 0.018,-0.201 0.016,-0.201 v 0 -0.294 h 1.329 v 0.174 c 0,0 0.005,0.181 -0.012,0.348 v 0 c -0.097,0.985 -0.914,1.302 -1.848,1.302 v 0 c -0.935,0 -1.733,-0.318 -1.848,-1.302"
               style="fill:url(#linearGradient432);stroke:none"
               id="path434" />
          </g>
        </g>
      </g>
    </g>
  </g>
</svg>
