<?xml version="1.0" encoding="UTF-8"?>
<svg width="355.86" height="277.74" enable-background="new 0 0 355.863 277.74" viewBox="0 0 355.863 277.74" xmlns="http://www.w3.org/2000/svg">
 <path d="m212.55,125.26c7.886-6.742 12.455-16.977 13.796-27.132 .812-6.151-.144-12.306.167-18.477 .311-6.187 1.41-12.374 3.471-18.223 .977-2.772 2.101-5.651 3.742-8.106 1.621-2.43 3.813-4.306 5.178-6.94 2.726-5.26 2.307-11.104-.41-16.275-2.693-5.127-7.116-9.248-11.626-12.776-4.706-3.682-9.751-6.975-15.163-9.523-5.567-2.622-11.455-4.271-17.604-4.69-2.922-.199-5.876-.143-8.799.008-2.808.145-5.658.495-8.28,1.561-2.31.939-4.371,2.512-5.512,4.773-1.245,2.468-1.455,5.398-1.46,8.117-.002,1.297.041,2.282.798,3.374 .806,1.164 1.05,2.571 1.239,3.947 .426,3.098.749,6.193.619,9.325-.317,7.621-3.975,14.192-7.591,20.705-2.996,5.396-6.991,12.772-3.456,18.836" fill="#fff"/>
 <path d="m163.13,73.764c-.004,1.011-.104,2.933-1.494,2.96-1.357.026-1.46-1.963-1.46-2.919 0-.991.084-2.999 1.476-2.997 1.37.003 1.47,1.968 1.47,2.956m50.89,51.496c-.005.955-.082,2.822-1.358,2.948-1.501.148-1.601-1.984-1.598-3.009 .003-.95.11-2.745 1.357-2.886 1.48-.16 1.6,1.94 1.6,2.95m-2.06-2.71c5.677-4.979 9.484-11.875 11.592-19.065 1.203-4.105 1.725-8.367 1.656-12.639-.058-3.581-.314-7.644-.186-10.967 .102-1.516.147-3.039.362-4.545l-.073.454c.182-1.496.31-3.002.636-4.476l-.169.665c1.067-6.058 2.742-12.027 5.289-17.636 .599-1.32 1.159-2.672 1.981-3.873 .804-1.174 1.942-2.056 2.841-3.149 1.744-2.12 3.014-4.698 3.349-7.441 .659-5.401-3.032-10.044-6.427-13.801-3.938-4.361-8.66-7.901-13.601-11.048-8.488-5.405-18.32-9.246-28.508-9.105-2.641.037-5.301.179-7.92.52-2.514.328-5.118.786-7.346,2.059-3.667,2.096-4.015,6.612-3.817,10.406-.025-.256-.093-.567-.269-.766l.127.208c-.115-.085-.206-.301-.282-.422 .494.57.915,1.207 1.217,1.899l-.213-.394c.215.468.411.946.571,1.436l-.188-.466c.198.567.361,1.146.5,1.729l-.136-.458c.626,2.43.781,4.944 1.04,7.431 .005-.054-.003-.105-.025-.153-.085.124-.029.505-.024.655 .023.802.179,1.596.229,2.397 .108,1.727.148,3.524-.184,5.229 .205-.916.019.294.006.42-.037.381-.089.761-.152,1.139-.125.756-.294,1.505-.481,2.248l.162-.539c-.725,3.146-1.798,6.211-3.183,9.127-1.412,2.972-3.234,5.72-4.848,8.581-1.553,2.752-2.91,5.684-3.331,8.844-.096.723-.167,1.478-.087,2.206 .086.775.492,1.551.479,2.33-.012.683-.485,1.236-.744,1.837l-1.109,2.569c-.509-.825-.783-1.765-1.045-2.69l.292.723c-.22-.618-.415-1.247-.549-1.889l.164.585c-.153-.647-.273-1.303-.36-1.963 .011.069.019.138.023.208-.134.02-.125-1.743-.115-1.57-.078-.949-.082-1.917.113-2.854 .104-.497.481-1.261.205-1.753-.002.118-.028.23-.078.338 .146-.808.297-1.617.517-2.409l-.153.47c.896-3.431 2.332-6.702 4.06-9.792 1.808-3.231 3.839-6.353 5.276-9.777 1.396-3.329 2.156-6.923 2.146-10.537-.006-1.928-.219-3.842-.394-5.759-.136-1.498-.225-3.125-1.16-4.377 .1.095.201.19.301.285-.243-.306-.526-.589-.688-.95l.342.512c-.405-.436-.583-1.026-.695-1.597l.18.552c-.246-.557-.298-1.169-.364-1.767l.081.504c-.442-2.161-.07-4.518.077-6.701-.008.035-.011.071-.01.107 .106-.949.115-1.922.424-2.835l-.123.45c.198-.877.414-1.752.723-2.598l-.201.447c.143-.389.277-.781.445-1.16 .14-.315.467-.607.468-.974-.051.1-.116.191-.193.272 1.221-2.221 3.035-4.172 5.338-5.281 2.655-1.279 5.636-1.586 8.532-1.852 6.257-.574 12.683-.621 18.771,1.131 5.845,1.683 11.341,4.405 16.529,7.548 5.084,3.08 9.771,6.817 13.876,11.118 3.143,3.292 5.874,7.038 7.645,11.251l-.301-.543c.463,1.009.755,2.084 1.046,3.153l-.242-.662c.54,1.027.504,2.217.661,3.337-.032-.168-.063-.336-.096-.504 .248,1.041.228,2.154.176,3.217-.056,1.157-.073,2.432-.467,3.531l.126-.451c-.198.879-.402,1.758-.7,2.61l.188-.462c-1.255,3.742-3.272,7.3-6.214,9.972 .103-.086.191-.185.268-.295-.239.652-.778,1.138-1.13,1.725-.485.81-.931,1.644-1.343,2.493-.81,1.669-1.483,3.401-2.062,5.162-1.196,3.642-2.02,7.402-2.526,11.201-.513,3.837-.572,7.72-.444,11.584 .127,3.849.678,7.76-.167,11.568 .018-.098.033-.196.046-.295-.025.457-.202.964-.268,1.417-.156,1.078-.23,2.17-.481,3.232l.131-.454c-.336,1.452-.609,2.923-1.089,4.338l.18-.47c-2.586,8.251-6.55,16.448-13.237,22.153-.45-1.8-.84-3.61-1.23-5.42"/>
 <path d="m208.3,116.88c1.824-2.666 3.678-5.312 5.57-7.93 1.407-1.947 3.272-3.91 2.999-6.506-.303-2.887-1.906-5.443-2.263-8.319-.351-2.833.373-5.757 1.879-8.169 .715-1.146 1.604-2.177 2.26-3.361 .753-1.359 1.284-2.825 1.806-4.285 1.069-2.988 1.903-6.052 2.772-9.103 1.756-6.161 3.581-12.311 5.861-18.302 1.06-2.784 2.192-5.554 3.699-8.13 .986-1.686 2.25-3.991 4.487-4.021m-32.72,57.771c-.361-2.995-.16-6.082.78-8.958 .863-2.639 2.77-4.745 4.684-6.682 2.08-2.106 4.204-4.219 5.783-6.743 1.561-2.493 2.393-5.34 3.256-8.127 3.87-12.498 7.073-25.186 10.429-37.828m-32.86,59.416c.125-2.677.871-5.314 2.1-7.692 1.312-2.543 3.206-4.713 4.733-7.12 1.64-2.583 3.196-5.22 4.647-7.914 1.361-2.524 1.688-5.418 2.14-8.206 2.018-12.466 3.718-24.979 5.416-37.492m-26.69,63.418c-.344-2.85-.201-5.838.665-8.588 .813-2.58 2.51-4.713 4.37-6.625 1.943-1.997 3.925-3.911 5.55-6.188 .761-1.066 1.579-2.196 1.954-3.467 .356-1.208.365-2.482.533-3.723 1.687-12.476 2.721-25.027 3.883-37.56m-23.4,64.757c-1.584-4.973-2.482-10.915.824-15.411 1.601-2.178 3.805-3.862 5.77-5.692 2.001-1.863 4.313-3.952 5.259-6.594 .916-2.563.573-5.41.714-8.079 .173-3.289.275-6.58.367-9.872 .184-6.549.284-13.1.39-19.651 .006-.393.012-.786.019-1.178m-22.36,63.413c-.344-2.841-.214-5.849.665-8.589 .781-2.435 2.486-4.371 3.803-6.516 .67-1.091 1.229-2.254 1.793-3.403 .291-.592.518-1.249.87-1.807 .328-.518.727-.924.926-1.518 .429-1.274.446-2.666.67-3.983 .259-1.529.504-3.061.751-4.592 1.957-12.138 3.571-24.328 5.22-36.511m-21.75,65.222c-1.239-2.277-1.938-4.948-1.517-7.541 .413-2.545 2.146-4.579 3.866-6.387 1.852-1.947 3.634-4.01 4.877-6.41 1.305-2.519 1.961-5.307 2.456-8.082 2.167-12.158 2.621-24.543 3.049-36.86" fill="none" stroke="#787878" stroke-linecap="round" stroke-linejoin="round" stroke-miterlimit="11.5" stroke-width="2.9558"/>
 <path d="m1.574,158.55c-1.052-9.787 3.622-20.029 11.999-25.308 4.925-3.104 10.727-4.373 16.417-5.194 6.414-.926 12.886-1.36 19.354-1.695 13.265-.686 26.56-.767 39.809-1.766 6.463-.488 12.951-1.084 19.281-2.535 5.361-1.229 10.803-3.215 14.899-7.015 4.009-3.72 5.943-9.006 6.928-14.264 1.161-6.196 1.497-12.496 2.25-18.745 .444-3.683 1.263-8.406 5.062-10.103 2.615-1.168 5.697-.583 8.356.108 3.048.792 6.054,1.741 9.094,2.563 12.081,3.269 24.508,5.193 36.35,9.34 2.794.978 5.613,2.017 8.143,3.577 2.567,1.582 4.596,3.798 6.723,5.9 2.753,2.72 10.239,7.596 4.903,11.584-4.222,3.155-10.082,3.058-13.843,6.977-3.337,3.478-4.561,8.432-6.682,12.64-2.611,5.18-6.046,9.824-10.044,14.014-4.108,4.307-8.498,8.412-11.838,13.376-3.351,4.979-5.419,10.559-7.83,16.013-2.19,4.956-5.074,9.566-9.631,12.659-4.418,2.997-9.659,4.442-14.88,5.257-5.659.882-11.414,1.172-17.117,1.642-13.121,1.082-26.276,2.164-39.453,2.041-6.377-.06-12.76-.428-19.074-1.349-6.298-.919-12.378-2.514-18.407-4.533-4.729-1.584-9.417-3.079-14.36-3.834-4.618-.704-9.587-1.089-13.766-3.357-6.733-3.67-9.917-11.24-12.636-18" fill="#fff"/>
 <path d="m.123,159.12c-.108-1.017-.145-2.039-.129-3.061 .005-.279-.014-.556.005-.835 .002-.034.038-.504.02-.132 .042-.76.081-1.521.173-2.277-.02.133-.041.267-.062.399 .099-.906.199-1.814.377-2.71l-.135.585c.171-1.011.348-2.023.636-3.009l-.235.697c.256-1.066.515-2.137.924-3.156l-.323.711c1.659-5.139 4.372-10.083 8.549-13.598 4.322-3.637 9.765-5.631 15.236-6.765 6.363-1.318 12.854-1.833 19.327-2.267 6.605-.442 13.222-.687 19.838-.909 12.982-.437 26.026-.679 38.874-2.776 5.723-.934 11.556-2.243 16.492-5.429 2.272-1.467 4.39-3.266 5.917-5.519 1.668-2.462 2.511-5.366 3.057-8.26 .775-4.107 1.154-8.285 1.635-12.434 .455-3.925.543-7.941 1.768-11.732l-.258.701c.243-.93.511-1.858.896-2.741l-.314.613c.315-.83.656-1.656 1.124-2.414l-.352.462c1.206-2.149 3.032-4.094 5.507-4.684 3.035-.724 6.122.205 9.034,1.028 6.248,1.767 12.554,3.316 18.876,4.793 6.334,1.479 12.679,2.937 18.925,4.76 3.09.901 6.158,1.88 9.174,3.007 2.723,1.017 5.43,2.225 7.68,4.099 1.987,1.655 3.607,3.688 5.473,5.469 1.931,1.844 3.975,3.607 5.545,5.784l-.124-.176c.391.478.569,1.034.828,1.586l-.211-.378c.24.364.396.776.5,1.198 .052.213.094.428.125.645 .02.133.205,1.188.01.297 .199,1.011.17,2.079-.174,3.056l.192-.655c-.183.852-.273,1.811-.919,2.464 .084-.108.169-.215.257-.32-2.642,4.118-7.854,4.706-11.963,6.599-4.605,2.122-6.688,6.907-8.598,11.287-2.346,5.379-5.271,10.523-9.082,15.006-3.912,4.602-8.612,8.475-12.375,13.21-3.707,4.665-6.375,10.02-8.649,15.498-2.11,5.082-4.218,10.368-8.266,14.256-7.646,7.344-19.016,8.046-29.004,8.908-13.158,1.136-26.338,2.15-39.544,2.463-12.638.299-25.458-.189-37.655-3.806-5.55-1.645-10.955-3.83-16.638-5.003-5.419-1.12-11.102-1.318-16.288-3.397-8.278-3.32-12.163-12.132-15.363-19.822 .07.137.139.274.208.412-.561-.984-.781-1.864.427-2.377 .191-.081 1.916-.829 1.955-.498l-.316-1.315c2.092,5.038 4.176,10.336 8.182,14.199 3.904,3.766 9.42,4.771 14.577,5.581 6.313.992 12.447,2.845 18.518,4.802 6.076,1.958 12.286,3.562 18.621,4.411 13.051,1.751 26.266,1.054 39.357.194 6.552-.431 13.096-.964 19.643-1.458 6.312-.476 12.671-.837 18.851-2.307 5.049-1.2 10.24-3.114 13.897-6.952 1.956-2.053 3.25-4.6 4.413-7.157 1.299-2.855 2.447-5.777 3.729-8.641 2.383-5.322 5.391-10.384 9.216-14.802 3.938-4.55 8.547-8.481 12.291-13.207 2.419-3.055 4.555-6.369 6.213-9.898 1.569-3.34 2.532-7.004 4.679-10.051 2.065-2.932 5.171-4.883 8.477-6.15 1.829-.701 3.705-1.281 5.501-2.07 1.08-.474 2.809-.959 2.93-2.375l-.051,2.063c-.048-1.173-1.129-1.908-1.888-2.654-1.198-1.177-2.458-2.288-3.682-3.438-2.061-1.937-3.813-4.219-6.152-5.847-2.427-1.688-5.225-2.718-8-3.675-3.025-1.043-6.088-1.974-9.17-2.833-6.309-1.757-12.695-3.21-19.069-4.706-3.188-.748-6.382-1.477-9.552-2.299-3.074-.798-6.104-1.761-9.19-2.51-2.603-.631-5.719-1.25-8.072.436-2.11,1.511-2.494,4.286-2.887,6.661-1.137,6.867-1.238,13.873-2.652,20.699l.098-.416c-.206,1.045-.39,2.097-.688,3.122l.153-.473c-.274,1.037-.526,2.084-.916,3.086l.2-.446c-1.801,4.973-4.864,9.522-9.306,12.488-4.75,3.171-10.409,4.607-15.964,5.597-12.829,2.286-25.894,2.564-38.883,3.013-6.561.227-13.121.473-19.673.876-6.443.396-12.913.766-19.267,1.967-5.559,1.051-11.194,2.823-15.684,6.387-4.111,3.264-6.85,7.964-7.995,13.058-.4,1.778-.797,3.767-.517,5.59 .1.646.234,1.364-.422,1.739-.772.46-1.662.57-2.466.88"/>
 <path d="m210.84,107.79c-2.545,3.309-4.799,8.278-2.559,12.32 1.069,1.931 2.9,2.777 4.717,3.845 1.219.716.956,1.405-.225,1.619-2.23.402-4.64.162-6.885-.005-4.627-.346-9.228-.952-13.815-1.629" fill="#fff"/>
 <path d="m193.55,123.94c-.009,1.013-.092,2.944-1.495,2.958-1.354.015-1.46-2-1.46-2.958 0-.988.098-2.952 1.477-2.956s1.47,1.98 1.47,2.96m18.77-16.15c-.005,1.009-.099,2.939-1.492,2.96-1.354.02-1.464-1.962-1.463-2.921 .002-.991.088-2.992 1.477-2.994 1.38,0 1.47,1.97 1.47,2.95m-.67,2.47c-1.676,2.21-4.092,5.509-2.085,8.249 .845,1.154 2.177,1.705 3.349,2.446 .22.139 2.107,1.29 1.832,1.601-.038-.092-.091-.175-.159-.248 1.182,1.448 1.407,4.46-.294,5.628 .098-.091.198-.18.301-.266-1.054,1.54-3.563,1.218-5.152,1.087-2.889-.238-5.782-.406-8.663-.739-1.423-.164-2.844-.352-4.264-.538-1.447-.19-3.078-.184-4.483-.567-.232-.063-.02-1.476-.005-1.681 .1-1.408.106-2.83.158-4.241 3.692.52 7.394.99 11.104,1.366 1.818.185 3.644.272 5.466.401 1.503.107 3.197.486 4.582-.319l-.396.32c.237-.44-.098.855-.155.996-.127.312-.283.628-.357.958-.017.075-.115.588-.05.101l.557,2.371c-.739-.842-1.83-1.208-2.779-1.745-1.152-.653-1.942-1.751-2.706-2.8l.295.311c-.453-.63-.805-1.325-1.119-2.032l.308.522c-.573-.735-.649-1.696-.843-2.574l.243.754c-.403-.895-.418-1.95-.42-2.919 .006.042.009.083.007.126-.089-1.132 0-2.341.366-3.421-.04.149-.081.297-.123.446 .162-.722.344-1.44.584-2.14-.063.153-.126.305-.189.458 .805-2.438 1.859-4.835 3.476-6.851 .52,1.64 1.06,3.29 1.59,4.93"/>
 <path d="m101.91,185.38c4.457-3.36 8.16-7.673 10.997-12.469 3.058-5.172 4.829-10.947 6.876-16.56 1.112-3.05 2.265-6.084 3.396-9.127 .232-.623.245-1.953 1.176-1.868 1.324.12 2.737.682 4.014,1.038 6.286,1.753 12.592,3.438 18.897,5.121l9.554,2.548c1.495.397 2.986.817 4.486,1.191 1.057.265 2.688.256 3.562.981 .777.646.488,1.938.303,2.784-.282,1.294-.608,2.589-1.002,3.853-.905,2.904-2.113,5.702-3.658,8.323-5.252,8.912-14.114,15.555-24.21,17.896-11.41,2.66-23.74.91-34.4-3.7" fill="#4b4b4b"/>
 <path d="m101.39,182.62c4.445-3.297 8.067-7.637 10.771-12.45 3.017-5.369 4.883-11.266 6.985-17.026 1.1-3.015 2.079-6.076 3.327-9.034 .343-.814.798-1.815 1.86-1.65 1.549.24 3.029.778 4.539,1.181l19.141,5.099c4.249,1.132 8.469,2.457 12.768,3.39 1.626.353 3.428.446 4.874,1.352 1.377.862 1.134,2.784 1.005,4.162 .017-.121.024-.243.022-.365 .082.284-.095,1.135-.134,1.424l.084-.539c-1.111,10.45-6.908,20.188-15.079,26.693-8.578,6.828-19.966,8.965-30.69,8.017-5.163-.456-10.219-1.648-15.191-3.074-1.68-.482-3.953-.854-4.858-2.555-.74-1.39-.732-3.679.656-4.681-.118.086-.107.078.032-.022 .225,1.189.366,2.398.725,3.559 .168.543.777,1.559.21,2.05-.071-1.884-.141-3.767-.212-5.65 11.063,4.436 23.572,6.334 35.25,3.291 9.804-2.555 18.248-9.446 22.972-18.376 1.812-3.424 3.274-7.181 3.327-11.103l1.281,2.934-41.35-11.016 1.38-1.17c-2.855,8.046-5.598,16.146-9.049,23.961-2.976,6.741-7.728,12.683-13.599,17.129-.34-1.84-.69-3.68-1.04-5.52"/>
 <path d="m12.913,173.57c.152-8.319.753-16.723 3.112-24.742 .541-1.838 1.172-3.668 2.151-5.324 1.045-1.769 2.465-3.277 3.847-4.784 2.772-3.024 5.641-5.975 8.814-8.583-5.518-1.13-11.504-.619-16.533,2.022-4.617,2.425-8.161,6.701-9.97,11.566-2.101,5.65-1.682,11.944.251,17.577 .958,2.791 2.252,5.47 3.868,7.939 .811,1.239 1.72,2.421 2.658,3.567 .415.507 1.301,1.696 2.061,1.8 .349.03-.202-.96-.259-1.06" fill="#4b4b4b"/>
 <path d="m11.434,173.47c.245-8.942.801-18.002 3.467-26.598 1.197-3.857 3.405-7.321 6.071-10.329 2.884-3.254 5.908-6.408 9.306-9.134 .137,1.892.275,3.784.412,5.676-4.969-.961-10.317-.679-14.98,1.393-4.208,1.87-7.582,5.449-9.553,9.578-2.177,4.558-2.204,9.88-.617,14.624 .86,2.568 1.993,5.048 3.393,7.368 .699,1.159 1.502,2.25 2.286,3.352 .636.893 1.284,1.872 2.313,2.348l-.558-.039c.251-.125.071.159.018.233-.292.407-.402.912-.595,1.366-.116.273-.145.592-.29.851-.031.056-.369.577-.264.273l.312,1.795c-.059-.146-.146-.36-.246-.481 .075.109.147.222.216.335-.568-.766-.714-1.754-.689-2.684 .583.043 1.164.114 1.749.124 .39.006.889-.152 1.208.161l-.49-2.298 .278.492-.373-.492c.245.388.545.753.677,1.2l-.332-.623c.98,1.388 1.193,3.744.013,5.082-1.316,1.491-2.924-.705-3.716-1.684-1.601-1.98-3.132-4.031-4.362-6.266-1.306-2.371-2.22-4.929-3.131-7.47l.305.624c-.565-1.368-.872-2.821-1.228-4.253l.235.688c-.349-.751-.485-1.577-.567-2.395-.067-.666-.453-1.582-.203-2.23-.004.12.015.236.059.349-.33-1.707-.273-3.813 0-5.511-.056.456-.066-.436-.065-.441 .06-.666.287-1.303.423-1.954l-.104.428c.179-.883.358-1.768.627-2.629l-.173.474c1.487-5.03 4.16-9.875 8.297-13.198 4.344-3.49 9.99-4.954 15.496-4.862 1.672.028 4.046-.196 5.398.996 1.702,1.5.709,4.206-.601,5.577-1.909,1.998-4.075,3.753-5.992,5.757-1.982,2.072-4.027,4.152-5.533,6.609-2.348,3.831-3.186,8.474-3.824,12.858-.732,5.029-1.049,10.09-1.114,15.17-.987-.08-1.973-.15-2.959-.22"/>
 <path d="m173.84,25.3c1.626-2.146 3.746-3.951 6.212-5.056 2.676-1.199 5.703-1.113 8.543-.684 5.961.902 12.252,1.668 17.72,4.383 1.298.645 2.455,1.528 3.731,2.208 1.349.719 2.84,1.112 4.323,1.446 3.03.682 6.142,1.072 9.087,2.094 2.53.877 4.855,2.312 6.37,4.566 1.607,2.392 2.356,5.241 3.099,7.99 .341,1.264.724,2.585.785,3.899 .061,1.296-.29,2.533-.688,3.751-.904,2.771-1.821,5.538-2.73,8.308-.062-3.165-.476-6.32-1.203-9.399-.604-2.557-1.588-5.164-3.576-6.972-3.875-3.524-9.442-3.713-14.275-4.924-2.963-.742-5.856-1.788-8.596-3.14-2.809-1.387-5.53-2.944-8.409-4.188-2.728-1.179-5.778-2.121-8.756-1.388-2.72.669-5.009,2.51-6.897,4.505-.802.847-1.544,1.748-2.233,2.688-.755-2.164-1.331-4.385-2.091-6.546-.27-.815-1.4-2.855-.39-3.541" fill="#0067ac"/>
 <path d="m173.02,22.829c1.667-2.136 3.769-3.957 6.198-5.171 2.606-1.304 5.589-1.55 8.443-1.134 5.969.869 12.077,1.58 17.674,3.967 2.532,1.081 4.749,2.812 7.356,3.725 2.938,1.028 6.108,1.239 9.117,1.996 2.573.648 5.157,1.649 7.107,3.508 2.065,1.97 3.249,4.671 4.17,7.323 .906,2.611 1.569,5.302 1.993,8.033-.196-.815.023.5.056.728 .008.056.102.694.063.38 .102,1.247.188,2.619-.516,3.722 .109-.236.22-.472.329-.708l-3.045,9.251c-.271.825-.34,1.884-1.062,2.472-.965.785-1.631-.331-1.905-1.161-.422-1.279-.309-2.643-.367-3.967-.069-1.565-.308-3.121-.647-4.649-.547-2.47-1.385-5.042-3.377-6.734-2.035-1.729-4.729-2.402-7.251-3.072-3.062-.812-6.175-1.454-9.208-2.374-5.656-1.717-10.502-5.308-16.095-7.177-2.447-.818-5.007-1.115-7.471-.194-2.156.806-4.16,2.331-5.598,4.123-.635.791-1.238,1.871-2.178,2.342-1.076.539-1.631-.856-1.927-1.622-1.009-2.61-1.688-5.331-2.346-8.046l.139.458c-.124-.47-.232-.945-.316-1.424 .044.092.068.189.073.291 .089-.202-.12-1.082-.16-1.129 .003-.352.059-.832-.034-1.183-.012.053-.015.107-.007.162 .053-.904.156-1.882.752-2.61l-.277.412c.107-.217.234-.421.382-.612 .298.912.557,1.837.904,2.732 .152.392.359.771.476,1.175 .062.216-.014.889.178,1.026 .102-.049.17-.128.205-.237-.007.062-.032.114-.073.155-.04-.206.245-1.675.403-1.714-.006.001-.007.302-.012.345-.006-.301-.012-.603-.019-.904 .1,1.4.591,2.727 1,4.057 .445,1.444.907,2.883 1.405,4.31l-2.047-.754c2.602-3.552 6.044-7.234 10.629-7.89 2.852-.407 5.642.575 8.237,1.649 2.714,1.124 5.332,2.46 7.938,3.81 4.922,2.549 10.405,3.556 15.694,5.045 2.48.698 5.072,1.372 7.193,2.901 1.976,1.423 3.228,3.6 4.163,5.799l-.366-.62c.587,1.159.94,2.414 1.324,3.65l-.262-.628c.432,1.226.672,2.506.935,3.775-.074-.248-.148-.496-.223-.743 .74,2.729.896,5.57.989,8.383-.832-.457-1.903-.649-2.569-1.37-.54-.585.325-1.783.563-2.338 1.168-2.721 1.864-5.609 2.787-8.415l-.242,1.489c-.109-3.062-1.164-5.989-2.323-8.792-.948-2.292-2.617-4.284-4.878-5.364-5.121-2.446-11.095-1.923-16.11-4.708-2.637-1.463-5.32-2.808-8.234-3.626-3.025-.851-6.138-1.331-9.217-1.941-2.991-.594-6.111-1.267-9.146-.563-2.668.618-5.013,2.241-6.841,4.242-.317.347-.62.708-.906,1.082-.48-1.649-1.02-3.296-1.57-4.944"/>
 <path d="m174.54,38.028c2.136-1.703 4.86-2.595 7.572-2.727 3.135-.152 6.129.911 9.084,1.81s5.927,1.835 8.707,3.226c2.604,1.302 4.729,3.35 7.308,4.688 4.749,2.466 10.328,2.959 14.825,5.972 2.255,1.51 3.787,3.637 4.871,6.1 1.139,2.584 2.248,5.441 2.293,8.299 .03,1.87-.639,3.458-1.468,5.096-.952,1.878-1.767,3.819-2.639,5.735 .156-5.119-.045-11.053-3.827-14.973-3.508-3.634-8.809-4.248-13.431-5.554-2.952-.834-5.778-2.012-8.468-3.486-2.748-1.505-5.388-3.212-8.241-4.519-2.759-1.264-5.664-2.083-8.717-2.039-3.182.045-6.337.743-9.462,1.279l-1.902.33c.549-1.851 1.134-3.69 1.773-5.512 .261-.744.562-1.472.836-2.21 .2-.531.3-1.262.89-1.515" fill="#0067ac"/>
 <path d="m173.99,35.284c3.599-2.841 8.443-3.334 12.82-2.436 2.546.523 5.02,1.367 7.469,2.225 2.521.884 5.067,1.777 7.373,3.149 2.099,1.25 3.935,2.901 6.099,4.045 2.378,1.257 5.021,1.871 7.551,2.739 2.415.83 4.813,1.81 6.975,3.186 1.04.662 2.021,1.42 2.897,2.289 .165.164 1.54,1.362 1.481,1.642-.064-.021-.121-.057-.168-.109 .321.035.625.937.74,1.18 .387.821.779,1.628 1.094,2.482 .729,1.978 1.204,4.036 1.71,6.078l-.137-.461c.206.755.349,1.524.492,2.293l-.093-.4c.124.632.21,1.271.288,1.909-.013-.055-.017-.109-.012-.164 .25.453.194,1.389.182,1.859-.027.997-.163,2.113-.771,2.939l.286-.484c-1.242,2.73-2.405,5.498-3.693,8.207-.377.792-1.167,2.334-2.216,1.401-.802-.713-.796-1.976-.734-2.958 .013-.439 2.388-.164 2.955-.146v-.567l-2.955.109c-.081-4.729-.608-10.219-4.993-13.006-2.343-1.49-5.188-2.159-7.842-2.863-3.003-.797-6.056-1.5-8.892-2.802-5.194-2.385-9.748-6.374-15.456-7.547-3.1-.637-6.219-.367-9.316.131-1.444.232-2.86.582-4.299.831-.95.165-2.125.366-2.792-.509-.886-1.161-.655-3.265.028-4.471l-.289.696c.666-2.046 1.297-4.104 1.981-6.145 .324-.964.655-1.932 1.154-2.822 .172-.307.626-1.404 1.033-1.406-.459.17.016-.082.108-.143 .398,1.996 1.506,4.761.551,6.715-1.06,2.164-1.585,4.529-2.282,6.822l-1.401-4.457c5.161-.859 10.445-2.398 15.686-1.212 4.792,1.085 8.921,3.871 13.164,6.21 2.193,1.209 4.466,2.289 6.843,3.085 2.531.848 5.146,1.411 7.707,2.153 2.248.65 4.53,1.418 6.417,2.844 1.948,1.473 3.11,3.657 3.999,5.881l-.336-.619c.525,1.128.845,2.335 1.184,3.529l-.208-.562c.355,1.166.556,2.371.771,3.568l-.159-.635c.543,2.54 1.186,5.327.453,7.895-.211.74-.815,2.163-1.819,1.556-.935-.566-.99-1.856-.993-2.828v.567c-.014-1.048.278-3.49 1.901-2.929 1.256.434 1.074,2.545 1.042,3.575-.696-.587-1.86-1.099-2.326-1.903-.433-.749.331-1.681.63-2.333 1.058-2.303 2.164-4.583 3.214-6.89-.084.358-.104.728-.223,1.077-.013.038-.203.559-.134.289-.015.13-.022.26-.025.391-.436-4.702-1.639-9.883-5.603-12.888-4.317-3.271-9.967-3.632-14.731-5.967-2.55-1.25-4.679-3.176-7.127-4.593-2.671-1.545-5.642-2.473-8.584-3.345-2.91-.864-5.789-2.077-8.877-2.039-2.76.034-5.505.881-7.693,2.582-.35-1.829-.71-3.659-1.08-5.49"/>
 <path d="m145.16,76.096c-2.244-1.027-4.174,1.219-4.992,3.065-1.21,2.735-.776,5.811-.663,8.703 .195,4.976-.583,10.527-4.436,14.072" fill="#fff"/>
 <path d="m145.16,76.096c-2.244-1.027-4.174,1.219-4.992,3.065-1.21,2.735-.776,5.811-.663,8.703 .195,4.976-.583,10.527-4.436,14.072" fill="none" stroke="#919191" stroke-linecap="round" stroke-linejoin="round" stroke-miterlimit="11.5" stroke-width="2.9558"/>
 <path d="m154.03,78.709c-2.059-.941-3.952.941-4.828,2.636-1.179,2.277-1.149,4.943-1.109,7.44 .043,2.701.02,5.456-.778,8.062-.822,2.687-1.939,5.288-3.379,7.703" fill="#fff"/>
 <path d="m154.03,78.709c-2.059-.941-3.952.941-4.828,2.636-1.179,2.277-1.149,4.943-1.109,7.44 .043,2.701.02,5.456-.778,8.062-.822,2.687-1.939,5.288-3.379,7.703" fill="none" stroke="#919191" stroke-linecap="round" stroke-linejoin="round" stroke-miterlimit="11.5" stroke-width="2.9558"/>
 <path d="m163.2,80.722c-2.296-.116-4.245,1.631-5.246,3.558-1.196,2.302-1.12,4.999-.801,7.502 .355,2.8.658,5.717-.237,8.451-.771,2.352-1.961,4.635-3.803,6.326" fill="#fff"/>
 <path d="m163.2,80.722c-2.296-.116-4.245,1.631-5.246,3.558-1.196,2.302-1.12,4.999-.801,7.502 .355,2.8.658,5.717-.237,8.451-.771,2.352-1.961,4.635-3.803,6.326" fill="none" stroke="#919191" stroke-linecap="round" stroke-linejoin="round" stroke-miterlimit="11.5" stroke-width="2.9558"/>
 <path d="m171.77,82.427c-2.062.81-3.229,2.94-4.015,4.886-1.058,2.617-1.231,5.431-1.338,8.22-.175,4.572-1.233,9.514-4.738,12.734" fill="#fff"/>
 <path d="m171.77,82.427c-2.062.81-3.229,2.94-4.015,4.886-1.058,2.617-1.231,5.431-1.338,8.22-.175,4.572-1.233,9.514-4.738,12.734" fill="none" stroke="#919191" stroke-linecap="round" stroke-linejoin="round" stroke-miterlimit="11.5" stroke-width="2.9558"/>
 <path d="m182.15,85.048c-1.726,1.533-2.742,3.654-3.719,5.702-1.208,2.534-2.272,5.134-3.249,7.765-.917,2.472-1.547,5.042-2.523,7.493-.989,2.484-2.335,4.819-3.924,6.966" fill="#fff"/>
 <path d="m182.15,85.048c-1.726,1.533-2.742,3.654-3.719,5.702-1.208,2.534-2.272,5.134-3.249,7.765-.917,2.472-1.547,5.042-2.523,7.493-.989,2.484-2.335,4.819-3.924,6.966" fill="none" stroke="#919191" stroke-linecap="round" stroke-linejoin="round" stroke-miterlimit="11.5" stroke-width="2.9558"/>
 <path d="m193.27,88.428c-2.465.626-4.781,2.004-6.342,4.033-1.753,2.279-2.394,5.161-2.884,7.934-.552,3.117-.95,6.286-2.013,9.283-1.002,2.829-2.508,5.461-4.29,7.869" fill="#fff"/>
 <path d="m193.27,88.428c-2.465.626-4.781,2.004-6.342,4.033-1.753,2.279-2.394,5.161-2.884,7.934-.552,3.117-.95,6.286-2.013,9.283-1.002,2.829-2.508,5.461-4.29,7.869" fill="none" stroke="#919191" stroke-linecap="round" stroke-linejoin="round" stroke-miterlimit="11.5" stroke-width="2.9558"/>
 <path d="m204.52,95.267c-3.129,1.045-6.099,2.504-9.011,4.041-1.217.642-2.427,1.426-3.173,2.615-.817,1.304-1.021,2.88-1.247,4.372s-.467,3.002-1.01,4.417c-.575,1.501-1.549,2.783-2.479,4.077-1.955,2.72-3.331,5.779-4.331,8.966" fill="#fff"/>
 <path d="m127.7,149.24c8.668,11.191 13.448,18.146 10.493,33.64m66.33-87.613c-3.129,1.045-6.099,2.504-9.011,4.041-1.217.642-2.427,1.426-3.173,2.615-.817,1.304-1.021,2.88-1.247,4.372s-.467,3.002-1.01,4.417c-.575,1.501-1.549,2.783-2.479,4.077-1.955,2.72-3.331,5.779-4.331,8.966" fill="none" stroke="#919191" stroke-linecap="round" stroke-linejoin="round" stroke-miterlimit="11.5" stroke-width="2.9558"/>
 <path d="m278.92,229.66c5.321-2.194 9.98-5.722 14.121-9.673 4.178-3.988 7.746-8.619 10.487-13.705 2.919-5.417 4.588-11.375 6.287-17.256 1.691-5.852 4.015-11.526 6.999-16.839 2.918-5.194 6.427-10.079 10.605-14.336 1.026-1.045 2.148-1.988 3.233-2.972 .96-.869 2.404-.389 3.522-.205 3.068.505 6.229.385 9.302-.023 4.285-.569 9.173-2.44 10.537-6.976 .871-2.894.198-6-.625-8.822-.871-2.982-2.054-5.863-3.412-8.654-5.064-10.404-12.315-19.635-20.61-27.655-8.397-8.118-17.985-14.994-28.578-19.951-5.338-2.498-11.468-5.051-17.493-4.069-2.37.387-4.595,1.561-5.92,3.614-1.575,2.44-2.445,5.294-3.685,7.908-1.337,2.818-2.52,5.679-3.257,8.717-.739,3.051-1.272,6.149-2.128,9.172-1.544,5.453-4.011,10.61-7.775,14.884-4.065,4.615-9.048,8.291-13.271,12.748-3.899,4.114-8.465,10.46-7.143,16.48" fill="#fff"/>
 <path d="m241.6,152.05c.003.956-.084,2.811-1.352,2.948-1.48.161-1.604-1.935-1.603-2.948s.093-2.945 1.493-2.959c1.35-.01 1.46,2 1.46,2.96m38.8,77.61c-.005.987-.096,2.957-1.479,2.955s-1.476-1.968-1.476-2.955 .096-2.955 1.476-2.957 1.48,1.98 1.48,2.96m-1.78-2.89c5.363-2.118 9.955-5.765 14.083-9.722 4.183-4.009 7.654-8.742 10.303-13.891 2.802-5.444 4.122-11.464 5.964-17.263 1.871-5.891 4.345-11.597 7.453-16.941 2.998-5.15 6.625-9.941 10.834-14.164 1.008-1.01 1.997-2.054 3.163-2.886 1.16-.829 2.608-.315 3.889-.169 3.188.365 6.574.308 9.744-.173 2.604-.395 5.29-1.037 7.17-3.015 2.249-2.365 1.716-5.007.903-7.896-1.606-5.711-4.295-11.057-7.494-16.032-6.288-9.781-14.235-18.477-23.213-25.852-4.767-3.916-9.935-7.321-15.312-10.334-5.155-2.888-10.561-5.455-16.383-6.643-2.87-.585-6.193-1.059-8.896.38-2.979,1.585-3.778,5.036-5.044,7.886-.818,1.845-1.89,3.567-2.684,5.423-.758,1.771-1.183,3.66-1.548,5.545-.724,3.735-1.239,7.57-2.804,11.075l.352-.692c-1.379,3.818-2.92,7.648-5.369,10.921-2.536,3.389-5.507,6.428-8.615,9.291-2.951,2.719-6.262,5.093-8.748,8.279-1.28,1.642-2.526,3.334-3.42,5.223-.868,1.835-1.811,3.844-1.445,5.929-.064-.347-.349.139-.413.229-.271.382-.74.55-1.072.865-.13.122-1.146,1.149-1.286.953l.234.751c-.121-.438-.278-.87-.33-1.325 .038.183.077.364.115.547-.08-.456-.157-.913-.208-1.373 .012.446.023-.045.024-.112 .008-.396.005-.794.007-1.19s.003-.795.008-1.192c.001-.061.007-.62-.023-.248 .065-.608.147-1.215.261-1.816-.03.132-.062.264-.092.396 .127-.678.271-1.353.458-2.017-.053.158-.105.315-.158.474 1.408-5.278 4.46-10.016 8.318-13.841 4.244-4.208 9.062-7.841 12.909-12.442 3.651-4.368 5.972-9.706 7.354-15.193 .757-3.002 1.138-6.088 1.96-9.075 .802-2.913 2.25-5.562 3.537-8.276 .742-1.566 1.383-3.177 2.077-4.765 .339-.777.692-1.55 1.125-2.281 .187-.316.477-.574.647-.89 .026-.048.227-.457.031-.178 1.78-1.864 4.096-3.276 6.678-3.632 3.155-.436 6.343.397 9.355,1.252 5.891,1.673 11.365,4.514 16.631,7.591 10.012,5.852 18.904,13.519 26.521,22.242 8.131,9.312 15.167,19.896 18.732,31.833l-.25-.624c.453,1.338.688,2.735.961,4.118l-.18-.658c.65,1.699.604,3.729.32,5.499 .045-.373-.039.394-.047.464-.062.54-.143,1.088-.345,1.596 .052-.157.103-.313.154-.471-.191.737-.302,1.527-.754,2.164l.212-.357c-.351.714-1.344,1.696-1.377,2.521 .061.021.102-.017.121-.112-5.522,6.279-14.864,6.076-22.427,4.807l.641-.174c-4.577,3.398-8.121,7.958-11.257,12.669-3.345,5.026-6.146,10.428-8.196,16.11-2.115,5.86-3.303,12.026-5.71,17.786-2.247,5.379-5.363,10.389-9.156,14.813-5.045,5.888-11.111,11.173-18.39,14.067-.16-1.97-.36-3.9-.56-5.82"/>
 <path d="m277.21,218.54c2.595-1.994 5.212-3.96 7.847-5.9 1.178-.867 2.41-1.657 3.613-2.488 1.084-.751 2.239-1.507 2.932-2.664 1.44-2.404.934-5.318.858-7.971-.083-2.899.38-5.859 1.741-8.447 1.248-2.371 3.095-4.409 5.334-5.882 2.38-1.565 4.096-3.641 5.784-5.905 3.799-5.097 7.356-10.354 10.985-15.57 3.417-4.911 6.888-9.804 10.745-14.383 1.882-2.234 3.852-4.409 6.058-6.329 1.675-1.458 3.894-3.393 6.298-2.641m-58.76,53.64c1.001-5.086 3.439-10.13 7.67-13.288 4.084-3.048 9.198-4.375 13.153-7.622 2.201-1.808 3.726-4.173 5.08-6.647 1.506-2.751 2.94-5.539 4.347-8.342 2.954-5.889 5.984-11.738 8.977-17.606 2.927-5.738 5.822-11.493 8.705-17.253m-53.65,57.63c1.006-2.657 2.597-5.065 4.498-7.166 1.914-2.113 4.337-3.654 6.593-5.364 2.451-1.857 4.757-3.896 7.026-5.968 2.011-1.836 4.262-3.401 5.718-5.756 1.594-2.576 2.69-5.413 3.978-8.146 1.39-2.948 2.796-5.889 4.178-8.841 2.77-5.918 5.493-11.858 8.198-17.806 1.256-2.762 2.507-5.525 3.752-8.292m-50.8,58.79c.999-5.087 3.438-10.131 7.667-13.29 2.397-1.789 5.222-2.847 7.838-4.257 2.528-1.361 5.039-2.921 7.01-5.037 1.897-2.037 2.896-4.725 4.068-7.202 1.404-2.967 2.701-5.981 4.02-8.986 2.629-5.989 5.32-11.951 7.95-17.94 1.805-4.109 3.604-8.222 5.389-12.339m-50.8,65.07c.036-5.257.69-11.298 4.403-15.355 3.393-3.707 8.486-4.919 12.786-7.199 1.217-.645 2.39-1.375 3.492-2.2 1.062-.794 2.007-2.017 3.191-2.611 .429-.216.566-.796.762-1.19 .331-.671.648-1.349.954-2.032 .663-1.482 1.27-2.989 1.843-4.508 2.266-6.001 4.239-12.119 6.374-18.168 2.057-5.83 4.127-11.654 6.145-17.498m-49.06,63.918c1.036-5.281 3.674-9.975 7.828-13.413 2.332-1.93 4.76-3.753 6.868-5.938 2.025-2.099 3.613-4.455 4.997-7.013 6.17-11.405 11.66-23.209 17.334-34.867 1.545-3.176 3.091-6.352 4.627-9.532m-49.08,66.192c-.527-2.82-.403-5.857.8-8.497 1.09-2.392 3.162-4.143 5.358-5.494 2.561-1.576 5.282-2.908 7.667-4.756 2.189-1.697 4.104-3.753 5.584-6.098 3.327-5.274 5.773-11.03 8.236-16.74 2.598-6.022 5.063-12.101 7.439-18.214 1.269-3.263 2.516-6.535 3.718-9.823" fill="none" stroke="#787878" stroke-linecap="round" stroke-linejoin="round" stroke-miterlimit="11.5" stroke-width="2.9558"/>
 <path d="m39.249,174.88c2.04-9.684 8.661-18.474 17.73-22.593 10.832-4.919 23.137-1.87 33.57,2.574 11.521,4.906 22.303,11.392 33.932,16.059 11.481,4.608 23.769,7.176 36.131,7.59 10.264.344 21.569-.431 30.012-6.942 4.436-3.42 7.424-8.227 9.788-13.228 1.327-2.808 2.503-5.685 3.858-8.479 1.148-2.37 2.399-4.827 4.374-6.625 4.495-4.092 10.316-1.502 14.698,1.342 5.377,3.49 10.653,7.127 16.131,10.462 10.708,6.521 21.652,12.733 31.615,20.385 4.352,3.342 8.287,7.093 10.722,12.082 1.362,2.791 2.78,5.554 4.341,8.24 1.26,2.169 2.961,5.003 2.098,7.61-1.353,4.084-8.359,3.49-11.608,3.534-2.974.04-6.017.164-8.808,1.299-2.274.926-4.224,2.468-5.946,4.193-1.75,1.753-3.292,3.696-4.915,5.563-1.804,2.076-3.768,4.012-5.834,5.826-4.491,3.944-9.486,7.146-14.766,9.926-5.407,2.846-10.957,5.441-15.91,9.06-4.763,3.479-8.824,7.672-12.651,12.135-3.761,4.386-7.495,9.029-12.463,12.11-4.835,2.999-10.321,4.158-15.962,4.197-6.336.045-12.71-1.038-18.869-2.453-6.098-1.401-12.092-3.266-17.978-5.383-11.448-4.118-22.511-9.442-32.473-16.464-10.045-7.079-18.883-15.629-28.189-23.61-4.526-3.882-9.193-7.643-14.292-10.751-4.906-2.99-10.215-5.251-15.11-8.244-4.692-2.869-8.172-6.686-10.164-11.854-2.145-5.59-2.664-11.66-3.056-17.57" fill="#fff"/>
 <path d="m37.895,173.68c2.09-9.783 8.355-18.818 17.314-23.468 5.284-2.742 11.352-3.863 17.274-3.403 6.197.481 12.13,2.562 17.811,4.979 11.546,4.911 22.435,11.232 34.027,16.04 5.756,2.387 11.691,4.394 17.806,5.635 6.328,1.284 12.781,1.883 19.23,2.075 9.955.298 21.013-.492 29.11-6.957 4.418-3.527 7.216-8.506 9.467-13.6 1.98-4.48 3.499-9.409 6.824-13.127 1.761-1.969 4.041-3.52 6.737-3.715 2.723-.197 5.367.874 7.708,2.161 2.597,1.428 5.008,3.188 7.482,4.812 2.699,1.772 5.421,3.51 8.163,5.215 10.467,6.507 21.343,12.402 31.294,19.707 4.411,3.238 9.03,6.691 12.256,11.176 1.729,2.402 2.861,5.151 4.197,7.777 1.438,2.829 3.11,5.536 4.39,8.445l-.211-.396c.329.721.574,1.476.812,2.229l-.182-.467c.295.625.279,1.337.373,2.007 .02.144.189.527.145.646 0-.078-.007-.155-.021-.231 .122.777.101,1.582-.099,2.346l.106-.512c-.156,1.011-.21,2.143-.938,2.938 .103-.138.205-.275.308-.413-.295.509-.923.924-1.024,1.542-.034.207-1.013.728-1.273.879-.528.308-1.084.566-1.656.779-1.241.463-2.552.71-3.865.847-2.571.27-5.162.128-7.738.311-2.875.205-5.743.963-8.188,2.528-2.424,1.553-4.246,3.817-6.068,6.003-3.8,4.555-8.073,8.744-12.9,12.206-4.963,3.56-10.468,6.244-15.882,9.03-5.206,2.68-10.28,5.732-14.622,9.694-4.467,4.077-8.112,8.932-12.202,13.365-3.725,4.036-7.946,7.796-13.208,9.645-5.709,2.007-11.915,2.001-17.863,1.346-6.337-.698-12.559-2.166-18.692-3.87-6.22-1.729-12.377-3.688-18.375-6.082-5.805-2.317-11.5-4.95-16.917-8.076-5.37-3.1-10.417-6.738-15.28-10.575-9.773-7.711-18.494-16.669-28.371-24.252-4.853-3.726-10.085-6.949-15.49-9.807-4.812-2.544-9.986-4.815-13.75-8.882-3.294-3.559-5.062-8.224-6.184-12.869-.672-2.783-1.151-5.611-1.46-8.457-.279-2.573-1.092-5.265-.197-7.807-.055.2-.114.4-.173.6 .077-.35 1.209.622 1.335.732 .39.344 1.679.979 1.37,1.659 .035-.551.069-1.103.104-1.653 .471,5.966.956,12.077 3.333,17.644 1.071,2.508 2.671,4.761 4.774,6.505 2.25,1.866 4.837,3.262 7.406,4.632 5.416,2.891 10.93,5.654 15.957,9.203 5.112,3.609 9.821,7.745 14.49,11.9 9.148,8.142 18.275,16.425 28.643,23.014 10.223,6.498 21.454,11.295 33.004,14.876 6.079,1.885 12.242,3.533 18.508,4.668 6.313,1.144 12.861,2.004 19.233.797 5.366-1.017 10.272-3.751 14.147-7.572 4.278-4.221 7.754-9.165 11.958-13.455 4.144-4.227 8.893-7.851 14.044-10.762 5.373-3.036 11.113-5.386 16.329-8.706 4.941-3.146 9.491-6.934 13.364-11.334 3.277-3.725 6.265-8.037 10.892-10.201 3.933-1.841 8.33-1.642 12.562-1.821 2.327-.098 6.442.41 7.683-2.156-.013.142-.034.281-.065.42-.631-2.815-2.41-5.153-3.798-7.624-1.448-2.579-2.459-5.387-4.038-7.896-1.499-2.381-3.629-4.266-5.756-6.07-2.344-1.99-4.769-3.884-7.28-5.659-10.305-7.282-21.407-13.33-32.088-20.024-2.727-1.709-5.405-3.493-8.062-5.308-2.414-1.647-4.813-3.374-7.514-4.53-2.358-1.009-5.22-1.52-7.572-.208-2.276,1.27-3.743,3.634-4.94,5.867-2.804,5.229-4.658,10.937-7.826,15.976-2.869,4.562-6.948,8.348-11.797,10.725-10.559,5.177-22.798,4.678-34.181,3.461-6.273-.671-12.521-1.733-18.568-3.559-6.08-1.834-11.899-4.415-17.641-7.105-5.859-2.745-11.643-5.647-17.45-8.502-5.641-2.772-11.375-5.414-17.406-7.227-5.942-1.786-12.311-2.55-18.396-1.009-5.287,1.339-10.211,4.019-13.954,8.017-3.848,4.11-6.952,9.112-8.098,14.679-.888-.8-1.789-1.6-2.691-2.4"/>
 <path d="m283.49,209.12c-3.441,2.343-6.839,5.665-7.558,9.949-.389,2.317.194,4.705 1.567,6.607 .642.89 1.425,1.641 2.184,2.427 .328.34 1.337,1.405.769,1.92-.673.61-2.329-.03-3.064-.245-2.243-.656-4.429-1.438-6.577-2.359-4.974-2.137-9.867-4.476-14.711-6.892" fill="#fff"/>
 <path d="m257.57,220.53c-.004.953-.08,2.823-1.356,2.948-1.497.146-1.602-1.982-1.598-3.006 .004-.949.108-2.75 1.356-2.89 1.49-.16 1.6,1.94 1.6,2.95m27.4-11.41c-.009,1.009-.1,2.935-1.491,2.96-1.355.024-1.464-1.962-1.463-2.921 .002-.99.086-2.996 1.477-2.995 1.37.01 1.46,1.97 1.47,2.96m-1,2.79c-2.742,1.843-5.848,4.426-6.532,7.847-.617,3.086 2.562,4.974 3.958,7.28-.49-.49.059.061.149.243 .172.35.271.731.337,1.114l-.143-.465c.481,1.284.464,2.802-.215,4.014l.262-.582c-.671,2.441-3.434,1.856-5.227,1.218-3.255-1.158-6.442-2.49-9.596-3.898-3.041-1.357-6.012-2.987-9.101-4.222-.731-.292-2.09-.672-2.042-1.681 .081-1.718.415-3.409.628-5.113 4.116,1.963 8.22,3.955 12.39,5.803 1.969.873 3.962,1.689 5.986,2.424 .996.361 1.976.786 3.012,1.025 .632.146 1.58.623 2.202.231l-.797,1.176c-.007-.069.011-.126.054-.17 .104.133.021.559.02.723-.004.714-.056,1.427-.08,2.141-.039-.127-.071-.255-.098-.385l.361.924c-.507-.922-1.314-1.617-1.99-2.408-.771-.904-1.397-1.917-1.988-2.944l.241.34c-.444-.833-.761-1.727-1.055-2.622l.215.512c-.237-.485-.377-1.012-.462-1.543-.051-.321-.082-.646-.104-.97-.007-.108-.087-1.178.015-.323-.176-1.319-.099-3.163.432-4.402-.056.158-.11.316-.166.475 .231-.822.481-1.642.817-2.429l-.208.389c1.654-3.734 4.32-7.058 7.753-9.299 .32,1.87.65,3.73.97,5.59"/>
 <path d="m130.55,257.05c8.245-2.821 15.615-7.948 21.461-14.376 3.166-3.482 5.882-7.35 8.319-11.369 2.541-4.192 4.894-8.516 6.739-13.062l33.289,21.589 8.322,5.397c.858.558 2.795,1.103 3.223,2.094 .372.861-.919,2.371-1.313,3.078-2.762,4.948-6.405,9.379-10.714,13.059-8.383,7.161-19.209,11.589-30.316,11.278-11.5-.322-22.4-5.184-31.702-11.7-2.58-1.81-5.06-3.78-7.31-5.99" fill="#4b4b4b"/>
 <path d="m130.3,254.14c2.89-.97 5.606-2.384 8.235-3.914 2.67-1.554 5.317-3.177 7.697-5.156 4.485-3.733 8.07-8.405 11.309-13.226 1.777-2.646 3.43-5.376 4.925-8.19 .687-1.294 1.358-2.596 1.956-3.934 .499-1.115.76-2.345 1.435-3.378 .763-1.167 1.649-.968 2.692-.259 1.282.872 2.597,1.696 3.897,2.54 2.724,1.767 5.449,3.534 8.172,5.302 6.51,4.224 13.021,8.444 19.53,12.668 3.179,2.062 6.312,4.198 9.535,6.191 1.214.75 2.775,1.354 3.482,2.678 .696,1.303.497,3.03-.249,4.268l.277-.56c-1.949,5.322-5.434,9.946-9.431,13.907-4.135,4.097-8.865,7.633-14.118,10.165-10.426,5.025-22.708,5.638-33.69,2.108-5.079-1.632-9.911-3.994-14.442-6.796-2.328-1.439-4.565-3.01-6.754-4.65-1.729-1.297-3.383-2.587-4.81-4.204-.001.039.019.072.06.1-1.414-1.236-1.845-5.144.45-5.711 .084.973 1.756,5.438.348,5.872l.399-5.56c8.026,7.624 17.951,13.372 28.74,15.994 6.162,1.498 12.642,1.863 18.88.607 5.737-1.154 11.162-3.615 16.001-6.88 6.794-4.583 13.127-10.663 16.005-18.509l.729,4.589-22.637-14.679-11.318-7.34c-1.886-1.223-3.773-2.445-5.659-3.669-.941-.609-1.861-1.251-2.822-1.829-.852-.514-1.794-.914-2.508-1.627l1.601-.939c-1.803,4.584-4.207,8.902-6.781,13.092-2.595,4.225-5.451,8.307-8.775,11.994-5.928,6.577-13.362,12.042-21.856,14.755-.18-1.92-.35-3.86-.52-5.8"/>
 <path d="m48.375,197.99c1.783-4.91 3.982-9.658 6.372-14.3 2.239-4.348 4.654-8.66 7.879-12.365 3.078-3.534 7.035-6.148 11.108-8.397 4.545-2.51 9.083-5.059 13.856-7.116-8.211-6.306-19.946-9.073-29.569-4.369-8.983,4.393-15.146,13.823-16.539,23.613-.634,4.46-.206,9.045 1.123,13.344 .635,2.055 1.498,4.033 2.527,5.92 .773,1.43 1.653,3.07 3.243,3.69" fill="#4b4b4b"/>
 <path d="m47.182,196.25c1.779-4.839 3.881-9.56 6.279-14.123 2.344-4.462 4.837-8.893 8.087-12.769 1.629-1.941 3.341-3.852 5.359-5.4 1.936-1.486 4.14-2.555 6.248-3.766 4.593-2.639 9.299-5.084 14.122-7.275-.069,1.886-.139,3.772-.208,5.658-8.157-6.188-19.822-8.894-29.249-3.986-8.531,4.442-14.562,13.707-15.075,23.323-.171,3.211.352,6.401 1.308,9.463 .905,2.896 2.14,6.062 4.781,7.806-.42.271-1.042,1.203-1.62,1.054 .536.138.81,1.083 1.093,1.494 .417.606 1.158,1.279 1.1,2.078-.165,2.283-2.764.118-3.405-.585-2.296-2.514-3.434-5.857-4.565-9.003l.343.679c-.539-1.22-.846-2.521-1.186-3.805l.204.586c-.388-1.319-.581-2.684-.809-4.037l.135.573c-.214-.689-.343-1.408-.418-2.125-.044-.426-.068-.855-.063-1.283 .002-.146.02-1.382.1-.575-.12-.819-.02-1.647.012-2.47 .037-.953-.01-1.918.195-2.856-.168.883-.036-.266-.028-.38 .033-.478.077-.954.146-1.428 .12-.823.316-1.643.661-2.403l-.165.474c.415-1.459.754-2.946 1.343-4.349-.071.143-.142.284-.212.427 3.574-9.056 10.494-17.719 20.233-20.353 5.827-1.576 12.088-.774 17.659,1.381 2.759,1.067 5.554,2.427 7.909,4.236 1.869,1.437 2.318,4.465.41,6.104-1.553,1.333-3.814,1.853-5.619,2.777-2.315,1.188-4.611,2.41-6.89,3.665-4.195,2.312-8.362,4.755-11.588,8.363-3.203,3.583-5.629,7.772-7.854,12.009-2.429,4.625-4.59,9.395-6.387,14.301l-2.386-3.48"/>
 <path d="m272.65,92.992c5.141-1.966 11.023-.901 15.564,2.055 2.616,1.703 5.001,3.726 7.438,5.668 2.464,1.964 4.904,3.96 7.247,6.067 2.27,2.042 4.506,4.146 6.398,6.552 1.752,2.228 3.199,4.703 5.199,6.729 4.018,4.069 9.02,7.042 12.774,11.391 1.744,2.021 3.159,4.369 3.817,6.973 .776,3.072.604,6.28.359,9.408-.214,2.736-.213,5.373-2.305,7.396-2.314,2.236-4.572,4.531-6.849,6.807 1.103-2.952 1.827-6.041 2.218-9.167 .362-2.882.367-5.894-.646-8.653-1.835-4.996-6.295-8.305-10.178-11.657-4.521-3.902-8.934-7.995-12.664-12.677-3.618-4.542-6.914-9.414-11.376-13.2-2.368-2.009-5.179-3.573-8.309-3.914-3.349-.365-6.733.377-9.83,1.629 .004-2.658.242-5.314.204-7.972 0-.745-.26-3.446.95-3.446" fill="#0067ac"/>
 <path d="m272.37,90.086c5.248-2.002 11.25-1.101 15.949,1.86 2.58,1.625 4.885,3.645 7.262,5.543 2.535,2.024 5.033,4.093 7.47,6.234 2.3,2.021 4.587,4.095 6.507,6.49 1.849,2.306 3.369,4.857 5.418,7.001 3.984,4.171 9.111,7.087 12.845,11.519 1.502,1.784 2.777,3.757 3.802,5.851-.069-.118-.139-.235-.208-.353 .409.846.694,1.744.982,2.636l-.185-.47c.409.857.587,2.169.622,3.131-.011-.101-.025-.202-.042-.302 .278,1.34.21,2.716.221,4.077 .011,1.431.019,2.863-.098,4.29 .13-.672.088.059.092.225 .008.294-.019.589-.056.88-.074.572-.203,1.135-.286,1.705 .026-.147.053-.295.08-.442-.128.946-.261,1.894-.476,2.825 .058-.213.114-.426.172-.639-.163.816-.359,1.627-.627,2.416 .094-.242.188-.485.281-.728-.292,1.066-.349,2.482-1.446,3.076 .11-.057.211-.128.301-.214-.092.259-.376.367-.555.548-.366.365-.732.731-1.099,1.097l-1.921,1.921c-1.225,1.225-2.455,2.442-3.657,3.689-.863.895-2.007,1.35-2.586-.08-.535-1.321-.506-2.953.265-4.179l-.29.586c1.857-4.963 3.495-10.888.786-15.863-1.352-2.484-3.5-4.413-5.584-6.272-2.372-2.116-4.82-4.148-7.161-6.299-4.512-4.145-8.419-8.876-12.207-13.675-1.904-2.414-3.844-4.807-6.017-6.988-1.93-1.938-4.053-3.84-6.646-4.827-2.139-.814-4.474-.87-6.719-.555-1.202.169-2.388.442-3.554.778-.838.241-1.856.938-2.752.673-1.618-.477-1.267-2.959-1.268-4.211-.002-2.527.098-5.059.431-7.566l-.075.485c.103-.918.206-1.838.389-2.744l-.134.558c.107-.597.271-1.183.448-1.762-.075.208-.151.416-.227.623 .15-.544.377-1.062.604-1.578-.071.121-.143.243-.212.365 .106-.288.765-1.101.786-1.12 .146-.107.303-.191.473-.253 .119,1.253.146,2.521.403,3.757 .115.551.671,1.717.021,2.127l.612-.758c-.488,1.35-.372,2.807-.405,4.215-.04,1.67-.117,3.34-.115,5.011l-1.774-2.899c5.167-1.957 11.168-2.731 16.108.253 4.76,2.875 8.08,7.493 11.484,11.768 3.83,4.812 7.812,9.515 12.41,13.618 4.255,3.796 8.926,7.315 12.098,12.136 .706,1.072 1.327,2.203 1.816,3.392l-.285-.531c.348.793.606,1.621.832,2.456-.056-.163-.11-.326-.166-.489 .222.826.373,1.67.505,2.515-.045-.206-.091-.411-.136-.617 .366,1.18.313,2.429.286,3.647-.027,1.211.029,2.437-.215,3.631 .011-.098.027-.194.05-.289-.088.23-.031.758-.062,1.015-.11.919-.326,1.82-.523,2.724l.105-.425c-.518,2.537-1.1,5.074-2.037,7.494-.522-1.246-1.046-2.491-1.568-3.737-.426-1.016.672-1.616 1.271-2.217l6.439-6.438c-.152.237-.306.475-.458.712 1.117-2.725.916-5.729.937-8.609 .021-2.77-.637-5.579-2.242-7.869-3.176-4.531-7.992-7.442-12.067-11.061-2.259-2.005-4.108-4.375-5.89-6.8-1.82-2.478-3.875-4.762-6.105-6.875-4.523-4.286-9.456-8.159-14.436-11.899-2.319-1.743-4.781-3.24-7.676-3.756-2.912-.52-5.969-.354-8.764.643-.14-1.912-.33-3.847-.51-5.782"/>
 <path d="m268.08,114.1c5.622-1.612 11.36.932 15.896,4.145 2.525,1.789 4.887,3.794 7.234,5.807 2.301,1.973 4.525,4.056 6.419,6.431 1.853,2.323 3.299,4.958 5.336,7.135 2.027,2.167 4.401,3.96 6.7,5.822 4.015,3.25 8.361,6.786 10.157,11.814 .779,2.183.91,4.521.924,6.817 .014,2.483-.063,4.98-.515,7.429-.199,1.08-.399,2.179-1.066,3.082-.612.83-1.449,1.449-2.173,2.173l-5.544,5.54c1.103-2.95 1.824-6.036 2.219-9.159 .365-2.887.402-5.917-.648-8.675-1.817-4.772-6.316-7.676-10.277-10.535-2.476-1.788-4.962-3.585-7.226-5.64-2.226-2.021-4.145-4.339-6.02-6.681-3.45-4.309-6.963-8.792-11.773-11.663-2.499-1.491-5.285-2.375-8.089-3.092-2.983-.763-5.974-1.495-8.974-2.19 1.29-1.752 2.606-3.486 3.995-5.162 .585-.705 1.224-1.365 1.796-2.081 .41-.52.86-1.32 1.62-1.32" fill="#0067ac"/>
 <path d="m267.87,111.17c5.436-1.443 11.168.447 15.647,3.582 2.537,1.774 4.888,3.804 7.278,5.766 2.342,1.921 4.68,3.872 6.636,6.197 1.909,2.27 3.341,4.889 5.21,7.189 1.854,2.28 4.225,4.024 6.477,5.88 4.32,3.559 8.677,7.402 11.332,12.419 .111.211.22.423.324.637-.07-.117-.141-.235-.211-.353 .41.846.697,1.743.986,2.636-.063-.155-.128-.31-.191-.465 .347.68.37,1.451.456,2.193 .032.276.188.673.172.945-.01-.104-.023-.207-.042-.31 .526,2.757.349,5.584.123,8.362 .019-.397.047-.379.086.055 .036.347.015.696-.03,1.04-.076.578-.223,1.143-.31,1.719 .026-.147.054-.295.081-.442-.126.945-.257,1.891-.474,2.82l.174-.634c-.164.816-.362,1.627-.628,2.417l.281-.732c-.296,1.066-.35,2.483-1.447,3.079 .111-.058.213-.13.304-.216-.095.26-.38.371-.562.553l-1.109,1.108-1.941,1.939c-1.237,1.236-2.457,2.492-3.704,3.719-.97.954-1.979,1.215-2.553-.262-.502-1.292-.413-2.87.312-4.062l-.287.588c1.667-4.812 3.518-10.537.99-15.393-1.302-2.502-3.558-4.325-5.761-6.001-2.514-1.912-5.083-3.751-7.558-5.713-2.399-1.902-4.67-3.96-6.7-6.256s-3.863-4.766-5.891-7.069c-3.932-4.467-8.331-8.034-14.077-9.822-3.222-1.002-6.564-1.538-9.804-2.473-1.207-.349-2.038-1.163-2.245-2.423-.197-1.207-.072-2.67.934-3.506l-.319.331c1.309-1.809 2.743-3.522 4.104-5.292 1.098-1.429 2.166-3.265 4.021-3.776 .094,1.323.109,2.653.271,3.971 .073.605.37,1.322.022,1.896-.271.448-.786.657-1.126,1.04-2.002,2.249-3.756,4.699-5.634,7.049-.22-1.793-.438-3.587-.658-5.381 5.481,1.456 11.245,2.204 16.322,4.877 4.92,2.59 8.605,6.888 12.05,11.144 1.832,2.264 3.651,4.548 5.716,6.607 2.188,2.183 4.64,4.078 7.132,5.898 4.276,3.124 8.776,6.312 11.502,10.975l-.373-.471c.448.679.791,1.42 1.101,2.171l-.282-.53c.347.793.607,1.62.832,2.455-.056-.163-.11-.325-.166-.488 .222.826.372,1.669.504,2.513l-.135-.608c.369,1.176.312,2.423.286,3.639-.026,1.212.035,2.438-.217,3.633 .01-.101.028-.2.058-.297-.074.111-.026.785-.041.93-.101.952-.344,1.883-.556,2.814l.109-.422c-.516,2.538-1.107,5.073-2.036,7.496-.522-1.245-1.046-2.491-1.568-3.736-.427-1.017.671-1.616 1.271-2.218l6.438-6.438-.456.708c1.117-2.723.915-5.727.937-8.604 .021-2.771-.638-5.582-2.244-7.873-3.182-4.536-7.966-7.505-12.057-11.121-4.18-3.695-6.772-8.771-10.711-12.688-2.173-2.16-4.571-4.109-6.969-6.01-2.343-1.857-4.664-3.805-7.288-5.258-3.51-1.944-7.769-2.917-11.703-1.789-.12-1.97-.26-3.92-.4-5.88"/>
 <path d="m220.72,147.77c-2.344-2.169-5.57.099-7.16,2.076-2.141,2.666-2.78,6.12-3.69,9.326-1.622,5.715-4.585,11.701-10.269,14.281" fill="#fff"/>
 <path d="m220.72,147.77c-2.344-2.169-5.57.099-7.16,2.076-2.141,2.666-2.78,6.12-3.69,9.326-1.622,5.715-4.585,11.701-10.269,14.281" fill="none" stroke="#919191" stroke-linecap="round" stroke-linejoin="round" stroke-miterlimit="11.5" stroke-width="2.9558"/>
 <path d="m229.85,154.05c-2.077-1.925-5.065-.258-6.671,1.452-2.083,2.219-3.03,5.189-3.901,8.037-.948,3.096-2.054,6.205-3.955,8.859-1.916,2.677-4.102,5.172-6.588,7.335" fill="#fff"/>
 <path d="m229.85,154.05c-2.077-1.925-5.065-.258-6.671,1.452-2.083,2.219-3.03,5.189-3.901,8.037-.948,3.096-2.054,6.205-3.955,8.859-1.916,2.677-4.102,5.172-6.588,7.335" fill="none" stroke="#919191" stroke-linecap="round" stroke-linejoin="round" stroke-miterlimit="11.5" stroke-width="2.9558"/>
 <path d="m239.55,159.76c-2.786-1.08-5.864.493-7.728,2.568-2.022,2.254-2.792,5.284-3.352,8.184-.604,3.124-1.327,6.343-3.219,8.972-1.771,2.463-4.018,4.691-6.811,5.96" fill="#fff"/>
 <path d="m239.55,159.76c-2.786-1.08-5.864.493-7.728,2.568-2.022,2.254-2.792,5.284-3.352,8.184-.604,3.124-1.327,6.343-3.219,8.972-1.771,2.463-4.018,4.691-6.811,5.96" fill="none" stroke="#919191" stroke-linecap="round" stroke-linejoin="round" stroke-miterlimit="11.5" stroke-width="2.9558"/>
 <path d="m248.68,164.89c-2.74.148-4.886,2.244-6.542,4.234-2.062,2.479-3.263,5.462-4.353,8.461-1.906,5.246-4.919,10.584-10.224,12.989" fill="#fff"/>
 <path d="m248.68,164.89c-2.74.148-4.886,2.244-6.542,4.234-2.062,2.479-3.263,5.462-4.353,8.461-1.906,5.246-4.919,10.584-10.224,12.989" fill="none" stroke="#919191" stroke-linecap="round" stroke-linejoin="round" stroke-miterlimit="11.5" stroke-width="2.9558"/>
 <path d="m259.52 171.74c-2.6 1.128-4.59 3.224-6.497 5.252-2.238 2.382-4.364 4.868-6.396 7.428-2.019 2.543-3.752 5.301-5.84 7.79-2.022 2.411-4.382 4.53-6.945 6.353" fill="#fff"/>
 <path d="m259.52 171.74c-2.6 1.128-4.59 3.224-6.497 5.252-2.238 2.382-4.364 4.868-6.396 7.428-2.019 2.543-3.752 5.301-5.84 7.79-2.022 2.411-4.382 4.53-6.945 6.353" fill="none" stroke="#919191" stroke-linecap="round" stroke-linejoin="round" stroke-miterlimit="11.5" stroke-width="2.9558"/>
 <path d="m270.93,179.73c-3.252-.227-6.632.604-9.25,2.589-2.668,2.022-4.348,5.006-5.877,7.916-1.723,3.281-3.382,6.63-5.656,9.575-2.18,2.824-4.849,5.247-7.749,7.312" fill="#fff"/>
 <path d="m270.93,179.73c-3.252-.227-6.632.604-9.25,2.589-2.668,2.022-4.348,5.006-5.877,7.916-1.723,3.281-3.382,6.63-5.656,9.575-2.18,2.824-4.849,5.247-7.749,7.312" fill="none" stroke="#919191" stroke-linecap="round" stroke-linejoin="round" stroke-miterlimit="11.5" stroke-width="2.9558"/>
 <path d="m281.2,191.71c-4.075.023-8.126.583-12.126,1.327-1.618.302-3.288.805-4.505,1.971-1.338,1.282-2.122,2.993-2.95,4.62-.852,1.669-1.749,3.343-2.998,4.754-1.253,1.415-2.876,2.414-4.381,3.53-3.084,2.289-5.629,5.222-7.847,8.338" fill="#fff"/>
 <path d="m170.11,226.77c5.707,15.983 8.562,25.684-.57,42.229m111.66-77.29c-4.075.023-8.126.583-12.126,1.327-1.618.302-3.288.805-4.505,1.971-1.338,1.282-2.122,2.993-2.95,4.62-.852,1.669-1.749,3.343-2.998,4.754-1.253,1.415-2.876,2.414-4.381,3.53-3.084,2.289-5.629,5.222-7.847,8.338" fill="none" stroke="#919191" stroke-linecap="round" stroke-linejoin="round" stroke-miterlimit="11.5" stroke-width="2.9558"/>
</svg>
