<?xml version="1.0" encoding="UTF-8"?>
<svg viewBox="0 0 98.056 255.33789" xmlns="http://www.w3.org/2000/svg">
 <path transform="matrix(.31538 0 0 .31538 151.67 -71.84)" d="m-325.48 228.28-128.94 0.90625v29.969s-18.309 92.748-22.375 139.75c-4.7402 54.789-3.9936 110-2.2812 164.97 2.1634 69.448 13.575 138.4 15.875 207.84 1.9632 59.27-3.4613 118.6-1.7812 177.88 0.75016 26.469 5.2812 79.281 5.2812 79.281s33.312 11.362 49.344 7.0312c17.35-4.6875 42.25-33.469 42.25-33.469v-202.56s12.859-140.03 22.906-209.59c5.034-34.853 17.338-97.815 19.781-110.25 2.4448 12.442 14.716 75.4 19.75 110.25 10.047 69.562 22.906 209.59 22.906 209.59v202.56s24.931 28.781 42.281 33.469c16.032 4.3313 49.312-7.0312 49.312-7.0312s4.5311-52.813 5.2812-79.281c1.68-59.279-3.7132-118.6-1.75-177.88 2.3002-69.444 13.68-138.4 15.844-207.84 1.7123-54.967 2.459-110.18-2.2812-164.97-4.0665-47.002-22.375-139.75-22.375-139.75v-29.969l-128.91-0.90625-0.0625 15.188-0.0625-15.188z" fill="#1a1a1a" stroke="#1a1a1a"/>
 <g transform="matrix(.31538 0 0 .31538 152.5 -44.187)" fill-rule="evenodd">
  <path d="m-458.8 145.22h261.1v19.939h-261.1z" fill="#502d16" stroke="#502d16" stroke-width=".95713"/>
  <path d="m-390.82 142.87h5.4258v24.629h-5.4258z" stroke="#000" stroke-width="1.7139"/>
  <path d="m-270.74 142.87h4.7038v24.629h-4.7038z" stroke="#000" stroke-width="1.5958"/>
  <path d="m-450.68 142.87h5.4258v24.629h-5.4258z" stroke="#000" stroke-width="1.7139"/>
  <path d="m-210.93 142.87h4.8101v24.629h-4.8101z" stroke="#000" stroke-width="1.6137"/>
  <path d="m-338.1 142.05h19.703v26.276h-19.703z" fill="#666" stroke="#c8b7b7" stroke-width="1.1733"/>
 </g>
</svg>
