<?xml version="1.0" encoding="UTF-8" standalone="no"?>
<!-- Created with Inkscape (http://www.inkscape.org/) -->

<svg
   version="1.1"
   id="svg2"
   width="1440"
   height="2560"
   viewBox="0 0 1440 2560"
   sodipodi:docname="hoodie-7106284.ai"
   xmlns:inkscape="http://www.inkscape.org/namespaces/inkscape"
   xmlns:sodipodi="http://sodipodi.sourceforge.net/DTD/sodipodi-0.dtd"
   xmlns="http://www.w3.org/2000/svg"
   xmlns:svg="http://www.w3.org/2000/svg">
  <defs
     id="defs6">
    <clipPath
       clipPathUnits="userSpaceOnUse"
       id="clipPath16">
      <path
         d="M 0,1920 H 1080 V 0 H 0 Z"
         id="path14" />
    </clipPath>
  </defs>
  <sodipodi:namedview
     id="namedview4"
     pagecolor="#ffffff"
     bordercolor="#000000"
     borderopacity="0.25"
     inkscape:showpageshadow="2"
     inkscape:pageopacity="0.0"
     inkscape:pagecheckerboard="0"
     inkscape:deskcolor="#d1d1d1" />
  <g
     id="g8"
     inkscape:groupmode="layer"
     inkscape:label="hoodie-7106284"
     transform="matrix(1.3333333,0,0,-1.3333333,0,2560)">
    <g
       id="g10">
      <g
         id="g12"
         clip-path="url(#clipPath16)">
        <g
           id="g18"
           transform="translate(248.1064,975.0762)">
          <path
             d="M 0,0 C 6.506,-63.258 11.156,-317.599 18.329,-406.576"
             style="fill:none;stroke:#000100;stroke-width:3.054;stroke-linecap:butt;stroke-linejoin:round;stroke-miterlimit:4;stroke-dasharray:none;stroke-opacity:1"
             id="path20" />
        </g>
        <g
           id="g22"
           transform="translate(415.6323,1244.4795)">
          <path
             d="m 0,0 -114.125,-48.967 c 0,0 35.298,-189.088 -53.859,-221.697"
             style="fill:none;stroke:#000100;stroke-width:3.054;stroke-linecap:butt;stroke-linejoin:round;stroke-miterlimit:4;stroke-dasharray:none;stroke-opacity:1"
             id="path24" />
        </g>
        <g
           id="g26"
           transform="translate(264.3413,568.999)">
          <path
             d="M 0,0 H 549.937"
             style="fill:none;stroke:#231f20;stroke-width:3;stroke-linecap:butt;stroke-linejoin:miter;stroke-miterlimit:4;stroke-dasharray:none;stroke-opacity:1"
             id="path28" />
        </g>
        <g
           id="g30"
           transform="translate(832.6895,975.0762)">
          <path
             d="m 0,0 c -6.505,-63.258 -11.163,-317.599 -18.329,-406.576 0,0 -5.626,-54.532 1.854,-73.234 h -549.937 c 6.149,12.965 0.158,73.234 0.158,73.234"
             style="fill:none;stroke:#231f20;stroke-width:3;stroke-linecap:butt;stroke-linejoin:miter;stroke-miterlimit:4;stroke-dasharray:none;stroke-opacity:1"
             id="path32" />
        </g>
        <g
           id="g34"
           transform="translate(665.0176,1244.6191)">
          <path
             d="m 0,0 112.426,-49.246 c 0,0 -35.304,-189.088 53.859,-221.697"
             style="fill:none;stroke:#000100;stroke-width:3.177;stroke-linecap:butt;stroke-linejoin:round;stroke-miterlimit:4;stroke-dasharray:none;stroke-opacity:1"
             id="path36" />
        </g>
        <g
           id="g38"
           transform="translate(454.7739,758.6963)">
          <path
             d="M 0,0 H 175.993"
             style="fill:none;stroke:#000100;stroke-width:1.494;stroke-linecap:butt;stroke-linejoin:round;stroke-miterlimit:4;stroke-dasharray:5.977, 3.054;stroke-dashoffset:0;stroke-opacity:1"
             id="path40" />
        </g>
        <g
           id="g42"
           transform="translate(716.4883,576.9395)">
          <path
             d="M 0,0 H -350.936"
             style="fill:none;stroke:#000100;stroke-width:1.494;stroke-linecap:butt;stroke-linejoin:round;stroke-miterlimit:4;stroke-dasharray:5.977, 3.054;stroke-dashoffset:0;stroke-opacity:1"
             id="path44" />
        </g>
        <g
           id="g46"
           transform="translate(367.7627,636.5586)">
          <path
             d="M 0,0 C 78.329,22.514 95.206,128.681 95.206,128.681"
             style="fill:none;stroke:#000100;stroke-width:1.494;stroke-linecap:butt;stroke-linejoin:round;stroke-miterlimit:4;stroke-dasharray:5.977, 2.989;stroke-dashoffset:0;stroke-opacity:1"
             id="path48" />
        </g>
        <g
           id="g50"
           transform="translate(500.5869,1224.7495)">
          <path
             d="m 0,0 c 12.784,-0.736 28.239,-1.163 41.033,-1.163 10.683,0 23.271,0.3 34.544,0.823"
             style="fill:none;stroke:#000100;stroke-width:1.172;stroke-linecap:butt;stroke-linejoin:round;stroke-miterlimit:4;stroke-dasharray:none;stroke-opacity:1"
             id="path52" />
        </g>
        <g
           id="g54"
           transform="translate(512.5366,1210.4819)">
          <path
             d="m 0,0 c 9.774,-0.384 20.087,-0.597 29.083,-0.597 7.594,0 16.151,0.151 24.51,0.424"
             style="fill:none;stroke:#000100;stroke-width:1.172;stroke-linecap:butt;stroke-linejoin:round;stroke-miterlimit:4;stroke-dasharray:none;stroke-opacity:1"
             id="path56" />
        </g>
        <g
           id="g58"
           transform="translate(509.7959,1213.3306)">
          <path
             d="m 0,0 c 10.564,-0.454 21.982,-0.705 31.824,-0.705 8.149,0 17.403,0.175 26.338,0.489"
             style="fill:none;stroke:#000100;stroke-width:1.172;stroke-linecap:butt;stroke-linejoin:round;stroke-miterlimit:4;stroke-dasharray:4.69, 2.345;stroke-dashoffset:0;stroke-opacity:1"
             id="path60" />
        </g>
        <g
           id="g62"
           transform="translate(502.4883,1221.2959)">
          <path
             d="m 0,0 c 12.391,-0.671 26.966,-1.059 39.132,-1.059 9.737,0 21.056,0.249 31.514,0.691"
             style="fill:none;stroke:#000100;stroke-width:1.172;stroke-linecap:butt;stroke-linejoin:round;stroke-miterlimit:4;stroke-dasharray:4.69, 2.345;stroke-dashoffset:0;stroke-opacity:1"
             id="path64" />
        </g>
        <g
           id="g66"
           transform="translate(541.6777,1481.5337)">
          <path
             d="M 0,0 V -257.947"
             style="fill:none;stroke:#000100;stroke-width:1.172;stroke-linecap:butt;stroke-linejoin:round;stroke-miterlimit:4;stroke-dasharray:none;stroke-opacity:1"
             id="path68" />
        </g>
        <g
           id="g70"
           transform="translate(366.731,568.5)">
          <path
             d="M 0,0 V 79.413 C 73.605,99.94 87.986,196.739 87.986,196.739 h 173.787 c 0,0 11.843,-95.345 87.984,-117.326 V 0 Z"
             style="fill:none;stroke:#000100;stroke-width:2.152;stroke-linecap:butt;stroke-linejoin:round;stroke-miterlimit:4;stroke-dasharray:none;stroke-opacity:1"
             id="path72" />
        </g>
        <g
           id="g74"
           transform="translate(374.7095,568.5)">
          <path
             d="M 0,0 V 4.476"
             style="fill:none;stroke:#000100;stroke-width:1.469;stroke-linecap:butt;stroke-linejoin:round;stroke-miterlimit:4;stroke-dasharray:none;stroke-opacity:1"
             id="path76" />
        </g>
        <g
           id="g78"
           transform="translate(374.7095,577.4424)">
          <path
             d="M 0,0 V 64.762"
             style="fill:none;stroke:#000100;stroke-width:1.469;stroke-linecap:butt;stroke-linejoin:round;stroke-miterlimit:4;stroke-dasharray:5.863, 2.931;stroke-dashoffset:0;stroke-opacity:1"
             id="path80" />
        </g>
        <g
           id="g82"
           transform="translate(374.7095,644.4375)">
          <path
             d="M 0,0 V 4.477"
             style="fill:none;stroke:#000100;stroke-width:1.469;stroke-linecap:butt;stroke-linejoin:round;stroke-miterlimit:4;stroke-dasharray:none;stroke-opacity:1"
             id="path84" />
        </g>
        <g
           id="g86"
           transform="translate(708.5098,648.9141)">
          <path
             d="M 0,0 V -4.477"
             style="fill:none;stroke:#000100;stroke-width:1.469;stroke-linecap:butt;stroke-linejoin:round;stroke-miterlimit:4;stroke-dasharray:none;stroke-opacity:1"
             id="path88" />
        </g>
        <g
           id="g90"
           transform="translate(708.5098,639.9717)">
          <path
             d="M 0,0 V -64.763"
             style="fill:none;stroke:#000100;stroke-width:1.469;stroke-linecap:butt;stroke-linejoin:round;stroke-miterlimit:4;stroke-dasharray:5.863, 2.931;stroke-dashoffset:0;stroke-opacity:1"
             id="path92" />
        </g>
        <g
           id="g94"
           transform="translate(708.5098,572.9756)">
          <path
             d="M 0,0 V -4.476"
             style="fill:none;stroke:#000100;stroke-width:1.469;stroke-linecap:butt;stroke-linejoin:round;stroke-miterlimit:4;stroke-dasharray:none;stroke-opacity:1"
             id="path96" />
        </g>
        <g
           id="g98"
           transform="translate(367.7627,629.0186)">
          <path
             d="M 0,0 C 87.011,23.905 102.596,136.221 102.596,136.221"
             style="fill:none;stroke:#000100;stroke-width:1.494;stroke-linecap:butt;stroke-linejoin:round;stroke-miterlimit:4;stroke-dasharray:5.977, 2.989;stroke-dashoffset:0;stroke-opacity:1"
             id="path100" />
        </g>
        <g
           id="g102"
           transform="translate(717.1699,636.5586)">
          <path
             d="M 0,0 C -78.329,22.514 -95.206,128.681 -95.206,128.681"
             style="fill:none;stroke:#000100;stroke-width:1.494;stroke-linecap:butt;stroke-linejoin:round;stroke-miterlimit:4;stroke-dasharray:5.977, 2.989;stroke-dashoffset:0;stroke-opacity:1"
             id="path104" />
        </g>
        <g
           id="g106"
           transform="translate(717.1699,629.0186)">
          <path
             d="M 0,0 C -87.012,23.905 -102.597,136.221 -102.597,136.221"
             style="fill:none;stroke:#000100;stroke-width:1.494;stroke-linecap:butt;stroke-linejoin:round;stroke-miterlimit:4;stroke-dasharray:5.977, 2.989;stroke-dashoffset:0;stroke-opacity:1"
             id="path108" />
        </g>
        <g
           id="g110"
           transform="translate(413.356,1246.8003)">
          <path
             d="M 0,0 C 1.948,0.652 20.115,7.646 16.834,49.248 16.834,57.98 1.912,98.34 -3.918,161.264 12.111,281.436 71.216,322.865 126.003,328.12 180.789,322.865 239.844,281.436 255.873,161.264 250.042,98.34 235.121,57.98 235.121,49.248 231.84,7.646 250.007,0.652 251.955,0 l -1.497,0.279 c 0,-24.93 -38.985,-91.405 -124.577,-91.405 h 0.1 C 45.889,-91.126 0.979,-24.037 1.842,0.279 Z"
             style="fill:#dbdcdd;fill-opacity:1;fill-rule:nonzero;stroke:none"
             id="path112" />
        </g>
        <g
           id="g114"
           transform="translate(413.356,1246.8003)">
          <path
             d="M 0,0 C 1.948,0.652 20.115,7.646 16.834,49.248 16.834,57.98 1.912,98.34 -3.918,161.264 12.111,281.436 71.216,322.865 126.003,328.12 180.789,322.865 239.844,281.436 255.873,161.264 250.042,98.34 235.121,57.98 235.121,49.248 231.84,7.646 250.007,0.652 251.955,0 l -1.497,0.279 c 0,-24.93 -38.985,-91.405 -124.577,-91.405 h 0.1 C 45.889,-91.126 0.979,-24.037 1.842,0.279 Z"
             style="fill:none;stroke:#231f20;stroke-width:3;stroke-linecap:butt;stroke-linejoin:miter;stroke-miterlimit:10;stroke-dasharray:none;stroke-opacity:1"
             id="path116" />
        </g>
        <g
           id="g118"
           transform="translate(513.3579,1180.5903)">
          <path
             d="m 0,0 c -1.853,0 -3.349,1.499 -3.349,3.351 0,1.85 1.496,3.35 3.349,3.35 1.853,0 3.354,-1.5 3.354,-3.35 C 3.354,1.499 1.853,0 0,0"
             style="fill:#58595b;fill-opacity:1;fill-rule:nonzero;stroke:none"
             id="path120" />
        </g>
        <g
           id="g122"
           transform="translate(513.3579,1180.5903)">
          <path
             d="m 0,0 c -1.853,0 -3.349,1.499 -3.349,3.351 0,1.85 1.496,3.35 3.349,3.35 1.853,0 3.354,-1.5 3.354,-3.35 C 3.354,1.499 1.853,0 0,0 Z"
             style="fill:none;stroke:#000100;stroke-width:0.827;stroke-linecap:butt;stroke-linejoin:miter;stroke-miterlimit:4;stroke-dasharray:none;stroke-opacity:1"
             id="path124" />
        </g>
        <g
           id="g126"
           transform="translate(510.6431,1181.7061)">
          <path
             d="m 0,0 c 14.852,-35.212 2.649,-74.772 -8.087,-117.551 -10.576,-42.146 -22.562,-89.918 -10.667,-142.782 1.889,-8.575 7.046,-13.95 9.407,-13.521 2.332,0.428 5.374,5.157 3.173,16.352 -11.221,49.871 -0.131,94.068 10.591,136.814 10.827,43.149 19.302,83.114 2.779,122.299 L 7.092,1.828 C 5.707,5.106 3.657,6.209 1.289,5.265 0.217,4.834 -1.077,2.042 0,0"
             style="fill:#bbbdbf;fill-opacity:1;fill-rule:nonzero;stroke:none"
             id="path128" />
        </g>
        <g
           id="g130"
           transform="translate(510.6431,1181.7061)">
          <path
             d="m 0,0 c 14.852,-35.212 2.649,-74.772 -8.087,-117.551 -10.576,-42.146 -22.562,-89.918 -10.667,-142.782 1.889,-8.575 7.046,-13.95 9.407,-13.521 2.332,0.428 5.374,5.157 3.173,16.352 -11.221,49.871 -0.131,94.068 10.591,136.814 10.827,43.149 19.302,83.114 2.779,122.299 L 7.092,1.828 C 5.707,5.106 3.657,6.209 1.289,5.265 0.217,4.834 -1.077,2.042 0,0 Z"
             style="fill:none;stroke:#231f20;stroke-width:2.335;stroke-linecap:butt;stroke-linejoin:round;stroke-miterlimit:10;stroke-dasharray:none;stroke-opacity:1"
             id="path132" />
        </g>
        <g
           id="g134"
           transform="translate(501.71,908.2852)">
          <path
             d="M 0,0 C -1.722,1.501 -4.514,5.801 -5.591,14.609"
             style="fill:#58595b;fill-opacity:1;fill-rule:nonzero;stroke:none"
             id="path136" />
        </g>
        <g
           id="g138"
           transform="translate(498.0068,915.5137)">
          <path
             d="m 0,0 c -0.176,0.562 -0.344,1.097 -0.501,1.6 -0.13,0.511 -0.252,0.992 -0.366,1.439 -0.247,0.893 -0.434,1.66 -0.552,2.293 -0.272,1.258 -0.454,1.935 -0.454,1.935 0,0 0.067,-0.689 0.147,-1.499 0.078,-0.813 0.17,-1.749 0.284,-2.229 0.146,-0.768 0.276,-1.603 0.456,-2.294 0.194,-0.687 0.351,-1.246 0.42,-1.492 0,0 0.125,-0.5 0.426,-1.214 C 0.002,-1.82 0.167,-2.24 0.344,-2.69 0.542,-3.132 0.784,-3.591 1.01,-4.056 1.492,-4.972 2.055,-5.845 2.572,-6.466 2.809,-6.798 3.047,-6.996 3.201,-7.161 3.357,-7.319 3.447,-7.41 3.447,-7.41 l 0.437,0.437 c 0,0 -0.091,0.091 -0.248,0.251 -0.152,0.162 -0.407,0.379 -0.612,0.677 -0.462,0.56 -1.018,1.41 -1.483,2.304 C 0.583,-1.959 0,0 0,0"
             style="fill:#160803;fill-opacity:1;fill-rule:nonzero;stroke:none"
             id="path140" />
        </g>
        <g
           id="g142"
           transform="translate(498.0068,915.5137)">
          <path
             d="m 0,0 c -0.176,0.562 -0.344,1.097 -0.501,1.6 -0.13,0.511 -0.252,0.992 -0.366,1.439 -0.247,0.893 -0.434,1.66 -0.552,2.293 -0.272,1.258 -0.454,1.935 -0.454,1.935 0,0 0.067,-0.689 0.147,-1.499 0.078,-0.813 0.17,-1.749 0.284,-2.229 0.146,-0.768 0.276,-1.603 0.456,-2.294 0.194,-0.687 0.351,-1.246 0.42,-1.492 0,0 0.125,-0.5 0.426,-1.214 C 0.002,-1.82 0.167,-2.24 0.344,-2.69 0.542,-3.132 0.784,-3.591 1.01,-4.056 1.492,-4.972 2.055,-5.845 2.572,-6.466 2.809,-6.798 3.047,-6.996 3.201,-7.161 3.357,-7.319 3.447,-7.41 3.447,-7.41 l 0.437,0.437 c 0,0 -0.091,0.091 -0.248,0.251 -0.152,0.162 -0.407,0.379 -0.612,0.677 -0.462,0.56 -1.018,1.41 -1.483,2.304 C 0.583,-1.959 0,0 0,0 Z"
             style="fill:none;stroke:#160803;stroke-width:0.01;stroke-linecap:butt;stroke-linejoin:miter;stroke-miterlimit:4;stroke-dasharray:none;stroke-opacity:1"
             id="path144" />
        </g>
        <g
           id="g146"
           transform="translate(501.71,908.9287)">
          <path
             d="M 0,0 C 0,0 3.434,4.08 -2.368,20.628"
             style="fill:#58595b;fill-opacity:1;fill-rule:nonzero;stroke:none"
             id="path148" />
        </g>
        <g
           id="g150"
           transform="translate(502.3701,919.792)">
          <path
             d="m 0,0 c -0.375,1.55 -0.711,2.938 -1.004,4.151 -0.41,1.173 -0.76,2.175 -1.045,2.991 -0.606,1.603 -0.936,2.476 -0.936,2.476 0,0 0.965,-3.556 1.305,-4.809 0.51,-2.003 0.924,-4.351 1.095,-5 0,0 0.052,-0.163 0.09,-0.455 0.039,-0.291 0.095,-0.708 0.162,-1.208 0.131,-1 0.36,-2.333 0.328,-3.673 0.019,-0.67 0.048,-1.341 -0.054,-1.955 -0.073,-0.618 -0.098,-1.206 -0.26,-1.668 -0.21,-0.988 -0.543,-1.443 -0.556,-1.476 l 0.506,-0.354 c -0.024,-0.042 0.449,0.661 0.651,1.688 0.175,0.512 0.196,1.123 0.276,1.774 0.106,0.653 0.067,1.345 0.051,2.038 0.032,1.393 -0.213,2.752 -0.343,3.779 C 0.197,-1.188 0.139,-0.762 0.099,-0.463 0.036,-0.169 0,0 0,0"
             style="fill:#160803;fill-opacity:1;fill-rule:nonzero;stroke:none"
             id="path152" />
        </g>
        <g
           id="g154"
           transform="translate(502.3701,919.792)">
          <path
             d="m 0,0 c -0.375,1.55 -0.711,2.938 -1.004,4.151 -0.41,1.173 -0.76,2.175 -1.045,2.991 -0.606,1.603 -0.936,2.476 -0.936,2.476 0,0 0.965,-3.556 1.305,-4.809 0.51,-2.003 0.924,-4.351 1.095,-5 0,0 0.052,-0.163 0.09,-0.455 0.039,-0.291 0.095,-0.708 0.162,-1.208 0.131,-1 0.36,-2.333 0.328,-3.673 0.019,-0.67 0.048,-1.341 -0.054,-1.955 -0.073,-0.618 -0.098,-1.206 -0.26,-1.668 -0.21,-0.988 -0.543,-1.443 -0.556,-1.476 l 0.506,-0.354 c -0.024,-0.042 0.449,0.661 0.651,1.688 0.175,0.512 0.196,1.123 0.276,1.774 0.106,0.653 0.067,1.345 0.051,2.038 0.032,1.393 -0.213,2.752 -0.343,3.779 C 0.197,-1.188 0.139,-0.762 0.099,-0.463 0.036,-0.169 0,0 0,0 Z"
             style="fill:none;stroke:#160803;stroke-width:0.01;stroke-linecap:butt;stroke-linejoin:miter;stroke-miterlimit:4;stroke-dasharray:none;stroke-opacity:1"
             id="path156" />
        </g>
        <g
           id="g158"
           transform="translate(512.0234,1186.1118)">
          <path
             d="M 0,0 C 1.289,-4.295 6.033,-16.114 6.138,-22.669"
             style="fill:#58595b;fill-opacity:1;fill-rule:nonzero;stroke:none"
             id="path160" />
        </g>
        <g
           id="g162"
           transform="translate(515.5806,1174.4189)">
          <path
             d="m 0,0 c 1.061,-3.357 1.704,-6.055 2.114,-7.913 0.205,-0.929 0.249,-1.659 0.34,-2.148 0.076,-0.49 0.115,-0.746 0.115,-0.746 0,0 -0.053,1.024 -0.116,2.228 -0.126,1.199 -0.383,2.567 -0.491,3.287 -0.26,1.127 -0.541,2.339 -0.777,3.361 -0.287,1.01 -0.521,1.832 -0.623,2.193 0,0 -0.887,2.891 -1.874,5.743 -0.489,1.424 -0.978,2.848 -1.344,3.915 -0.349,1.076 -0.582,1.792 -0.582,1.792 l -0.589,-0.188 c 0,0 0.235,-0.722 0.587,-1.805 C -2.869,8.641 -2.375,7.203 -1.88,5.764 -0.886,2.896 0,0 0,0"
             style="fill:#160803;fill-opacity:1;fill-rule:nonzero;stroke:none"
             id="path164" />
        </g>
        <g
           id="g166"
           transform="translate(515.5806,1174.4189)">
          <path
             d="m 0,0 c 1.061,-3.357 1.704,-6.055 2.114,-7.913 0.205,-0.929 0.249,-1.659 0.34,-2.148 0.076,-0.49 0.115,-0.746 0.115,-0.746 0,0 -0.053,1.024 -0.116,2.228 -0.126,1.199 -0.383,2.567 -0.491,3.287 -0.26,1.127 -0.541,2.339 -0.777,3.361 -0.287,1.01 -0.521,1.832 -0.623,2.193 0,0 -0.887,2.891 -1.874,5.743 -0.489,1.424 -0.978,2.848 -1.344,3.915 -0.349,1.076 -0.582,1.792 -0.582,1.792 l -0.589,-0.188 c 0,0 0.235,-0.722 0.587,-1.805 C -2.869,8.641 -2.375,7.203 -1.88,5.764 -0.886,2.896 0,0 0,0 Z"
             style="fill:none;stroke:#160803;stroke-width:0.01;stroke-linecap:butt;stroke-linejoin:miter;stroke-miterlimit:4;stroke-dasharray:none;stroke-opacity:1"
             id="path168" />
        </g>
        <g
           id="g170"
           transform="translate(513.1104,1186.6489)">
          <path
             d="M 0,0 C 3.208,-2.898 7.952,-20.091 7.308,-16.116"
             style="fill:#58595b;fill-opacity:1;fill-rule:nonzero;stroke:none"
             id="path172" />
        </g>
        <g
           id="g174"
           transform="translate(517.2241,1177.8057)">
          <path
             d="m 0,0 c 0.997,-2.649 1.787,-4.75 2.375,-6.171 0.297,-0.711 0.528,-1.256 0.734,-1.609 0.039,-0.038 0.024,-0.098 0.138,-0.114 0.064,0.074 0.024,0.105 0.03,0.147 -0.007,0.077 -0.022,0.139 -0.031,0.189 -0.022,0.1 -0.034,0.15 -0.034,0.15 0,0 0.005,-0.051 0.013,-0.143 0.002,-0.046 0.004,-0.102 0.008,-0.167 -0.012,-0.055 0.017,-0.18 -0.025,-0.088 -0.142,0.282 -0.27,0.719 -0.417,1.177 -0.285,0.927 -0.612,1.992 -0.783,2.546 -0.542,1.773 -1.247,3.799 -1.459,4.365 0,0 -0.837,2.283 -1.849,4.508 C -1.805,5.901 -2.365,6.994 -2.872,7.778 -3.124,8.171 -3.361,8.487 -3.546,8.7 -3.743,8.925 -3.854,9.022 -3.854,9.022 L -4.282,8.577 c 0,0 0.116,-0.106 0.27,-0.283 0.164,-0.189 0.386,-0.482 0.626,-0.858 0.485,-0.751 1.039,-1.83 1.54,-2.934 C -0.84,2.292 0,0 0,0"
             style="fill:#160803;fill-opacity:1;fill-rule:nonzero;stroke:none"
             id="path176" />
        </g>
        <g
           id="g178"
           transform="translate(517.2241,1177.8057)">
          <path
             d="m 0,0 c 0.997,-2.649 1.787,-4.75 2.375,-6.171 0.297,-0.711 0.528,-1.256 0.734,-1.609 0.039,-0.038 0.024,-0.098 0.138,-0.114 0.064,0.074 0.024,0.105 0.03,0.147 -0.007,0.077 -0.022,0.139 -0.031,0.189 -0.022,0.1 -0.034,0.15 -0.034,0.15 0,0 0.005,-0.051 0.013,-0.143 0.002,-0.046 0.004,-0.102 0.008,-0.167 -0.012,-0.055 0.017,-0.18 -0.025,-0.088 -0.142,0.282 -0.27,0.719 -0.417,1.177 -0.285,0.927 -0.612,1.992 -0.783,2.546 -0.542,1.773 -1.247,3.799 -1.459,4.365 0,0 -0.837,2.283 -1.849,4.508 C -1.805,5.901 -2.365,6.994 -2.872,7.778 -3.124,8.171 -3.361,8.487 -3.546,8.7 -3.743,8.925 -3.854,9.022 -3.854,9.022 L -4.282,8.577 c 0,0 0.116,-0.106 0.27,-0.283 0.164,-0.189 0.386,-0.482 0.626,-0.858 0.485,-0.751 1.039,-1.83 1.54,-2.934 C -0.84,2.292 0,0 0,0 Z"
             style="fill:none;stroke:#160803;stroke-width:0.01;stroke-linecap:butt;stroke-linejoin:miter;stroke-miterlimit:4;stroke-dasharray:none;stroke-opacity:1"
             id="path180" />
        </g>
        <g
           id="g182"
           transform="translate(503.0937,890.1094)">
          <path
             d="M 0,0 -2.503,17.44 0.259,17.904 2.757,0.465 Z"
             style="fill:#58595b;fill-opacity:1;fill-rule:nonzero;stroke:none"
             id="path184" />
        </g>
        <g
           id="g186"
           transform="translate(503.0937,890.1094)">
          <path
             d="M 0,0 -2.503,17.44 0.259,17.904 2.757,0.465 Z"
             style="fill:none;stroke:#000100;stroke-width:1.556;stroke-linecap:butt;stroke-linejoin:miter;stroke-miterlimit:4;stroke-dasharray:none;stroke-opacity:1"
             id="path188" />
        </g>
        <g
           id="g190"
           transform="translate(575.3574,1183.9414)">
          <path
             d="M 0,0 C 0,1.85 1.499,3.35 3.349,3.35 5.2,3.35 6.702,1.85 6.702,0 6.702,-1.853 5.2,-3.351 3.349,-3.351 1.499,-3.351 0,-1.853 0,0"
             style="fill:#58595b;fill-opacity:1;fill-rule:nonzero;stroke:none"
             id="path192" />
        </g>
        <g
           id="g194"
           transform="translate(575.3574,1183.9414)">
          <path
             d="M 0,0 C 0,1.85 1.499,3.35 3.349,3.35 5.2,3.35 6.702,1.85 6.702,0 6.702,-1.853 5.2,-3.351 3.349,-3.351 1.499,-3.351 0,-1.853 0,0 Z"
             style="fill:none;stroke:#000100;stroke-width:0.827;stroke-linecap:butt;stroke-linejoin:miter;stroke-miterlimit:4;stroke-dasharray:none;stroke-opacity:1"
             id="path196" />
        </g>
        <g
           id="g198"
           transform="translate(581.4189,1181.7061)">
          <path
             d="m 0,0 c -14.853,-35.212 -2.649,-74.772 8.089,-117.551 10.575,-42.146 22.559,-89.918 10.667,-142.782 -1.884,-8.575 -7.042,-13.95 -9.408,-13.521 -2.332,0.428 -5.369,5.157 -3.172,16.352 11.225,49.871 0.131,94.068 -10.593,136.814 -10.826,43.149 -19.302,83.114 -2.777,122.299 l 0.103,0.217 C -5.705,5.106 -3.648,6.209 -1.29,5.265 -0.211,4.834 1.079,2.042 0,0"
             style="fill:#bbbdbf;fill-opacity:1;fill-rule:nonzero;stroke:none"
             id="path200" />
        </g>
        <g
           id="g202"
           transform="translate(581.4189,1181.7061)">
          <path
             d="m 0,0 c -14.853,-35.212 -2.649,-74.772 8.089,-117.551 10.575,-42.146 22.559,-89.918 10.667,-142.782 -1.884,-8.575 -7.042,-13.95 -9.408,-13.521 -2.332,0.428 -5.369,5.157 -3.172,16.352 11.225,49.871 0.131,94.068 -10.593,136.814 -10.826,43.149 -19.302,83.114 -2.777,122.299 l 0.103,0.217 C -5.705,5.106 -3.648,6.209 -1.29,5.265 -0.211,4.834 1.079,2.042 0,0 Z"
             style="fill:none;stroke:#231f20;stroke-width:2.335;stroke-linecap:butt;stroke-linejoin:round;stroke-miterlimit:10;stroke-dasharray:none;stroke-opacity:1"
             id="path204" />
        </g>
        <g
           id="g206"
           transform="translate(590.3574,908.2852)">
          <path
             d="M 0,0 C 1.719,1.501 4.514,5.801 5.587,14.609"
             style="fill:#58595b;fill-opacity:1;fill-rule:nonzero;stroke:none"
             id="path208" />
        </g>
        <g
           id="g210"
           transform="translate(594.6357,915.3262)">
          <path
             d="m 0,0 c 0.171,0.576 0.332,1.123 0.483,1.638 0.108,0.525 0.209,1.017 0.303,1.477 0.193,0.917 0.307,1.706 0.35,2.356 0.122,1.29 0.152,1.984 0.152,1.984 0,0 -0.143,-0.677 -0.312,-1.473 C 0.812,5.187 0.625,4.273 0.479,3.808 0.266,3.063 0.086,2.248 -0.127,1.58 -0.345,0.914 -0.521,0.372 -0.6,0.134 c 0,0 -0.123,-0.492 -0.417,-1.188 -0.137,-0.351 -0.298,-0.76 -0.47,-1.2 C -1.681,-2.683 -1.915,-3.126 -2.134,-3.577 -2.598,-4.464 -3.147,-5.308 -3.607,-5.862 -3.811,-6.159 -4.064,-6.374 -4.214,-6.535 -4.37,-6.694 -4.46,-6.784 -4.46,-6.784 l 0.438,-0.438 c 0,0 0.089,0.092 0.248,0.251 0.154,0.166 0.393,0.368 0.631,0.702 0.519,0.626 1.085,1.505 1.567,2.43 C -0.59,-1.995 0,0 0,0"
             style="fill:#160803;fill-opacity:1;fill-rule:nonzero;stroke:none"
             id="path212" />
        </g>
        <g
           id="g214"
           transform="translate(594.6357,915.3262)">
          <path
             d="m 0,0 c 0.171,0.576 0.332,1.123 0.483,1.638 0.108,0.525 0.209,1.017 0.303,1.477 0.193,0.917 0.307,1.706 0.35,2.356 0.122,1.29 0.152,1.984 0.152,1.984 0,0 -0.143,-0.677 -0.312,-1.473 C 0.812,5.187 0.625,4.273 0.479,3.808 0.266,3.063 0.086,2.248 -0.127,1.58 -0.345,0.914 -0.521,0.372 -0.6,0.134 c 0,0 -0.123,-0.492 -0.417,-1.188 -0.137,-0.351 -0.298,-0.76 -0.47,-1.2 C -1.681,-2.683 -1.915,-3.126 -2.134,-3.577 -2.598,-4.464 -3.147,-5.308 -3.607,-5.862 -3.811,-6.159 -4.064,-6.374 -4.214,-6.535 -4.37,-6.694 -4.46,-6.784 -4.46,-6.784 l 0.438,-0.438 c 0,0 0.089,0.092 0.248,0.251 0.154,0.166 0.393,0.368 0.631,0.702 0.519,0.626 1.085,1.505 1.567,2.43 C -0.59,-1.995 0,0 0,0 Z"
             style="fill:none;stroke:#160803;stroke-width:0.01;stroke-linecap:butt;stroke-linejoin:miter;stroke-miterlimit:4;stroke-dasharray:none;stroke-opacity:1"
             id="path216" />
        </g>
        <g
           id="g218"
           transform="translate(590.3574,908.9287)">
          <path
             d="M 0,0 C 0,0 -3.438,4.08 2.361,20.628"
             style="fill:#58595b;fill-opacity:1;fill-rule:nonzero;stroke:none"
             id="path220" />
        </g>
        <g
           id="g222"
           transform="translate(590.2891,919.6777)">
          <path
             d="M 0,0 C 0.336,1.543 0.637,2.925 0.899,4.132 1.228,5.321 1.508,6.339 1.736,7.167 2.154,8.83 2.381,9.734 2.381,9.734 2.381,9.734 1.142,6.257 0.704,5.03 0.055,3.055 -0.437,0.69 -0.62,0.037 c 0,0 -0.052,-0.163 -0.091,-0.46 -0.04,-0.297 -0.097,-0.722 -0.164,-1.23 -0.134,-1.019 -0.365,-2.37 -0.333,-3.754 -0.02,-0.688 -0.049,-1.375 0.058,-2.023 0.077,-0.646 0.104,-1.254 0.277,-1.761 0.201,-1.02 0.675,-1.717 0.649,-1.676 l 0.506,0.354 c -0.013,0.034 -0.347,0.493 -0.56,1.488 -0.164,0.465 -0.185,1.06 -0.262,1.68 -0.105,0.619 -0.067,1.296 -0.052,1.97 -0.034,1.351 0.207,2.692 0.333,3.7 0.067,0.505 0.123,0.925 0.162,1.219 C -0.045,-0.164 0,0 0,0"
             style="fill:#160803;fill-opacity:1;fill-rule:nonzero;stroke:none"
             id="path224" />
        </g>
        <g
           id="g226"
           transform="translate(590.2891,919.6777)">
          <path
             d="M 0,0 C 0.336,1.543 0.637,2.925 0.899,4.132 1.228,5.321 1.508,6.339 1.736,7.167 2.154,8.83 2.381,9.734 2.381,9.734 2.381,9.734 1.142,6.257 0.704,5.03 0.055,3.055 -0.437,0.69 -0.62,0.037 c 0,0 -0.052,-0.163 -0.091,-0.46 -0.04,-0.297 -0.097,-0.722 -0.164,-1.23 -0.134,-1.019 -0.365,-2.37 -0.333,-3.754 -0.02,-0.688 -0.049,-1.375 0.058,-2.023 0.077,-0.646 0.104,-1.254 0.277,-1.761 0.201,-1.02 0.675,-1.717 0.649,-1.676 l 0.506,0.354 c -0.013,0.034 -0.347,0.493 -0.56,1.488 -0.164,0.465 -0.185,1.06 -0.262,1.68 -0.105,0.619 -0.067,1.296 -0.052,1.97 -0.034,1.351 0.207,2.692 0.333,3.7 0.067,0.505 0.123,0.925 0.162,1.219 C -0.045,-0.164 0,0 0,0 Z"
             style="fill:none;stroke:#160803;stroke-width:0.01;stroke-linecap:butt;stroke-linejoin:miter;stroke-miterlimit:4;stroke-dasharray:none;stroke-opacity:1"
             id="path228" />
        </g>
        <g
           id="g230"
           transform="translate(580.0449,1186.1118)">
          <path
             d="M 0,0 C -1.29,-4.295 -6.032,-16.114 -6.146,-22.669"
             style="fill:#58595b;fill-opacity:1;fill-rule:nonzero;stroke:none"
             id="path232" />
        </g>
        <g
           id="g234"
           transform="translate(575.9053,1174.5947)">
          <path
             d="m 0,0 c -1.064,-3.373 -1.569,-6.146 -1.831,-8.042 -0.132,-0.949 -0.102,-1.696 -0.136,-2.189 -0.013,-0.494 -0.02,-0.752 -0.02,-0.752 0,0 0.131,1.013 0.284,2.205 0.213,1.18 0.563,2.518 0.703,3.223 0.313,1.105 0.647,2.295 0.931,3.298 0.313,0.996 0.569,1.806 0.681,2.163 0,0 0.882,2.875 1.867,5.722 0.492,1.429 0.982,2.857 1.349,3.928 0.35,1.075 0.583,1.792 0.583,1.792 l -0.59,0.189 c 0,0 -0.234,-0.723 -0.586,-1.806 C 2.867,8.655 2.375,7.221 1.883,5.786 0.89,2.914 0,0 0,0"
             style="fill:#160803;fill-opacity:1;fill-rule:nonzero;stroke:none"
             id="path236" />
        </g>
        <g
           id="g238"
           transform="translate(575.9053,1174.5947)">
          <path
             d="m 0,0 c -1.064,-3.373 -1.569,-6.146 -1.831,-8.042 -0.132,-0.949 -0.102,-1.696 -0.136,-2.189 -0.013,-0.494 -0.02,-0.752 -0.02,-0.752 0,0 0.131,1.013 0.284,2.205 0.213,1.18 0.563,2.518 0.703,3.223 0.313,1.105 0.647,2.295 0.931,3.298 0.313,0.996 0.569,1.806 0.681,2.163 0,0 0.882,2.875 1.867,5.722 0.492,1.429 0.982,2.857 1.349,3.928 0.35,1.075 0.583,1.792 0.583,1.792 l -0.59,0.189 c 0,0 -0.234,-0.723 -0.586,-1.806 C 2.867,8.655 2.375,7.221 1.883,5.786 0.89,2.914 0,0 0,0 Z"
             style="fill:none;stroke:#160803;stroke-width:0.01;stroke-linecap:butt;stroke-linejoin:miter;stroke-miterlimit:4;stroke-dasharray:none;stroke-opacity:1"
             id="path240" />
        </g>
        <g
           id="g242"
           transform="translate(578.9521,1186.6489)">
          <path
             d="M 0,0 C -3.203,-2.898 -7.953,-20.091 -7.309,-16.116"
             style="fill:#58595b;fill-opacity:1;fill-rule:nonzero;stroke:none"
             id="path244" />
        </g>
        <g
           id="g246"
           transform="translate(574.2725,1178.019)">
          <path
             d="m 0,0 c -1.001,-2.663 -1.647,-4.816 -2.091,-6.285 -0.223,-0.733 -0.384,-1.305 -0.531,-1.667 -0.058,-0.114 -0.02,-0.115 -0.039,-0.009 0,0.074 10e-4,0.137 10e-4,0.187 0.005,0.102 0.008,0.153 0.008,0.153 0,0 -0.01,-0.05 -0.027,-0.141 -0.007,-0.046 -0.014,-0.102 -0.024,-0.167 -0.003,-0.033 -0.007,-0.068 -0.005,-0.108 0.01,-0.014 -0.014,-0.059 0.054,-0.065 0.032,0.012 0.046,0.034 0.058,0.05 0.181,0.287 0.343,0.703 0.534,1.15 0.361,0.901 0.776,1.936 0.992,2.476 0.674,1.728 1.449,3.715 1.668,4.275 0,0 0.835,2.275 1.833,4.469 C 2.929,5.415 3.479,6.485 3.96,7.229 4.198,7.604 4.418,7.895 4.582,8.082 4.733,8.257 4.85,8.363 4.85,8.363 L 4.42,8.808 C 4.42,8.808 4.309,8.71 4.111,8.483 3.925,8.269 3.687,7.95 3.435,7.554 2.925,6.763 2.363,5.662 1.855,4.542 0.84,2.3 0,0 0,0"
             style="fill:#160803;fill-opacity:1;fill-rule:nonzero;stroke:none"
             id="path248" />
        </g>
        <g
           id="g250"
           transform="translate(574.2725,1178.019)">
          <path
             d="m 0,0 c -1.001,-2.663 -1.647,-4.816 -2.091,-6.285 -0.223,-0.733 -0.384,-1.305 -0.531,-1.667 -0.058,-0.114 -0.02,-0.115 -0.039,-0.009 0,0.074 10e-4,0.137 10e-4,0.187 0.005,0.102 0.008,0.153 0.008,0.153 0,0 -0.01,-0.05 -0.027,-0.141 -0.007,-0.046 -0.014,-0.102 -0.024,-0.167 -0.003,-0.033 -0.007,-0.068 -0.005,-0.108 0.01,-0.014 -0.014,-0.059 0.054,-0.065 0.032,0.012 0.046,0.034 0.058,0.05 0.181,0.287 0.343,0.703 0.534,1.15 0.361,0.901 0.776,1.936 0.992,2.476 0.674,1.728 1.449,3.715 1.668,4.275 0,0 0.835,2.275 1.833,4.469 C 2.929,5.415 3.479,6.485 3.96,7.229 4.198,7.604 4.418,7.895 4.582,8.082 4.733,8.257 4.85,8.363 4.85,8.363 L 4.42,8.808 C 4.42,8.808 4.309,8.71 4.111,8.483 3.925,8.269 3.687,7.95 3.435,7.554 2.925,6.763 2.363,5.662 1.855,4.542 0.84,2.3 0,0 0,0 Z"
             style="fill:none;stroke:#160803;stroke-width:0.01;stroke-linecap:butt;stroke-linejoin:miter;stroke-miterlimit:4;stroke-dasharray:none;stroke-opacity:1"
             id="path252" />
        </g>
        <g
           id="g254"
           transform="translate(588.9736,890.1094)">
          <path
             d="M 0,0 2.474,18.06 -0.508,18.377 -2.979,0.318 Z"
             style="fill:#58595b;fill-opacity:1;fill-rule:nonzero;stroke:none"
             id="path256" />
        </g>
        <g
           id="g258"
           transform="translate(588.9736,890.1094)">
          <path
             d="M 0,0 2.474,18.06 -0.508,18.377 -2.979,0.318 Z"
             style="fill:none;stroke:#000100;stroke-width:1.556;stroke-linecap:butt;stroke-linejoin:miter;stroke-miterlimit:4;stroke-dasharray:none;stroke-opacity:1"
             id="path260" />
        </g>
        <g
           id="g262"
           transform="translate(562.0059,1154.2671)">
          <path
             d="m 0,0 c -43.383,46.125 -74.438,80.375 -94.511,127.603 -8.858,20.848 -31.819,81.244 -24.318,112.22 9.958,41.139 43.954,84.844 98.459,88.571 54.503,-3.727 88.448,-47.432 98.413,-88.571 7.494,-30.976 -17.769,-92 -27.978,-112.22 C 34.795,97.363 2.714,53.396 -21.434,22.017"
             style="fill:#929497;fill-opacity:1;fill-rule:nonzero;stroke:#000100;stroke-width:1.759;stroke-linecap:butt;stroke-linejoin:round;stroke-miterlimit:4;stroke-dasharray:none;stroke-opacity:1"
             id="path264" />
        </g>
        <g
           id="g266"
           transform="translate(638.5625,1400.2939)">
          <path
             d="m 0,0 c 3.835,-8.094 6.904,-14.488 9.049,-18.845 2.143,-4.358 3.351,-6.683 3.351,-6.683 0,0 -0.923,2.434 -2.01,5.298 -1.124,2.85 -2.396,6.14 -3.121,7.833 -2.2,5.437 -4.997,11.607 -5.794,13.343 0,0 -3.272,6.944 -6.817,13.784 -0.89,1.708 -1.782,3.416 -2.617,5.019 -0.844,1.595 -1.708,3.028 -2.41,4.286 -1.424,2.499 -2.374,4.165 -2.374,4.165 l -1.52,-0.871 c 0,0 0.957,-1.678 2.393,-4.195 0.705,-1.263 1.585,-2.715 2.423,-4.31 0.834,-1.598 1.724,-3.302 2.614,-5.007 C -3.294,6.988 0,0 0,0"
             style="fill:#160803;fill-opacity:1;fill-rule:nonzero;stroke:none"
             id="path268" />
        </g>
        <g
           id="g270"
           transform="translate(638.5625,1400.2939)">
          <path
             d="m 0,0 c 3.835,-8.094 6.904,-14.488 9.049,-18.845 2.143,-4.358 3.351,-6.683 3.351,-6.683 0,0 -0.923,2.434 -2.01,5.298 -1.124,2.85 -2.396,6.14 -3.121,7.833 -2.2,5.437 -4.997,11.607 -5.794,13.343 0,0 -3.272,6.944 -6.817,13.784 -0.89,1.708 -1.782,3.416 -2.617,5.019 -0.844,1.595 -1.708,3.028 -2.41,4.286 -1.424,2.499 -2.374,4.165 -2.374,4.165 l -1.52,-0.871 c 0,0 0.957,-1.678 2.393,-4.195 0.705,-1.263 1.585,-2.715 2.423,-4.31 0.834,-1.598 1.724,-3.302 2.614,-5.007 C -3.294,6.988 0,0 0,0 Z"
             style="fill:none;stroke:#160803;stroke-width:0.029;stroke-linecap:butt;stroke-linejoin:miter;stroke-miterlimit:4;stroke-dasharray:none;stroke-opacity:1"
             id="path272" />
        </g>
        <g
           id="g274"
           transform="translate(443.103,1401.0308)">
          <path
             d="m 0,0 c -3.843,-8.122 -6.522,-14.708 -8.273,-19.243 -1.749,-4.536 -2.559,-7.029 -2.559,-7.029 0,0 4.531,9.369 6.134,12.682 2.565,5.261 5.528,11.335 6.363,13.047 0,0 3.27,6.938 6.783,13.717 0.883,1.693 1.765,3.385 2.593,4.971 0.836,1.583 1.706,3.026 2.406,4.28 1.424,2.499 2.374,4.166 2.374,4.166 L 14.3,27.462 c 0,0 -0.955,-1.679 -2.388,-4.197 C 11.206,21.998 10.333,20.556 9.488,18.945 8.647,17.332 7.75,15.61 6.854,13.889 3.29,6.997 0,0 0,0"
             style="fill:#160803;fill-opacity:1;fill-rule:nonzero;stroke:none"
             id="path276" />
        </g>
        <g
           id="g278"
           transform="translate(443.103,1401.0308)">
          <path
             d="m 0,0 c -3.843,-8.122 -6.522,-14.708 -8.273,-19.243 -1.749,-4.536 -2.559,-7.029 -2.559,-7.029 0,0 4.531,9.369 6.134,12.682 2.565,5.261 5.528,11.335 6.363,13.047 0,0 3.27,6.938 6.783,13.717 0.883,1.693 1.765,3.385 2.593,4.971 0.836,1.583 1.706,3.026 2.406,4.28 1.424,2.499 2.374,4.166 2.374,4.166 L 14.3,27.462 c 0,0 -0.955,-1.679 -2.388,-4.197 C 11.206,21.998 10.333,20.556 9.488,18.945 8.647,17.332 7.75,15.61 6.854,13.889 3.29,6.997 0,0 0,0 Z"
             style="fill:none;stroke:#160803;stroke-width:0.029;stroke-linecap:butt;stroke-linejoin:miter;stroke-miterlimit:4;stroke-dasharray:none;stroke-opacity:1"
             id="path280" />
        </g>
        <g
           id="g282"
           transform="translate(645.8926,1283.4326)">
          <path
             d="m 0,0 c -0.876,-3.685 -1.436,-7.047 -1.98,-9.958 -0.251,-1.459 -0.485,-2.811 -0.699,-4.052 -0.203,-1.242 -0.288,-2.395 -0.407,-3.416 -0.428,-4.097 -0.557,-6.297 -0.557,-6.297 0,0 0.451,2.153 0.98,4.685 0.261,1.263 0.541,2.621 0.795,3.852 0.272,1.228 0.575,2.321 0.748,3.078 1.152,4.803 2.482,10.348 2.857,11.912 0,0 1.451,6.307 2.9,12.614 1.486,6.303 2.971,12.606 2.971,12.606 l -1.706,0.401 c 0,0 -1.492,-6.35 -2.985,-12.699 C 1.459,6.363 0,0 0,0"
             style="fill:#160803;fill-opacity:1;fill-rule:nonzero;stroke:none"
             id="path284" />
        </g>
        <g
           id="g286"
           transform="translate(645.8926,1283.4326)">
          <path
             d="m 0,0 c -0.876,-3.685 -1.436,-7.047 -1.98,-9.958 -0.251,-1.459 -0.485,-2.811 -0.699,-4.052 -0.203,-1.242 -0.288,-2.395 -0.407,-3.416 -0.428,-4.097 -0.557,-6.297 -0.557,-6.297 0,0 0.451,2.153 0.98,4.685 0.261,1.263 0.541,2.621 0.795,3.852 0.272,1.228 0.575,2.321 0.748,3.078 1.152,4.803 2.482,10.348 2.857,11.912 0,0 1.451,6.307 2.9,12.614 1.486,6.303 2.971,12.606 2.971,12.606 l -1.706,0.401 c 0,0 -1.492,-6.35 -2.985,-12.699 C 1.459,6.363 0,0 0,0 Z"
             style="fill:none;stroke:#160803;stroke-width:0.029;stroke-linecap:butt;stroke-linejoin:miter;stroke-miterlimit:4;stroke-dasharray:none;stroke-opacity:1"
             id="path288" />
        </g>
        <g
           id="g290"
           transform="translate(435.6484,1283.0576)">
          <path
             d="m 0,0 c 0.838,-3.686 1.589,-6.987 2.244,-9.867 0.349,-1.435 0.673,-2.765 0.969,-3.985 0.303,-1.219 0.491,-2.339 0.717,-3.337 0.85,-3.999 1.408,-6.156 1.408,-6.156 0,0 -0.234,2.185 -0.51,4.757 -0.142,1.29 -0.295,2.676 -0.434,3.934 -0.164,1.255 -0.375,2.366 -0.5,3.135 C 3.087,-6.632 2.037,-1 1.653,0.562 c 0,0 -1.452,6.316 -2.904,12.633 -1.486,6.303 -2.973,12.606 -2.973,12.606 L -5.93,25.4 -2.928,12.704 C -1.464,6.352 0,0 0,0"
             style="fill:#160803;fill-opacity:1;fill-rule:nonzero;stroke:none"
             id="path292" />
        </g>
        <g
           id="g294"
           transform="translate(435.6484,1283.0576)">
          <path
             d="m 0,0 c 0.838,-3.686 1.589,-6.987 2.244,-9.867 0.349,-1.435 0.673,-2.765 0.969,-3.985 0.303,-1.219 0.491,-2.339 0.717,-3.337 0.85,-3.999 1.408,-6.156 1.408,-6.156 0,0 -0.234,2.185 -0.51,4.757 -0.142,1.29 -0.295,2.676 -0.434,3.934 -0.164,1.255 -0.375,2.366 -0.5,3.135 C 3.087,-6.632 2.037,-1 1.653,0.562 c 0,0 -1.452,6.316 -2.904,12.633 -1.486,6.303 -2.973,12.606 -2.973,12.606 L -5.93,25.4 -2.928,12.704 C -1.464,6.352 0,0 0,0 Z"
             style="fill:none;stroke:#160803;stroke-width:0.029;stroke-linecap:butt;stroke-linejoin:miter;stroke-miterlimit:4;stroke-dasharray:none;stroke-opacity:1"
             id="path296" />
        </g>
        <g
           id="g298"
           transform="translate(415.6323,1244.4795)">
          <path
             d="M 0,0 C 1.948,0.652 20.115,7.646 16.834,49.248 16.834,57.98 1.912,98.34 -3.918,161.264 12.111,281.436 71.216,322.865 126.003,328.12 180.789,322.865 239.845,281.436 255.873,161.264 250.042,98.34 235.121,57.98 235.121,49.248 231.841,7.646 250.007,0.652 251.955,0"
             style="fill:none;stroke:#000100;stroke-width:3.177;stroke-linecap:butt;stroke-linejoin:miter;stroke-miterlimit:4;stroke-dasharray:none;stroke-opacity:1"
             id="path300" />
        </g>
        <g
           id="g302"
           transform="translate(303.0898,1194.7251)">
          <path
             d="m 0,0 c 0,0 -81.628,-15.915 -129.301,-148.145 -47.673,-132.23 -53.777,-142.652 -53.777,-142.652 0,0 -103.925,-366.147 -79.576,-428.942 24.348,-62.795 17.187,-41.896 17.187,-41.896 l 1.348,-84.516 90.287,-3.158 13.526,78.989 c 0,0 37.885,-24.476 76.426,236.339 38.54,260.815 0,0 0,0"
             style="fill:none;stroke:#231f20;stroke-width:4.669;stroke-linecap:butt;stroke-linejoin:round;stroke-miterlimit:10;stroke-dasharray:none;stroke-opacity:1"
             id="path304" />
        </g>
        <g
           id="g306"
           transform="translate(57.4839,429.1055)">
          <path
             d="m 0,0 104.484,-12.632 0.314,8.966 z"
             style="fill:#000000;fill-opacity:1;fill-rule:nonzero;stroke:none"
             id="path308" />
        </g>
        <g
           id="g310"
           transform="translate(776.9102,1194.3892)">
          <path
             d="m 0,0 c 0,0 81.628,-15.915 129.301,-148.144 47.673,-132.23 53.777,-142.653 53.777,-142.653 0,0 103.925,-366.146 79.576,-428.942 -24.348,-62.795 -17.187,-41.896 -17.187,-41.896 l -1.348,-84.515 -90.288,-3.159 -13.524,78.989 c 0,0 -37.886,-24.475 -76.426,236.34 -38.54,260.814 0,0 0,0"
             style="fill:none;stroke:#231f20;stroke-width:4.669;stroke-linecap:butt;stroke-linejoin:round;stroke-miterlimit:10;stroke-dasharray:none;stroke-opacity:1"
             id="path312" />
        </g>
        <g
           id="g314"
           transform="translate(1022.5166,428.7705)">
          <path
             d="m 0,0 -104.484,-12.633 -0.315,8.966 z"
             style="fill:#000000;fill-opacity:1;fill-rule:nonzero;stroke:none"
             id="path316" />
        </g>
        <g
           id="g318"
           transform="translate(706.4971,1037.7671)">
          <path
             d="m 0,0 v -4.837 c -0.216,-0.105 -0.431,-0.211 -0.647,-0.313 -0.835,-0.397 -1.671,-0.794 -2.508,-1.189 -1.101,-0.521 -2.203,-1.04 -3.305,-1.562 -0.788,-0.373 -1.574,-0.751 -2.363,-1.125 -0.958,-0.454 -1.918,-0.905 -2.876,-1.36 -0.802,-0.38 -1.602,-0.764 -2.404,-1.145 -0.958,-0.455 -1.918,-0.907 -2.876,-1.361 -0.767,-0.363 -1.534,-0.73 -2.302,-1.094 -0.986,-0.468 -1.971,-0.933 -2.957,-1.4 -0.469,-0.222 -0.941,-0.439 -1.404,-0.673 -0.146,-0.074 -0.262,-0.065 -0.399,0.003 -0.418,0.207 -0.839,0.408 -1.26,0.61 -1.444,0.693 -2.889,1.385 -4.334,2.078 -0.794,0.38 -1.587,0.762 -2.38,1.142 -1.268,0.609 -2.537,1.216 -3.804,1.825 -0.604,0.29 -1.206,0.582 -1.81,0.872 -1.262,0.605 -2.523,1.209 -3.785,1.814 -0.61,0.292 -1.22,0.587 -1.831,0.88 -1.261,0.605 -2.523,1.209 -3.784,1.814 -0.163,0.078 -0.322,0.166 -0.488,0.237 -0.085,0.036 -0.114,0.088 -0.107,0.173 0.002,0.037 0,0.075 0,0.113 v 4.295 0.255 c 0.153,-0.066 0.284,-0.116 0.41,-0.177 1.485,-0.715 2.967,-1.433 4.451,-2.148 1.159,-0.559 2.319,-1.115 3.478,-1.672 1.159,-0.557 2.319,-1.114 3.478,-1.671 l 3.498,-1.682 c 1.153,-0.554 2.306,-1.107 3.458,-1.661 1.18,-0.567 2.36,-1.135 3.539,-1.701 0.448,-0.215 0.9,-0.42 1.343,-0.643 0.124,-0.062 0.222,-0.054 0.337,0.001 0.385,0.188 0.772,0.373 1.158,0.558 1.575,0.754 3.149,1.507 4.723,2.261 0.794,0.38 1.586,0.763 2.38,1.143 1.33,0.636 2.661,1.27 3.99,1.906 0.768,0.367 1.532,0.738 2.299,1.105 1.187,0.568 2.376,1.134 3.562,1.702 0.789,0.377 1.573,0.757 2.36,1.134 1.005,0.481 2.01,0.959 3.014,1.438 C -0.107,-0.036 -0.065,-0.024 0,0"
             style="fill:#000000;fill-opacity:1;fill-rule:nonzero;stroke:none"
             id="path320" />
        </g>
        <g
           id="g322"
           transform="translate(706.4961,1047.5137)">
          <path
             d="m 0,0 v -4.842 c -0.25,-0.121 -0.512,-0.25 -0.774,-0.376 -0.653,-0.309 -1.306,-0.617 -1.958,-0.926 -0.986,-0.466 -1.972,-0.932 -2.957,-1.399 -0.768,-0.365 -1.536,-0.73 -2.303,-1.095 -1.135,-0.538 -2.271,-1.075 -3.404,-1.614 -0.802,-0.38 -1.603,-0.763 -2.405,-1.144 -0.945,-0.447 -1.89,-0.893 -2.835,-1.34 -0.775,-0.367 -1.549,-0.736 -2.324,-1.104 -1.135,-0.537 -2.269,-1.075 -3.404,-1.613 -0.449,-0.213 -0.899,-0.423 -1.344,-0.642 -0.1,-0.049 -0.178,-0.041 -0.273,0.006 -1.212,0.586 -2.425,1.17 -3.639,1.754 -1.125,0.541 -2.251,1.081 -3.376,1.621 -1.119,0.537 -2.238,1.074 -3.358,1.611 -1.498,0.719 -2.997,1.438 -4.496,2.157 -1.126,0.541 -2.251,1.081 -3.377,1.621 -1.498,0.72 -2.997,1.44 -4.495,2.159 -0.298,0.143 -0.596,0.283 -0.894,0.424 v 4.79 c 0.205,-0.093 0.393,-0.177 0.58,-0.266 1.078,-0.519 2.154,-1.039 3.232,-1.558 1.573,-0.757 3.145,-1.514 4.718,-2.269 0.942,-0.454 1.885,-0.905 2.827,-1.358 1.377,-0.661 2.753,-1.324 4.129,-1.986 1.146,-0.55 2.291,-1.101 3.438,-1.652 1.565,-0.753 3.131,-1.505 4.696,-2.261 0.131,-0.063 0.239,-0.069 0.379,-0.002 1.374,0.666 2.752,1.322 4.129,1.982 0.97,0.465 1.938,0.933 2.909,1.398 1.322,0.633 2.646,1.264 3.97,1.896 0.759,0.363 1.519,0.729 2.279,1.093 1.215,0.581 2.43,1.161 3.643,1.743 0.8,0.384 1.599,0.771 2.4,1.154 1.391,0.666 2.782,1.33 4.174,1.996 C -0.088,-0.03 -0.06,-0.022 0,0"
             style="fill:#000000;fill-opacity:1;fill-rule:nonzero;stroke:none"
             id="path324" />
        </g>
        <g
           id="g326"
           transform="translate(658.873,1028.4492)">
          <path
             d="m 0,0 c 0.086,-0.031 0.136,-0.043 0.182,-0.065 0.88,-0.424 1.76,-0.851 2.642,-1.274 1.438,-0.691 2.876,-1.379 4.314,-2.069 0.888,-0.427 1.774,-0.858 2.663,-1.284 1.234,-0.593 2.47,-1.183 3.703,-1.775 0.685,-0.329 1.368,-0.663 2.053,-0.992 1.255,-0.603 2.51,-1.202 3.764,-1.804 0.631,-0.302 1.261,-0.608 1.891,-0.912 0.827,-0.398 1.655,-0.795 2.48,-1.197 0.092,-0.045 0.163,-0.04 0.253,0.003 0.487,0.238 0.977,0.469 1.466,0.702 1.384,0.662 2.769,1.324 4.152,1.986 0.788,0.378 1.573,0.758 2.36,1.135 1.16,0.555 2.322,1.107 3.482,1.662 0.584,0.279 1.165,0.562 1.749,0.842 1.37,0.655 2.742,1.31 4.113,1.965 0.74,0.354 1.478,0.71 2.217,1.064 1.215,0.582 2.43,1.162 3.644,1.744 0.155,0.074 0.309,0.15 0.486,0.238 v -4.861 c -0.443,-0.212 -0.889,-0.427 -1.338,-0.64 -0.523,-0.248 -1.047,-0.494 -1.571,-0.741 -0.966,-0.457 -1.931,-0.914 -2.896,-1.371 -0.788,-0.374 -1.576,-0.75 -2.364,-1.124 -1.114,-0.529 -2.229,-1.056 -3.344,-1.585 -0.632,-0.299 -1.264,-0.6 -1.896,-0.9 -1.121,-0.532 -2.243,-1.062 -3.364,-1.595 -0.822,-0.39 -1.643,-0.784 -2.465,-1.173 -1.087,-0.516 -2.176,-1.028 -3.264,-1.543 -0.387,-0.184 -0.775,-0.367 -1.159,-0.559 -0.111,-0.055 -0.2,-0.058 -0.315,-0.002 -1.151,0.558 -2.304,1.11 -3.456,1.663 -1.499,0.72 -2.998,1.439 -4.497,2.158 -1.12,0.537 -2.239,1.074 -3.357,1.611 -1.506,0.723 -3.012,1.446 -4.516,2.169 -1.126,0.54 -2.251,1.082 -3.377,1.621 -1.372,0.656 -2.743,1.31 -4.114,1.966 C 0,-4.784 0,-4.784 0,-4.419 v 4.137 z"
             style="fill:#000000;fill-opacity:1;fill-rule:nonzero;stroke:none"
             id="path328" />
        </g>
        <g
           id="g330"
           transform="translate(706.4912,1018.7236)">
          <path
             d="m 0,0 v -4.844 c -7.935,-3.764 -15.872,-7.529 -23.826,-11.302 -0.295,0.139 -0.601,0.281 -0.904,0.427 -0.848,0.407 -1.694,0.818 -2.541,1.225 -1.526,0.733 -3.052,1.465 -4.578,2.198 -1.099,0.526 -2.198,1.053 -3.297,1.58 -1.526,0.733 -3.051,1.466 -4.577,2.199 -1.119,0.538 -2.237,1.075 -3.357,1.611 -1.431,0.686 -2.862,1.371 -4.294,2.057 -0.041,0.019 -0.08,0.043 -0.121,0.06 -0.087,0.035 -0.125,0.091 -0.125,0.189 0.004,1.523 0.004,3.045 0.005,4.567 0,0.014 0.007,0.029 0.018,0.074 0.083,-0.034 0.166,-0.061 0.243,-0.099 0.862,-0.413 1.722,-0.83 2.583,-1.243 1.268,-0.61 2.537,-1.217 3.805,-1.825 0.651,-0.313 1.3,-0.629 1.951,-0.942 1.282,-0.615 2.565,-1.229 3.846,-1.844 0.624,-0.299 1.247,-0.601 1.871,-0.9 1.322,-0.636 2.645,-1.271 3.967,-1.906 0.657,-0.317 1.313,-0.636 1.972,-0.952 1.145,-0.551 2.292,-1.1 3.436,-1.653 0.094,-0.046 0.165,-0.036 0.253,0.006 0.644,0.311 1.29,0.616 1.935,0.925 1.364,0.652 2.728,1.304 4.091,1.957 0.578,0.276 1.154,0.553 1.73,0.829 1.208,0.578 2.416,1.155 3.624,1.734 0.787,0.377 1.572,0.758 2.359,1.134 1.16,0.555 2.322,1.108 3.483,1.663 0.753,0.36 1.505,0.723 2.259,1.083 1.2,0.575 2.402,1.149 3.602,1.724 0.116,0.055 0.229,0.116 0.345,0.17 C -0.17,-0.064 -0.094,-0.038 0,0"
             style="fill:#000000;fill-opacity:1;fill-rule:nonzero;stroke:none"
             id="path332" />
        </g>
        <g
           id="g334"
           transform="translate(494.6128,608.3281)">
          <path
             d="m 0,0 h 0.69 c 0.464,0 0.822,0.034 1.073,0.103 0.251,0.067 0.475,0.193 0.672,0.376 0.46,0.417 0.69,0.974 0.69,1.668 0,0.385 -0.067,0.738 -0.201,1.06 C 2.791,3.528 2.6,3.79 2.351,3.991 2.064,4.23 1.724,4.371 1.33,4.414 1.222,4.423 0.976,4.428 0.591,4.428 H 0 Z M 0,-0.225 V -2.752 C 0,-3.23 0.027,-3.586 0.081,-3.818 0.135,-4.051 0.234,-4.242 0.38,-4.392 0.507,-4.523 0.653,-4.621 0.82,-4.684 0.986,-4.747 1.206,-4.786 1.478,-4.8 V -4.962 H -3.02 V -4.8 c 0.272,0.014 0.492,0.053 0.658,0.116 0.167,0.063 0.314,0.161 0.44,0.292 0.151,0.15 0.251,0.34 0.303,0.57 0.052,0.23 0.077,0.587 0.077,1.07 v 5.188 c 0,0.403 -0.017,0.714 -0.052,0.932 C -1.63,3.587 -1.689,3.764 -1.774,3.899 -1.896,4.088 -2.051,4.228 -2.239,4.318 -2.426,4.41 -2.67,4.465 -2.971,4.484 H -3.02 v 0.162 h 4.245 c 0.741,0 1.288,-0.038 1.64,-0.113 0.351,-0.075 0.673,-0.224 0.964,-0.45 0.666,-0.507 1,-1.183 1,-2.027 C 4.829,1.197 4.491,0.568 3.815,0.169 3.463,-0.037 3.036,-0.161 2.534,-0.204 2.374,-0.218 1.989,-0.225 1.379,-0.225 Z"
             style="fill:#000000;fill-opacity:1;fill-rule:nonzero;stroke:none"
             id="path336" />
        </g>
        <g
           id="g338"
           transform="translate(503.7651,607.4033)">
          <path
             d="m 0,0 h 0.239 c 0.52,0 0.892,0.029 1.116,0.088 0.225,0.058 0.435,0.181 0.632,0.365 0.44,0.419 0.66,0.939 0.66,1.56 0,0.331 -0.064,0.641 -0.191,0.933 C 2.328,3.237 2.151,3.478 1.924,3.666 1.748,3.809 1.539,3.908 1.295,3.965 1.052,4.021 0.706,4.05 0.258,4.05 H 0 Z M 0,-0.139 V -2.365 C 0,-2.792 0.024,-3.11 0.072,-3.317 0.12,-3.524 0.209,-3.696 0.339,-3.83 0.453,-3.947 0.583,-4.034 0.732,-4.091 0.881,-4.147 1.077,-4.182 1.32,-4.194 v -0.145 h -4.018 v 0.145 c 0.243,0.012 0.439,0.047 0.588,0.103 0.149,0.057 0.28,0.144 0.393,0.261 0.134,0.134 0.224,0.304 0.271,0.51 0.046,0.205 0.069,0.523 0.069,0.955 V 2.27 c 0,0.432 -0.023,0.751 -0.069,0.956 C -1.493,3.432 -1.583,3.602 -1.717,3.735 -1.83,3.856 -1.962,3.944 -2.113,3.999 -2.264,4.054 -2.459,4.087 -2.698,4.1 v 0.145 h 3.031 c 0.507,0 0.841,-0.003 1,-0.007 C 1.983,4.209 2.492,4.121 2.861,3.975 3.276,3.807 3.598,3.556 3.827,3.223 4.055,2.89 4.169,2.503 4.169,2.063 4.169,1.408 3.922,0.885 3.427,0.49 3.276,0.373 3.11,0.276 2.927,0.201 2.745,0.126 2.5,0.055 2.195,-0.013 2.446,-0.117 2.633,-0.227 2.754,-0.34 2.851,-0.428 2.938,-0.538 3.019,-0.67 3.098,-0.802 3.217,-1.036 3.377,-1.371 3.75,-2.139 4.032,-2.699 4.223,-3.054 c 0.191,-0.353 0.351,-0.61 0.481,-0.769 0.105,-0.13 0.206,-0.221 0.305,-0.271 0.098,-0.051 0.233,-0.084 0.406,-0.1 V -4.339 H 3.327 c -0.105,0.231 -0.172,0.377 -0.202,0.44 l -0.44,1 c -0.264,0.599 -0.53,1.129 -0.798,1.59 -0.269,0.457 -0.514,0.77 -0.736,0.938 -0.113,0.084 -0.235,0.143 -0.365,0.179 -0.13,0.036 -0.289,0.053 -0.478,0.053 z"
             style="fill:#000000;fill-opacity:1;fill-rule:nonzero;stroke:none"
             id="path340" />
        </g>
        <g
           id="g342"
           transform="translate(512.2656,607.0186)">
          <path
             d="m 0,0 c 0,-1.168 0.318,-2.152 0.954,-2.953 0.285,-0.359 0.588,-0.619 0.908,-0.782 0.32,-0.163 0.689,-0.244 1.107,-0.244 0.423,0 0.794,0.08 1.114,0.241 0.319,0.161 0.624,0.423 0.914,0.785 0.636,0.806 0.953,1.798 0.953,2.977 0,0.649 -0.087,1.261 -0.262,1.839 C 5.513,2.441 5.267,2.932 4.949,3.334 4.691,3.664 4.405,3.904 4.089,4.056 3.773,4.206 3.4,4.282 2.969,4.282 2.542,4.282 2.174,4.207 1.862,4.059 1.55,3.909 1.261,3.668 0.996,3.334 0.678,2.936 0.433,2.446 0.26,1.866 0.086,1.286 0,0.664 0,0 m -1.46,0.091 c 0,0.676 0.145,1.303 0.434,1.881 0.29,0.578 0.713,1.082 1.267,1.512 0.415,0.319 0.862,0.563 1.34,0.735 C 2.06,4.39 2.542,4.476 3.03,4.476 3.649,4.476 4.249,4.339 4.828,4.067 5.407,3.796 5.914,3.412 6.349,2.917 7.057,2.112 7.411,1.196 7.411,0.169 7.411,-0.346 7.318,-0.844 7.133,-1.322 6.948,-1.802 6.679,-2.238 6.325,-2.633 5.89,-3.124 5.376,-3.505 4.783,-3.774 4.189,-4.044 3.569,-4.179 2.921,-4.179 c -0.64,0 -1.252,0.131 -1.835,0.393 -0.583,0.262 -1.086,0.632 -1.508,1.111 -0.334,0.374 -0.591,0.8 -0.77,1.277 -0.179,0.477 -0.268,0.973 -0.268,1.489"
             style="fill:#000000;fill-opacity:1;fill-rule:nonzero;stroke:none"
             id="path344" />
        </g>
        <g
           id="g346"
           transform="translate(521.3545,611.3008)">
          <path
             d="M 0,0 H 3.982 V -0.139 C 3.681,-0.167 3.463,-0.214 3.331,-0.278 3.206,-0.338 3.105,-0.432 3.029,-0.559 2.953,-0.686 2.914,-0.823 2.914,-0.972 c 0,-0.104 0.01,-0.197 0.03,-0.277 0.02,-0.081 0.081,-0.256 0.181,-0.525 l 1.787,-4.858 1.732,4.26 c 0.241,0.6 0.361,1.036 0.361,1.31 0,0.153 -0.024,0.295 -0.072,0.428 C 6.885,-0.501 6.82,-0.398 6.74,-0.326 6.659,-0.258 6.571,-0.209 6.475,-0.182 6.378,-0.153 6.253,-0.139 6.101,-0.139 V 0 H 8.786 V -0.139 C 8.564,-0.159 8.372,-0.214 8.209,-0.302 8.046,-0.391 7.89,-0.525 7.742,-0.706 7.641,-0.835 7.535,-1.011 7.425,-1.234 7.314,-1.457 7.162,-1.803 6.969,-2.27 L 4.495,-8.236 H 4.242 L 1.84,-2.07 C 1.526,-1.262 1.275,-0.748 1.086,-0.531 0.965,-0.395 0.817,-0.295 0.643,-0.232 0.467,-0.17 0.253,-0.139 0,-0.139 Z"
             style="fill:#000000;fill-opacity:1;fill-rule:nonzero;stroke:none"
             id="path348" />
        </g>
        <g
           id="g350"
           transform="translate(535.3618,611.1641)">
          <path
             d="M 0,0 V -0.139 C -0.229,-0.151 -0.417,-0.184 -0.559,-0.236 -0.702,-0.288 -0.83,-0.373 -0.943,-0.49 -1.1,-0.651 -1.197,-0.875 -1.233,-1.161 -1.257,-1.374 -1.27,-1.62 -1.27,-1.898 v -4.456 c 0,-0.333 0.017,-0.597 0.049,-0.791 0.032,-0.194 0.085,-0.348 0.157,-0.465 0.105,-0.161 0.24,-0.282 0.405,-0.36 0.165,-0.079 0.385,-0.126 0.659,-0.142 v -0.139 h -3.863 v 0.139 c 0.234,0.012 0.423,0.046 0.566,0.099 0.143,0.055 0.269,0.139 0.378,0.251 0.128,0.129 0.215,0.292 0.259,0.491 0.045,0.197 0.067,0.502 0.067,0.917 v 4.456 c 0,0.415 -0.022,0.721 -0.067,0.919 -0.044,0.197 -0.131,0.36 -0.259,0.489 -0.109,0.117 -0.236,0.202 -0.381,0.254 -0.146,0.052 -0.333,0.085 -0.563,0.097 l 0,0.139 z"
             style="fill:#000000;fill-opacity:1;fill-rule:nonzero;stroke:none"
             id="path352" />
        </g>
        <g
           id="g354"
           transform="translate(540.0117,610.8408)">
          <path
             d="M 0,0 V -5.907 C 0,-6.296 0.022,-6.591 0.066,-6.793 0.109,-6.995 0.19,-7.167 0.31,-7.31 c 0.253,-0.309 0.665,-0.463 1.235,-0.463 0.487,0 0.904,0.08 1.251,0.241 0.347,0.16 0.657,0.421 0.931,0.781 0.269,0.349 0.474,0.748 0.615,1.197 0.139,0.45 0.211,0.928 0.211,1.436 0,0.562 -0.086,1.097 -0.256,1.604 C 4.126,-2.007 3.883,-1.563 3.565,-1.183 3.126,-0.656 2.602,-0.308 1.991,-0.137 1.658,-0.046 1.234,0 0.719,0 Z m -2.549,-7.791 c 0.23,0.012 0.414,0.044 0.552,0.095 0.139,0.051 0.264,0.134 0.375,0.25 0.122,0.126 0.207,0.288 0.252,0.484 0.046,0.196 0.069,0.496 0.069,0.9 v 4.38 c 0,0.436 -0.027,0.755 -0.08,0.956 -0.054,0.203 -0.158,0.37 -0.312,0.499 -0.195,0.164 -0.48,0.254 -0.856,0.274 V 0.184 H 0.719 C 1.444,0.184 1.906,0.176 2.104,0.16 2.939,0.097 3.649,-0.141 4.231,-0.553 4.786,-0.945 5.218,-1.459 5.527,-2.095 5.836,-2.73 5.99,-3.423 5.99,-4.172 5.99,-4.719 5.902,-5.234 5.726,-5.72 5.55,-6.205 5.305,-6.608 4.992,-6.93 4.553,-7.381 4.004,-7.669 3.346,-7.791 2.854,-7.883 2.354,-7.928 1.843,-7.928 h -4.392 z"
             style="fill:#000000;fill-opacity:1;fill-rule:nonzero;stroke:none"
             id="path356" />
        </g>
        <g
           id="g358"
           transform="translate(554.6924,610.9453)">
          <path
             d="m 0,0 0.101,-1.96 -0.137,-0.006 c -0.051,0.333 -0.136,0.608 -0.255,0.825 -0.119,0.218 -0.291,0.411 -0.517,0.577 -0.186,0.138 -0.406,0.236 -0.659,0.293 -0.253,0.058 -0.59,0.086 -1.01,0.086 h -1.359 v -3.562 h 0.357 c 0.36,0 0.63,0.023 0.813,0.071 0.182,0.047 0.33,0.133 0.445,0.255 0.111,0.115 0.194,0.251 0.246,0.407 0.054,0.157 0.099,0.387 0.134,0.692 l 0.137,-0.006 -0.025,-3.183 h -0.135 c -0.036,0.305 -0.089,0.55 -0.158,0.737 -0.069,0.185 -0.166,0.344 -0.288,0.474 -0.119,0.127 -0.273,0.22 -0.463,0.279 -0.19,0.06 -0.432,0.089 -0.724,0.089 h -0.339 v -1.359 c 0,-0.542 0.014,-0.938 0.042,-1.185 0.027,-0.248 0.081,-0.454 0.16,-0.62 0.134,-0.285 0.339,-0.494 0.614,-0.627 0.276,-0.132 0.639,-0.199 1.09,-0.199 0.475,0 0.873,0.061 1.194,0.182 0.32,0.12 0.582,0.307 0.784,0.56 0.141,0.171 0.258,0.365 0.347,0.582 0.088,0.218 0.171,0.505 0.247,0.862 L 0.777,-5.742 0.7,-8.105 h -7.083 v 0.136 c 0.226,0.012 0.408,0.043 0.549,0.095 0.141,0.051 0.267,0.135 0.377,0.249 0.123,0.127 0.207,0.288 0.252,0.484 0.046,0.197 0.068,0.496 0.068,0.9 v 4.376 c 0,0.404 -0.022,0.704 -0.068,0.899 -0.045,0.196 -0.129,0.358 -0.252,0.485 -0.106,0.115 -0.23,0.198 -0.371,0.249 -0.141,0.051 -0.325,0.084 -0.555,0.095 l 0,0.137 z"
             style="fill:#000000;fill-opacity:1;fill-rule:nonzero;stroke:none"
             id="path360" />
        </g>
        <g
           id="g362"
           transform="translate(558.6553,609.7451)">
          <path
             d="m 0,0 v -5.264 c 0,-0.415 0.023,-0.721 0.07,-0.919 0.046,-0.198 0.132,-0.361 0.257,-0.49 0.113,-0.117 0.241,-0.202 0.384,-0.254 0.143,-0.052 0.33,-0.085 0.56,-0.097 v -0.139 h -2.79 v 0.139 c 0.231,0.012 0.417,0.045 0.56,0.097 0.144,0.052 0.272,0.137 0.385,0.254 0.125,0.129 0.211,0.293 0.257,0.493 0.046,0.2 0.069,0.505 0.069,0.916 v 4.466 c 0,0.407 -0.023,0.71 -0.069,0.91 -0.046,0.2 -0.132,0.365 -0.257,0.493 -0.11,0.118 -0.236,0.202 -0.378,0.254 -0.144,0.053 -0.332,0.085 -0.567,0.097 v 0.14 h 2.331 l 4.912,-6.269 v 4.368 c 0,0.416 -0.023,0.723 -0.07,0.92 C 5.608,0.312 5.522,0.477 5.397,0.605 5.284,0.723 5.156,0.807 5.013,0.859 4.87,0.912 4.684,0.944 4.453,0.956 v 0.14 H 7.242 V 0.956 C 6.839,0.956 6.524,0.839 6.299,0.605 6.174,0.477 6.088,0.312 6.042,0.112 5.995,-0.088 5.972,-0.391 5.972,-0.798 V -7.163 H 5.7 Z"
             style="fill:#000000;fill-opacity:1;fill-rule:nonzero;stroke:none"
             id="path364" />
        </g>
        <g
           id="g366"
           transform="translate(575.373,610.6211)">
          <path
             d="m 0,0 0.072,-2.676 h -0.137 c -0.044,0.116 -0.079,0.204 -0.102,0.264 -0.141,0.383 -0.254,0.668 -0.342,0.855 -0.155,0.335 -0.381,0.643 -0.676,0.922 -0.223,0.211 -0.455,0.365 -0.694,0.461 -0.239,0.096 -0.509,0.144 -0.808,0.144 -0.451,0 -0.841,-0.098 -1.172,-0.293 -0.292,-0.172 -0.563,-0.418 -0.815,-0.739 -0.251,-0.322 -0.457,-0.688 -0.616,-1.099 -0.228,-0.578 -0.341,-1.236 -0.341,-1.975 0,-0.626 0.077,-1.191 0.234,-1.693 0.155,-0.503 0.382,-0.924 0.681,-1.263 0.551,-0.631 1.281,-0.945 2.191,-0.945 0.455,0 0.863,0.078 1.226,0.236 0.363,0.157 0.645,0.38 0.844,0.667 0.231,0.331 0.399,0.778 0.503,1.341 l 0.138,-0.024 c -0.077,-0.631 -0.248,-1.131 -0.515,-1.502 -0.255,-0.356 -0.608,-0.627 -1.057,-0.815 -0.448,-0.187 -0.968,-0.281 -1.558,-0.281 -0.551,0 -1.077,0.082 -1.58,0.246 -0.802,0.263 -1.428,0.738 -1.879,1.427 -0.451,0.688 -0.676,1.51 -0.676,2.463 0,0.73 0.131,1.403 0.394,2.019 0.264,0.616 0.631,1.113 1.102,1.488 0.362,0.287 0.797,0.515 1.301,0.685 0.505,0.169 1.011,0.254 1.517,0.254 0.483,0 0.994,-0.092 1.533,-0.275 l 0.49,-0.162 c 0.096,-0.036 0.18,-0.053 0.252,-0.053 0.099,0 0.181,0.042 0.245,0.125 0.027,0.04 0.061,0.106 0.101,0.198 z"
             style="fill:#000000;fill-opacity:1;fill-rule:nonzero;stroke:none"
             id="path368" />
        </g>
        <g
           id="g370"
           transform="translate(585.1035,611.8643)">
          <path
             d="m 0,0 0.121,-2.335 -0.163,-0.007 c -0.062,0.396 -0.163,0.724 -0.305,0.984 -0.14,0.258 -0.346,0.488 -0.615,0.685 -0.222,0.165 -0.483,0.282 -0.785,0.351 -0.302,0.068 -0.703,0.102 -1.203,0.102 h -1.62 v -4.245 h 0.424 c 0.429,0 0.752,0.028 0.969,0.085 0.218,0.057 0.395,0.158 0.531,0.305 0.132,0.137 0.23,0.298 0.293,0.484 0.065,0.187 0.118,0.461 0.161,0.824 l 0.162,-0.006 -0.029,-3.793 h -0.162 c -0.043,0.363 -0.105,0.656 -0.187,0.878 -0.083,0.221 -0.197,0.41 -0.344,0.565 -0.142,0.151 -0.325,0.262 -0.552,0.333 -0.226,0.07 -0.514,0.105 -0.863,0.105 H -4.57 v -1.619 c 0,-0.646 0.016,-1.117 0.049,-1.412 0.034,-0.295 0.097,-0.541 0.192,-0.739 0.16,-0.34 0.404,-0.589 0.731,-0.746 0.328,-0.158 0.761,-0.237 1.299,-0.237 0.566,0 1.04,0.072 1.422,0.215 0.382,0.144 0.693,0.367 0.934,0.669 0.17,0.202 0.308,0.434 0.414,0.694 0.106,0.258 0.204,0.6 0.294,1.025 L 0.928,-6.842 0.835,-9.658 h -8.44 v 0.163 c 0.268,0.015 0.487,0.052 0.654,0.113 0.168,0.062 0.317,0.16 0.449,0.297 0.147,0.151 0.247,0.344 0.301,0.577 0.055,0.234 0.082,0.591 0.082,1.071 v 5.215 c 0,0.481 -0.027,0.838 -0.082,1.072 -0.054,0.233 -0.154,0.425 -0.301,0.577 -0.127,0.136 -0.274,0.235 -0.441,0.297 -0.168,0.061 -0.389,0.099 -0.662,0.113 l 0,0.163 z"
             style="fill:#000000;fill-opacity:1;fill-rule:nonzero;stroke:none"
             id="path372" />
        </g>
      </g>
    </g>
  </g>
</svg>
