<?xml version="1.0" encoding="UTF-8"?>
<svg viewBox="0 0 729.96783 796.30579" xmlns="http://www.w3.org/2000/svg">
 <g transform="translate(-7.5971 -131.05)">
  <path d="m308.57 925.82c-2.6754-0.71265-8.8775-1.3867-13.782-1.4979s-17.309-2.4575-27.565-5.2139-23.754-6.3758-29.997-8.043c-19.204-5.1288-46.955-7.2696-64.492-4.9753-8.3222 1.0888-16.397 1.4941-17.943 0.90067-4.1523-1.5934-7.327-8.8217-11.206-25.514-2.949-12.69-3.4891-20.301-3.6464-51.38-0.15562-30.751-0.64907-37.832-3.1405-45.068-3.2708-9.5002-2.725-19.691 1.4914-27.845 3.7581-7.2673 2.9729-14.819-2.8104-27.03-4.7947-10.124-5.2697-12.515-5.2697-26.531 0-11.87 0.89089-18.123 3.8839-27.26 3.6088-11.016 3.733-12.509 1.7541-21.079-3.0232-13.092-2.5951-39.844 0.78318-48.949 3.7172-10.018 7.3188-22.933 7.342-26.327 0.01127-1.6484-2.1655-3.7404-5.2505-5.046-2.8984-1.2266-6.6597-3.7902-8.3586-5.6969-2.7453-3.0812-4.8192-3.47-18.647-3.4964-28.343-0.0541-64.244-7.383-86.091-17.574-4.0131-1.8721-8.815-3.4198-10.671-3.4394-6.3502-0.06702-7.6236-5.9353-6.5707-30.278 1.2556-29.026 3.0014-43.397 7.4549-61.37 4.885-19.713 13.726-49.957 20.471-70.026 4.0475-12.043 5.8076-20.608 6.4978-31.618 1.1094-17.699 2.5404-23.172 7.99-30.558 2.6289-3.5632 4.0142-7.5886 4.0142-11.664 0-7.488 3.6684-16.804 8.7943-22.333 2.2484-2.4254 4.1361-6.9846 4.6994-11.35 1.8253-14.147 10.401-38.899 18.538-53.504 12.201-21.901 28.883-32.839 59.175-38.8 32.206-6.3373 93.997-28.185 118.18-41.787 6.8232-3.8371 13.535-6.9766 14.914-6.9766s2.9591-0.72966 3.5103-1.6215c1.2993-2.1023 8.4294-2.1023 9.7287 0 0.55117 0.8918 2.3256 1.6215 3.9432 1.6215s6.4997 1.5764 10.849 3.5032c12.999 5.7582 34.231 10.942 52.767 12.883 28.309 2.9641 79.498-2.9686 99.466-11.528 4.1529-1.7801 9.3473-3.2366 11.543-3.2366s9.4469 3.6806 16.114 8.1792c16.399 11.066 22.398 13.53 90.695 37.254 16.052 5.576 35.215 13.096 42.584 16.711 21.535 10.564 36.834 26.413 43.381 44.942 5.1399 14.546 15.326 56.884 17.198 71.484 1.5841 12.352 2.8111 16.262 6.942 22.122 4.6838 6.6441 5.0797 8.3237 5.9462 25.228 0.83344 16.258 1.7802 20.597 9.2582 42.432 12.511 36.529 29.603 94.282 31.432 106.21 0.88917 5.7967 1.9919 12.829 2.4504 15.628 1.3538 8.2618-2.9084 12.727-17.45 18.279-19.671 7.5117-38.098 12.81-60.103 17.283-17.994 3.6575-20.596 4.6305-25.698 9.6098-6.9092 6.7432-17.071 10.544-28.193 10.544h-8.3264l-0.24301 34.456c-0.20624 29.242-0.84109 37.513-4.1954 54.66l-3.9523 20.204 4.0508 8.8482c7.4032 16.171 4.9256 39.113-7.1799 66.485-3.717 8.4048-3.7981 9.2526-1.5576 16.285 4.9287 15.47 6.3684 27.739 6.4924 55.328 0.16024 35.66-0.104 36.263-16.627 37.891-22.737 2.2404-46.048 9.129-82.958 24.515-34.976 14.58-56.182 21.047-77.83 23.736-16.924 2.1021-97.879 3.1851-104.58 1.3992zm100.46-16.333c23.956-4.6408 49.574-12.585 73.038-22.648 35.183-15.09 66.19-24.408 87.559-26.312l4.8644-0.43352 0.54316-15.404c0.58672-16.639-2.2365-44.982-5.2259-52.464l-1.8504-4.6312-12.948 14.93c-14.48 16.696-32.75 32.761-36.456 32.056-1.3393-0.25483-2.6531-1.9814-2.9194-3.8369-0.35242-2.4548 1.9134-5.2235 8.3192-10.165 8.4918-6.5514 21.745-20.667 33.691-35.882 8.7547-11.151 18.689-34.973 22.513-53.987 1.8282-9.0896 1.0198-21.405-1.5075-22.967-0.67845-0.4193-6.368 9.2706-12.643 21.533-13.228 25.847-35.712 64.785-48.856 84.607-6.3675 9.6023-10.116 13.782-12.36 13.782-5.6644 0-4.4629-4.9684 4.5627-18.868 26.561-40.905 59.91-103.25 62.767-117.33 5.744-28.325 5.7454-28.618 0.18881-39.738-2.8128-5.6289-5.1142-11.534-5.1142-13.123 0-4.0372-2.6692-5.2592-4.0502-1.8542-0.63089 1.5555-3.5836 9.76-6.5615 18.232-18.258 51.945-26.784 73.427-39.574 99.72-11.285 23.199-15.883 29.503-20.288 27.812-3.7528-1.4401-3.0479-4.9752 2.872-14.404 7.5651-12.049 14.49-27.161 26.574-57.999 11.265-28.745 18.766-49.754 20.551-57.562l1.1124-4.8644-3.5716 5.6751c-21.827 34.683-30.781 47.022-34.12 47.022-1.8184 0-1.6534-7.6524 0.29465-13.667 0.88699-2.7387 11.813-35.698 24.279-73.243 27.63-83.213 28.932-87.71 33.987-117.39 6.5463-38.441 8.0262-85.248 4.1523-131.34-1.6277-19.366-2.6695-32.18-3.6249-44.59-2.2847-29.675-0.3286-62.426 3.7286-62.426 7.0946 0 13.695 35.642 13.695 73.954 0 12.239 0.28512 21.949 0.63358 21.577s2.26-10.526 4.2479-22.565c5.6119-33.988 7.133-38.76 14.591-45.785 5.1727-4.8723 7.7332-6.1016 12.709-6.1016 6.949 0 10.045 2.5679 13.55 11.24l2.2493 5.5647 6.5759-10.429c11.653-18.481 12.265-20.153 10.209-27.886-3.0092-11.316-11.365-25.331-19.231-32.255-10.176-8.9574-28.332-17.389-64.372-29.894-16.839-5.8426-34.994-12.147-40.345-14.01s-14.754-5.4576-20.897-7.9885-11.368-4.6015-11.614-4.6015-3.7333 5.6548-7.7513 12.566c-22.188 38.165-53.457 59.52-95.602 65.288-22.895 3.1335-49.298-1.8254-70.319-13.207-12.788-6.9238-29.652-20.809-38.155-31.415-3.8435-4.7941-7.9693-9.1286-9.1684-9.6321s-5.2123 0.41893-8.918 2.0499-25.344 8.9894-48.085 16.352-43.171 14.265-45.401 15.338c-3.6984 1.7798-4.1502 3.1538-5.1556 15.68-6.8194 84.958-4.9384 166.37 5.356 231.81 7.3895 46.976 22.38 101.95 29.767 109.18 1.9781 1.9335 8.1608 12.271 13.739 22.973 36.955 70.892 107.1 151.56 166.27 191.22 6.2426 4.184 12.81 9.32 14.593 11.413 2.9663 3.4814 17.787 11.599 36.63 20.062 6.145 2.7601 30.068 9.9836 33.063 9.9836 0.4623 0 0.84054 1.0945 0.84054 2.4322 0 3.6026-3.0477 3.3531-42.969-3.519-59.82-10.297-123.87-40.75-162.55-77.281-4.682-4.422-8.5127-7.5139-8.5127-6.8709 0 1.6229 13.443 18.892 17.638 22.658 1.8923 1.6989 3.4405 4.8507 3.4405 7.004 0 7.1506-6.4599 3.675-17.996-9.6824-13.744-15.914-28.133-37.603-45.423-68.468-11.277-20.132-15.955-26.708-27.393-38.51-10.802-11.145-14.766-14.232-18.282-14.232-12.448 0-6.4914 25.659 14.102 60.747 4.7293 8.0581 13.262 22.666 18.961 32.463 12.2 20.971 31.718 42.449 49.515 54.486 10.86 7.3447 41.888 25.8 43.377 25.8 0.37123 0 7.8565 3.3623 16.634 7.4719 35.471 16.607 84.153 34.783 109.62 40.929 9.4385 2.2776 26.031 2.4197 33.469 0.28663 8.3646-2.3989 27.249-2.7832 29.433-0.599 1.4205 1.4205 1.0353 2.3261-1.586 3.7289-4.4383 2.3753-39.437 6.521-55.259 6.5455-22.135 0.03428-85.25-5.78-107.02-9.8586-18.944-3.5498-27.152-5.1567-38.104-7.4595-13.3-2.7965-48.596-11.639-70.533-17.671-30.701-8.4413-41.118-10.154-43.022-7.0734-1.9372 3.1344 20.266 46.527 24.375 47.637 1.7836 0.48189 8.4523 0.88613 14.819 0.8983 14.254 0.02727 33.784 3.5527 54.093 9.7644 18.177 5.5598 44.595 11.142 61.615 13.02 21.127 2.3311 69.944 0.50383 89.919-3.3659zm-111.09-64.094c-1.159-1.3965-4.2762-3.6607-6.927-5.0315-6.0358-3.1212-27.432-11.874-29.045-11.881-3.8616-0.01791-48.835-23.285-55.901-28.92-17.173-13.696-39.57-49.778-57.538-92.695l-3.0549-7.2966 0.829 8.7313c0.45597 4.8023 3.0407 13.458 5.7439 19.234 5.9843 12.788 6.3104 21.653 1.3097 35.598-3.5988 10.036-3.5999 10.073-0.54769 19.052 1.682 4.9483 4.0381 8.9969 5.2358 8.9969s11.112 4.2891 22.032 9.5313c29.736 14.275 74.42 33.15 93.63 39.549 24.914 8.2992 27.277 8.7997 24.233 5.1319zm-87.47-19.806-32.999-16.118c-11.461-5.5994-21.162-10.181-21.558-10.181s-0.50476 4.925-0.24107 10.944l0.47945 10.944 6.2621-0.54479c6.9555-0.60511 20.412 1.641 42.382 7.0741 19.511 4.825 19.73 4.7431 5.6751-2.1191zm89.18-68.21c0-3.4651-13.318-16.494-30.808-30.14-30.602-23.877-52.304-49.407-74.517-87.662-4.6603-8.0262-7.9613-12.769-7.3356-10.539 2.3342 8.3167 12.197 29.351 18.77 40.031 3.7386 6.0745 12.688 20.813 19.887 32.752 14.5 24.046 22.449 32.97 38.801 43.559 20.544 13.303 35.202 18.3 35.202 12zm-128.91-141.72c-1.1428-4.0447-6.6486-19.233-9.2575-25.538-1.5668-3.7864-1.8336-3.4376-4.0465 5.2892l-2.3691 9.3429 7.8373 7.2127c4.3105 3.967 8.0688 7.2417 8.3519 7.2771s0.05078-1.5773-0.51613-3.5839zm446.6-52.234c4.7398-2.451 13.084-11.342 13.084-13.94 0-0.80982-4.2858 0.70549-9.524 3.3673s-10.571 4.8397-11.851 4.8397c-3.6476 0-8.4303 4.1724-7.1525 6.2399 1.6097 2.6045 9.9566 2.3308 15.443-0.50651zm-465.72-5.328c-0.4707-1.5606-3.4286-11.852-6.573-22.869s-6.2292-20.503-6.855-21.079-0.5552 5.5191 0.15682 13.545 1.4738 17.836 1.6929 21.799c0.42006 7.5998 3.5463 11.441 9.312 11.441 2.2185 0 2.8744-0.82126 2.2663-2.8376zm-30.178-10.215c1.7499-0.93655 2.7696-2.3696 2.2659-3.1846s-1.6696-19.932-2.5909-42.482-2.3471-54.864-3.1684-71.808c-3.0586-63.101-3.6085-97.053-1.6808-103.77l1.8604-6.4858-8.5532-7.6726c-6.7438-6.0494-8.6499-7.0785-9.0102-4.8644-0.25134 1.5445-1.5751 8.7734-2.9418 16.064-2.2452 11.978-2.2402 13.729 0.05162 18.161 4.2912 8.2983 3.3535 11.317-4.5711 14.714-8.0625 3.456-12.35 8.578-12.35 14.754 0 2.3223-2.1199 11.828-4.711 21.124s-5.4731 19.718-6.4047 23.161l-1.6937 6.2599 16.048 15.63c15.395 14.994 19.441 21.279 17.297 26.867-0.49104 1.2797-5.1301 5.0061-10.309 8.2809-16.784 10.613-28.79 24.883-33.028 39.255-1.7286 5.8613-1.6629 7.3099 0.44119 9.7288 1.4837 1.7057 2.4502 5.8869 2.4173 10.458-0.03018 4.1886 0.80439 8.6509 1.8546 9.9163 4.4689 5.3847 51.01 10.055 58.777 5.8979zm493.19-2.2908c8.8148-3.683 15.581-10.248 17.313-16.798 1.5202-5.7476 5.6466-215.8 4.2664-217.19-1.3991-1.3991-5.7821 9.3863-5.7821 14.228 0 2.7707-0.68601 8.0969-1.5245 11.836s-2.7294 13.73-4.2021 22.202-3.2567 17.593-3.9644 20.268-2.209 9.2423-3.3362 14.593c-2.2361 10.615-4.4042 19.462-9.3374 38.104-2.739 10.351-3.3813 19.825-4.3144 63.642-1.0705 50.271-1.0222 51.481 2.0538 51.481 1.7326 0 5.7049-1.0675 8.8275-2.3722zm51.47-1.575c18.113-4.1681 44.557-12.531 52.323-16.546 3.1036-1.6049 4.3701-3.263 3.7422-4.8992-0.52199-1.3603-1.3955-4.2519-1.9411-6.4258-0.67024-2.6704-1.8514-3.7052-3.6414-3.1901l-17.242 4.9386c-8.0262 2.2969-16.782 4.8389-19.457 5.6488-11.091 3.3575-30.383 6.8895-33.929 6.2116-3.4297-0.65561-3.9037-0.0104-4.8009 6.5353-0.5475 3.9945-0.99546 8.2554-0.99546 9.4686 0 3.1834 6.4129 2.753 25.943-1.7413zm5.0012-28.355c28.484-7.2458 42.32-11.29 43.98-12.854 1.5589-1.469-18.6-69.02-33.333-111.7-5.0416-14.604-5.5709-17.607-4.4048-24.984 1.6579-10.488-0.34042-18.063-5.9237-22.455-3.9425-3.1012-4.4666-4.9454-6.341-22.313-2.1808-20.207-6.6-40.934-8.7276-40.934-0.71099 0-3.2124 3.2758-5.5588 7.2795l-4.2661 7.2795-0.83244 80.685c-0.45783 44.377-1.5261 91.505-2.3738 104.73-2.1468 33.49-2.0253 41.624 0.62221 41.624 1.19 0 13.412-2.8613 27.159-6.3584zm-69.815-120.95c0.88816-0.5489 2.0674 1.2647 2.6204 4.0301s1.2902 4.7436 1.638 4.3958c1.0994-1.0994 12.458-56.054 14.304-69.203 0.56329-4.0131 1.435-9.4855 1.9372-12.161l0.91305-4.8644-4.4183 4.0536c-2.4301 2.2295-7.711 8.6478-11.735 14.263-6.3819 8.9046-7.4901 11.702-8.6713 21.89-1.9199 16.559-1.6888 50.65 0.29672 43.784 0.82551-2.8544 2.2276-5.639 3.1157-6.1879zm22.441-96.449c0.24442-8.3965-1.5983-10.358-8.5125-9.0608-4.6269 0.86802-6.0409 2.0067-6.809 5.4835-0.53318 2.4134-1.5682 6.577-2.3 9.2524s-1.7938 8.118-2.3599 12.095l-1.0293 7.2302 10.423-9.6624c8.822-8.1783 10.448-10.534 10.588-15.338zm-503.24 2.0268c0.53193-3.3442 2.0765-10.816 3.4323-16.604l2.4652-10.523-4.26-3.6643c-2.343-2.0154-4.8431-3.6643-5.5558-3.6643s-1.7138 4.9252-2.2245 10.945c-1.0918 12.867-2.3088 16.62-5.3903 16.62-1.2423 0-2.2587 0.51249-2.2587 1.1389 0 1.5594 10.067 11.833 11.595 11.833 0.67645 0 1.6651-2.7362 2.197-6.0805zm12.714-46.133c3.702-9.4245 1.1669-11.031-6.4265-4.072-5.3497 4.9026-5.8886 6.0137-4.0129 8.2738 3.8136 4.5951 7.5793 3.0795 10.439-4.2017zm263.74-18.232c29.387-5.6624 51.814-18.776 68.998-40.344 8.3879-10.528 18.561-27.974 18.561-31.83 0-0.90458-3.023-3.6452-6.7177-6.0902l-6.7176-4.4455-2.6057 3.9923c-5.1352 7.8678-21.168 25.608-29.644 32.801-17.141 14.546-34.154 23.211-53.722 27.363-18.11 3.8425-41.663-4.0307-61.837-20.671-10.301-8.4971-27.574-29.843-33.419-41.3-1.7712-3.4717-3.9876-6.3122-4.9254-6.3122-3.4068 0-16.065 8.4767-16.065 10.758 0 7.5926 15.85 30.721 31.031 45.281 28.319 27.16 61.425 37.664 97.064 30.797z" fill="#f0f0f0"/>
  <path d="m306.13 925.51c-19.424-2.6159-29.861-4.846-52.311-11.178-29.706-8.378-45.286-10.292-74.685-9.1773-29.065 1.1024-28.361 1.525-33.591-20.161-3.0889-12.808-3.8138-21.497-4.6481-55.711-0.67424-27.651-1.6287-41.662-3.0027-44.078-3.0326-5.3321-2.4287-18.734 1.2286-27.266 4.3393-10.123 4.0989-14.4-1.4717-26.175-9.4976-20.076-9.859-35.715-1.3576-58.754 2.6557-7.1972 2.912-9.7466 1.4665-14.593-2.7525-9.2291-3.886-30.871-2.1759-41.545 0.85735-5.3508 3.0776-13.846 4.9339-18.878s3.8386-12.048 4.4051-15.591c0.98838-6.181 0.81182-6.5176-4.366-8.3226-2.9678-1.0346-7.2408-3.6008-9.4956-5.7027-3.8331-3.5732-5.7339-3.8823-29.232-4.7543-13.823-0.51296-28.416-1.7194-32.429-2.6811-13.062-3.13-29.806-8.3702-38.915-12.179-4.9049-2.051-11.239-4.2123-14.076-4.8028-8.6061-1.7916-9.1022-3.4728-8.027-27.201 0.53573-11.823 1.3626-24.78 1.8376-28.793 2.3975-20.257 12.42-58.856 26.857-103.43 5.1371-15.861 6.5922-23.048 7.1329-35.228 0.6726-15.153 3.3624-24.365 8.3143-28.475 1.2556-1.042 2.2869-4.1766 2.2919-6.9658 0.01535-8.609 3.2932-17.725 9.0613-25.2 3.4086-4.4175 5.5228-8.9829 5.5228-11.926 0-5.3196 6.6704-28.449 11.798-40.91 4.9977-12.145 16.297-28.578 23.792-34.601 9.824-7.8948 21.745-12.769 40.347-16.499 32.191-6.4534 98.355-29.861 119.45-42.259 16.322-9.5938 22.946-12.024 27.264-10.003 33.243 15.558 52.242 19.88 87.049 19.805 32.57-0.07084 63.176-4.6887 81.389-12.28 5.2834-2.2022 10.487-3.3884 12.161-2.7724 1.6095 0.59218 8.2359 4.6331 14.725 8.9798 12.609 8.4461 31.066 16.074 76.882 31.773 63.918 21.902 82.359 33.077 94.707 57.387 6.7574 13.303 19.229 62.221 21.197 83.143 0.82805 8.8017 2.0924 12.747 5.6664 17.681 6.194 8.5506 8.3544 17.45 7.111 29.293-0.89901 8.563-0.31572 11.842 4.6269 26.013 11.638 33.365 33.87 106.77 36.833 121.61 3.4833 17.447 3.4945 18.297 0.28732 21.739-6.5793 7.062-45.197 20.174-77.231 26.222-16.077 3.0354-18.75 4.0315-23.787 8.8631-7.7256 7.4101-16.327 10.669-28.161 10.669l-9.9436-3e-5 -0.10202 35.165c-0.07721 26.619-0.79553 38.712-2.9558 49.758-4.9304 25.212-4.9772 27.068-0.88203 34.981 3.0123 5.8208 3.7166 9.7811 3.7274 20.959 0.01403 14.581-2.2756 24.255-10.41 43.98-4.3515 10.552-4.474 11.489-2.2123 16.902 7.9072 18.925 9.7443 83.112 2.5837 90.273-0.87176 0.87176-7.4446 2.2406-14.606 3.0418-24.666 2.7596-39.42 7.1823-82.159 24.628-54.905 22.411-79.901 27.287-137.82 26.885-18.728-0.13004-38.793-0.87518-44.59-1.6558zm79.184-11.13c32.656-3.4399 61.371-11.182 97.555-26.302 39.412-16.469 69.54-25.556 84.734-25.556 2.9805 0 6.2948-0.87558 7.3649-1.9458 4.2828-4.2828 0.81102-57.934-4.6635-72.068l-1.792-4.6265-5.906 7.2966c-9.6556 11.929-33.772 36.265-38.992 39.346-10.659 6.2928-6.1504-1.1903 10.769-17.872 9.7174-9.5811 20.605-21.433 24.194-26.338 6.8999-9.4289 16.445-30.51 20.557-45.401 3.9036-14.138 4.106-29.81 0.44947-34.811-1.9884-2.7193-3.1869-1.0347-12.758 17.931-16.737 33.167-55.625 99.527-59.858 102.14-0.92447 0.57137-2.4289 0.29083-3.3431-0.6234-1.1354-1.1354 1.6567-6.9755 8.8083-18.424 18.205-29.144 33.348-55.622 46.426-81.177 13.46-26.302 16.53-37.069 21.186-74.304 2.0894-16.71 2.3078-60.985 0.30703-62.222-0.78473-0.48499-3.7431 5.8564-6.5741 14.092s-7.5841 21.176-10.562 28.756-7.0553 18.525-9.06 24.322c-24.829 71.793-47.129 121.79-54.83 122.94-1.9159 0.28496-3.4834 0.04772-3.4834-0.52726s2.886-5.9157 6.4134-11.868c10.807-18.237 32.824-72.202 45.432-111.35 2.8718-8.918 11.517-34.821 19.212-57.562 8.0062-23.661 14.529-45.855 15.251-51.887 0.69299-5.7967 1.9937-33.524 2.8904-61.615 1.883-58.989 4.5904-124.61 5.4955-133.21 2.0464-19.426 2.7945-24.1 7.6918-48.056 1.9183-9.384 6.4874-16.976 8.3193-13.824 0.42243 0.72695-0.1587 5.3348-1.2914 10.24-4.1004 17.756-5.3475 25.106-4.4943 26.486 0.47833 0.77393 5.2169-3.4096 10.53-9.2966s10.697-10.704 11.964-10.704c2.8249 0 3.1928-11.522 0.52696-16.504-1.4917-2.7872-2.7903-3.1566-8.1073-2.3064-6.6252 1.0594-8.4609-1.112-4.3854-5.1875 2.1398-2.1398 10.792-2.587 13.637-0.70483 2.7515 1.8204 7.1103 11.113 7.1758 15.298 0.05677 3.6293 0.16069 3.6036 3.8927-0.96037 2.1089-2.5791 7.255-10.783 11.436-18.231l7.6013-13.542-3.4961-10.822c-9.3301-28.88-24.319-39.332-87.783-61.218-19.069-6.576-41.603-14.641-50.075-17.923s-16.574-6.3339-18.005-6.7832c-1.8645-0.5855-3.87 1.63-7.0819 7.8231-15.917 30.691-41.903 53.723-71.893 63.72-33.009 11.003-63.047 8.5569-95.163-7.7502-10.569-5.3663-16.282-9.916-30.841-24.562-14.262-14.348-19.265-20.659-24.785-31.27l-6.9164-13.294-9.2653 4.1178c-23.739 10.551-77.015 27.495-106.55 33.89-20.529 4.4443-29.591 10.146-39.425 24.807-6.8923 10.275-13.678 25.982-13.678 31.662 0 4.1483 11.695 24.443 14.144 24.544 0.86751 0.03557 1.8259-4.6302 2.1297-10.368s1.2614-11.758 2.128-13.377c1.8222-3.4048 8.7979-3.9413 10.704-0.82336 0.71317 1.1664 4.5635 4.2842 8.5563 6.9284 5.5599 3.6821 7.965 6.6971 10.273 12.878 3.3659 9.0151 3.2141 16.241-1.1407 54.282-3.927 34.305-2.8114 73.733 3.1196 110.26 1.2309 7.5803 1.8455 15.654 1.3657 17.942-1.6336 7.79 6.6903 58.039 12.338 74.481 0.76581 2.2295 3.3627 10.621 5.7709 18.647 9.6622 32.203 20.087 64.002 25.517 77.83 13.234 33.706 46.753 97.743 63.653 121.61 3.789 5.3508 10.616 13.967 15.17 19.146 7.7317 8.7932 10.285 14.093 6.7894 14.093-1.8998 0-16.028-14.788-23.237-24.322-17.29-22.866-42.794-66.812-56.865-97.982-7.097-15.722-25.768-66.562-28.179-76.73-1.2422-5.2388-3.2102-4.4946-4.3629 1.6497-0.54664 2.9139-2.8168 11.042-5.0448 18.061-4.8649 15.328-5.3221 31.714-1.3446 48.194l2.7063 11.213-4.7331 14.152c-6.6189 19.79-6.451 32.793 0.62007 48.021 6.2718 13.507 6.652 22.045 1.6196 36.373-3.5583 10.131-3.5656 10.343-0.64382 18.57 2.3838 6.7118 3.0855 14.767 3.627 41.639 0.6337 31.445 3.968 62.253 7.093 65.539 0.7398 0.77773 9.2457 1.297 18.902 1.1541 22.694-0.33609 50.923 3.4461 71.628 9.597 25.694 7.6331 52.521 13.185 73.214 15.152 12.859 1.2222 45.582 0.89774 59.726-0.59216zm-116.48-66.246c-9.3639-3.3448-22.133-8.4903-28.376-11.434s-20.23-9.2472-31.082-14.007c-26.862-11.781-52.423-24.736-52.423-26.57 0-3.8442 4.3942-2.5743 24.918 7.2008 32.233 15.352 70.337 31.263 93.449 39.02 12.815 4.301 20.268 7.6222 20.268 9.0315 0 4.0866-9.4418 2.9428-26.754-3.2411zm109.45-42.652c-66.732-45.89-136.64-126.97-174.12-201.95-7.3298-14.663-8.2148-18.813-3.8323-17.969 1.732 0.33356 6.8412 8.1142 13.121 19.982 25.87 48.889 67.25 103.73 108.3 143.54 21.227 20.584 32.52 30.036 54.48 45.603 9.1568 6.491 17.185 12.553 17.84 13.471 4.7513 6.6574-4.4922 5.0919-15.784-2.6734zm238.03-240.26c8.6344-3.6077 20.125-18.888 14.203-18.888-0.84082 0-4.0834 1.5073-7.2058 3.3496-8.7312 5.1515-22.178 9.6221-28.941 9.6221-6.8925 0-8.7561 4.2365-2.4551 5.5811l6.8912 1.4643c6.5512 1.3854 12.392 1.0088 17.508-1.1287zm-463.38-4.3429c0.56738-0.91806-0.47037-6.3184-2.3061-12.001-4.7895-14.825-13.057-47.104-14.98-58.485-0.90394-5.3508-2.3135-19.214-3.1323-30.808s-2.181-26.551-3.0272-33.24c-2.4116-19.063-3.7267-72.376-2.152-87.245l1.4263-13.469-6.3989-4.7058c-12.058-8.8675-29.453-26.75-33.504-34.441-2.228-4.2305-4.5994-7.6919-5.2697-7.6919s-1.2189 2.4225-1.2189 5.3832c0 3.8084-1.6602 7.3228-5.6751 12.013-4.6733 5.4597-5.6751 7.9256-5.6751 13.969 0 8.8427-1.9967 14.519-7.3422 20.871-3.0092 3.5762-4.0093 6.6517-4.0132 12.341-0.00721 10.55-4.4264 34.735-8.0065 43.818-3.7053 9.4005-16.565 53.222-21.03 71.662-3.7913 15.659-9.8738 49.109-9.0751 49.907 0.29335 0.29334 7.6856 3.0239 16.427 6.0679 16.522 5.7534 23.79 10.598 20.633 13.755-1.2398 1.2398-6.5594 0.06329-18.49-4.0895-9.2122-3.2065-17.753-5.4452-18.979-4.9747-1.3108 0.50298-2.0174 2.5952-1.7151 5.0785 0.42212 3.4685 2.2524 4.941 10.243 8.2404 32.648 13.481 64.82 20.073 85.912 17.601 15.936-1.8672 16.807-1.6638 23.384 5.4602 5.921 6.4136 11.787 8.5063 13.965 4.9822zm466.74-16.185c9.6641-5.8571 13.14-10.666 14.635-20.25 1.3455-8.6232 4.5032-215.1 3.3078-216.3-1.2675-1.2675-7.0476 6.3534-7.8652 10.37-0.3631 1.7836-1.5296 9.445-2.5923 17.025-2.0397 14.549-5.504 33.756-8.0427 44.59-8.8618 37.818-15.487 62.961-17.201 65.281-1.6644 2.2527-2.4955 2.4143-4.1294 0.80279-1.6455-1.6229-1.4536-4.3186 0.98099-13.782 1.6646-6.4707 3.9219-13.954 5.0161-16.629 4.3386-10.608 16.301-67.847 19.4-92.828 0.7039-5.6741 0.47115-8.5127-0.69804-8.5127-1.6913 0-19.74 21.682-22.696 27.265-3.8292 7.2317-5.2846 29.599-5.1894 79.751 0.09732 51.24-1.8921 111.07-4.1188 123.88l-1.0995 6.3226 10.812-0.86789c8.3439-0.66979 12.791-2.0671 19.48-6.1209zm45.609 0.81071c21.768-4.9341 51.454-14.664 55.981-18.349 2.9745-2.421 3.1271-3.3194 1.4241-8.3866-1.049-3.1213-2.4498-6.2807-3.1129-7.0209s-8.4073 0.83788-17.209 3.5068c-20.266 6.1448-49.083 13.243-53.765 13.243-6.6305 0-3.7973-4.3898 4.116-6.3775 4.236-1.064 10.256-2.6116 13.377-3.4392s10.418-2.6403 16.215-4.0284c13.243-3.1712 35.672-10.463 35.672-11.597 0-2.3325-23.686-79.177-31.427-101.96-8.0132-23.582-8.7695-26.997-7.9593-35.933 1.1396-12.568-0.09265-17.303-5.8335-22.418-4.1738-3.7188-4.7185-5.4493-5.7358-18.222-1.0933-13.727-5.6269-37.633-8.6558-45.643-1.4458-3.8234-1.7256-3.6207-7.8323 5.6751l-6.3329 9.6401-0.99014 88.369c-0.92908 82.921-1.9417 121.91-3.9903 153.63l-0.86379 13.377 4.5436-0.01468c2.499-0.00808 12.57-1.834 22.38-4.0576zm-535.41-233.19c2.3469-6.116 3.0061-24.438 1.1214-31.169-2.0917-7.4709-11.479-17.704-15.129-16.493-1.0309 0.34214-2.3909 5.2462-3.0222 10.898-1.5648 14.009-2.1306 15.138-6.9746 13.922-5.5772-1.3998-5.2208 1.7394 1.0632 9.363 4.452 5.401 18.11 15.51 21.073 15.598 0.57344 0.01694 1.4138-0.93652 1.8675-2.1188zm269.89-74.89c27.718-5.7825 50.125-19.271 67.373-40.555 9.1883-11.339 18.982-28.134 18.978-32.546-0.00179-1.909-2.8876-4.9097-7.5623-7.8631l-7.5594-4.776-4.1611 5.5867c-8.07 10.835-31.905 34.387-41.297 40.806-12.681 8.6676-27.103 14.977-39.961 17.482-9.1328 1.7797-12.182 1.6855-22.67-0.69995-6.6648-1.5159-16.51-5.0649-21.877-7.8867-14.08-7.4019-37.229-30.922-47.022-47.775l-7.7722-13.376-8.2906 4.775c-12.303 7.0861-12.518 7.9626-5.373 21.861 24.888 48.409 77.572 75.319 127.19 64.967zm-1.6188-32.908c9.9971-3.8038 23.728-11.587 22.539-12.776-0.45617-0.45615-3.6145 0.13155-7.0185 1.306-7.7579 2.6767-58.725 2.8894-66.994 0.27962-3.1213-0.98515-8.1644-2.229-11.207-2.7641-5.3489-0.94075-5.4397-0.87119-2.747 2.1042 3.7259 4.1171 20.1 12.738 27.927 14.704 9.1363 2.2945 27.679 0.88368 37.5-2.8531zm19.06-19.698c18.668-4.2485 19.319-4.5888 29.716-15.52 5.6421-5.9322 9.9717-11.072 9.6214-11.423s-3.1066 0.07125-6.125 0.93692c-18.018 5.1676-37.658 7.1829-70.506 7.2348-36.58 0.05782-44.903-1.1247-68.939-9.795-6.3851-2.3032-11.915-3.8822-12.288-3.5089s3.1092 5.9206 7.7391 12.327c8.3951 11.617 8.4539 11.659 21.637 15.68 7.2706 2.2176 18.628 4.7121 25.239 5.5432 13.554 1.704 54.042 0.76877 63.906-1.4762z" fill="#d7d7d7"/>
  <path d="m317.41 926.76c-0.45272-0.45275-7.2479-1.6215-15.1-2.5973-15.968-1.9843-34.003-6.0249-54.551-12.222-25.65-7.7359-56.676-10.587-79.429-7.2991-16.402 2.3702-17.688 0.88239-23.8-27.529-1.8967-8.8164-2.7158-22.417-2.9783-49.454-0.28805-29.67-0.88973-38.619-2.9435-43.779-3.5284-8.8652-3.3578-12.211 1.3125-25.742 4.0403-11.706 3.8938-18.689-0.50952-24.275-0.81066-1.0283-3.0303-6.0926-4.9325-11.254-4.738-12.856-4.4997-25.962 0.78616-43.229 3.8703-12.643 4.0849-14.741 2.4322-23.782-0.99689-5.4536-1.8125-16.935-1.8125-25.514 0-12.917 0.81733-18.058 4.7553-29.911 6.2381-18.776 6.6568-22.924 2.5412-25.176-1.7836-0.97622-6.8912-4.1005-11.35-6.9429-8.0599-5.1378-8.259-5.1727-34.051-5.9722-22.942-0.71122-27.955-1.3953-43.331-5.9129-9.5635-2.8097-21.441-6.9011-26.395-9.0918s-10.263-4.0064-11.798-4.0348-4.129-1.0653-5.7638-2.3043c-2.6741-2.0265-2.9001-4.2598-2.2514-22.243 0.3966-10.995 1.596-25.463 2.6653-32.152 3.848-24.068 14.858-65.467 27.065-101.76 3.829-11.386 5.862-20.855 6.4402-29.997 1.2526-19.806 1.9634-22.97 6.6974-29.815 3.0085-4.3502 4.6558-9.3436 5.432-16.466 0.88959-8.1627 2.1878-11.559 6.4424-16.853 3.4681-4.3156 5.8408-9.5209 6.7964-14.91 2.632-14.843 9.5768-35.582 16.232-48.471 12.945-25.072 27.852-36.221 56.059-41.927 35.862-7.2547 94.154-27.256 118.67-40.717 26.423-14.51 26.365-14.485 29.891-12.861 28.04 12.921 42.991 17.332 67.894 20.033 29.25 3.1724 81.086-2.7135 100.84-11.45 4.2438-1.8772 9.2715-3.4132 11.173-3.4132s9.4348 4.0024 16.741 8.8942c14.119 9.453 29.868 16.017 76.283 31.793 34.249 11.641 53.495 19.499 65.366 26.689 11.334 6.8642 24.237 20.39 29.661 31.093 5.3251 10.509 17.983 59.846 20.497 79.891 1.3438 10.716 2.847 16.397 4.9392 18.669 5.7981 6.2945 8.1923 15.008 7.9381 28.891-0.20921 11.427 0.57051 15.582 5.6806 30.27 13.532 38.895 39.809 128.39 39.809 135.59 0 4.2265-5.8774 8.2509-20.065 13.739-19.166 7.4139-36.584 12.427-58.137 16.733-16.019 3.2-19.922 4.5929-24.749 8.8308-8.9584 7.8656-14.953 10.231-28.231 11.142l-12.317 0.84484v37.494c0 32.511-0.48661 39.894-3.6611 55.547l-3.6612 18.053 4.0507 8.7014c3.1831 6.8378 4.0521 11.306 4.0574 20.862 0.00789 14.097-1.2717 19.688-9.153 39.992-5.7267 14.753-5.75 14.916-3.2642 22.7 4.9732 15.574 6.4411 27.767 6.5292 54.236 0.11326 34.015-0.13566 34.546-16.974 36.206-22.493 2.2164-45.438 9.3822-95.569 29.846-21.68 8.8499-51.171 17.243-70.199 19.978-12.268 1.7635-87.291 3.7499-88.692 2.3484zm65.746-11.511c40.878-4.5929 62.629-10.442 103.4-27.809 29.179-12.428 51.037-19.419 71.713-22.939l17.836-3.0363 0.53152-20.146c0.56703-21.492-1.8472-44.102-5.7005-53.386l-2.3553-5.6751-6.7387 8.1073c-9.663 11.626-31.966 34.6-37.312 38.435-9.3651 6.7188-6.2952 0.73542 4.7384-9.2354 19.854-17.942 34.026-36.061 41.272-52.769 8.0776-18.624 12.86-35.645 12.86-45.768 0-8.6049-3.9056-19.817-6.3721-18.292-0.86664 0.5356-5.0177 8.0671-9.2247 16.737-9.798 20.192-18.017 34.974-38.967 70.082-18.897 31.668-22.524 36.955-24.2 35.279-0.6355-0.63549 2.8613-7.5563 7.7706-15.38 30.666-48.868 61.188-105.77 61.322-114.32 0.03176-2.0244 1.1289-8.0587 2.438-13.41 7.2044-29.447 9.7126-98.114 3.5083-96.046-0.90086 0.30029-5.0516 10.359-9.2238 22.353s-10.661 30.198-14.42 40.453-8.5418 23.39-10.63 29.186c-19.158 53.193-40.663 100.53-45.672 100.53-3.1264 0-2.9927-0.42362 3.1877-10.103 4.705-7.3685 14.614-28.786 25.334-54.756 7.7168-18.695 19.956-53.715 30.601-87.559 2.6648-8.4721 7.5152-22.7 10.779-31.618s6.497-18.404 7.1855-21.079 2.4314-8.2972 3.873-12.493c3.6355-10.581 6.0143-49.84 7.6924-126.95 1.6256-74.699 2.715-88.345 9.7072-121.61 0.93732-4.459 2.1092-10.485 2.6041-13.392s1.6404-5.7424 2.5454-6.3018c1.5597-0.96393 1.1243 4.5522-1.2343 15.64-0.47428 2.2295-1.274 8.4316-1.7771 13.782l-0.91474 9.7288 10.824-11.756c5.9533-6.4656 11.78-11.756 12.949-11.756 4.6591 0 5.6534-13.265 1.4446-19.274-2.1607-3.0849-3.6531-3.6177-8.1073-2.8949-6.3718 1.034-7.3244-1.5242-1.4055-3.7746 8.3095-3.1593 15.404 4.0465 15.404 15.646 0 5.1389 3.4498 4.801 6.7136-0.65757 1.463-2.4468 6.0112-9.9212 10.107-16.61s7.4593-14.026 7.4741-16.305c0.04753-7.2857-6.2983-23.167-12.555-31.422-12.14-16.015-27.097-23.7-85.302-43.825-18.846-6.5162-40.086-14.121-47.2-16.899s-14.046-5.0197-15.404-4.9811-6.1175 6.3548-10.576 14.036c-17.897 30.829-43.045 50.568-74.587 58.542-20.428 5.1644-34.796 6.2818-46.594 3.6234-3.803-0.85698-11.017-2.3477-16.03-3.3128-9.2881-1.7878-26.079-9.7048-38.087-17.959-3.6668-2.5203-12.981-11.29-20.699-19.488-10.411-11.06-15.594-18.167-20.087-27.543-3.7866-7.9025-7.0427-12.674-8.691-12.735-1.4497-0.054-6.9221 1.7993-12.161 4.1184-22.329 9.8844-77.061 27.144-101.95 32.149-17.058 3.4305-28.378 9.1304-36.533 18.395-7.3502 8.3503-17.477 28.017-18.881 36.668-1.0294 6.3432 3.4033 16.612 11.312 26.207 6.0673 7.3606 7.5598 5.5352 7.5938-9.2877 0.02869-12.506 3.047-17.737 8.0623-13.971 1.5379 1.1547 5.7626 4.2884 9.3882 6.9638 10.682 7.8825 12.59 12.357 12.447 29.186-0.06861 8.0262-1.1682 24.443-2.4434 36.483-2.9107 27.479-1.4367 93.165 2.5068 111.72 1.4026 6.5979 2.132 14.259 1.621 17.025-2.2374 12.109 6.6689 58.146 18.851 97.442 19.446 62.729 22.29 70.432 40.405 109.46 22.456 48.377 44.165 84.642 64.114 107.1 9.4504 10.641 9.3094 13.975-0.19914 4.709-24.845-24.211-67.659-98.12-83.258-143.72-10.206-29.838-13.411-38.954-14.717-41.865-0.80062-1.7836-1.6757-4.6418-1.9446-6.3515-0.78227-4.9734-4.3246-4.8714-5.4162 0.15581-0.54624 2.5158-2.7009 10.047-4.7882 16.735-5.0446 16.165-6.2513 29.196-3.9792 42.969 3.6444 22.091 3.6301 22.545-1.1548 36.666-6.4702 19.095-6.1235 29.094 1.6052 46.291 6.8228 15.182 7.203 19.758 2.7047 32.556-3.8732 11.02-4.0802 17.479-0.81073 25.304 1.8757 4.4892 2.4336 12.974 2.4384 37.086 0.0056 28.37 1.3782 43.654 5.7566 64.1l1.1285 5.2698 24.525 0.00516c27.84 0.00588 44.4 2.4027 72.706 10.523 24.056 6.9014 41.178 10.391 63.7 12.983 24.338 2.8011 36.914 2.8077 61.615 0.03238zm-109.45-67.114c-25.077-8.2444-111.52-47.582-114.25-51.988-1.564-2.5306-1.134-2.3822 15.506 5.3515 33.53 15.584 38.859 17.956 62.941 28.011 23.077 9.6357 45.141 17.473 52.691 18.715 1.7097 0.2814 3.4122 1.4237 3.7834 2.5385 1.0609 3.1864-5.5406 2.3471-20.674-2.6284zm101.34-46.659c-55.177-38.409-112.23-101.1-152.3-167.35-10.045-16.608-23.627-42.898-23.627-45.733 0-4.8511 4.5369 1.0511 12.557 16.336 38.951 74.232 106.55 152.3 167.15 193.04 7.2064 4.8449 13.478 9.7209 13.936 10.836 1.7974 4.3695-5.2922 1.5158-17.711-7.1292zm244.03-236.58c5.8114-2.9473 12.566-10.557 13.798-15.546 1.3744-5.5639-1.0832-6.951-5.9056-3.3332-8.1975 6.15-25.927 12.19-33.267 11.333-4.2349-0.49439-5.6355 0.04119-6.399 2.447-1.3676 4.309 0.92178 6.0067 10.068 7.4658 8.8924 1.4186 15.707 0.67545 21.706-2.367zm-463.75-4.4292c-0.00966-0.19158-1.174-3.9966-2.5875-8.4556-5.7784-18.229-13.304-47.972-15.384-60.805-0.93983-5.7967-2.3734-19.66-3.1858-30.808s-2.2002-27.2-3.084-35.672c-2.6528-25.428-3.7433-72.793-1.9786-85.937 1.619-12.058 1.5964-12.192-2.6846-15.788-23.647-19.863-29.348-26.035-40.086-43.396l-3.0088-4.8644-1.2376 7.1088c-0.74327 4.2692-3.5234 10.043-6.9601 14.454-4.7717 6.1247-5.7225 8.6656-5.7225 15.293 0 8.486-1.4767 12.329-7.5375 19.615-3.0397 3.6542-3.8128 6.4943-3.8128 14.009 0 11.067-4.1952 34.575-7.2284 40.504-7.3838 14.433-31.059 110.61-29.768 120.92 0.45442 3.6302 2.3647 4.7392 16.532 9.5976 15.499 5.3151 22.319 9.3215 19.931 11.709-0.63317 0.63316-3.1435 0.36036-5.5786-0.60626-11.513-4.5701-31.17-10.748-31.894-10.024-2.0849 2.085-1.5576 11.624 0.71294 12.896 6.1159 3.4251 23.423 9.8442 39.726 14.734 16.838 5.0503 19.373 5.3666 45.316 5.6556l27.48 0.30608 3.1993 4.392c4.0728 5.591 12.104 9.1252 15.999 7.0405 1.5732-0.84194 2.8524-1.6875 2.8428-1.8791zm458.89-11.469c17.691-7.8665 21.072-13.56 21.101-35.536 0.02433-18.223 1.164-25.548 3.4209-21.988 1.9264 3.0389 1.742 25.418-0.34981 42.474-1.1847 9.6598-1.2262 14.903-0.12657 16.002 3.3781 3.3781 56.09-9.5724 77.499-19.04 9.2854-4.1064 9.6169-4.7724 7.0242-14.108-2.1822-7.8572-3.6964-8.5869-11.811-5.6916-11.105 3.962-28.677 8.8878-41.628 11.669-6.6885 1.4364-14.302 3.2982-16.918 4.1373-5.0664 1.6249-6.7203 1.1693-5.1252-1.4118 0.53989-0.87354 4.0788-2.0611 7.8643-2.639s8.7068-1.6623 10.936-2.4099 10.256-2.9939 17.836-4.9918c27.043-7.1279 34.051-9.7629 34.051-12.805 0-5.3133-16.287-59.133-30.453-100.63-6.8056-19.937-7.4802-23.293-7.5615-37.62l-0.08931-15.73-6.0805-6.2281c-5.5549-5.6898-6.0805-7.0096-6.0805-15.271 0-15.347-7.8507-53.301-11.008-53.216-1.665 0.04484-13.314 20.377-13.314 23.238 0 4.5764-1.9794 7.5383-5.0378 7.5383-1.6882 0-3.0694 0.63125-3.0694 1.4028s-1.6417 3.4805-3.6483 6.0199c-2.7327 3.4584-4.134 8.4979-5.5838 20.082-1.8391 14.695-3.1788 22.367-6.8055 38.976-0.8763 4.0131-2.7199 12.769-4.0968 19.458-2.9546 14.352-4.9246 22.752-7.4153 31.618-1.0021 3.5672-2.6923 10.057-3.7561 14.422-2.0227 8.2999-5.344 9.8304-4.9469 2.2796 0.12659-2.4073 2.5399-11.893 5.3629-21.079s5.8205-18.943 6.661-21.681 1.5283-6.5793 1.5283-8.5347 0.70648-4.8221 1.57-6.3707 2.3456-8.288 3.2935-14.976 2.4235-15.809 3.2789-20.268c1.8247-9.5114 4.7-28.302 4.7762-31.213 0.02919-1.1148-0.98617-2.0268-2.2563-2.0268-2.7549 0-19.41 19.511-23.531 27.565-5.6028 10.951-6.5842 25.153-7.2828 105.39-0.42911 49.285-1.4064 83.315-2.618 91.163-1.0633 6.8871-1.5538 13.511-1.09 14.72 1.0617 2.7666 16.992 1.0851 25.481-2.6896zm24.044-119.41c0.29307-32.551 1.1415-73.047 1.8853-89.991 0.96598-22.004 1.1574-7.8706 0.66965 49.454-0.37555 44.144-1.224 84.64-1.8853 89.991s-0.9627-16.904-0.66965-49.454zm-505.78-123.77c2.4738-14.206 2.1992-20.289-1.2599-27.904-3.1467-6.9275-12.367-15.874-15.338-14.883-0.96989 0.32331-2.9254 6.0083-4.3457 12.633-2.4874 11.603-2.7427 12.026-6.9504 11.524-6.554-0.78231-5.6326 4.0507 2.523 13.235 6.4534 7.2671 17.514 15.164 21.723 15.509 1.052 0.08642 2.6373-4.3087 3.6483-10.114zm265.09-66.07c16.732-4.3868 20.386-5.6983 31.807-11.414 22.407-11.214 38.295-26.764 52.361-51.244 3.382-5.886 5.9287-11.861 5.6594-13.278s-4.1308-5.0203-8.5812-8.0075l-8.0916-5.4312-4.8644 6.1272c-34.832 43.875-69.127 63.302-101.53 57.512-6.2018-1.1083-15.447-4.1252-20.544-6.704-18.038-9.1263-39.423-31.09-51.565-52.962-2.5987-4.6811-5.3657-8.5118-6.149-8.5127-2.5389-0.00294-19.069 10.047-19.843 12.065-2.3396 6.0968 13.845 31.928 30.12 48.073 17.331 17.193 31.929 25.346 60.059 33.542 7.7014 2.244 32.946 2.3881 41.159 0.23482zm-2.1503-32.767c11.244-3.8333 29.092-13.814 29.092-16.269 0-0.81196-2.6902-0.93329-6.0805-0.27421-3.3442 0.65012-18.849 1.5124-34.456 1.9163-26.908 0.69626-37.796-0.25133-51.008-4.4392-8.0444-2.5499-8.3915 0.92833-0.65521 6.5663 21.751 15.851 41.691 19.801 63.107 12.5zm10.446-18.101c13.577-1.9407 22.934-4.4402 29.476-7.8739 8.6593-4.545 27.236-25.446 22.616-25.446-0.33296 0-6.3526 1.4459-13.377 3.2131s-25.36 4.4562-40.746 5.9756c-26.49 2.6159-29.157 2.6122-50.265-0.07018-15.232-1.9356-27.606-4.6324-39.073-8.5157-9.2303-3.1256-17.162-5.303-17.627-4.8385s2.7545 6.1678 7.1534 12.674c6.045 8.9412 9.7551 12.684 15.195 15.33 8.5933 4.1801 26.548 8.5887 38.599 9.4779 4.7861 0.35311 9.1641 1.1227 9.7288 1.7101 1.0602 1.103 26.862 7.6e-4 38.32-1.637z" fill="#616161"/>
  <path d="m313.43 925.78c-2.6754-0.74561-10.702-2.1141-17.836-3.0411s-22.457-4.3547-34.051-7.6171c-39.087-10.999-38.197-10.866-74.332-11.071l-33.796-0.19085-2.1987-4.1963c-1.2093-2.308-3.6954-11.541-5.5248-20.518-2.7438-13.464-3.3261-22.417-3.3261-51.136 0-27.278-0.52651-36.074-2.4322-40.635-3.3712-8.0683-3.0384-20.482 0.81073-30.247 4.2423-10.763 4.1152-12.942-1.398-23.963-9.6927-19.375-10.346-32.725-2.7668-56.546 3.5433-11.137 3.9081-13.945 2.3166-17.836-1.1016-2.6933-1.9181-13.741-1.959-26.508-0.06417-20.023 0.29947-22.818 4.2647-32.776 2.3842-5.9874 4.5335-13.935 4.7762-17.661 0.40678-6.2439 0.05994-6.9029-4.423-8.4045-2.6754-0.89612-7.1487-3.6122-9.9407-6.0358-4.9418-4.2898-5.7579-4.4314-30.808-5.3464-14.152-0.51693-29.744-1.994-34.649-3.2824-21.911-5.7553-32.294-9.0533-38.549-12.244-3.6977-1.8864-7.8123-3.4299-9.1436-3.4299s-4.3197-0.86535-6.641-1.923l-4.2206-1.923 0.64817-18.751c0.35649-10.313 1.5088-24.378 2.5606-31.256 3.189-20.852 21.901-91.801 28.133-106.67 3.9388-9.3982 6.109-21.102 6.7092-36.182 0.51532-12.949 1.0484-14.973 5.6713-21.532 3.173-4.5016 5.1025-9.2178 5.1025-12.472 0-8.2213 2.7645-15.831 8.215-22.614 3.5863-4.4626 5.4039-8.8968 6.355-15.503 1.9013-13.206 11.46-40.59 17.977-51.501 7.3053-12.231 19.349-24.02 29.67-29.044 4.5738-2.2262 15.586-5.5356 24.472-7.3542 40.694-8.3286 98.084-28.919 127.19-45.633l16.871-9.6885 11.849 5.7032c27.436 13.206 52.876 18.018 88.557 16.752 27.848-0.9882 50.133-4.4278 66.913-10.328 17.965-6.3168 16.726-6.4305 30.828 2.8288 16.307 10.707 27.777 15.55 76.188 32.166 50.757 17.422 68.986 26.156 82.356 39.462 5.8362 5.8081 11.98 13.929 14.476 19.135 5.8178 12.134 18.428 61.924 20.355 80.374 1.2966 12.409 2.224 15.559 5.6776 19.284 5.6269 6.0684 8.3216 16.618 7.1388 27.948-0.88574 8.4842 0.05808 12.414 10.99 45.764 6.5775 20.066 16.421 52.17 21.874 71.344s10.623 37.102 11.488 39.841c2.4036 7.6103 1.8318 10.973-2.3874 14.039-10.512 7.6406-59.274 22.613-85.752 26.33-5.581 0.78352-9.5374 2.6307-13.782 6.4349-9.4552 8.4733-15.852 11.011-28.411 11.27l-11.316 0.23318-0.17925 36.458c-0.15127 30.765-0.76447 39.561-3.9271 56.331l-3.7478 19.874 3.5775 7.3901c4.3594 9.0053 5.8348 24.73 3.39 36.129-0.99831 4.6549-4.4714 15.551-7.718 24.214-5.4096 14.434-5.745 16.292-4.0125 22.236 4.7368 16.251 6.932 33.712 7.062 56.173 0.19512 33.696-0.03717 34.104-20.667 36.307-20.438 2.1823-42.873 9.0044-77.044 23.428-33.714 14.231-59.523 22.013-86.723 26.149-15.27 2.3222-83.758 3.424-90.802 1.4609zm70.192-9.8048c36.622-3.9021 66.246-11.96 104.11-28.319 30.491-13.172 53.497-20.33 75.681-23.548l13.254-1.9226 1.0739-11.587c1.1377-12.275-1.3425-45.264-4.3367-57.684-0.98272-4.0761-3.0998-8.5056-4.7046-9.8433-3.2624-2.7194-3.9955 0.12842 7.5125-29.186 10.201-25.986 9.4929-53.787-1.3268-52.079-1.8462 0.29149-1.4681-5.0058 1.1685-16.375 4.747-20.469 7.343-45.79 7.1826-70.058-0.16096-24.344-1.13-32.552-3.8433-32.552-0.78458 0-4.8336 9.8504-8.9978 21.89-9.2971 26.879-11.167 31.501-12.289 30.379-1.0208-1.0208 3.4102-15.58 10.726-35.243 2.8202-7.5803 6.4405-18.239 8.045-23.686s3.7282-11.419 4.7191-13.27 1.8117-5.786 1.8239-8.743 0.54857-7.2005 1.192-9.43c1.05-3.6384 1.2576-3.3892 2.0266 2.4322 0.47118 3.5672 0.1174 8.5514-0.78621 11.076-2.1588 6.0314 0.98299 8.3876 13.08 9.8094 14.956 1.7578 27.298-3.54 32.979-14.156 1.7674-3.3025 3.078-3.9506 6.574-3.2514 12.364 2.4728 85.538-18.207 86.166-24.351 0.39876-3.9021-0.60903-8.543-3.0376-13.988-1.3921-3.1213-2.6684-7.4992-2.8361-9.7287-0.4065-5.4033-16.311-58.172-29.078-96.477-9.6771-29.034-10.221-31.467-9.445-42.264 0.88882-12.37-1.6115-20.159-7.4794-23.299-2.3901-1.2791-3.2521-4.3672-4.1762-14.961-1.992-22.835-8.9824-53.246-12.24-53.246-0.8247 0-1.4541-3.101-1.3986-6.8912 0.21039-14.368-7.7054-30.034-21.394-42.342-11.465-10.308-27.633-17.765-72.059-33.237-20.511-7.1434-44.176-15.616-52.588-18.827s-16.256-5.47-17.431-5.0191-2.1362-0.23247-2.1362-1.5185c0-2.3539-15.502-13.775-18.697-13.775-0.94339 0-4.6014 3.7881-8.1289 8.4181-15.708 20.617-42.671 43.41-57.445 48.56-8.9152 3.1078-7.004 0.34672 3.5343-5.1061 13.562-7.0173 18.727-10.782 19.911-14.513 0.53981-1.7008 4.1084-4.6061 7.9302-6.4562 7.0198-3.3982 25.165-23.503 23.087-25.58-0.57297-0.57296-6.3222 0.17564-12.776 1.6636-23.232 5.356-36.552 6.6999-66.864 6.7459-33.325 0.05052-44.78-1.6053-67.519-9.7595-16.827-6.0342-17.608-6.2126-17.608-4.0219 0 4.117 16.995 26.417 21.924 28.767 2.7779 1.3247 5.8142 4.4312 6.7473 6.9035 1.9153 5.0742 17.391 16.283 28.316 20.508 7.8652 3.0419 11.389 5.486 7.9088 5.486-1.228 0-8.1232-2.8773-15.323-6.394-16.232-7.9287-32.491-23.133-44.312-41.439-4.6073-7.1344-9.6823-14.617-11.278-16.628l-2.9008-3.6564-10.085 6.0082c-5.5469 3.3045-10.46 6.9849-10.918 8.1786s0.84698 5.6079 2.9001 9.8092c7.3983 15.139 16.387 27.34 30.093 40.847 7.6744 7.563 11.64 12.115 8.8123 10.115s-11.137-10.012-18.466-17.805c-9.8994-10.527-14.986-17.608-19.788-27.546-3.5549-7.3574-7.399-13.377-8.5424-13.377s-7.0592 2.2345-13.146 4.9655c-18.623 8.3555-76.697 27.007-97.458 31.301-10.794 2.2323-22.052 5.3033-25.019 6.8246-13.26 6.8004-24.283 20.152-32.061 38.835-6.0964 14.644-5.7979 17.526 3.2677 31.552 3.5059 5.4243 6.3743 10.252 6.3743 10.728s-1.507 0.387-3.3488-0.19757l-3.3488-1.0628 3.419 6.7018c1.8804 3.686 6.1236 9.7699 9.4292 13.52l6.0102 6.8181-7.2966-6.3496c-6.1813-5.3791-19.027-22.59-21.669-29.032-1.2921-3.1505-4.2212 2.3341-4.249 7.9562-0.01617 3.2574-2.078 7.639-5.9082 12.555-4.8445 6.2182-6.0718 9.372-6.9505 17.862-0.80317 7.7598-2.1217 11.564-5.3295 15.376-4.3382 5.1556-7.1565 13.567-5.4637 16.306 1.8611 3.0114-2.6782 27.303-8.0646 43.156-12.635 37.187-27.434 96.744-28.6 115.09l-0.51306 8.0759 16.587 5.7065c9.1226 3.1386 17.477 6.6186 18.566 7.7334 3.0243 3.0971 0.26188 2.512-17.169-3.6371-18.114-6.3898-20.931-5.886-20.092 3.5927 0.44745 5.0524 1.2839 5.837 10.216 9.5835 30.404 12.752 51.109 17.245 80.428 17.453l23.677 0.16749 6.7304 6.0805c9.0442 8.1709 15.472 8.0151 16.727-0.40537l0.60447-4.0536 2.2751 4.0536c1.2513 2.2295 2.781 6.6074 3.3993 9.7288s1.6348 7.864 2.2588 10.539c1.0735 4.6024 0.99856 4.6961-1.3913 1.7398-3.2788-4.0558-3.9366-3.209-6.696 8.6194-1.2674 5.4331-3.7738 14.24-5.5698 19.571-4.0402 11.993-4.3382 32.064-0.69196 46.603l2.5734 10.261-5.2314 16.184c-6.3889 19.765-6.072 29.283 1.5263 45.831 6.1196 13.328 6.5509 23.464 1.5783 37.102l-3.4659 9.5056 3.3508 10.207c2.9312 8.9291 3.3611 14.365 3.4326 43.409 0.05748 23.346 0.85166 37.26 2.6753 46.874 3.8138 20.105 2.5462 19.069 22.265 18.192 20.49-0.91129 45.425 1.8081 65.114 7.1012 42.504 11.427 53.772 13.796 82.78 17.404 10.641 1.3236 42.342 0.99855 57.22-0.58671zm-95.325-64.802c-1.9567-1.2645-1.7003-1.5767 1.3118-1.5966 2.0878-0.01386 3.3007 0.69245 2.7418 1.5966-1.205 1.9498-1.0365 1.9498-4.0536 0zm-12.566-3.4355c-2.8984-0.83686-5.2697-1.9235-5.2697-2.4148 0-1.2956 10.259 1.0639 12.08 2.7782 1.8857 1.7759 0.30718 1.6916-6.8101-0.36342zm-18.797-7.0225c-8.7956-3.6164-15.631-7.7632-8.3623-5.073 1.7836 0.66012 6.5264 2.3071 10.539 3.6599s7.9897 3.118 8.8369 3.9225c2.5667 2.4374-0.90858 1.6456-11.014-2.5094zm266.47-14.194c8.1457-7.9325 21.447-19.433 19.43-16.8-3.2992 4.3068-15.957 16.001-19.206 17.743-2.3551 1.2631-2.3805 1.1561-0.22401-0.9439zm-11.35-14.263c0.95455-1.7836 2.1004-3.2429 2.5463-3.2429s0.02972 1.4593-0.92482 3.2429-2.1004 3.2429-2.5463 3.2429-0.02973-1.4593 0.92483-3.2429zm-320.24 0c-0.55116-0.89179-0.27245-1.6214 0.61935-1.6214s2.0724 0.72966 2.6236 1.6214 0.27245 1.6215-0.61934 1.6215-2.0724-0.72966-2.6236-1.6215zm183.14-12.067c-47.586-32.592-100.32-88.718-140.23-149.26-15.667-23.764-34.543-58.534-33.397-61.518 0.36569-0.95234 2.1606 1.5519 3.9888 5.565 10.822 23.756 41.815 71.155 67.855 103.77 31.001 38.833 75.636 80.972 107.97 101.94 6.0079 3.8949 10.923 7.3608 10.923 7.7019 0 2.2875-5.9856-0.58173-17.114-8.2035zm173.81 1.5272c0.51333-1.3377 1.6742-2.4322 2.5798-2.4322 0.94905 0 0.79148 1.0303-0.37201 2.4322-1.1102 1.3377-2.2711 2.4322-2.5798 2.4322s-0.14131-1.0945 0.37201-2.4322zm6.2615-7.2966c1.6142-1.7836 3.2996-3.2429 3.7455-3.2429s-0.50993 1.4593-2.1241 3.2429-3.2996 3.2429-3.7455 3.2429 0.50993-1.4593 2.1241-3.2429zm-29.242-4.459c1.4143-2.8983 2.9175-5.2697 3.3405-5.2697 1.6125 0 0.57406 2.583-2.6075 6.4858l-3.3045 4.0536 2.5714-5.2698zm-268.55-21.228c-14.739-16.434-47.686-69.406-58.147-93.49-1.5496-3.5672-4.6683-10.499-6.9305-15.404-5.355-11.611-12.522-30.69-12.406-33.028 0.04983-1.0086 1.377 1.0849 2.9494 4.6521 26.471 60.056 54.516 111.1 73.585 133.94 10.748 12.872 11.326 14.898 0.94985 3.3277zm241.85 7.2392c0-0.3367 1.1112-1.5344 2.4693-2.6615 2.0647-1.7135 2.3019-1.6132 1.448 0.61219-0.87217 2.2728-3.9173 3.8659-3.9173 2.0493zm35.672-0.91357c0-0.83916 0.7213-1.9716 1.6029-2.5164 0.91914-0.56806 1.191 0.08279 0.63724 1.5258-1.0779 2.809-2.2401 3.323-2.2401 0.99064zm6.4858-11.35c0-0.83916 0.72131-1.9716 1.6029-2.5164 0.91914-0.56807 1.191 0.08278 0.63724 1.5258-1.0779 2.809-2.2401 3.323-2.2401 0.99065zm14.593-25.943c0-0.83918 0.7213-1.9716 1.6029-2.5164 0.91914-0.56806 1.191 0.08279 0.63725 1.5258-1.0779 2.809-2.2401 3.323-2.2401 0.99065zm8.1073-15.905c0-0.77399 1.0582-2.8236 2.3515-4.5547 2.2687-3.0366 2.3189-3.018 1.4258 0.52608-0.92239 3.66-3.7773 6.7049-3.7773 4.0286zm-7.9793-82.154c-0.07041-1.7093 0.31283-2.667 0.85162-2.1282s0.59639 1.9373 0.128 3.1078c-0.51761 1.2935-0.90182 0.90929-0.97962-0.97963zm-389.72-48.948c-0.65028-0.65027-1.1601-2.7024-1.133-4.5604 0.04553-3.119 0.17865-3.1558 1.7362-0.47939 1.8138 3.1166 1.3498 6.9928-0.6032 5.0397zm426.18-34.523c-1.2693-2.0537 3.7847-3.6834 7.6342-2.4616 2.5639 0.81374 2.7672 1.317 0.98767 2.4441-2.9196 1.8491-7.4842 1.8584-8.6219 0.01745zm-441.46-15.173c-10.177-33.552-15.407-59.75-15.455-77.42-0.00838-3.1213-0.67764-12.242-1.4872-20.268-3.6726-36.41-5.3422-81.737-3.6432-98.909 1.2977-13.116 1.5524-10.162 2.5167 29.186 0.59013 24.079 1.8684 49.252 2.8405 55.94s2.4134 22.887 3.2029 35.998c1.3771 22.868 5.1125 43.95 11.578 65.343 3.1461 10.41 5.5582 21.893 4.5971 21.885-0.32219-0.00277-2.1898-5.2928-4.1502-11.756zm469.87 6.4374c0.37158-0.25235 2.1349-1.5292 3.9185-2.8376 2.9997-2.2003 3.076-2.1659 1.0176 0.45883-1.224 1.5606-2.9873 2.8375-3.9185 2.8375s-1.3891-0.20648-1.0176-0.45882zm10.428-9.3157c2.9524-5.7093 5.0449-7.1164 6.1809-4.1561 1.0923 2.8464-2.4732 7.8747-5.945 8.3843-2.363 0.34681-2.3863-0.06974-0.23585-4.2282zm-43.546-23.465c0.55618-14.269 1.5527-40.536 2.2144-58.372 0.92634-24.967 1.0357-20.304 0.47522 20.268-0.40038 28.984-1.3969 55.251-2.2144 58.372-0.96652 3.6901-1.1328-3.3994-0.47524-20.268zm12.091-73.776c0.07523-1.3377 0.72099-4.2563 1.435-6.4858l1.2982-4.0536 0.1368 4.0536c0.07525 2.2295-0.5705 5.1481-1.435 6.4858-1.3972 2.1619-1.5566 2.1619-1.435 0zm4.9339-17.836c0-2.2295 0.36804-3.1416 0.81784-2.0268s0.44982 2.9389 0 4.0536-0.81784 0.20269-0.81784-2.0268zm-14.593-42.158c0-2.2295 0.36804-3.1416 0.81784-2.0268s0.44982 2.9389 0 4.0536-0.81784 0.20269-0.81784-2.0268zm29.058-21.755c-0.07041-1.7093 0.31282-2.667 0.85162-2.1282s0.59639 1.9373 0.128 3.1078c-0.51761 1.2935-0.90183 0.90928-0.97962-0.97964zm-26.071-12.76c0-7.6885 3.0342-14.129 6.6564-14.129 2.6242 0 2.5024 0.86607-1.3116 9.3234-5.3251 11.808-5.3448 11.826-5.3448 4.8055zm3.3709-19.669c-0.0704-1.7093 0.31283-2.667 0.85162-2.1282s0.59639 1.9373 0.128 3.1078c-0.51759 1.2935-0.90182 0.90928-0.97962-0.97963zm10.411-0.94585c1.6141-1.7836 3.2996-3.2429 3.7455-3.2429s-0.50994 1.4593-2.1241 3.2429-3.2996 3.2429-3.7455 3.2429 0.50995-1.4593 2.1241-3.2429zm-478.59-2.9586c-2.8161-2.3859-7.148-5.7518-9.6265-7.4798-2.8561-1.9913-3.7435-3.3961-2.4234-3.8362 1.1456-0.38185 4.2506 0.90843 6.9002 2.8673 5.9458 4.3959 8.6878 3.5085 10.039-3.2491 1.8155-9.0773 1.1254-29.03-1.1912-34.445-5.611-13.114-18.721-18.527-20.492-8.4606-0.47054 2.6754-1.3599 4.0663-1.9764 3.0908-1.6956-2.683 0.55257-13.799 2.9792-14.73 2.0594-0.79027 11.79 6.1146 19.328 13.714 5.0032 5.0446 8.1911 21.865 5.7858 30.528-0.96384 3.4713-1.8078 9.595-1.8754 13.608s-0.61896 8.519-1.2251 10.013c-0.96951 2.3896-1.7182 2.1945-6.2223-1.6214zm485.07-5.1487c1.6142-1.7836 3.2996-3.2429 3.7455-3.2429s-0.50993 1.4593-2.1241 3.2429-3.2996 3.2429-3.7455 3.2429 0.50993-1.4593 2.1241-3.2429zm12.508-5.2574c-2.1828-2.6302 3.1186-10.392 5.9167-8.6625 2.7203 1.6812 2.2463 4.9458-1.1665 8.0344-2.4301 2.1992-3.3458 2.3203-4.7502 0.62812zm9.3821-10.748c0-0.90746 1.7662-3.6972 3.9248-6.1994l3.9248-4.5494-1.1517 5.6653c-0.70066 3.4464-2.2379 5.8745-3.9248 6.1994-1.5252 0.29374-2.7731-0.20841-2.7731-1.1159zm9.7288-13.935c0-1.6963 6.5112-12.217 7.561-12.217 0.44591 0-0.8348 2.7362-2.846 6.0805-4.4801 7.4496-4.715 7.7554-4.715 6.1367zm-21.991-2.6518c-0.64782-1.0482-3.1969-1.3837-6.1762-0.813-3.638 0.6969-4.385 0.52079-2.6409-0.62253 3.5295-2.3137 7.4157-1.9988 9.7287 0.78816 1.1102 1.3377 1.6074 2.4322 1.105 2.4322s-1.41-0.80316-2.0166-1.7848zm-195.15-53.936c0.3716-0.32511 2.4998-1.4598 4.7293-2.5216 3.8222-1.8203 3.874-1.7866 0.90619 0.59109-2.583 2.0694-7.8606 3.8774-5.6355 1.9306zm17.701-9.7498c0-0.3367 1.2769-1.6136 2.8376-2.8376 2.5717-2.0169 2.6291-1.9595 0.61219 0.61219-2.1182 2.7009-3.4497 3.5599-3.4497 2.2254zm-73.352-8.6419c2.0169-0.38784 4.9356-0.37312 6.4858 0.03272s-0.09998 0.72317-3.6672 0.70517-4.8356-0.35005-2.8186-0.73789zm18.222-2.0961c0-0.8918 1.6417-1.6103 3.6483-1.5966 2.9501 0.02008 3.1828 0.32561 1.2161 1.5966-3.1436 2.0316-4.8644 2.0316-4.8644 0zm68.101-0.61219c0-0.3367 1.2769-1.6136 2.8376-2.8376 2.5717-2.0169 2.6291-1.9595 0.6122 0.61219-2.1182 2.7009-3.4498 3.5599-3.4498 2.2254zm6.4858-6.4858c0-0.33671 1.2769-1.6136 2.8375-2.8376 2.5717-2.0169 2.6291-1.9595 0.6122 0.61219-2.1182 2.7009-3.4497 3.5599-3.4497 2.2254zm8.1073-10.738c1.905-2.6754 3.8286-4.8644 4.2745-4.8644s-0.74796 2.189-2.653 4.8644-3.8286 4.8644-4.2745 4.8644 0.74796-2.189 2.653-4.8644zm11.48-17.836c2.3638-4.9633 3.1127-5.8832 3.1127-3.8231 0 0.86999-1.1347 2.9982-2.5216 4.7292-2.3777 2.9678-2.4114 2.916-0.59109-0.90618z" fill="#858585"/>
  <path d="m318.96 926.7c-0.47008-0.47007-8.4738-1.9376-17.786-3.2612s-26.417-5.0598-38.01-8.3028-25.092-7.0151-29.997-8.3825c-6.4961-1.811-18.255-2.579-43.3-2.8281-23.938-0.23807-35.095-0.93395-36.73-2.291-2.64-2.191-6.7591-18.007-9.1296-35.054-0.86806-6.2426-1.5927-25.672-1.6104-43.176-0.02479-24.564-0.58707-33.154-2.4643-37.647-3.3276-7.9641-3.0501-17.209 0.81073-27.004 4.375-11.099 4.093-16.244-1.497-27.318-9.1787-18.183-9.5769-32.486-1.5772-56.644 3.0527-9.2187 3.1709-10.989 1.2454-18.647-1.1702-4.6536-2.0828-16.487-2.0281-26.297 0.08456-15.163 0.72802-19.459 4.2934-28.663 2.3066-5.9548 4.6946-14.166 5.3066-18.247l1.1127-7.4199-6.2654-2.5775c-3.446-1.4176-8.0895-4.2468-10.319-6.287-3.7276-3.4111-6.0098-3.7867-28.376-4.6692-29.148-1.1502-49.294-5.2976-72.155-14.854-4.9049-2.0504-12.061-4.5676-15.903-5.5939l-6.9851-1.866 0.69653-18.959c1.2591-34.272 11.504-79.242 31.946-140.23 3.5531-10.601 4.9986-18.498 5.639-30.808 0.75685-14.549 1.4216-17.457 5.4888-24.014 2.8008-4.5154 5.0647-10.959 5.7347-16.322 0.6089-4.8735 2.7131-11.299 4.676-14.279s4.842-7.3098 6.3979-9.6218 2.8327-6.0279 2.8372-8.2574c0.01408-6.9886 8.1539-32.672 14.72-46.447 12.064-25.308 28.981-38.515 55.822-43.582 15.037-2.8382 23.492-5.1392 50.325-13.695 38.938-12.416 56.872-19.999 85.877-36.313l9.7287-5.472 9.2531 4.6413c12.38 6.2098 30.746 12.259 46.193 15.215 32.572 6.2329 100.29-0.07849 122.15-11.385 5.6457-2.9195 7.3521-2.3232 22.62 7.9057 13.728 9.197 25.706 14.191 72.998 30.433 40.45 13.893 57.751 20.944 68.692 27.995 11.424 7.3624 24.747 21.954 29.393 32.19 5.4574 12.026 16.626 56.6 19.232 76.759 1.6856 13.036 2.9914 17.828 5.6211 20.627 5.8902 6.2699 8.7475 16.915 7.5759 28.225-0.97496 9.4111-0.34602 12.202 9.501 42.158 13.494 41.051 20.503 63.976 27.902 91.263 3.2644 12.039 6.5848 23.157 7.3786 24.705 4.0758 7.9512 0.65878 12.045-15.664 18.768-19.888 8.1907-43.722 14.994-66.135 18.878-12.739 2.2075-15.148 3.2025-21.691 8.962-8.4875 7.471-15.193 9.7384-28.838 9.751l-9.7299 0.00906-0.22498 36.888c-0.19412 31.828-0.76084 39.599-4.1312 56.653l-3.9063 19.765 4.0256 7.8001c7.764 15.044 4.2867 44.485-8.1512 69.017-3.0381 5.9921-3.0372 6.2374 0.05755 15.664 4.6886 14.282 7.1266 37.935 6.38 61.896-0.80373 25.797-1.2582 26.447-19.464 27.853-19.344 1.4938-37.419 6.9826-79.977 24.287-37.654 15.31-59.56 21.788-87.444 25.859-12.303 1.7961-80.722 3.6671-82.142 2.2463zm86.892-12.901c23.891-4.5341 45.23-10.818 67.291-19.815 48.715-19.868 70.807-26.935 91.108-29.145 5.6284-0.61258 11.146-1.8377 12.26-2.7225 2.5564-2.0291 2.7591-34.422 0.32892-52.576-1.9138-14.296-5.921-28.087-8.1612-28.087-2.5432 0-1.6701-4.1624 3.1145-14.847 5.9662-13.324 11.091-29.429 12.353-38.819 1.2686-9.4396-1.5585-22.285-5.9283-26.936-3.6651-3.9013-3.6654-3.8935 0.99848-29.131 6.359-34.411 7.1788-79.208 1.6537-90.36-2.9402-5.9348-2.9653-10.832-0.07575-14.784 1.8604-2.5442 2.6902-2.7265 4.7247-1.038 3.6037 2.9908 23.764 4.3116 30.728 2.0132 3.1951-1.0545 8.8214-5.185 12.503-9.1788s7.3129-6.8788 8.07-6.4109c5.8262 3.6008 82.219-17.724 87.865-24.527 1.6625-2.0032 1.3996-4.467-1.4152-13.261-1.9014-5.9401-6.3519-21.015-9.8899-33.501-8.4315-29.754-19.574-65.341-27.527-87.922-5.695-16.168-6.2353-18.986-4.955-25.839 1.9809-10.603 0.25887-17.85-5.8731-24.715-4.7549-5.3234-5.3029-7.0659-6.2592-19.9-1.2022-16.134-6.8045-42.606-10.137-47.898-1.2437-1.9752-2.2691-5.6234-2.2788-8.1073-0.04012-10.32-6.698-26.239-15.543-37.163-11.072-13.674-26.958-21.728-76.863-38.972-35.594-12.299-69.823-24.704-72.323-26.211-0.9841-0.59342-5.362-3.7971-9.7288-7.1192-8.4506-6.4291-11.751-7.3361-14.972-4.1148-1.1032 1.1032-4.3502 2.0675-7.2155 2.1429s-12.506 1.6898-21.424 3.5876c-46.051 9.7999-91.752 8.0856-126.2-4.7336-7.2874-2.7122-14.844-5.0983-16.793-5.3024s-4.7407-1.3653-6.2048-2.5804c-2.2725-1.886-3.5267-1.7499-8.571 0.93002-3.2499 1.7266-9.0375 5.5107-12.861 8.409s-7.8803 5.2697-9.0144 5.2697-7.9572 2.4863-15.163 5.5251c-20.891 8.8107-76.266 26.39-94.728 30.072-21.198 4.2278-31.743 9.3048-41.22 19.846-8.2808 9.2103-18.585 29.159-19.821 38.373-0.48298 3.6009 0.23205 8.5076 1.7794 12.211 2.3326 5.5828 2.3375 6.0956 0.04944 5.2176-4.9056-1.8825-8.7883 1.9337-8.7883 8.6377 0 4.7907-1.527 8.2983-6.4858 14.898-5.5828 7.43-6.4858 9.7786-6.4858 16.869 0 6.6932-0.95987 9.5421-5.1217 15.201-4.6198 6.282-5.2582 8.5934-6.5143 23.587-1.4742 17.598-2.1318 20.382-12.658 53.593-12.803 40.394-24.462 90.469-24.445 104.99 0.00332 2.8963-0.40446 9.0266-0.90619 13.623-0.84549 7.7457-0.63464 8.4333 2.882 9.3995 2.0868 0.57338 7.8074 2.7601 12.712 4.8595 25.491 10.91 54.918 16.368 81.472 15.11l15.803-0.74882 6.3645 6.2388c6.6736 6.5418 13.702 8.2091 17.754 4.212 1.647-1.6245 2.516-1.4021 4.3779 1.1206 2.9116 3.9449 2.8946 8.9337-0.04348 12.811-1.2448 1.6429-2.7695 6.0208-3.3881 9.7287s-2.9184 11.734-5.1107 17.835c-3.6502 10.159-3.9152 12.754-3.1462 30.808 0.46185 10.843 1.3158 22.706 1.8977 26.363 0.79513 4.9968-0.04586 10.032-3.3851 20.268-6.1786 18.94-5.8581 28.231 1.5555 45.093 6.7195 15.283 7.2486 22.337 2.5941 34.584-3.8777 10.202-4.052 15.117-0.81155 22.873 1.8603 4.4523 2.4333 12.791 2.4368 35.465 0.00465 30.094 1.7388 50.853 5.4622 65.384l2.06 8.0394 9.6137-0.15821c15.98-0.263 55.549 2.4808 63.64 4.4129 4.174 0.9968 16.081 4.2348 26.459 7.1956 17.977 5.1284 46.625 11.103 60.581 12.634 14.035 1.5396 73.218-0.39446 85.937-2.8084zm226.5-375.67c0.39018-1.1705 1.6671-2.4474 2.8376-2.8376 1.2161-0.40536 1.8241 0.20268 1.4188 1.4188-0.39017 1.1705-1.667 2.4474-2.8376 2.8376-1.2161 0.40536-1.8241-0.2027-1.4188-1.4188zm-37.546-197.11c-0.02837-1.8974 1.0429-4.3581 2.3806-5.4683 3.3198-2.7552 3.357 1.4004 0.05157 5.7706-2.3339 3.0857-2.3816 3.0798-2.4322-0.30229zm-464.58-18.413c-1.1959-1.935 0.32198-4.8908 2.5115-4.8908 1.973 0 1.9858 4.3887 0.01634 5.6058-0.83018 0.51309-1.9677 0.19131-2.5279-0.71503zm497.23-13.096c0.298-2.036 1.5153-4.0227 2.7051-4.4148 1.4698-0.48444 1.9896 0.4736 1.6215 2.9889-0.298 2.036-1.5153 4.0227-2.7051 4.4148-1.4699 0.48445-1.9896-0.47359-1.6215-2.9889zm9.4598-9.2973c0-0.85693 1.1786-2.5362 2.6192-3.7318 2.266-1.8806 2.5393-1.7616 2.0268 0.8832-0.61071 3.1515-4.646 5.6256-4.646 2.8486zm-525.35-40.87c0-0.89181 1.0945-1.6215 2.4322-1.6215s2.4322 0.72965 2.4322 1.6215-1.0945 1.6214-2.4322 1.6214-2.4322-0.72966-2.4322-1.6214zm319.43-71.895c0-1.1946 1.8584-3.0187 4.1299-4.0536 6.1025-2.7805 6.5879-2.3329 2.3559 2.1719-4.2336 4.5065-6.4858 5.1599-6.4858 1.8817zm-115.93-4.3139c-2.3297-2.5743-2.4484-3.2429-0.5756-3.2429 2.5432 0 6.2507 3.0775 6.2507 5.1887 0 2.2975-2.6605 1.3854-5.6751-1.9458z" fill="#939393"/>
  <path d="m323.97 925.93c-1.3377-0.74474-6.9452-1.8009-12.461-2.347-14.558-1.4414-32.74-5.352-54.335-11.686-30.671-8.9967-45.269-10.942-75.476-10.059-18.207 0.5323-26.79 0.21427-27.802-1.0301-5.764-7.0909-9.836-38.728-9.9361-77.198-0.06696-25.717-0.611-34.157-2.4038-37.294-3.3746-5.9033-2.9959-19.482 0.77512-27.793 4.4203-9.7415 4.076-16.12-1.4621-27.091-2.6074-5.1651-5.6576-13.831-6.7784-19.257-2.2543-10.914-0.90005-20.507 5.3834-38.134 3.0283-8.4953 3.1231-9.9906 1.0795-17.025-1.4224-4.8964-2.1644-14.816-2.0324-27.17 0.18325-17.141 0.72164-20.679 4.5221-29.715 2.3744-5.6454 4.468-13.951 4.6564-18.473 0.32561-7.8166 0.10582-8.2923-4.5221-9.7889-2.6754-0.86516-7.4182-3.5646-10.539-5.9988-5.4605-4.2584-6.6254-4.4637-30.808-5.4286-19.688-0.7856-28.469-1.9108-40.536-5.1939-8.4721-2.3051-17.593-4.7716-20.268-5.4812s-7.4182-2.6166-10.539-4.2379-9.3234-3.7589-13.782-4.7502l-8.1073-1.8023-0.47409-14.537c-0.26075-7.9956 0.20179-16.007 1.0278-17.802s2.3907-9.102 3.4769-16.236c3.3706-22.138 14.829-66.429 25.38-98.098 8.2632-24.804 9.5405-31.811 10.221-56.068 0.05199-1.8536 2.1897-6.5964 4.7504-10.539 2.9318-4.5144 5.0012-10.289 5.5884-15.595 0.94817-8.5672 2.9685-13.177 10.093-23.027 2.2338-3.0886 3.9847-7.7664 3.9847-10.646 0-7.141 10.27-38.114 16.535-49.869 12.108-22.718 26.848-32.811 56.431-38.646 19.658-3.8769 83.007-24.529 101.62-33.129 6.965-3.218 18.207-9.1006 24.981-13.072s13.514-7.2213 14.977-7.2213 7.9655 2.4774 14.451 5.5054c24.101 11.253 45.398 15.573 76.773 15.573 32.706 4e-4 72.053-6.2467 86.545-13.741 5.7196-2.9577 5.5567-3.0181 24.53 9.0953 12.929 8.2542 29.849 15.118 75.269 30.536 34.332 11.654 53.888 19.71 64.639 26.63 11.212 7.2166 23.117 20.327 27.815 30.631 5.4962 12.054 18.142 63.144 19.509 78.822 0.9722 11.145 1.8885 14.159 5.8018 19.083 6.2027 7.8051 8.4395 16.851 7.1483 28.908-0.87616 8.1814-0.36669 11.77 3.0026 21.148 7.0335 19.578 20.229 61.853 31.109 99.665 5.7736 20.066 11.259 37.83 12.19 39.476 1.2871 2.2764 1.0316 3.7228-1.0674 6.0422-6.0818 6.7203-55.858 22.918-84.476 27.49-8.6902 1.3883-12.074 2.8287-16.911 7.1985-9.2027 8.314-12.484 9.5745-27.401 10.527l-13.771 0.87901-0.17334 37.294c-0.13178 28.35-0.84417 40.599-2.9707 51.076-4.7478 23.392-4.8611 26.352-1.2772 33.377 7.5177 14.736 6.0687 34.415-4.4818 60.869l-6.2236 15.605 2.9079 8.8143c4.6144 13.987 6.9104 35.986 6.2864 60.232-0.65269 25.36-1.4621 27.027-13.116 27.027-16.787 0-39.361 6.5782-83.938 24.46-42.406 17.011-69.948 24.739-96.124 26.969-6.0485 0.51531-11.382 1.5588-11.851 2.3188-1.1016 1.7825-54.202 1.717-57.414-0.07078zm87.559-11.394c28.831-5.9606 43.276-10.563 74.693-23.798 34.565-14.562 59.885-22.272 79.818-24.308 8.1505-0.83218 11.415-1.8791 12.566-4.0299 2.0659-3.8601 1.9865-38.541-0.12468-54.483-0.92385-6.976-3.2164-17.155-5.0946-22.62l-3.4148-9.9368 5.9813-13.926c11.529-26.843 13.199-48.036 4.7648-60.465-3.1423-4.6305-3.8426-7.1834-3.0204-11.011 9.5589-44.505 11.068-81.843 4.6835-115.86l-1.0289-5.4817 11.16 1.2612c20.153 2.2775 28.745-0.01884 38.501-10.29 3.5029-3.6879 6.6829-5.1619 12.972-6.0125 19.822-2.681 45.869-9.4565 66.704-17.351 19.36-7.3356 19.015-6.7392 13.817-23.889-1.7645-5.8219-5.4588-18.611-8.2097-28.421-6.6344-23.659-16.22-54.536-26.139-84.202-7.2614-21.717-7.9847-25.154-7.0283-33.394 1.3574-11.695-1.1272-20.956-7.0342-26.22-4.2642-3.7994-4.7066-5.2986-5.7048-19.331-1.0222-14.37-7.3311-43.636-10.807-50.129-0.87545-1.6358-1.5917-4.8046-1.5917-7.0417s-1.9478-9.3223-4.3284-15.745c-6.5619-17.703-18.933-30.153-40.149-40.406-8.98-4.3395-26.178-11.267-38.217-15.395-65.394-22.422-78.5-27.759-94.903-38.647-7.6667-5.0891-9.9892-5.9238-12.769-4.5896-14.617 7.0159-56.565 13.242-89.212 13.242-32.698-3.7e-4 -55.637-4.5126-79.575-15.653-4.459-2.0751-9.7381-3.7801-11.731-3.7888-3.2435-0.01418-16.76 7.1125-23.13 12.195-3.6074 2.8785-41.355 17.272-67.29 25.659-29.333 9.485-37.744 11.812-53.469 14.792-24.619 4.6662-38.649 15.457-50.002 38.457-3.2153 6.5138-7.0208 16.951-8.4566 23.194s-3.2895 12.043-4.1193 12.891-1.5087 4.57-1.5087 8.2729c0 6.4639-0.67717 7.8264-10.521 21.168-1.3865 1.8793-3.104 8.2599-3.8166 14.179-0.9405 7.8122-2.3258 11.859-5.0542 14.763-3.1562 3.3596-3.9962 6.6746-5.2407 20.682-1.6061 18.076-2.347 21.191-13.419 56.407-8.5228 27.108-15.534 53.856-20.187 77.019-3.5549 17.694-6.4788 43.815-5.384 48.096 0.37911 1.4824 3.722 3.7994 7.4286 5.1487l15.804 5.7496c27.925 10.154 36.883 11.877 65.172 12.533l27.215 0.63125 5.6734 5.6734c4.9605 4.9604 6.6853 5.6734 13.727 5.6734 4.4293 0 8.0525 0.54723 8.0515 1.2161-0.00462 3.2771-8.6459 35.67-10.473 39.261-3.2994 6.4831-4.505 27.055-2.3314 39.785 2.9138 17.066 2.5429 22.888-2.5285 39.686-5.3751 17.804-4.8521 23.685 3.8746 43.568 5.8139 13.246 6.1781 19.779 1.7318 31.059-3.703 9.3946-4.1595 18.064-1.2224 23.212 1.3778 2.415 2.3338 16.179 3.0053 43.267 0.99512 40.146 3.8865 62.917 8.6058 67.775 1.5691 1.6152 4.279 1.7498 11.638 0.57768 10.822-1.7238 47.072 0.16119 59.851 3.1122 4.4623 1.0305 16.869 4.2996 27.571 7.2647 19.495 5.4016 47.834 11.38 59.994 12.657 3.5672 0.37449 22.173 0.48674 41.347 0.2494 28.242-0.34957 38.094-1.0999 51.887-3.9514z" fill="#676767"/>
  <path d="m334.61 925.92c-0.49693-0.80406-5.4652-1.9347-11.041-2.5126-18.04-1.8697-38.984-5.6781-53.916-9.8039-50.551-13.967-43.987-12.913-80.639-12.946l-33.617-0.02976-1.498-4.0536c-3.1489-8.5209-3.7388-10.931-5.9526-24.322-1.4289-8.643-2.2891-26.255-2.3069-47.23-0.02201-26.013-0.56893-34.741-2.4605-39.268-3.3276-7.9641-3.0501-17.209 0.81074-27.004 4.3586-11.058 4.0928-16.23-1.398-27.206-5.9722-11.938-8.9749-24.819-7.7941-33.433 0.5141-3.7508 2.8477-12.875 5.1858-20.277 3.9415-12.477 4.0981-14.065 2.1505-21.806-1.1553-4.5917-2.0435-16.375-1.9737-26.185 0.10721-15.07 0.76703-19.475 4.2545-28.404 5.1892-13.286 7.1049-25.136 4.5592-28.203-1.0309-1.2421-3.8112-2.7445-6.1786-3.3387s-6.608-3.103-9.4236-5.5751c-5.0022-4.392-5.7088-4.5185-30.896-5.5323-25.048-1.0082-28.492-1.5898-58.377-9.8573-4.5532-1.2596-11.137-3.7486-14.631-5.5311s-9.8014-3.7581-14.016-4.3901l-7.6639-1.1493v-10.981c0-6.5869 0.96922-12.839 2.4222-15.625 1.3322-2.5544 2.4267-6.7894 2.4322-9.4111 0.02828-13.494 19.15-89.002 30.652-121.04 3.9246-10.932 6.6203-26.659 6.6452-38.77 0.01263-6.1495 1.0159-10.428 3.2318-13.782 1.7674-2.6754 3.9185-5.9589 4.7803-7.2966s2.0212-6.6431 2.5765-11.79c0.7839-7.2647 2.2768-11.018 6.6748-16.779 3.8743-5.0756 6.1095-10.152 7.0709-16.059 5.2282-32.123 20.019-61.675 36.929-73.784 9.5864-6.8646 14.829-8.7006 44.05-15.427 37.756-8.691 89.525-27.798 114.79-42.367 8.2414-4.7521 16.106-8.6402 17.477-8.6402s6.6672 2.1052 11.77 4.6782c22.299 11.245 47.274 16.413 79 16.348 32.83-0.06761 63.941-4.6078 82.25-12.003 11.104-4.4849 10.411-4.6458 26.331 6.1138 12.666 8.5604 26.551 14.298 73.276 30.281 74.607 25.52 91.82 38.074 101.17 73.789 1.8642 7.118 5.2019 19.874 7.4171 28.346s5.0184 23.284 6.2294 32.916c1.856 14.763 2.8277 18.138 6.1883 21.499 5.5438 5.5438 8.2197 16.248 6.9356 27.744-0.9345 8.3667-0.2948 11.69 5.5644 28.911 8.8088 25.89 17.573 54.139 30.138 97.14 5.7091 19.538 10.726 35.87 11.149 36.293 1.3884 1.3884-6.586 6.6171-15.502 10.164-21.256 8.4572-48.588 16.006-69.794 19.276-10.387 1.6016-13.836 3.1382-18.424 8.2072-5.8368 6.4496-12.455 8.8508-26.74 9.7022l-13.782 0.82144-0.13862 37.294c-0.11363 30.576-0.75127 40.575-3.5402 55.515-1.8708 10.022-3.8458 18.94-4.3888 19.819s1.0386 5.8128 3.5146 10.965c8.1868 17.035 5.7604 37.961-8.1464 70.257-2.2653 5.2608-2.2282 6.5257 0.42777 14.593 4.8477 14.724 7.0009 34.847 6.3736 59.564-0.65946 25.987-0.77007 26.222-12.361 26.263-16.262 0.05843-46.577 9.062-86.325 25.638-24.725 10.311-48.245 17.875-69.285 22.282-12.776 2.6761-33.976 5.6361-40.489 5.6532-1.9624 0.00516-4.012 0.72786-4.5547 1.606-1.2389 2.0045-35.946 2.1303-37.18 0.13474zm72.056-8.1697c4.0131-0.99899 10.945-2.5928 15.404-3.5419 17.264-3.6746 40.684-11.38 63.632-20.937 38.515-16.039 61.205-23.006 81.848-25.13 6.338-0.65216 11.717-2.1072 12.854-3.4771 2.5934-3.1249 2.5468-42.598-0.06964-58.892-1.0741-6.6885-3.3776-16.253-5.1191-21.254l-3.1663-9.0926 4.6653-10.365c7.7928-17.313 10.543-28.681 10.573-43.704 0.02403-11.989-0.54023-14.863-4.1389-21.079l-4.1667-7.1975 3.757-18.647c4.6473-23.066 6.5606-62.351 4.1433-85.073-1.8817-17.687-1.2257-19.519 6.2384-17.424 7.1342 2.002 21.741 0.92896 27.604-2.0279 3.1069-1.5667 8.2028-5.2393 11.324-8.1613 4.2345-3.9641 7.7332-5.5802 13.782-6.3664 24.436-3.1758 74.637-18.385 82.263-24.923 2.8102-2.4095 2.7462-5.3687-0.32289-14.927-0.71588-2.2295-2.1069-6.9723-3.0911-10.539-7.6448-27.708-21.192-71.701-32.704-106.21-7.0943-21.262-7.7542-24.488-6.899-33.727 1.0891-11.766-1.5329-21.807-6.7833-25.979-2.7476-2.1829-3.8409-5.9265-5.53-18.935-1.8527-14.269-7.1777-39.071-11.488-53.508-0.79876-2.6754-2.2987-8.1478-3.3332-12.161-4.6251-17.942-14.455-31.244-31.211-42.234-11.841-7.7662-25.934-13.624-66.73-27.733-46.862-16.208-46.302-16.005-55.907-20.252-4.8275-2.1343-13.742-7.1515-19.811-11.149s-12.129-7.2688-13.468-7.2688-7.747 1.7024-14.24 3.7832-17.278 4.6785-23.967 5.7727-16.113 2.6753-20.944 3.5134c-13.749 2.3855-54.465 1.8604-67.425-0.86954-20.949-4.4126-30.737-7.4043-42.732-13.062-6.5581-3.0931-12.92-5.6239-14.138-5.6239s-8.621 3.7939-16.452 8.4308-19.345 10.543-25.588 13.125c-21.348 8.8294-82.676 28.355-98.098 31.232-35.585 6.639-49.924 20.098-63.425 59.537-3.4273 10.012-6.2464 21.196-6.2646 24.854-0.02225 4.4618-1.3499 8.4651-4.033 12.161-2.1999 3.0302-5.2465 7.2185-6.7702 9.3072s-3.0921 7.926-3.4854 12.972c-0.47272 6.0652-1.9334 10.822-4.3105 14.038-5.3524 7.2413-7.3775 14.63-7.3775 26.917 0 11.486-1.5375 18.39-9.5323 42.806-14.893 45.482-24.433 85.867-27.852 117.9-2.1765 20.393-1.3966 23.976 5.218 23.976 1.7099 0 6.1809 1.5727 9.9356 3.4949s9.0156 4.0608 11.691 4.7524 11.431 3.194 19.457 5.5607c12.245 3.6109 19.112 4.4767 42.68 5.3817 24.418 0.93767 28.295 1.4506 29.679 3.9275 2.1095 3.7755 13.157 9.312 18.581 9.312 3.8706 0 4.2187 0.46468 3.3397 4.459-0.53966 2.4524-2.0389 9.3213-3.3316 15.264s-3.6273 13.239-5.1879 16.215c-3.6489 6.9567-4.1995 40.423-0.85432 51.933 1.9477 6.7013 1.8853 8.5371-0.52408 15.404-9.7903 27.903-9.5779 37.204 1.3812 60.493 5.062 10.757 5.1721 13.61 0.98528 25.522-3.9274 11.174-4.1277 20.611-0.61559 29.004 2.2126 5.2875 2.4556 10.118 1.5393 30.6-1.1412 25.511 1.4438 54.129 6.4445 71.344l2.355 8.1073 32.027 0.08284c29.451 0.07618 33.331 0.43174 48.241 4.4206 40.181 10.749 52.634 13.81 63.237 15.544 6.2426 1.021 13.174 2.1617 15.404 2.5349 8.2495 1.3808 83.754-0.46303 90.802-2.2174z" fill="#383838"/>
 </g>
</svg>
