<?xml version="1.0" encoding="UTF-8"?>
<svg version="1.1" viewBox="0 0 171.43 509.15" xmlns="http://www.w3.org/2000/svg">
 <defs>
  <filter id="a" x="-.5361" y="-.091281" width="2.0722" height="1.1826" color-interpolation-filters="sRGB">
   <feGaussianBlur stdDeviation="14.215372"/>
  </filter>
 </defs>
 <g transform="translate(-255.21 -248.29)">
  <g transform="translate(240)">
   <path d="m25.714 255.93 21.429-5 24.286-0.7143 25-1.4286 27.143 0.7143 26.89 1.2627 18.99 1.6378 9.1198 3.5281 1.4286 16.429v31.429s3.2339 2.5608 4.2857 4.2857c0.8134 1.334 1.1876 2.9206 1.4286 4.4643 0.24787 1.5879 0.82687 3.4433 0 4.8214-2.0825 3.4708-10.714 5.7143-10.714 5.7143l-25.714 2.1429-25 1.4286-22.857 0.7143h-29.286l-33.571-2.1429s-13.921 0.0428-18.571-4.2857c-2.3705-2.2064-3.5451-6.1212-2.8571-9.2857 0.60908-2.8016 5.7143-6.4286 5.7143-6.4286l1.4286-15z" stroke="#000"/>
   <path d="m64.372 274.95c-1.8045 1.7538-1.1997 4.9071-1.4259 7.4133-0.26755 2.9643 0.08929 8.9286 0.08929 8.9286s-0.1693 5.9635 0.08928 8.9286c0.23984 2.7502-0.68338 6.3058 1.352 8.171 2.2856 2.0944 6.1749 0.60064 9.273 0.71301 3.5096 0.12729 10.536-0.0446 10.536-0.0446l10.536-0.0446 10.536-0.0446 10.536-0.0446 10.536-0.0446s7.0254 0.0614 10.536-0.0446c3.263-0.0986 7.4414 1.73 9.7781-0.54968 1.9737-1.9255 0.57089-5.4893 0.66831-8.2449 0.10305-2.915-0.0893-8.75-0.0893-8.75l-0.0893-8.75s0.69262-5.712-1.0994-7.4873c-2.2769-2.2556-9.5256-1.3073-9.5256-1.3073l-10.536-0.0446-10.536-0.0446-10.536-0.0446-10.536-0.0446-10.536-0.0446s-7.0346-0.32064-10.536-0.0447c-3.0371 0.23937-6.8358-0.65324-9.0204 1.47z" fill="#4d4d4d"/>
   <g stroke="#000">
    <path d="m18.929 320.58-3.2143 373.93s9.4236 4.524 14.286 6.4286c7.8682 3.082 15.796 6.1803 24.033 8.0664 6.3995 1.4653 12.988 2.0404 19.538 2.4821 6.6518 0.44852 13.333 0.22369 20 0.16588 9.2884-0.0805 18.611 0.17044 27.857-0.71429 10.092-0.96561 20.191-2.4393 30-5 6.1212-1.598 12.056-3.9052 17.857-6.4286 3.9879-1.7346 11.602-5.9668 11.602-5.9668l-0.1733-9.7475 3.9286-365.36-8.9286 4.8214-34.821 2.5-43.75 1.6071h-34.286l-35.893-3.2143z" fill="#e2e2e2"/>
    <path d="m15.967 694.67 0.3751 18.867 0.0433 25.252s8.5903 7.0651 13.615 9.2857c4.7011 2.0777 9.957 2.5787 15 3.5714 7.5663 1.4895 22.857 3.5714 22.857 3.5714l25.714 1.4286 6.5586 0.2959-0.13-8.8673-0.5484-11.429h11.263l0.7143 19.834s11.941-0.48387 17.857-1.2627c7.4536-0.9812 14.916-2.214 22.143-4.2857 6.3758-1.8277 12.837-3.8101 18.571-7.1429 4.3014-2.4999 11.551-9.4516 11.551-9.4516l-0.1225-14.12-0.2959-16.464 0.0433-9.9492s-5.9566 2.995-9.0332 4.2708c-7.2012 2.9864-14.479 5.8968-22.013 7.9005-9.156 2.435-18.558 4.0291-27.987 4.9567-11.376 1.1191-22.858 0.99331-34.286 0.71428-10.26-0.25052-20.615-0.31704-30.714-2.1428-6.5979-1.1928-12.968-3.4695-19.286-5.7143-7.4485-2.6466-21.89-9.1198-21.89-9.1198z"/>
    <g stroke-linecap="round" stroke-width=".603">
     <path transform="matrix(2.1033 0 0 1.3085 328.46 -40.64)" d="m-71.721 226.56c0 2.7895-16.055 5.0508-35.86 5.0508s-35.86-2.2613-35.86-5.0508 16.055-5.0508 35.86-5.0508 35.86 2.2613 35.86 5.0508z"/>
     <path transform="matrix(1.6175 0 0 1.0063 276.2 27.832)" d="m-71.721 226.56c0 2.7895-16.055 5.0508-35.86 5.0508s-35.86-2.2613-35.86-5.0508 16.055-5.0508 35.86-5.0508 35.86 2.2613 35.86 5.0508z" fill="#4d4d4d"/>
    </g>
   </g>
   <path transform="translate(307.09 84.853)" d="m-184.86 432.13c0 103.21-14.246 186.88-31.82 186.88s-31.82-83.668-31.82-186.88 14.246-186.88 31.82-186.88 31.82 83.668 31.82 186.88z" fill="#aca7a3" filter="url(#a)"/>
  </g>
 </g>
</svg>
