<?xml version="1.0" encoding="UTF-8"?>
<svg version="1.1" viewBox="0 0 177.17 177.17" xmlns="http://www.w3.org/2000/svg" xmlns:xlink="http://www.w3.org/1999/xlink">
 <defs>
  <linearGradient id="an">
   <stop stop-color="#3d414b" stop-opacity="0" offset="0"/>
   <stop stop-color="#2c2f35" offset=".46726"/>
   <stop stop-color="#393d46" stop-opacity=".54181" offset=".73363"/>
   <stop stop-color="#2f343b" stop-opacity="0" offset="1"/>
  </linearGradient>
  <linearGradient id="c">
   <stop stop-color="#444752" offset="0"/>
   <stop stop-color="#5b6070" offset="1"/>
  </linearGradient>
  <pattern id="bj" xlink:href="#bi" patternTransform="matrix(.064857 .035991 -.035991 .064857 206.86 81.212)"/>
  <pattern id="bi" xlink:href="#bh" patternTransform="matrix(.064857 .035991 -.035991 .064857 206.86 81.212)"/>
  <pattern id="bh" width="32.46875" height="11.940611" patternTransform="translate(204 175.01)" patternUnits="userSpaceOnUse">
   <path d="m0.92486 7.031s10.313-9.3691 19.409-5.6602c9.096 3.7088 11.055 4.6128 11.055 4.6128s-10.459 6.1931-16.097 5.3978c-5.6389-0.79529-14.366-4.3504-14.366-4.3504z" fill="none" stroke="#2a2d34" stroke-width="1px"/>
  </pattern>
  <linearGradient id="bk" x1="91.44" x2="91.44" y1="37.529" y2="126.17" gradientUnits="userSpaceOnUse">
   <stop stop-color="#6b7082" offset="0"/>
   <stop stop-color="#646879" stop-opacity=".76471" offset=".061542"/>
   <stop stop-color="#6d7385" stop-opacity=".53293" offset=".20769"/>
   <stop stop-color="#34373f" stop-opacity=".4382" offset=".86665"/>
   <stop stop-color="#434651" offset="1"/>
  </linearGradient>
  <linearGradient id="bl" x1="105.18" x2="105.18" y1="134.11" y2="110.23" gradientTransform="translate(3.2521e-6 3.9011e-6)" gradientUnits="userSpaceOnUse">
   <stop stop-color="#5a6170" stop-opacity="0" offset="0"/>
   <stop stop-color="#383a43" stop-opacity=".99666" offset=".56443"/>
   <stop stop-color="#40444d" stop-opacity="0" offset="1"/>
  </linearGradient>
  <linearGradient id="bm" x1="81.275" x2="30.643" y1="79.27" y2="79.27" gradientTransform="translate(5.1685e-7 5.427e-6)" gradientUnits="userSpaceOnUse">
   <stop stop-color="#484d59" stop-opacity="0" offset="0"/>
   <stop stop-color="#636878" stop-opacity=".41137" offset=".78976"/>
   <stop stop-color="#4a4f59" offset="1"/>
  </linearGradient>
  <linearGradient id="bn" x1="93.692" x2="93.692" y1="39.532" y2="41.354" gradientTransform="matrix(.99131 0 0 1.8888 .44157 -36.26)" gradientUnits="userSpaceOnUse" xlink:href="#an"/>
  <linearGradient id="bo" x1="93.692" x2="93.692" y1="39.231" y2="41.354" gradientTransform="matrix(.99169 0 0 1.8888 .38418 47.669)" gradientUnits="userSpaceOnUse">
   <stop stop-color="#3d414b" stop-opacity="0" offset="0"/>
   <stop stop-color="#2a2d32" offset=".42018"/>
   <stop stop-color="#41454f" stop-opacity=".54181" offset=".73363"/>
   <stop stop-color="#31363d" stop-opacity="0" offset="1"/>
  </linearGradient>
  <linearGradient id="bp" x1="93.692" x2="93.692" y1="39.532" y2="41.354" gradientTransform="matrix(.70569 0 0 1.6778 17.198 -216.65)" gradientUnits="userSpaceOnUse" xlink:href="#an"/>
  <linearGradient id="b" x1="95.078" x2="95.078" y1="39.844" y2="40.38" gradientUnits="userSpaceOnUse">
   <stop stop-color="#686e7f" offset="0"/>
   <stop stop-color="#474b56" offset="1"/>
  </linearGradient>
  <linearGradient id="a" x1="84.275" x2="84.275" y1="123.2" y2="123.74" gradientUnits="userSpaceOnUse">
   <stop stop-color="#4a4e59" offset="0"/>
   <stop stop-color="#34373f" offset="1"/>
  </linearGradient>
  <linearGradient id="bq" x1="148.76" x2="148.76" y1="43.397" y2="41.442" gradientUnits="userSpaceOnUse" xlink:href="#c"/>
  <linearGradient id="br" x1="148.76" x2="148.76" y1="43.397" y2="41.442" gradientTransform="translate(0 44.968)" gradientUnits="userSpaceOnUse" xlink:href="#c"/>
  <linearGradient id="bs" x1="148.76" x2="148.76" y1="43.397" y2="41.442" gradientTransform="translate(0 22.484)" gradientUnits="userSpaceOnUse" xlink:href="#c"/>
  <linearGradient id="bt" x1="148.76" x2="148.76" y1="43.397" y2="41.442" gradientTransform="translate(0 67.452)" gradientUnits="userSpaceOnUse" xlink:href="#c"/>
  <linearGradient id="bu" x1="148.76" x2="148.76" y1="43.397" y2="41.442" gradientTransform="translate(0 11.242)" gradientUnits="userSpaceOnUse" xlink:href="#c"/>
  <linearGradient id="bv" x1="148.76" x2="148.76" y1="43.397" y2="41.442" gradientTransform="translate(0 56.21)" gradientUnits="userSpaceOnUse" xlink:href="#c"/>
  <linearGradient id="bw" x1="148.76" x2="148.76" y1="43.397" y2="41.442" gradientTransform="translate(0 33.726)" gradientUnits="userSpaceOnUse" xlink:href="#c"/>
  <linearGradient id="ap" x1="148.76" x2="148.76" y1="43.397" y2="41.442" gradientTransform="translate(0 78.694)" gradientUnits="userSpaceOnUse" xlink:href="#c"/>
  <linearGradient id="aq" x1="148.76" x2="148.76" y1="43.397" y2="41.442" gradientTransform="translate(0 3.7473)" gradientUnits="userSpaceOnUse" xlink:href="#c"/>
  <linearGradient id="ar" x1="148.76" x2="148.76" y1="43.397" y2="41.442" gradientTransform="translate(0 48.715)" gradientUnits="userSpaceOnUse" xlink:href="#c"/>
  <linearGradient id="as" x1="148.76" x2="148.76" y1="43.397" y2="41.442" gradientTransform="translate(0 26.231)" gradientUnits="userSpaceOnUse" xlink:href="#c"/>
  <linearGradient id="at" x1="148.76" x2="148.76" y1="43.397" y2="41.442" gradientTransform="translate(0 71.199)" gradientUnits="userSpaceOnUse" xlink:href="#c"/>
  <linearGradient id="au" x1="148.76" x2="148.76" y1="43.397" y2="41.442" gradientTransform="translate(0 14.989)" gradientUnits="userSpaceOnUse" xlink:href="#c"/>
  <linearGradient id="av" x1="148.76" x2="148.76" y1="43.397" y2="41.442" gradientTransform="translate(0 59.957)" gradientUnits="userSpaceOnUse" xlink:href="#c"/>
  <linearGradient id="aw" x1="148.76" x2="148.76" y1="43.397" y2="41.442" gradientTransform="translate(0 37.473)" gradientUnits="userSpaceOnUse" xlink:href="#c"/>
  <linearGradient id="ax" x1="148.76" x2="148.76" y1="43.397" y2="41.442" gradientTransform="translate(0 7.4946)" gradientUnits="userSpaceOnUse" xlink:href="#c"/>
  <linearGradient id="ay" x1="148.76" x2="148.76" y1="43.397" y2="41.442" gradientTransform="translate(0 52.462)" gradientUnits="userSpaceOnUse" xlink:href="#c"/>
  <linearGradient id="az" x1="148.76" x2="148.76" y1="43.397" y2="41.442" gradientTransform="translate(0 29.979)" gradientUnits="userSpaceOnUse" xlink:href="#c"/>
  <linearGradient id="ba" x1="148.76" x2="148.76" y1="43.397" y2="41.442" gradientTransform="translate(0 74.946)" gradientUnits="userSpaceOnUse" xlink:href="#c"/>
  <linearGradient id="bb" x1="148.76" x2="148.76" y1="43.397" y2="41.442" gradientTransform="translate(0 18.737)" gradientUnits="userSpaceOnUse" xlink:href="#c"/>
  <linearGradient id="ao" x1="148.76" x2="148.76" y1="43.397" y2="41.442" gradientTransform="translate(0 63.704)" gradientUnits="userSpaceOnUse" xlink:href="#c"/>
  <linearGradient id="bc" x1="148.76" x2="148.76" y1="43.397" y2="41.442" gradientTransform="translate(0 41.22)" gradientUnits="userSpaceOnUse" xlink:href="#c"/>
  <linearGradient id="bd" x1="35.466" x2="35.466" y1="39.816" y2="40.463" gradientUnits="userSpaceOnUse">
   <stop stop-color="#626878" offset="0"/>
   <stop stop-color="#626878" stop-opacity="0" offset="1"/>
  </linearGradient>
  <linearGradient id="be" x1="148.49" x2="148.49" y1="42.814" y2="120.98" gradientUnits="userSpaceOnUse">
   <stop stop-color="#6e7487" stop-opacity=".31438" offset="0"/>
   <stop stop-color="#343740" stop-opacity=".73244" offset="1"/>
  </linearGradient>
  <linearGradient id="bf" x1="134.78" x2="134.78" y1="114.04" y2="117.68" gradientTransform="matrix(1.1079 0 0 1.1079 -8.3178 -18.189)" gradientUnits="userSpaceOnUse">
   <stop stop-color="#bcbcbc" offset="0"/>
   <stop stop-color="#2f323a" offset="1"/>
  </linearGradient>
  <linearGradient id="bg" x1="134.78" x2="134.78" y1="114.51" y2="117.3" gradientTransform="matrix(1.0555 0 0 1.0555 -7.9239 -6.6287)" gradientUnits="userSpaceOnUse">
   <stop stop-color="#787b88" offset="0"/>
   <stop stop-color="#4d505e" offset="1"/>
  </linearGradient>
 </defs>
 <g transform="matrix(.86603 -.5 .5 .86603 -31.532 63.419)">
  <rect x="31.715" y="37.529" width="119.45" height="88.641" ry="1.4286" fill="#474a56"/>
  <rect x="31.715" y="37.529" width="119.45" height="88.641" ry="1.4286" fill="url(#bj)"/>
  <rect x="31.715" y="37.529" width="119.45" height="88.641" ry="1.4286" fill="url(#bk)"/>
  <path d="m151.17 99.061v25.68c0 0.79143-0.63714 1.4286-1.4286 1.4286h-116.59c-0.79143 0-1.4286-0.63714-1.4286-1.4286v-25.68" fill="url(#bl)"/>
  <path d="m101.25 126.17h-68.106c-0.79143 0-1.4286-0.63714-1.4286-1.4286v-85.784c0-0.79143 0.63714-1.4286 1.4286-1.4286h68.106" fill="url(#bm)"/>
  <path d="m33.138 37.662h114.76c0.72096 0 2.2818 0.58998 2.4098 1.2972 0 0-0.0436-0.02157-1.4409 1.2937-1.3771 1.2963-1.5463 1.9286-1.8714 1.9286h-113.86c-0.72097 0-1.3014-0.57856-1.3014-1.2972v-1.925c0-0.71866 0.58042-1.2972 1.3014-1.2972z" fill="url(#bn)" opacity=".66"/>
  <path d="m33.093 121.59 113.26 0.0558c0.72125 3.5e-4 1.1069 0.4253 1.7509 0.74909l0.81227 0.40844c0.30458 0.15315 2.7833 3.3062 0.0354 3.3062h-115.85c-0.72125 0-1.3019-0.57856-1.3019-1.2972v-1.925c0-0.71867 0.58064-1.2978 1.3019-1.2972z" fill="url(#bo)" opacity=".66"/>
  <path transform="rotate(90)" d="m40.7-150.99h81.99c0.63835 0 1.1523 0.5139 1.1523 1.1522v1.7099c0 0.63835-0.51391 1.1523-1.1523 1.1523h-80.08c-0.44862 0-2.0392-1.5601-2.4696-2.0315l-1.1764-1.2884c-0.43043-0.47139 1.0979-0.69452 1.7362-0.69452z" fill="url(#bp)" opacity=".66"/>
  <path d="m39.506 40.432h-1.6043c-0.1662 0-0.29999-0.14337-0.29999-0.32146s0.1338-0.32146 0.29999-0.32146h1.6043c0.1662 0 0.29999 0.14337 0.29999 0.32146s-0.1338 0.32146-0.29999 0.32146" fill="url(#b)"/>
  <path d="m43.254 40.432h-1.6043c-0.1662 0-0.29999-0.14337-0.29999-0.32146s0.1338-0.32146 0.29999-0.32146h1.6043c0.1662 0 0.3 0.14337 0.3 0.32146s-0.1338 0.32146-0.3 0.32146" fill="url(#b)"/>
  <path d="m47.001 40.432h-1.6043c-0.1662 0-0.29999-0.14337-0.29999-0.32146s0.1338-0.32146 0.29999-0.32146h1.6043c0.1662 0 0.29999 0.14337 0.29999 0.32146s-0.1338 0.32146-0.29999 0.32146" fill="url(#b)"/>
  <path d="m50.748 40.432h-1.6043c-0.1662 0-0.29999-0.14337-0.29999-0.32146s0.1338-0.32146 0.29999-0.32146h1.6043c0.1662 0 0.29999 0.14337 0.29999 0.32146s-0.1338 0.32146-0.29999 0.32146" fill="url(#b)"/>
  <path d="m54.495 40.432h-1.6043c-0.1662 0-0.29999-0.14337-0.29999-0.32146s0.1338-0.32146 0.29999-0.32146h1.6043c0.1662 0 0.3 0.14337 0.3 0.32146s-0.1338 0.32146-0.3 0.32146" fill="url(#b)"/>
  <path d="m58.243 40.432h-1.6043c-0.1662 0-0.29999-0.14337-0.29999-0.32146s0.1338-0.32146 0.29999-0.32146h1.6043c0.1662 0 0.29999 0.14337 0.29999 0.32146s-0.1338 0.32146-0.29999 0.32146" fill="url(#b)"/>
  <path d="m61.99 40.432h-1.6043c-0.1662 0-0.29999-0.14337-0.29999-0.32146s0.1338-0.32146 0.29999-0.32146h1.6043c0.1662 0 0.29999 0.14337 0.29999 0.32146s-0.1338 0.32146-0.29999 0.32146" fill="url(#b)"/>
  <path d="m65.737 40.432h-1.6043c-0.1662 0-0.29999-0.14337-0.29999-0.32146s0.1338-0.32146 0.29999-0.32146h1.6043c0.1662 0 0.29999 0.14337 0.29999 0.32146s-0.1338 0.32146-0.29999 0.32146" fill="url(#b)"/>
  <path d="m69.485 40.432h-1.6043c-0.1662 0-0.29999-0.14337-0.29999-0.32146s0.1338-0.32146 0.29999-0.32146h1.6043c0.1662 0 0.29999 0.14337 0.29999 0.32146s-0.1338 0.32146-0.29999 0.32146" fill="url(#b)"/>
  <path d="m73.232 40.432h-1.6043c-0.1662 0-0.29999-0.14337-0.29999-0.32146s0.1338-0.32146 0.29999-0.32146h1.6043c0.1662 0 0.29999 0.14337 0.29999 0.32146s-0.1338 0.32146-0.29999 0.32146" fill="url(#b)"/>
  <path d="m76.979 40.432h-1.6043c-0.1662 0-0.29999-0.14337-0.29999-0.32146s0.1338-0.32146 0.29999-0.32146h1.6043c0.1662 0 0.29999 0.14337 0.29999 0.32146s-0.1338 0.32146-0.29999 0.32146" fill="url(#b)"/>
  <path d="m80.727 40.432h-1.6043c-0.1662 0-0.29999-0.14337-0.29999-0.32146s0.1338-0.32146 0.29999-0.32146h1.6043c0.1662 0 0.3 0.14337 0.3 0.32146s-0.1338 0.32146-0.3 0.32146" fill="url(#b)"/>
  <path d="m84.474 40.432h-1.6043c-0.1662 0-0.29999-0.14337-0.29999-0.32146s0.1338-0.32146 0.29999-0.32146h1.6043c0.1662 0 0.29999 0.14337 0.29999 0.32146s-0.1338 0.32146-0.29999 0.32146" fill="url(#b)"/>
  <path d="m88.221 40.432h-1.6043c-0.1662 0-0.29999-0.14337-0.29999-0.32146s0.1338-0.32146 0.29999-0.32146h1.6043c0.1662 0 0.29999 0.14337 0.29999 0.32146s-0.1338 0.32146-0.29999 0.32146" fill="url(#b)"/>
  <path d="m91.969 40.432h-1.6043c-0.1662 0-0.29999-0.14337-0.29999-0.32146s0.1338-0.32146 0.29999-0.32146h1.6043c0.1662 0 0.29999 0.14337 0.29999 0.32146s-0.1338 0.32146-0.29999 0.32146" fill="url(#b)"/>
  <path d="m95.716 40.432h-1.6043c-0.1662 0-0.29999-0.14337-0.29999-0.32146s0.1338-0.32146 0.29999-0.32146h1.6043c0.1662 0 0.29999 0.14337 0.29999 0.32146s-0.1338 0.32146-0.29999 0.32146" fill="url(#b)"/>
  <path d="m99.463 40.432h-1.6043c-0.1662 0-0.29999-0.14337-0.29999-0.32146s0.1338-0.32146 0.29999-0.32146h1.6043c0.1662 0 0.29999 0.14337 0.29999 0.32146s-0.1338 0.32146-0.29999 0.32146" fill="url(#b)"/>
  <path d="m103.21 40.432h-1.6043c-0.16619 0-0.29999-0.14337-0.29999-0.32146s0.1338-0.32146 0.29999-0.32146h1.6043c0.1662 0 0.3 0.14337 0.3 0.32146s-0.1338 0.32146-0.3 0.32146" fill="url(#b)"/>
  <path d="m106.96 40.432h-1.6043c-0.16619 0-0.29999-0.14337-0.29999-0.32146s0.1338-0.32146 0.29999-0.32146h1.6043c0.1662 0 0.3 0.14337 0.3 0.32146s-0.1338 0.32146-0.3 0.32146" fill="url(#b)"/>
  <path d="m110.71 40.432h-1.6043c-0.1662 0-0.29999-0.14337-0.29999-0.32146s0.13379-0.32146 0.29999-0.32146h1.6043c0.16621 0 0.3 0.14337 0.3 0.32146s-0.13379 0.32146-0.3 0.32146" fill="url(#b)"/>
  <path d="m114.45 40.432h-1.6043c-0.16619 0-0.29999-0.14337-0.29999-0.32146s0.1338-0.32146 0.29999-0.32146h1.6043c0.16619 0 0.29999 0.14337 0.29999 0.32146s-0.1338 0.32146-0.29999 0.32146" fill="url(#b)"/>
  <path d="m118.2 40.432h-1.6043c-0.16619 0-0.29999-0.14337-0.29999-0.32146s0.1338-0.32146 0.29999-0.32146h1.6043c0.1662 0 0.29999 0.14337 0.29999 0.32146s-0.13379 0.32146-0.29999 0.32146" fill="url(#b)"/>
  <path d="m121.95 40.432h-1.6043c-0.16619 0-0.29999-0.14337-0.29999-0.32146s0.1338-0.32146 0.29999-0.32146h1.6043c0.16619 0 0.29999 0.14337 0.29999 0.32146s-0.1338 0.32146-0.29999 0.32146" fill="url(#b)"/>
  <path d="m125.69 40.432h-1.6043c-0.16619 0-0.29999-0.14337-0.29999-0.32146s0.1338-0.32146 0.29999-0.32146h1.6043c0.1662 0 0.3 0.14337 0.3 0.32146s-0.1338 0.32146-0.3 0.32146" fill="url(#b)"/>
  <path d="m129.44 40.432h-1.6043c-0.16621 0-0.3-0.14337-0.3-0.32146s0.13379-0.32146 0.3-0.32146h1.6043c0.1662 0 0.29999 0.14337 0.29999 0.32146s-0.13379 0.32146-0.29999 0.32146" fill="url(#b)"/>
  <path d="m133.19 40.432h-1.6043c-0.16619 0-0.29999-0.14337-0.29999-0.32146s0.1338-0.32146 0.29999-0.32146h1.6043c0.16619 0 0.29999 0.14337 0.29999 0.32146s-0.1338 0.32146-0.29999 0.32146" fill="url(#b)"/>
  <path d="m136.94 40.432h-1.6043c-0.1662 0-0.3-0.14337-0.3-0.32146s0.1338-0.32146 0.3-0.32146h1.6043c0.16619 0 0.29999 0.14337 0.29999 0.32146s-0.1338 0.32146-0.29999 0.32146" fill="url(#b)"/>
  <path d="m140.68 40.432h-1.6043c-0.16619 0-0.29999-0.14337-0.29999-0.32146s0.1338-0.32146 0.29999-0.32146h1.6043c0.16619 0 0.29999 0.14337 0.29999 0.32146s-0.1338 0.32146-0.29999 0.32146" fill="url(#b)"/>
  <path d="m144.43 40.432h-1.6043c-0.16621 0-0.3-0.14337-0.3-0.32146s0.13379-0.32146 0.3-0.32146h1.6043c0.1662 0 0.3 0.14337 0.3 0.32146s-0.1338 0.32146-0.3 0.32146" fill="url(#b)"/>
  <path d="m148.18 40.432h-1.6043c-0.1662 0-0.29999-0.14337-0.29999-0.32146s0.13379-0.32146 0.29999-0.32146h1.6043c0.1662 0 0.29999 0.14337 0.29999 0.32146s-0.13379 0.32146-0.29999 0.32146" fill="url(#b)"/>
  <path d="m146.72 123.18h1.6043c0.16621 0 0.3 0.14337 0.3 0.32146 0 0.1781-0.13379 0.32146-0.3 0.32146h-1.6043c-0.1662 0-0.3-0.14336-0.3-0.32146 0-0.17809 0.1338-0.32146 0.3-0.32146" fill="url(#a)"/>
  <path d="m142.97 123.18h1.6043c0.1662 0 0.29999 0.14337 0.29999 0.32146 0 0.1781-0.13379 0.32146-0.29999 0.32146h-1.6043c-0.1662 0-0.29999-0.14336-0.29999-0.32146 0-0.17809 0.13379-0.32146 0.29999-0.32146" fill="url(#a)"/>
  <path d="m139.23 123.18h1.6043c0.1662 0 0.3 0.14337 0.3 0.32146 0 0.1781-0.1338 0.32146-0.3 0.32146h-1.6043c-0.1662 0-0.3-0.14336-0.3-0.32146 0-0.17809 0.1338-0.32146 0.3-0.32146" fill="url(#a)"/>
  <path d="m135.48 123.18h1.6043c0.16619 0 0.29999 0.14337 0.29999 0.32146 0 0.1781-0.1338 0.32146-0.29999 0.32146h-1.6043c-0.16619 0-0.29999-0.14336-0.29999-0.32146 0-0.17809 0.1338-0.32146 0.29999-0.32146" fill="url(#a)"/>
  <path d="m131.73 123.18h1.6043c0.16619 0 0.29999 0.14337 0.29999 0.32146 0 0.1781-0.1338 0.32146-0.29999 0.32146h-1.6043c-0.1662 0-0.3-0.14336-0.3-0.32146 0-0.17809 0.1338-0.32146 0.3-0.32146" fill="url(#a)"/>
  <path d="m127.98 123.18h1.6043c0.1662 0 0.29999 0.14337 0.29999 0.32146 0 0.1781-0.13379 0.32146-0.29999 0.32146h-1.6043c-0.1662 0-0.29999-0.14336-0.29999-0.32146 0-0.17809 0.13379-0.32146 0.29999-0.32146" fill="url(#a)"/>
  <path d="m124.24 123.18h1.6043c0.1662 0 0.3 0.14337 0.3 0.32146 0 0.1781-0.1338 0.32146-0.3 0.32146h-1.6043c-0.16621 0-0.3-0.14336-0.3-0.32146 0-0.17809 0.13379-0.32146 0.3-0.32146" fill="url(#a)"/>
  <path d="m120.49 123.18h1.6043c0.16619 0 0.29999 0.14337 0.29999 0.32146 0 0.1781-0.1338 0.32146-0.29999 0.32146h-1.6043c-0.16619 0-0.29999-0.14336-0.29999-0.32146 0-0.17809 0.1338-0.32146 0.29999-0.32146" fill="url(#a)"/>
  <path d="m116.74 123.18h1.6043c0.16619 0 0.29999 0.14337 0.29999 0.32146 0 0.1781-0.1338 0.32146-0.29999 0.32146h-1.6043c-0.1662 0-0.3-0.14336-0.3-0.32146 0-0.17809 0.1338-0.32146 0.3-0.32146" fill="url(#a)"/>
  <path d="m113 123.18h1.6043c0.16619 0 0.29999 0.14337 0.29999 0.32146 0 0.1781-0.1338 0.32146-0.29999 0.32146h-1.6043c-0.16619 0-0.29999-0.14336-0.29999-0.32146 0-0.17809 0.1338-0.32146 0.29999-0.32146" fill="url(#a)"/>
  <path d="m109.25 123.18h1.6043c0.1662 0 0.29999 0.14337 0.29999 0.32146 0 0.1781-0.13379 0.32146-0.29999 0.32146h-1.6043c-0.16621 0-0.29999-0.14336-0.29999-0.32146 0-0.17809 0.13378-0.32146 0.29999-0.32146" fill="url(#a)"/>
  <path d="m105.5 123.18h1.6043c0.16621 0 0.3 0.14337 0.3 0.32146 0 0.1781-0.13379 0.32146-0.3 0.32146h-1.6043c-0.16619 0-0.29999-0.14336-0.29999-0.32146 0-0.17809 0.1338-0.32146 0.29999-0.32146" fill="url(#a)"/>
  <path d="m101.75 123.18h1.6043c0.16619 0 0.29999 0.14337 0.29999 0.32146 0 0.1781-0.1338 0.32146-0.29999 0.32146h-1.6043c-0.16619 0-0.29999-0.14336-0.29999-0.32146 0-0.17809 0.1338-0.32146 0.29999-0.32146" fill="url(#a)"/>
  <path d="m98.006 123.18h1.6043c0.1662 0 0.29999 0.14337 0.29999 0.32146 0 0.1781-0.13379 0.32146-0.29999 0.32146h-1.6043c-0.1662 0-0.29999-0.14336-0.29999-0.32146 0-0.17809 0.1338-0.32146 0.29999-0.32146" fill="url(#a)"/>
  <path d="m94.258 123.18h1.6043c0.1662 0 0.29999 0.14337 0.29999 0.32146 0 0.1781-0.1338 0.32146-0.29999 0.32146h-1.6043c-0.1662 0-0.29999-0.14336-0.29999-0.32146 0-0.17809 0.1338-0.32146 0.29999-0.32146" fill="url(#a)"/>
  <path d="m90.511 123.18h1.6043c0.1662 0 0.29999 0.14337 0.29999 0.32146 0 0.1781-0.1338 0.32146-0.29999 0.32146h-1.6043c-0.1662 0-0.29999-0.14336-0.29999-0.32146 0-0.17809 0.1338-0.32146 0.29999-0.32146" fill="url(#a)"/>
  <path d="m86.764 123.18h1.6043c0.1662 0 0.29999 0.14337 0.29999 0.32146 0 0.1781-0.1338 0.32146-0.29999 0.32146h-1.6043c-0.1662 0-0.29999-0.14336-0.29999-0.32146 0-0.17809 0.1338-0.32146 0.29999-0.32146" fill="url(#a)"/>
  <path d="m83.017 123.18h1.6043c0.1662 0 0.29999 0.14337 0.29999 0.32146 0 0.1781-0.1338 0.32146-0.29999 0.32146h-1.6043c-0.1662 0-0.3-0.14336-0.3-0.32146 0-0.17809 0.1338-0.32146 0.3-0.32146" fill="url(#a)"/>
  <path d="m79.269 123.18h1.6043c0.1662 0 0.29999 0.14337 0.29999 0.32146 0 0.1781-0.1338 0.32146-0.29999 0.32146h-1.6043c-0.1662 0-0.29999-0.14336-0.29999-0.32146 0-0.17809 0.1338-0.32146 0.29999-0.32146" fill="url(#a)"/>
  <path d="m75.522 123.18h1.6043c0.1662 0 0.29999 0.14337 0.29999 0.32146 0 0.1781-0.1338 0.32146-0.29999 0.32146h-1.6043c-0.1662 0-0.29999-0.14336-0.29999-0.32146 0-0.17809 0.1338-0.32146 0.29999-0.32146" fill="url(#a)"/>
  <path d="m71.775 123.18h1.6043c0.1662 0 0.29999 0.14337 0.29999 0.32146 0 0.1781-0.1338 0.32146-0.29999 0.32146h-1.6043c-0.1662 0-0.29999-0.14336-0.29999-0.32146 0-0.17809 0.1338-0.32146 0.29999-0.32146" fill="url(#a)"/>
  <path d="m68.027 123.18h1.6043c0.1662 0 0.29999 0.14337 0.29999 0.32146 0 0.1781-0.1338 0.32146-0.29999 0.32146h-1.6043c-0.1662 0-0.29999-0.14336-0.29999-0.32146 0-0.17809 0.1338-0.32146 0.29999-0.32146" fill="url(#a)"/>
  <path d="m64.28 123.18h1.6043c0.1662 0 0.29999 0.14337 0.29999 0.32146 0 0.1781-0.1338 0.32146-0.29999 0.32146h-1.6043c-0.1662 0-0.29999-0.14336-0.29999-0.32146 0-0.17809 0.1338-0.32146 0.29999-0.32146" fill="url(#a)"/>
  <path d="m60.533 123.18h1.6043c0.1662 0 0.29999 0.14337 0.29999 0.32146 0 0.1781-0.1338 0.32146-0.29999 0.32146h-1.6043c-0.1662 0-0.29999-0.14336-0.29999-0.32146 0-0.17809 0.1338-0.32146 0.29999-0.32146" fill="url(#a)"/>
  <path d="m56.785 123.18h1.6043c0.1662 0 0.29999 0.14337 0.29999 0.32146 0 0.1781-0.1338 0.32146-0.29999 0.32146h-1.6043c-0.1662 0-0.3-0.14336-0.3-0.32146 0-0.17809 0.1338-0.32146 0.3-0.32146" fill="url(#a)"/>
  <path d="m53.038 123.18h1.6043c0.1662 0 0.29999 0.14337 0.29999 0.32146 0 0.1781-0.1338 0.32146-0.29999 0.32146h-1.6043c-0.1662 0-0.29999-0.14336-0.29999-0.32146 0-0.17809 0.1338-0.32146 0.29999-0.32146" fill="url(#a)"/>
  <path d="m49.291 123.18h1.6043c0.1662 0 0.29999 0.14337 0.29999 0.32146 0 0.1781-0.1338 0.32146-0.29999 0.32146h-1.6043c-0.1662 0-0.29999-0.14336-0.29999-0.32146 0-0.17809 0.1338-0.32146 0.29999-0.32146" fill="url(#a)"/>
  <path d="m45.543 123.18h1.6043c0.1662 0 0.29999 0.14337 0.29999 0.32146 0 0.1781-0.1338 0.32146-0.29999 0.32146h-1.6043c-0.1662 0-0.3-0.14336-0.3-0.32146 0-0.17809 0.1338-0.32146 0.3-0.32146" fill="url(#a)"/>
  <path d="m41.796 123.18h1.6043c0.1662 0 0.29999 0.14337 0.29999 0.32146 0 0.1781-0.1338 0.32146-0.29999 0.32146h-1.6043c-0.1662 0-0.29999-0.14336-0.29999-0.32146 0-0.17809 0.1338-0.32146 0.29999-0.32146" fill="url(#a)"/>
  <path d="m38.049 123.18h1.6043c0.1662 0 0.29999 0.14337 0.29999 0.32146 0 0.1781-0.1338 0.32146-0.29999 0.32146h-1.6043c-0.1662 0-0.29999-0.14336-0.29999-0.32146 0-0.17809 0.1338-0.32146 0.29999-0.32146" fill="url(#a)"/>
  <path d="m34.301 123.18h1.6043c0.1662 0 0.29999 0.14337 0.29999 0.32146 0 0.1781-0.1338 0.32146-0.29999 0.32146h-1.6043c-0.1662 0-0.29999-0.14336-0.29999-0.32146 0-0.17809 0.1338-0.32146 0.29999-0.32146" fill="url(#a)"/>
  <path d="m148.52 43.19v-1.6043c0-0.1662 0.14337-0.29999 0.32146-0.29999s0.32146 0.1338 0.32146 0.29999v1.6043c0 0.1662-0.14337 0.3-0.32146 0.3s-0.32146-0.1338-0.32146-0.3" fill="url(#bq)"/>
  <path d="m148.52 88.158v-1.6043c0-0.1662 0.14337-0.29999 0.32146-0.29999s0.32146 0.1338 0.32146 0.29999v1.6043c0 0.1662-0.14337 0.3-0.32146 0.3s-0.32146-0.1338-0.32146-0.3" fill="url(#br)"/>
  <path d="m148.52 65.674v-1.6043c0-0.1662 0.14337-0.29999 0.32146-0.29999s0.32146 0.1338 0.32146 0.29999v1.6043c0 0.1662-0.14337 0.3-0.32146 0.3s-0.32146-0.1338-0.32146-0.3" fill="url(#bs)"/>
  <path d="m148.52 110.64v-1.6043c0-0.1662 0.14337-0.29999 0.32146-0.29999s0.32146 0.13379 0.32146 0.29999v1.6043c0 0.1662-0.14337 0.3-0.32146 0.3s-0.32146-0.1338-0.32146-0.3" fill="url(#bt)"/>
  <path d="m148.52 54.432v-1.6043c0-0.1662 0.14337-0.29999 0.32146-0.29999s0.32146 0.1338 0.32146 0.29999v1.6043c0 0.1662-0.14337 0.3-0.32146 0.3s-0.32146-0.1338-0.32146-0.3" fill="url(#bu)"/>
  <path d="m148.52 99.4v-1.6043c0-0.1662 0.14337-0.29999 0.32146-0.29999s0.32146 0.1338 0.32146 0.29999v1.6043c0 0.1662-0.14337 0.3-0.32146 0.3s-0.32146-0.1338-0.32146-0.3" fill="url(#bv)"/>
  <path d="m148.52 76.916v-1.6043c0-0.1662 0.14337-0.29999 0.32146-0.29999s0.32146 0.1338 0.32146 0.29999v1.6043c0 0.1662-0.14337 0.3-0.32146 0.3s-0.32146-0.1338-0.32146-0.3" fill="url(#bw)"/>
  <path d="m148.52 121.88v-1.6043c0-0.1662 0.14337-0.3 0.32146-0.3s0.32146 0.1338 0.32146 0.3v1.6043c0 0.1662-0.14337 0.3-0.32146 0.3s-0.32146-0.1338-0.32146-0.3" fill="url(#ap)"/>
  <path d="m148.52 46.937v-1.6043c0-0.1662 0.14337-0.29999 0.32146-0.29999s0.32146 0.1338 0.32146 0.29999v1.6043c0 0.1662-0.14337 0.3-0.32146 0.3s-0.32146-0.1338-0.32146-0.3" fill="url(#aq)"/>
  <path d="m148.52 91.905v-1.6043c0-0.1662 0.14337-0.29999 0.32146-0.29999s0.32146 0.1338 0.32146 0.29999v1.6043c0 0.1662-0.14337 0.3-0.32146 0.3s-0.32146-0.1338-0.32146-0.3" fill="url(#ar)"/>
  <path d="m148.52 69.421v-1.6043c0-0.1662 0.14337-0.29999 0.32146-0.29999s0.32146 0.1338 0.32146 0.29999v1.6043c0 0.1662-0.14337 0.3-0.32146 0.3s-0.32146-0.1338-0.32146-0.3" fill="url(#as)"/>
  <path d="m148.52 114.39v-1.6043c0-0.1662 0.14337-0.29999 0.32146-0.29999s0.32146 0.13379 0.32146 0.29999v1.6043c0 0.16619-0.14337 0.29999-0.32146 0.29999s-0.32146-0.1338-0.32146-0.29999" fill="url(#at)"/>
  <path d="m148.52 58.179v-1.6043c0-0.1662 0.14337-0.29999 0.32146-0.29999s0.32146 0.1338 0.32146 0.29999v1.6043c0 0.1662-0.14337 0.3-0.32146 0.3s-0.32146-0.1338-0.32146-0.3" fill="url(#au)"/>
  <path d="m148.52 103.15v-1.6043c0-0.16619 0.14337-0.29999 0.32146-0.29999s0.32146 0.1338 0.32146 0.29999v1.6043c0 0.16619-0.14337 0.29999-0.32146 0.29999s-0.32146-0.1338-0.32146-0.29999" fill="url(#av)"/>
  <path d="m148.52 80.663v-1.6043c0-0.1662 0.14337-0.29999 0.32146-0.29999s0.32146 0.1338 0.32146 0.29999v1.6043c0 0.1662-0.14337 0.3-0.32146 0.3s-0.32146-0.1338-0.32146-0.3" fill="url(#aw)"/>
  <path d="m148.52 50.685v-1.6043c0-0.1662 0.14337-0.29999 0.32146-0.29999s0.32146 0.1338 0.32146 0.29999v1.6043c0 0.1662-0.14337 0.3-0.32146 0.3s-0.32146-0.1338-0.32146-0.3" fill="url(#ax)"/>
  <path d="m148.52 95.653v-1.6043c0-0.1662 0.14337-0.29999 0.32146-0.29999s0.32146 0.1338 0.32146 0.29999v1.6043c0 0.1662-0.14337 0.3-0.32146 0.3s-0.32146-0.1338-0.32146-0.3" fill="url(#ay)"/>
  <path d="m148.52 73.169v-1.6043c0-0.1662 0.14337-0.29999 0.32146-0.29999s0.32146 0.1338 0.32146 0.29999v1.6043c0 0.1662-0.14337 0.3-0.32146 0.3s-0.32146-0.1338-0.32146-0.3" fill="url(#az)"/>
  <path d="m148.52 118.14v-1.6043c0-0.16619 0.14337-0.29999 0.32146-0.29999s0.32146 0.1338 0.32146 0.29999v1.6043c0 0.1662-0.14337 0.29999-0.32146 0.29999s-0.32146-0.13379-0.32146-0.29999" fill="url(#ba)"/>
  <path d="m148.52 61.927v-1.6043c0-0.1662 0.14337-0.29999 0.32146-0.29999s0.32146 0.1338 0.32146 0.29999v1.6043c0 0.1662-0.14337 0.3-0.32146 0.3s-0.32146-0.1338-0.32146-0.3" fill="url(#bb)"/>
  <path d="m148.52 106.89v-1.6043c0-0.1662 0.14337-0.3 0.32146-0.3s0.32146 0.1338 0.32146 0.3v1.6043c0 0.1662-0.14337 0.3-0.32146 0.3s-0.32146-0.1338-0.32146-0.3" fill="url(#ao)"/>
  <path d="m148.52 106.89v-1.6043c0-0.1662 0.14337-0.3 0.32146-0.3s0.32146 0.1338 0.32146 0.3v1.6043c0 0.1662-0.14337 0.3-0.32146 0.3s-0.32146-0.1338-0.32146-0.3" fill="url(#ao)"/>
  <path d="m148.52 84.411v-1.6043c0-0.1662 0.14337-0.29999 0.32146-0.29999s0.32146 0.1338 0.32146 0.29999v1.6043c0 0.1662-0.14337 0.3-0.32146 0.3s-0.32146-0.1338-0.32146-0.3" fill="url(#bc)"/>
  <path d="m35.759 40.432h-1.6043c-0.1662 0-0.29999-0.14337-0.29999-0.32146s0.1338-0.32146 0.29999-0.32146h1.6043c0.1662 0 0.29999 0.14337 0.29999 0.32146s-0.1338 0.32146-0.29999 0.32146" fill="url(#bd)"/>
  <g fill="url(#be)">
   <path d="m148.52 43.19v-1.6043c0-0.1662 0.14337-0.29999 0.32146-0.29999s0.32146 0.1338 0.32146 0.29999v1.6043c0 0.1662-0.14337 0.3-0.32146 0.3s-0.32146-0.1338-0.32146-0.3"/>
   <path d="m148.52 88.158v-1.6043c0-0.1662 0.14337-0.29999 0.32146-0.29999s0.32146 0.1338 0.32146 0.29999v1.6043c0 0.1662-0.14337 0.3-0.32146 0.3s-0.32146-0.1338-0.32146-0.3"/>
   <path d="m148.52 65.674v-1.6043c0-0.1662 0.14337-0.29999 0.32146-0.29999s0.32146 0.1338 0.32146 0.29999v1.6043c0 0.1662-0.14337 0.3-0.32146 0.3s-0.32146-0.1338-0.32146-0.3"/>
   <path d="m148.52 110.64v-1.6043c0-0.1662 0.14337-0.29999 0.32146-0.29999s0.32146 0.13379 0.32146 0.29999v1.6043c0 0.1662-0.14337 0.3-0.32146 0.3s-0.32146-0.1338-0.32146-0.3"/>
   <path d="m148.52 54.432v-1.6043c0-0.1662 0.14337-0.29999 0.32146-0.29999s0.32146 0.1338 0.32146 0.29999v1.6043c0 0.1662-0.14337 0.3-0.32146 0.3s-0.32146-0.1338-0.32146-0.3"/>
   <path d="m148.52 99.4v-1.6043c0-0.1662 0.14337-0.29999 0.32146-0.29999s0.32146 0.1338 0.32146 0.29999v1.6043c0 0.1662-0.14337 0.3-0.32146 0.3s-0.32146-0.1338-0.32146-0.3"/>
   <path d="m148.52 76.916v-1.6043c0-0.1662 0.14337-0.29999 0.32146-0.29999s0.32146 0.1338 0.32146 0.29999v1.6043c0 0.1662-0.14337 0.3-0.32146 0.3s-0.32146-0.1338-0.32146-0.3"/>
   <path d="m148.52 121.88v-1.6043c0-0.1662 0.14337-0.3 0.32146-0.3s0.32146 0.1338 0.32146 0.3v1.6043c0 0.1662-0.14337 0.3-0.32146 0.3s-0.32146-0.1338-0.32146-0.3"/>
   <path d="m148.52 46.937v-1.6043c0-0.1662 0.14337-0.29999 0.32146-0.29999s0.32146 0.1338 0.32146 0.29999v1.6043c0 0.1662-0.14337 0.3-0.32146 0.3s-0.32146-0.1338-0.32146-0.3"/>
   <path d="m148.52 91.905v-1.6043c0-0.1662 0.14337-0.29999 0.32146-0.29999s0.32146 0.1338 0.32146 0.29999v1.6043c0 0.1662-0.14337 0.3-0.32146 0.3s-0.32146-0.1338-0.32146-0.3"/>
   <path d="m148.52 69.421v-1.6043c0-0.1662 0.14337-0.29999 0.32146-0.29999s0.32146 0.1338 0.32146 0.29999v1.6043c0 0.1662-0.14337 0.3-0.32146 0.3s-0.32146-0.1338-0.32146-0.3"/>
   <path d="m148.52 114.39v-1.6043c0-0.1662 0.14337-0.29999 0.32146-0.29999s0.32146 0.13379 0.32146 0.29999v1.6043c0 0.16619-0.14337 0.29999-0.32146 0.29999s-0.32146-0.1338-0.32146-0.29999"/>
   <path d="m148.52 58.179v-1.6043c0-0.1662 0.14337-0.29999 0.32146-0.29999s0.32146 0.1338 0.32146 0.29999v1.6043c0 0.1662-0.14337 0.3-0.32146 0.3s-0.32146-0.1338-0.32146-0.3"/>
   <path d="m148.52 103.15v-1.6043c0-0.16619 0.14337-0.29999 0.32146-0.29999s0.32146 0.1338 0.32146 0.29999v1.6043c0 0.16619-0.14337 0.29999-0.32146 0.29999s-0.32146-0.1338-0.32146-0.29999"/>
   <path d="m148.52 80.663v-1.6043c0-0.1662 0.14337-0.29999 0.32146-0.29999s0.32146 0.1338 0.32146 0.29999v1.6043c0 0.1662-0.14337 0.3-0.32146 0.3s-0.32146-0.1338-0.32146-0.3"/>
   <path d="m148.52 50.685v-1.6043c0-0.1662 0.14337-0.29999 0.32146-0.29999s0.32146 0.1338 0.32146 0.29999v1.6043c0 0.1662-0.14337 0.3-0.32146 0.3s-0.32146-0.1338-0.32146-0.3"/>
   <path d="m148.52 95.653v-1.6043c0-0.1662 0.14337-0.29999 0.32146-0.29999s0.32146 0.1338 0.32146 0.29999v1.6043c0 0.1662-0.14337 0.3-0.32146 0.3s-0.32146-0.1338-0.32146-0.3"/>
   <path d="m148.52 73.169v-1.6043c0-0.1662 0.14337-0.29999 0.32146-0.29999s0.32146 0.1338 0.32146 0.29999v1.6043c0 0.1662-0.14337 0.3-0.32146 0.3s-0.32146-0.1338-0.32146-0.3"/>
   <path d="m148.52 118.14v-1.6043c0-0.16619 0.14337-0.29999 0.32146-0.29999s0.32146 0.1338 0.32146 0.29999v1.6043c0 0.1662-0.14337 0.29999-0.32146 0.29999s-0.32146-0.13379-0.32146-0.29999"/>
   <path d="m148.52 61.927v-1.6043c0-0.1662 0.14337-0.29999 0.32146-0.29999s0.32146 0.1338 0.32146 0.29999v1.6043c0 0.1662-0.14337 0.3-0.32146 0.3s-0.32146-0.1338-0.32146-0.3"/>
   <path d="m148.52 106.89v-1.6043c0-0.1662 0.14337-0.3 0.32146-0.3s0.32146 0.1338 0.32146 0.3v1.6043c0 0.1662-0.14337 0.3-0.32146 0.3s-0.32146-0.1338-0.32146-0.3"/>
   <path d="m148.52 84.411v-1.6043c0-0.1662 0.14337-0.29999 0.32146-0.29999s0.32146 0.1338 0.32146 0.29999v1.6043c0 0.1662-0.14337 0.3-0.32146 0.3s-0.32146-0.1338-0.32146-0.3"/>
  </g>
  <g transform="matrix(.81913 0 0 .90258 20.047 16.509)" fill="url(#bf)">
   <path d="m130.8 109.67 0.71114 2.5503h0.90731l0.95635-3.4331h-0.73566l-0.71113 2.5748h-0.0245l-0.70133-2.5748h-0.82884l-0.70132 2.5748h-0.0245l-0.71113-2.5748h-0.73566l0.95636 3.4331h0.90731l0.71113-2.5503z"/>
   <path d="m135.79 108.78h-0.85827l-1.4223 3.4331h0.73566l0.26974-0.68662h1.692l0.26974 0.68662h0.73566zm-0.4414 0.73566h0.0245l0.58852 1.4223h-1.2016z"/>
   <path d="m137.66 112.22h2.6238v-0.56401h-1.9372v-2.8691h-0.68661z"/>
   <path d="m140.77 112.22h2.6238v-0.56401h-1.9372v-2.8691h-0.68662z"/>
   <path d="m143.89 112.22h2.7955v-0.56401h-2.1089v-0.85826h1.4223v-0.564h-1.4223v-0.88279h2.0598v-0.56401h-2.7464z"/>
   <path d="m147.11 108.78v0.56401h1.177v2.8691h0.68661v-2.8691h1.177v-0.56401z"/>
  </g>
  <g transform="matrix(.85985 0 0 .85985 20.047 16.509)" fill="url(#bg)">
   <path d="m124.61 115.17 0.67747 2.4295h0.86435l0.91107-3.2705h-0.70083l-0.67746 2.4529h-0.0234l-0.66812-2.4529h-0.78959l-0.66812 2.4529h-0.0234l-0.67747-2.4529h-0.70082l0.91107 3.2705h0.86435l0.67746-2.4295z"/>
   <path d="m129.36 114.33h-0.81763l-1.3549 3.2705h0.70083l0.25697-0.65411h1.6119l0.25697 0.65411h0.70082zm-0.4205 0.70082h0.0234l0.56066 1.3549h-1.1447z"/>
   <path d="m131.14 117.6h2.4996v-0.5373h-1.8455v-2.7332h-0.6541z"/>
   <path d="m134.11 117.6h2.4996v-0.5373h-1.8455v-2.7332h-0.6541z"/>
   <path d="m137.07 117.6h2.6631v-0.5373h-2.009v-0.81763h1.3549v-0.5373h-1.3549v-0.84099h1.9623v-0.53729h-2.6164z"/>
   <path d="m140.13 114.33v0.53729h1.1213v2.7332h0.6541v-2.7332h1.1213v-0.53729z"/>
  </g>
 </g>
</svg>
